<svg width="40" height="41" viewBox="0 0 40 41" fill="none" xmlns="http://www.w3.org/2000/svg">
<path d="M0 10.0996C0 4.57676 4.47715 0.0996094 10 0.0996094H30C35.5228 0.0996094 40 4.57676 40 10.0996V30.0996C40 35.6225 35.5228 40.0996 30 40.0996H10C4.47715 40.0996 0 35.6225 0 30.0996V10.0996Z" fill="#818C99" fill-opacity="0.1"/>
<path d="M27.9991 13.5958L25.4691 26.5158C25.4691 26.5158 25.1141 27.4128 24.1411 26.9828L20.5141 24.1668L20.5401 24.1878L18.2301 26.3208C18.2301 26.3208 18.0501 26.4598 17.8521 26.3728L18.3191 22.3418C18.3191 22.3418 24.7961 16.4448 25.0621 16.1938C25.3271 15.9438 25.2381 15.8898 25.2381 15.8898C25.2561 15.5848 24.7601 15.8898 24.7601 15.8898L16.1791 21.4098L12.6051 20.1918C12.6051 20.1918 12.0571 19.9938 12.0031 19.5638C11.9491 19.1338 12.6231 18.9008 12.6231 18.9008L26.8311 13.2548C26.8311 13.2548 27.9991 12.7358 27.9991 13.5958Z" fill="#171717"/>
</svg>
