<svg width="40" height="41" viewBox="0 0 40 41" fill="none" xmlns="http://www.w3.org/2000/svg">
<path d="M0 10.5996C0 5.07676 4.47715 0.599609 10 0.599609H30C35.5228 0.599609 40 5.07676 40 10.5996V30.5996C40 36.1225 35.5228 40.5996 30 40.5996H10C4.47715 40.5996 0 36.1225 0 30.5996V10.5996Z" fill="#818C99" fill-opacity="0.04"/>
<path d="M10 1.09961H30C35.2467 1.09961 39.5 5.3529 39.5 10.5996V30.5996C39.5 35.8463 35.2467 40.0996 30 40.0996H10C4.7533 40.0996 0.5 35.8463 0.5 30.5996V10.5996C0.5 5.3529 4.7533 1.09961 10 1.09961Z" stroke="#171717" stroke-opacity="0.04"/>
<path d="M5 18.9922V12.1969H6.80652V15.1846H6.83431L9.32175 12.1969H11.4896L8.97435 15.1151L11.6424 18.9922H9.54409L7.6403 16.1573L6.80652 17.1162V18.9922H5Z" fill="#818C99" fill-opacity="0.15"/>
<path d="M15.1667 19.1172C13.3046 19.1172 11.9288 17.7137 11.9288 15.6154C11.9288 13.5587 13.3046 12.0996 15.125 12.0996C15.9171 12.0996 16.6397 12.4053 17.1261 12.989L17.1539 12.9751V12.1969H18.9743V18.9922H17.2372V18.1862L17.2094 18.1723C16.737 18.7837 16.056 19.1172 15.1667 19.1172ZM15.5141 17.4775C16.4451 17.4775 17.2372 16.741 17.2372 15.6293C17.2372 14.5315 16.4868 13.7255 15.5141 13.7255C14.5275 13.7255 13.7771 14.462 13.7771 15.6293C13.7771 16.7132 14.4858 17.4775 15.5141 17.4775Z" fill="#818C99" fill-opacity="0.15"/>
<path d="M20.7215 18.9922V12.1969H26.7803V18.9922H24.9599V13.7394H22.5419V18.9922H20.7215Z" fill="#818C99" fill-opacity="0.15"/>
<path d="M28.5959 18.9922V12.1969H30.4024V16.5186H30.4302L33.2511 12.1969H34.9743V18.9922H33.1678V14.865H33.14L30.3468 18.9922H28.5959Z" fill="#818C99" fill-opacity="0.15"/>
<path d="M5.04437 27.4197V20.9553H10.8081V27.4197H9.07634V22.4227H6.77613V27.4197H5.04437Z" fill="#818C99" fill-opacity="0.15"/>
<path d="M15.2461 27.5387C13.4746 27.5387 12.1659 26.2035 12.1659 24.2073C12.1659 22.2508 13.4746 20.8628 15.2064 20.8628C15.9599 20.8628 16.6473 21.1536 17.11 21.7088L17.1365 21.6956V20.9553H18.8682V27.4197H17.2158V26.653L17.1893 26.6397C16.7399 27.2214 16.0921 27.5387 15.2461 27.5387ZM15.5766 25.9788C16.4623 25.9788 17.2158 25.2781 17.2158 24.2206C17.2158 23.1762 16.5019 22.4095 15.5766 22.4095C14.638 22.4095 13.9241 23.1101 13.9241 24.2206C13.9241 25.2517 14.5983 25.9788 15.5766 25.9788Z" fill="#818C99" fill-opacity="0.15"/>
<path d="M20.5312 30.0372V20.9553H22.263V21.6956H22.2894C22.7521 21.1536 23.4395 20.8628 24.2327 20.8628C25.9777 20.8628 27.2864 22.2508 27.2864 24.2073C27.2864 26.2035 25.9777 27.5387 24.1798 27.5387C23.3734 27.5387 22.7389 27.2346 22.2894 26.6926L22.263 26.7058V30.0372H20.5312ZM23.8758 25.9788C24.8408 25.9788 25.5282 25.2517 25.5282 24.2206C25.5282 23.1101 24.7879 22.4095 23.8625 22.4095C22.8711 22.4095 22.1837 23.1762 22.1837 24.2206C22.1837 25.2781 22.924 25.9788 23.8758 25.9788Z" fill="#818C99" fill-opacity="0.15"/>
<path d="M31.3784 27.5387C29.607 27.5387 28.2982 26.2035 28.2982 24.2073C28.2982 22.2508 29.607 20.8628 31.3387 20.8628C32.0923 20.8628 32.7797 21.1536 33.2424 21.7088L33.2688 21.6956V20.9553H35.0006V27.4197H33.3481V26.653L33.3217 26.6397C32.8722 27.2214 32.2245 27.5387 31.3784 27.5387ZM31.7089 25.9788C32.5946 25.9788 33.3481 25.2781 33.3481 24.2206C33.3481 23.1762 32.6343 22.4095 31.7089 22.4095C30.7703 22.4095 30.0564 23.1101 30.0564 24.2206C30.0564 25.2517 30.7306 25.9788 31.7089 25.9788Z" fill="#818C99" fill-opacity="0.15"/>
<rect x="8" y="8.59961" width="23.9995" height="23.9995" rx="11.9997" fill="white"/>
<path d="M19.3554 15.1318C22.1227 15.1318 24.366 17.3753 24.366 20.1427C24.366 21.28 23.9871 22.3288 23.3487 23.1698L25.0757 24.901C25.3424 25.168 25.3421 25.6006 25.0751 25.8673C24.8081 26.1339 24.3755 26.1337 24.1088 25.8667L22.3823 24.1362C21.5414 24.7747 20.4926 25.1536 19.3554 25.1536C16.5881 25.1536 14.3447 22.9101 14.3447 20.1427C14.3447 17.3753 16.5881 15.1318 19.3554 15.1318ZM19.3554 16.4984C17.3428 16.4984 15.7113 18.13 15.7113 20.1427C15.7113 22.1554 17.3428 23.787 19.3554 23.787C21.368 23.787 22.9995 22.1554 22.9995 20.1427C22.9995 18.13 21.368 16.4984 19.3554 16.4984Z" fill="#171717"/>
</svg>
