<svg width="67" height="68" viewBox="0 0 67 68" fill="none" xmlns="http://www.w3.org/2000/svg">
<path d="M0 5.09961C0 2.33819 2.23858 0.0996094 5 0.0996094H62C64.7614 0.0996094 67 2.33819 67 5.09961V62.0996C67 64.861 64.7614 67.0996 62 67.0996H5C2.23858 67.0996 0 64.861 0 62.0996V5.09961Z" fill="white"/>
<g clip-path="url(#clip0_20_6049)">
<path d="M64 4.09961H4V64.0996H64V4.09961Z" fill="white"/>
<path d="M5.46341 4.09961H4V5.56302H5.46341V4.09961Z" fill="black"/>
<path d="M6.92631 4.09961H5.46289V5.56302H6.92631V4.09961Z" fill="black"/>
<path d="M8.39017 4.09961H6.92676V5.56302H8.39017V4.09961Z" fill="black"/>
<path d="M9.85404 4.09961H8.39062V5.56302H9.85404V4.09961Z" fill="black"/>
<path d="M11.3169 4.09961H9.85352V5.56302H11.3169V4.09961Z" fill="black"/>
<path d="M12.7808 4.09961H11.3174V5.56302H12.7808V4.09961Z" fill="black"/>
<path d="M14.2437 4.09961H12.7803V5.56302H14.2437V4.09961Z" fill="black"/>
<path d="M17.1704 4.09961H15.707V5.56302H17.1704V4.09961Z" fill="black"/>
<path d="M18.6343 4.09961H17.1709V5.56302H18.6343V4.09961Z" fill="black"/>
<path d="M20.0972 4.09961H18.6338V5.56302H20.0972V4.09961Z" fill="black"/>
<path d="M21.5611 4.09961H20.0977V5.56302H21.5611V4.09961Z" fill="black"/>
<path d="M23.0249 4.09961H21.5615V5.56302H23.0249V4.09961Z" fill="black"/>
<path d="M27.4146 4.09961H25.9512V5.56302H27.4146V4.09961Z" fill="black"/>
<path d="M28.8775 4.09961H27.4141V5.56302H28.8775V4.09961Z" fill="black"/>
<path d="M31.8052 4.09961H30.3418V5.56302H31.8052V4.09961Z" fill="black"/>
<path d="M34.732 4.09961H33.2686V5.56302H34.732V4.09961Z" fill="black"/>
<path d="M37.6587 4.09961H36.1953V5.56302H37.6587V4.09961Z" fill="black"/>
<path d="M44.9751 4.09961H43.5117V5.56302H44.9751V4.09961Z" fill="black"/>
<path d="M46.439 4.09961H44.9756V5.56302H46.439V4.09961Z" fill="black"/>
<path d="M47.9019 4.09961H46.4385V5.56302H47.9019V4.09961Z" fill="black"/>
<path d="M49.3658 4.09961H47.9023V5.56302H49.3658V4.09961Z" fill="black"/>
<path d="M50.8296 4.09961H49.3662V5.56302H50.8296V4.09961Z" fill="black"/>
<path d="M52.2925 4.09961H50.8291V5.56302H52.2925V4.09961Z" fill="black"/>
<path d="M55.2193 4.09961H53.7559V5.56302H55.2193V4.09961Z" fill="black"/>
<path d="M56.6831 4.09961H55.2197V5.56302H56.6831V4.09961Z" fill="black"/>
<path d="M58.146 4.09961H56.6826V5.56302H58.146V4.09961Z" fill="black"/>
<path d="M59.6099 4.09961H58.1465V5.56302H59.6099V4.09961Z" fill="black"/>
<path d="M61.0728 4.09961H59.6094V5.56302H61.0728V4.09961Z" fill="black"/>
<path d="M62.5367 4.09961H61.0732V5.56302H62.5367V4.09961Z" fill="black"/>
<path d="M64.0005 4.09961H62.5371V5.56302H64.0005V4.09961Z" fill="black"/>
<path d="M5.46341 5.56348H4V7.02689H5.46341V5.56348Z" fill="black"/>
<path d="M14.2437 5.56348H12.7803V7.02689H14.2437V5.56348Z" fill="black"/>
<path d="M18.6343 5.56348H17.1709V7.02689H18.6343V5.56348Z" fill="black"/>
<path d="M20.0972 5.56348H18.6338V7.02689H20.0972V5.56348Z" fill="black"/>
<path d="M23.0249 5.56348H21.5615V7.02689H23.0249V5.56348Z" fill="black"/>
<path d="M24.4878 5.56348H23.0244V7.02689H24.4878V5.56348Z" fill="black"/>
<path d="M25.9517 5.56348H24.4883V7.02689H25.9517V5.56348Z" fill="black"/>
<path d="M27.4146 5.56348H25.9512V7.02689H27.4146V5.56348Z" fill="black"/>
<path d="M31.8052 5.56348H30.3418V7.02689H31.8052V5.56348Z" fill="black"/>
<path d="M33.2681 5.56348H31.8047V7.02689H33.2681V5.56348Z" fill="black"/>
<path d="M37.6587 5.56348H36.1953V7.02689H37.6587V5.56348Z" fill="black"/>
<path d="M42.0494 5.56348H40.5859V7.02689H42.0494V5.56348Z" fill="black"/>
<path d="M43.5122 5.56348H42.0488V7.02689H43.5122V5.56348Z" fill="black"/>
<path d="M49.3658 5.56348H47.9023V7.02689H49.3658V5.56348Z" fill="black"/>
<path d="M52.2925 5.56348H50.8291V7.02689H52.2925V5.56348Z" fill="black"/>
<path d="M55.2193 5.56348H53.7559V7.02689H55.2193V5.56348Z" fill="black"/>
<path d="M64.0005 5.56348H62.5371V7.02689H64.0005V5.56348Z" fill="black"/>
<path d="M5.46341 7.02734H4V8.49076H5.46341V7.02734Z" fill="black"/>
<path d="M8.39017 7.02734H6.92676V8.49076H8.39017V7.02734Z" fill="black"/>
<path d="M9.85404 7.02734H8.39062V8.49076H9.85404V7.02734Z" fill="black"/>
<path d="M11.3169 7.02734H9.85352V8.49076H11.3169V7.02734Z" fill="black"/>
<path d="M14.2437 7.02734H12.7803V8.49076H14.2437V7.02734Z" fill="black"/>
<path d="M17.1704 7.02734H15.707V8.49076H17.1704V7.02734Z" fill="black"/>
<path d="M18.6343 7.02734H17.1709V8.49076H18.6343V7.02734Z" fill="black"/>
<path d="M23.0249 7.02734H21.5615V8.49076H23.0249V7.02734Z" fill="black"/>
<path d="M25.9517 7.02734H24.4883V8.49076H25.9517V7.02734Z" fill="black"/>
<path d="M28.8775 7.02734H27.4141V8.49076H28.8775V7.02734Z" fill="black"/>
<path d="M31.8052 7.02734H30.3418V8.49076H31.8052V7.02734Z" fill="black"/>
<path d="M36.1949 7.02734H34.7314V8.49076H36.1949V7.02734Z" fill="black"/>
<path d="M37.6587 7.02734H36.1953V8.49076H37.6587V7.02734Z" fill="black"/>
<path d="M40.5855 7.02734H39.1221V8.49076H40.5855V7.02734Z" fill="black"/>
<path d="M42.0494 7.02734H40.5859V8.49076H42.0494V7.02734Z" fill="black"/>
<path d="M46.439 7.02734H44.9756V8.49076H46.439V7.02734Z" fill="black"/>
<path d="M50.8296 7.02734H49.3662V8.49076H50.8296V7.02734Z" fill="black"/>
<path d="M52.2925 7.02734H50.8291V8.49076H52.2925V7.02734Z" fill="black"/>
<path d="M55.2193 7.02734H53.7559V8.49076H55.2193V7.02734Z" fill="black"/>
<path d="M58.146 7.02734H56.6826V8.49076H58.146V7.02734Z" fill="black"/>
<path d="M59.6099 7.02734H58.1465V8.49076H59.6099V7.02734Z" fill="black"/>
<path d="M61.0728 7.02734H59.6094V8.49076H61.0728V7.02734Z" fill="black"/>
<path d="M64.0005 7.02734H62.5371V8.49076H64.0005V7.02734Z" fill="black"/>
<path d="M5.46341 8.49023H4V9.95365H5.46341V8.49023Z" fill="black"/>
<path d="M8.39017 8.49023H6.92676V9.95365H8.39017V8.49023Z" fill="black"/>
<path d="M9.85404 8.49023H8.39062V9.95365H9.85404V8.49023Z" fill="black"/>
<path d="M11.3169 8.49023H9.85352V9.95365H11.3169V8.49023Z" fill="black"/>
<path d="M14.2437 8.49023H12.7803V9.95365H14.2437V8.49023Z" fill="black"/>
<path d="M18.6343 8.49023H17.1709V9.95365H18.6343V8.49023Z" fill="black"/>
<path d="M20.0972 8.49023H18.6338V9.95365H20.0972V8.49023Z" fill="black"/>
<path d="M23.0249 8.49023H21.5615V9.95365H23.0249V8.49023Z" fill="black"/>
<path d="M27.4146 8.49023H25.9512V9.95365H27.4146V8.49023Z" fill="black"/>
<path d="M28.8775 8.49023H27.4141V9.95365H28.8775V8.49023Z" fill="black"/>
<path d="M30.3413 8.49023H28.8779V9.95365H30.3413V8.49023Z" fill="black"/>
<path d="M34.732 8.49023H33.2686V9.95365H34.732V8.49023Z" fill="black"/>
<path d="M39.1216 8.49023H37.6582V9.95365H39.1216V8.49023Z" fill="black"/>
<path d="M46.439 8.49023H44.9756V9.95365H46.439V8.49023Z" fill="black"/>
<path d="M49.3658 8.49023H47.9023V9.95365H49.3658V8.49023Z" fill="black"/>
<path d="M55.2193 8.49023H53.7559V9.95365H55.2193V8.49023Z" fill="black"/>
<path d="M58.146 8.49023H56.6826V9.95365H58.146V8.49023Z" fill="black"/>
<path d="M59.6099 8.49023H58.1465V9.95365H59.6099V8.49023Z" fill="black"/>
<path d="M61.0728 8.49023H59.6094V9.95365H61.0728V8.49023Z" fill="black"/>
<path d="M64.0005 8.49023H62.5371V9.95365H64.0005V8.49023Z" fill="black"/>
<path d="M5.46341 9.95312H4V11.4165H5.46341V9.95312Z" fill="black"/>
<path d="M8.39017 9.95312H6.92676V11.4165H8.39017V9.95312Z" fill="black"/>
<path d="M9.85404 9.95312H8.39062V11.4165H9.85404V9.95312Z" fill="black"/>
<path d="M11.3169 9.95312H9.85352V11.4165H11.3169V9.95312Z" fill="black"/>
<path d="M14.2437 9.95312H12.7803V11.4165H14.2437V9.95312Z" fill="black"/>
<path d="M17.1704 9.95312H15.707V11.4165H17.1704V9.95312Z" fill="black"/>
<path d="M18.6343 9.95312H17.1709V11.4165H18.6343V9.95312Z" fill="black"/>
<path d="M20.0972 9.95312H18.6338V11.4165H20.0972V9.95312Z" fill="black"/>
<path d="M27.4146 9.95312H25.9512V11.4165H27.4146V9.95312Z" fill="black"/>
<path d="M28.8775 9.95312H27.4141V11.4165H28.8775V9.95312Z" fill="black"/>
<path d="M34.732 9.95312H33.2686V11.4165H34.732V9.95312Z" fill="black"/>
<path d="M37.6587 9.95312H36.1953V11.4165H37.6587V9.95312Z" fill="black"/>
<path d="M39.1216 9.95312H37.6582V11.4165H39.1216V9.95312Z" fill="black"/>
<path d="M42.0494 9.95312H40.5859V11.4165H42.0494V9.95312Z" fill="black"/>
<path d="M44.9751 9.95312H43.5117V11.4165H44.9751V9.95312Z" fill="black"/>
<path d="M52.2925 9.95312H50.8291V11.4165H52.2925V9.95312Z" fill="black"/>
<path d="M55.2193 9.95312H53.7559V11.4165H55.2193V9.95312Z" fill="black"/>
<path d="M58.146 9.95312H56.6826V11.4165H58.146V9.95312Z" fill="black"/>
<path d="M59.6099 9.95312H58.1465V11.4165H59.6099V9.95312Z" fill="black"/>
<path d="M61.0728 9.95312H59.6094V11.4165H61.0728V9.95312Z" fill="black"/>
<path d="M64.0005 9.95312H62.5371V11.4165H64.0005V9.95312Z" fill="black"/>
<path d="M5.46341 11.416H4V12.8794H5.46341V11.416Z" fill="black"/>
<path d="M14.2437 11.416H12.7803V12.8794H14.2437V11.416Z" fill="black"/>
<path d="M18.6343 11.416H17.1709V12.8794H18.6343V11.416Z" fill="black"/>
<path d="M20.0972 11.416H18.6338V12.8794H20.0972V11.416Z" fill="black"/>
<path d="M27.4146 11.416H25.9512V12.8794H27.4146V11.416Z" fill="black"/>
<path d="M28.8775 11.416H27.4141V12.8794H28.8775V11.416Z" fill="black"/>
<path d="M30.3413 11.416H28.8779V12.8794H30.3413V11.416Z" fill="black"/>
<path d="M31.8052 11.416H30.3418V12.8794H31.8052V11.416Z" fill="black"/>
<path d="M36.1949 11.416H34.7314V12.8794H36.1949V11.416Z" fill="black"/>
<path d="M37.6587 11.416H36.1953V12.8794H37.6587V11.416Z" fill="black"/>
<path d="M40.5855 11.416H39.1221V12.8794H40.5855V11.416Z" fill="black"/>
<path d="M43.5122 11.416H42.0488V12.8794H43.5122V11.416Z" fill="black"/>
<path d="M46.439 11.416H44.9756V12.8794H46.439V11.416Z" fill="black"/>
<path d="M47.9019 11.416H46.4385V12.8794H47.9019V11.416Z" fill="black"/>
<path d="M49.3658 11.416H47.9023V12.8794H49.3658V11.416Z" fill="black"/>
<path d="M52.2925 11.416H50.8291V12.8794H52.2925V11.416Z" fill="black"/>
<path d="M55.2193 11.416H53.7559V12.8794H55.2193V11.416Z" fill="black"/>
<path d="M64.0005 11.416H62.5371V12.8794H64.0005V11.416Z" fill="black"/>
<path d="M5.46341 12.8799H4V14.3433H5.46341V12.8799Z" fill="black"/>
<path d="M6.92631 12.8799H5.46289V14.3433H6.92631V12.8799Z" fill="black"/>
<path d="M8.39017 12.8799H6.92676V14.3433H8.39017V12.8799Z" fill="black"/>
<path d="M9.85404 12.8799H8.39062V14.3433H9.85404V12.8799Z" fill="black"/>
<path d="M11.3169 12.8799H9.85352V14.3433H11.3169V12.8799Z" fill="black"/>
<path d="M12.7808 12.8799H11.3174V14.3433H12.7808V12.8799Z" fill="black"/>
<path d="M14.2437 12.8799H12.7803V14.3433H14.2437V12.8799Z" fill="black"/>
<path d="M17.1704 12.8799H15.707V14.3433H17.1704V12.8799Z" fill="black"/>
<path d="M20.0972 12.8799H18.6338V14.3433H20.0972V12.8799Z" fill="black"/>
<path d="M23.0249 12.8799H21.5615V14.3433H23.0249V12.8799Z" fill="black"/>
<path d="M25.9517 12.8799H24.4883V14.3433H25.9517V12.8799Z" fill="black"/>
<path d="M28.8775 12.8799H27.4141V14.3433H28.8775V12.8799Z" fill="black"/>
<path d="M31.8052 12.8799H30.3418V14.3433H31.8052V12.8799Z" fill="black"/>
<path d="M34.732 12.8799H33.2686V14.3433H34.732V12.8799Z" fill="black"/>
<path d="M37.6587 12.8799H36.1953V14.3433H37.6587V12.8799Z" fill="black"/>
<path d="M40.5855 12.8799H39.1221V14.3433H40.5855V12.8799Z" fill="black"/>
<path d="M43.5122 12.8799H42.0488V14.3433H43.5122V12.8799Z" fill="black"/>
<path d="M46.439 12.8799H44.9756V14.3433H46.439V12.8799Z" fill="black"/>
<path d="M49.3658 12.8799H47.9023V14.3433H49.3658V12.8799Z" fill="black"/>
<path d="M52.2925 12.8799H50.8291V14.3433H52.2925V12.8799Z" fill="black"/>
<path d="M55.2193 12.8799H53.7559V14.3433H55.2193V12.8799Z" fill="black"/>
<path d="M56.6831 12.8799H55.2197V14.3433H56.6831V12.8799Z" fill="black"/>
<path d="M58.146 12.8799H56.6826V14.3433H58.146V12.8799Z" fill="black"/>
<path d="M59.6099 12.8799H58.1465V14.3433H59.6099V12.8799Z" fill="black"/>
<path d="M61.0728 12.8799H59.6094V14.3433H61.0728V12.8799Z" fill="black"/>
<path d="M62.5367 12.8799H61.0732V14.3433H62.5367V12.8799Z" fill="black"/>
<path d="M64.0005 12.8799H62.5371V14.3433H64.0005V12.8799Z" fill="black"/>
<path d="M17.1704 14.3438H15.707V15.8072H17.1704V14.3438Z" fill="black"/>
<path d="M23.0249 14.3438H21.5615V15.8072H23.0249V14.3438Z" fill="black"/>
<path d="M25.9517 14.3438H24.4883V15.8072H25.9517V14.3438Z" fill="black"/>
<path d="M27.4146 14.3438H25.9512V15.8072H27.4146V14.3438Z" fill="black"/>
<path d="M30.3413 14.3438H28.8779V15.8072H30.3413V14.3438Z" fill="black"/>
<path d="M34.732 14.3438H33.2686V15.8072H34.732V14.3438Z" fill="black"/>
<path d="M39.1216 14.3438H37.6582V15.8072H39.1216V14.3438Z" fill="black"/>
<path d="M40.5855 14.3438H39.1221V15.8072H40.5855V14.3438Z" fill="black"/>
<path d="M42.0494 14.3438H40.5859V15.8072H42.0494V14.3438Z" fill="black"/>
<path d="M44.9751 14.3438H43.5117V15.8072H44.9751V14.3438Z" fill="black"/>
<path d="M46.439 14.3438H44.9756V15.8072H46.439V14.3438Z" fill="black"/>
<path d="M47.9019 14.3438H46.4385V15.8072H47.9019V14.3438Z" fill="black"/>
<path d="M49.3658 14.3438H47.9023V15.8072H49.3658V14.3438Z" fill="black"/>
<path d="M50.8296 14.3438H49.3662V15.8072H50.8296V14.3438Z" fill="black"/>
<path d="M52.2925 14.3438H50.8291V15.8072H52.2925V14.3438Z" fill="black"/>
<path d="M12.7808 15.8076H11.3174V17.271H12.7808V15.8076Z" fill="black"/>
<path d="M14.2437 15.8076H12.7803V17.271H14.2437V15.8076Z" fill="black"/>
<path d="M18.6343 15.8076H17.1709V17.271H18.6343V15.8076Z" fill="black"/>
<path d="M21.5611 15.8076H20.0977V17.271H21.5611V15.8076Z" fill="black"/>
<path d="M25.9517 15.8076H24.4883V17.271H25.9517V15.8076Z" fill="black"/>
<path d="M27.4146 15.8076H25.9512V17.271H27.4146V15.8076Z" fill="black"/>
<path d="M28.8775 15.8076H27.4141V17.271H28.8775V15.8076Z" fill="black"/>
<path d="M31.8052 15.8076H30.3418V17.271H31.8052V15.8076Z" fill="black"/>
<path d="M36.1949 15.8076H34.7314V17.271H36.1949V15.8076Z" fill="black"/>
<path d="M39.1216 15.8076H37.6582V17.271H39.1216V15.8076Z" fill="black"/>
<path d="M40.5855 15.8076H39.1221V17.271H40.5855V15.8076Z" fill="black"/>
<path d="M42.0494 15.8076H40.5859V17.271H42.0494V15.8076Z" fill="black"/>
<path d="M44.9751 15.8076H43.5117V17.271H44.9751V15.8076Z" fill="black"/>
<path d="M47.9019 15.8076H46.4385V17.271H47.9019V15.8076Z" fill="black"/>
<path d="M52.2925 15.8076H50.8291V17.271H52.2925V15.8076Z" fill="black"/>
<path d="M55.2193 15.8076H53.7559V17.271H55.2193V15.8076Z" fill="black"/>
<path d="M58.146 15.8076H56.6826V17.271H58.146V15.8076Z" fill="black"/>
<path d="M61.0728 15.8076H59.6094V17.271H61.0728V15.8076Z" fill="black"/>
<path d="M64.0005 15.8076H62.5371V17.271H64.0005V15.8076Z" fill="black"/>
<path d="M9.85404 17.2695H8.39062V18.7329H9.85404V17.2695Z" fill="black"/>
<path d="M12.7808 17.2695H11.3174V18.7329H12.7808V17.2695Z" fill="black"/>
<path d="M15.7076 17.2695H14.2441V18.7329H15.7076V17.2695Z" fill="black"/>
<path d="M17.1704 17.2695H15.707V18.7329H17.1704V17.2695Z" fill="black"/>
<path d="M24.4878 17.2695H23.0244V18.7329H24.4878V17.2695Z" fill="black"/>
<path d="M27.4146 17.2695H25.9512V18.7329H27.4146V17.2695Z" fill="black"/>
<path d="M28.8775 17.2695H27.4141V18.7329H28.8775V17.2695Z" fill="black"/>
<path d="M30.3413 17.2695H28.8779V18.7329H30.3413V17.2695Z" fill="black"/>
<path d="M36.1949 17.2695H34.7314V18.7329H36.1949V17.2695Z" fill="black"/>
<path d="M37.6587 17.2695H36.1953V18.7329H37.6587V17.2695Z" fill="black"/>
<path d="M40.5855 17.2695H39.1221V18.7329H40.5855V17.2695Z" fill="black"/>
<path d="M42.0494 17.2695H40.5859V18.7329H42.0494V17.2695Z" fill="black"/>
<path d="M50.8296 17.2695H49.3662V18.7329H50.8296V17.2695Z" fill="black"/>
<path d="M53.7564 17.2695H52.293V18.7329H53.7564V17.2695Z" fill="black"/>
<path d="M56.6831 17.2695H55.2197V18.7329H56.6831V17.2695Z" fill="black"/>
<path d="M61.0728 17.2695H59.6094V18.7329H61.0728V17.2695Z" fill="black"/>
<path d="M62.5367 17.2695H61.0732V18.7329H62.5367V17.2695Z" fill="black"/>
<path d="M6.92631 18.7334H5.46289V20.1968H6.92631V18.7334Z" fill="black"/>
<path d="M8.39017 18.7334H6.92676V20.1968H8.39017V18.7334Z" fill="black"/>
<path d="M9.85404 18.7334H8.39062V20.1968H9.85404V18.7334Z" fill="black"/>
<path d="M12.7808 18.7334H11.3174V20.1968H12.7808V18.7334Z" fill="black"/>
<path d="M14.2437 18.7334H12.7803V20.1968H14.2437V18.7334Z" fill="black"/>
<path d="M18.6343 18.7334H17.1709V20.1968H18.6343V18.7334Z" fill="black"/>
<path d="M20.0972 18.7334H18.6338V20.1968H20.0972V18.7334Z" fill="black"/>
<path d="M24.4878 18.7334H23.0244V20.1968H24.4878V18.7334Z" fill="black"/>
<path d="M25.9517 18.7334H24.4883V20.1968H25.9517V18.7334Z" fill="black"/>
<path d="M28.8775 18.7334H27.4141V20.1968H28.8775V18.7334Z" fill="black"/>
<path d="M36.1949 18.7334H34.7314V20.1968H36.1949V18.7334Z" fill="black"/>
<path d="M39.1216 18.7334H37.6582V20.1968H39.1216V18.7334Z" fill="black"/>
<path d="M40.5855 18.7334H39.1221V20.1968H40.5855V18.7334Z" fill="black"/>
<path d="M43.5122 18.7334H42.0488V20.1968H43.5122V18.7334Z" fill="black"/>
<path d="M47.9019 18.7334H46.4385V20.1968H47.9019V18.7334Z" fill="black"/>
<path d="M49.3658 18.7334H47.9023V20.1968H49.3658V18.7334Z" fill="black"/>
<path d="M50.8296 18.7334H49.3662V20.1968H50.8296V18.7334Z" fill="black"/>
<path d="M59.6099 18.7334H58.1465V20.1968H59.6099V18.7334Z" fill="black"/>
<path d="M61.0728 18.7334H59.6094V20.1968H61.0728V18.7334Z" fill="black"/>
<path d="M62.5367 18.7334H61.0732V20.1968H62.5367V18.7334Z" fill="black"/>
<path d="M64.0005 18.7334H62.5371V20.1968H64.0005V18.7334Z" fill="black"/>
<path d="M8.39017 20.1973H6.92676V21.6607H8.39017V20.1973Z" fill="black"/>
<path d="M9.85404 20.1973H8.39062V21.6607H9.85404V20.1973Z" fill="black"/>
<path d="M12.7808 20.1973H11.3174V21.6607H12.7808V20.1973Z" fill="black"/>
<path d="M15.7076 20.1973H14.2441V21.6607H15.7076V20.1973Z" fill="black"/>
<path d="M18.6343 20.1973H17.1709V21.6607H18.6343V20.1973Z" fill="black"/>
<path d="M21.5611 20.1973H20.0977V21.6607H21.5611V20.1973Z" fill="black"/>
<path d="M24.4878 20.1973H23.0244V21.6607H24.4878V20.1973Z" fill="black"/>
<path d="M30.3413 20.1973H28.8779V21.6607H30.3413V20.1973Z" fill="black"/>
<path d="M31.8052 20.1973H30.3418V21.6607H31.8052V20.1973Z" fill="black"/>
<path d="M33.2681 20.1973H31.8047V21.6607H33.2681V20.1973Z" fill="black"/>
<path d="M39.1216 20.1973H37.6582V21.6607H39.1216V20.1973Z" fill="black"/>
<path d="M44.9751 20.1973H43.5117V21.6607H44.9751V20.1973Z" fill="black"/>
<path d="M46.439 20.1973H44.9756V21.6607H46.439V20.1973Z" fill="black"/>
<path d="M47.9019 20.1973H46.4385V21.6607H47.9019V20.1973Z" fill="black"/>
<path d="M49.3658 20.1973H47.9023V21.6607H49.3658V20.1973Z" fill="black"/>
<path d="M50.8296 20.1973H49.3662V21.6607H50.8296V20.1973Z" fill="black"/>
<path d="M53.7564 20.1973H52.293V21.6607H53.7564V20.1973Z" fill="black"/>
<path d="M55.2193 20.1973H53.7559V21.6607H55.2193V20.1973Z" fill="black"/>
<path d="M56.6831 20.1973H55.2197V21.6607H56.6831V20.1973Z" fill="black"/>
<path d="M58.146 20.1973H56.6826V21.6607H58.146V20.1973Z" fill="black"/>
<path d="M64.0005 20.1973H62.5371V21.6607H64.0005V20.1973Z" fill="black"/>
<path d="M12.7808 21.6611H11.3174V23.1245H12.7808V21.6611Z" fill="black"/>
<path d="M14.2437 21.6611H12.7803V23.1245H14.2437V21.6611Z" fill="black"/>
<path d="M15.7076 21.6611H14.2441V23.1245H15.7076V21.6611Z" fill="black"/>
<path d="M18.6343 21.6611H17.1709V23.1245H18.6343V21.6611Z" fill="black"/>
<path d="M23.0249 21.6611H21.5615V23.1245H23.0249V21.6611Z" fill="black"/>
<path d="M24.4878 21.6611H23.0244V23.1245H24.4878V21.6611Z" fill="black"/>
<path d="M27.4146 21.6611H25.9512V23.1245H27.4146V21.6611Z" fill="black"/>
<path d="M30.3413 21.6611H28.8779V23.1245H30.3413V21.6611Z" fill="black"/>
<path d="M34.732 21.6611H33.2686V23.1245H34.732V21.6611Z" fill="black"/>
<path d="M39.1216 21.6611H37.6582V23.1245H39.1216V21.6611Z" fill="black"/>
<path d="M40.5855 21.6611H39.1221V23.1245H40.5855V21.6611Z" fill="black"/>
<path d="M44.9751 21.6611H43.5117V23.1245H44.9751V21.6611Z" fill="black"/>
<path d="M50.8296 21.6611H49.3662V23.1245H50.8296V21.6611Z" fill="black"/>
<path d="M52.2925 21.6611H50.8291V23.1245H52.2925V21.6611Z" fill="black"/>
<path d="M53.7564 21.6611H52.293V23.1245H53.7564V21.6611Z" fill="black"/>
<path d="M55.2193 21.6611H53.7559V23.1245H55.2193V21.6611Z" fill="black"/>
<path d="M58.146 21.6611H56.6826V23.1245H58.146V21.6611Z" fill="black"/>
<path d="M61.0728 21.6611H59.6094V23.1245H61.0728V21.6611Z" fill="black"/>
<path d="M64.0005 21.6611H62.5371V23.1245H64.0005V21.6611Z" fill="black"/>
<path d="M5.46341 23.124H4V24.5874H5.46341V23.124Z" fill="black"/>
<path d="M6.92631 23.124H5.46289V24.5874H6.92631V23.124Z" fill="black"/>
<path d="M9.85404 23.124H8.39062V24.5874H9.85404V23.124Z" fill="black"/>
<path d="M17.1704 23.124H15.707V24.5874H17.1704V23.124Z" fill="black"/>
<path d="M21.5611 23.124H20.0977V24.5874H21.5611V23.124Z" fill="black"/>
<path d="M23.0249 23.124H21.5615V24.5874H23.0249V23.124Z" fill="black"/>
<path d="M27.4146 23.124H25.9512V24.5874H27.4146V23.124Z" fill="black"/>
<path d="M39.1216 23.124H37.6582V24.5874H39.1216V23.124Z" fill="black"/>
<path d="M52.2925 23.124H50.8291V24.5874H52.2925V23.124Z" fill="black"/>
<path d="M55.2193 23.124H53.7559V24.5874H55.2193V23.124Z" fill="black"/>
<path d="M56.6831 23.124H55.2197V24.5874H56.6831V23.124Z" fill="black"/>
<path d="M58.146 23.124H56.6826V24.5874H58.146V23.124Z" fill="black"/>
<path d="M59.6099 23.124H58.1465V24.5874H59.6099V23.124Z" fill="black"/>
<path d="M62.5367 23.124H61.0732V24.5874H62.5367V23.124Z" fill="black"/>
<path d="M64.0005 23.124H62.5371V24.5874H64.0005V23.124Z" fill="black"/>
<path d="M6.92631 24.5869H5.46289V26.0503H6.92631V24.5869Z" fill="black"/>
<path d="M9.85404 24.5869H8.39062V26.0503H9.85404V24.5869Z" fill="black"/>
<path d="M11.3169 24.5869H9.85352V26.0503H11.3169V24.5869Z" fill="black"/>
<path d="M14.2437 24.5869H12.7803V26.0503H14.2437V24.5869Z" fill="black"/>
<path d="M15.7076 24.5869H14.2441V26.0503H15.7076V24.5869Z" fill="black"/>
<path d="M17.1704 24.5869H15.707V26.0503H17.1704V24.5869Z" fill="black"/>
<path d="M18.6343 24.5869H17.1709V26.0503H18.6343V24.5869Z" fill="black"/>
<path d="M23.0249 24.5869H21.5615V26.0503H23.0249V24.5869Z" fill="black"/>
<path d="M30.3413 24.5869H28.8779V26.0503H30.3413V24.5869Z" fill="black"/>
<path d="M36.1949 24.5869H34.7314V26.0503H36.1949V24.5869Z" fill="black"/>
<path d="M37.6587 24.5869H36.1953V26.0503H37.6587V24.5869Z" fill="black"/>
<path d="M39.1216 24.5869H37.6582V26.0503H39.1216V24.5869Z" fill="black"/>
<path d="M44.9751 24.5869H43.5117V26.0503H44.9751V24.5869Z" fill="black"/>
<path d="M46.439 24.5869H44.9756V26.0503H46.439V24.5869Z" fill="black"/>
<path d="M47.9019 24.5869H46.4385V26.0503H47.9019V24.5869Z" fill="black"/>
<path d="M50.8296 24.5869H49.3662V26.0503H50.8296V24.5869Z" fill="black"/>
<path d="M61.0728 24.5869H59.6094V26.0503H61.0728V24.5869Z" fill="black"/>
<path d="M62.5367 24.5869H61.0732V26.0503H62.5367V24.5869Z" fill="black"/>
<path d="M5.46341 26.0518H4V27.5152H5.46341V26.0518Z" fill="black"/>
<path d="M8.39017 26.0518H6.92676V27.5152H8.39017V26.0518Z" fill="black"/>
<path d="M21.5611 26.0518H20.0977V27.5152H21.5611V26.0518Z" fill="black"/>
<path d="M27.4146 26.0518H25.9512V27.5152H27.4146V26.0518Z" fill="black"/>
<path d="M28.8775 26.0518H27.4141V27.5152H28.8775V26.0518Z" fill="black"/>
<path d="M30.3413 26.0518H28.8779V27.5152H30.3413V26.0518Z" fill="black"/>
<path d="M37.6587 26.0518H36.1953V27.5152H37.6587V26.0518Z" fill="black"/>
<path d="M39.1216 26.0518H37.6582V27.5152H39.1216V26.0518Z" fill="black"/>
<path d="M42.0494 26.0518H40.5859V27.5152H42.0494V26.0518Z" fill="black"/>
<path d="M46.439 26.0518H44.9756V27.5152H46.439V26.0518Z" fill="black"/>
<path d="M47.9019 26.0518H46.4385V27.5152H47.9019V26.0518Z" fill="black"/>
<path d="M50.8296 26.0518H49.3662V27.5152H50.8296V26.0518Z" fill="black"/>
<path d="M53.7564 26.0518H52.293V27.5152H53.7564V26.0518Z" fill="black"/>
<path d="M56.6831 26.0518H55.2197V27.5152H56.6831V26.0518Z" fill="black"/>
<path d="M58.146 26.0518H56.6826V27.5152H58.146V26.0518Z" fill="black"/>
<path d="M61.0728 26.0518H59.6094V27.5152H61.0728V26.0518Z" fill="black"/>
<path d="M62.5367 26.0518H61.0732V27.5152H62.5367V26.0518Z" fill="black"/>
<path d="M8.39017 27.5137H6.92676V28.9771H8.39017V27.5137Z" fill="black"/>
<path d="M9.85404 27.5137H8.39062V28.9771H9.85404V27.5137Z" fill="black"/>
<path d="M12.7808 27.5137H11.3174V28.9771H12.7808V27.5137Z" fill="black"/>
<path d="M14.2437 27.5137H12.7803V28.9771H14.2437V27.5137Z" fill="black"/>
<path d="M15.7076 27.5137H14.2441V28.9771H15.7076V27.5137Z" fill="black"/>
<path d="M18.6343 27.5137H17.1709V28.9771H18.6343V27.5137Z" fill="black"/>
<path d="M20.0972 27.5137H18.6338V28.9771H20.0972V27.5137Z" fill="black"/>
<path d="M23.0249 27.5137H21.5615V28.9771H23.0249V27.5137Z" fill="black"/>
<path d="M27.4146 27.5137H25.9512V28.9771H27.4146V27.5137Z" fill="black"/>
<path d="M28.8775 27.5137H27.4141V28.9771H28.8775V27.5137Z" fill="black"/>
<path d="M30.3413 27.5137H28.8779V28.9771H30.3413V27.5137Z" fill="black"/>
<path d="M31.8052 27.5137H30.3418V28.9771H31.8052V27.5137Z" fill="black"/>
<path d="M33.2681 27.5137H31.8047V28.9771H33.2681V27.5137Z" fill="black"/>
<path d="M34.732 27.5137H33.2686V28.9771H34.732V27.5137Z" fill="black"/>
<path d="M37.6587 27.5137H36.1953V28.9771H37.6587V27.5137Z" fill="black"/>
<path d="M39.1216 27.5137H37.6582V28.9771H39.1216V27.5137Z" fill="black"/>
<path d="M43.5122 27.5137H42.0488V28.9771H43.5122V27.5137Z" fill="black"/>
<path d="M44.9751 27.5137H43.5117V28.9771H44.9751V27.5137Z" fill="black"/>
<path d="M49.3658 27.5137H47.9023V28.9771H49.3658V27.5137Z" fill="black"/>
<path d="M50.8296 27.5137H49.3662V28.9771H50.8296V27.5137Z" fill="black"/>
<path d="M52.2925 27.5137H50.8291V28.9771H52.2925V27.5137Z" fill="black"/>
<path d="M53.7564 27.5137H52.293V28.9771H53.7564V27.5137Z" fill="black"/>
<path d="M58.146 27.5137H56.6826V28.9771H58.146V27.5137Z" fill="black"/>
<path d="M59.6099 27.5137H58.1465V28.9771H59.6099V27.5137Z" fill="black"/>
<path d="M6.92631 28.9775H5.46289V30.441H6.92631V28.9775Z" fill="black"/>
<path d="M12.7808 28.9775H11.3174V30.441H12.7808V28.9775Z" fill="black"/>
<path d="M17.1704 28.9775H15.707V30.441H17.1704V28.9775Z" fill="black"/>
<path d="M27.4146 28.9775H25.9512V30.441H27.4146V28.9775Z" fill="black"/>
<path d="M30.3413 28.9775H28.8779V30.441H30.3413V28.9775Z" fill="black"/>
<path d="M31.8052 28.9775H30.3418V30.441H31.8052V28.9775Z" fill="black"/>
<path d="M33.2681 28.9775H31.8047V30.441H33.2681V28.9775Z" fill="black"/>
<path d="M34.732 28.9775H33.2686V30.441H34.732V28.9775Z" fill="black"/>
<path d="M36.1949 28.9775H34.7314V30.441H36.1949V28.9775Z" fill="black"/>
<path d="M37.6587 28.9775H36.1953V30.441H37.6587V28.9775Z" fill="black"/>
<path d="M40.5855 28.9775H39.1221V30.441H40.5855V28.9775Z" fill="black"/>
<path d="M44.9751 28.9775H43.5117V30.441H44.9751V28.9775Z" fill="black"/>
<path d="M47.9019 28.9775H46.4385V30.441H47.9019V28.9775Z" fill="black"/>
<path d="M56.6831 28.9775H55.2197V30.441H56.6831V28.9775Z" fill="black"/>
<path d="M58.146 28.9775H56.6826V30.441H58.146V28.9775Z" fill="black"/>
<path d="M59.6099 28.9775H58.1465V30.441H59.6099V28.9775Z" fill="black"/>
<path d="M62.5367 28.9775H61.0732V30.441H62.5367V28.9775Z" fill="black"/>
<path d="M11.3169 30.4414H9.85352V31.9048H11.3169V30.4414Z" fill="black"/>
<path d="M14.2437 30.4414H12.7803V31.9048H14.2437V30.4414Z" fill="black"/>
<path d="M15.7076 30.4414H14.2441V31.9048H15.7076V30.4414Z" fill="black"/>
<path d="M23.0249 30.4414H21.5615V31.9048H23.0249V30.4414Z" fill="black"/>
<path d="M24.4878 30.4414H23.0244V31.9048H24.4878V30.4414Z" fill="black"/>
<path d="M28.8775 30.4414H27.4141V31.9048H28.8775V30.4414Z" fill="black"/>
<path d="M30.3413 30.4414H28.8779V31.9048H30.3413V30.4414Z" fill="black"/>
<path d="M33.2681 30.4414H31.8047V31.9048H33.2681V30.4414Z" fill="black"/>
<path d="M37.6587 30.4414H36.1953V31.9048H37.6587V30.4414Z" fill="black"/>
<path d="M39.1216 30.4414H37.6582V31.9048H39.1216V30.4414Z" fill="black"/>
<path d="M42.0494 30.4414H40.5859V31.9048H42.0494V30.4414Z" fill="black"/>
<path d="M44.9751 30.4414H43.5117V31.9048H44.9751V30.4414Z" fill="black"/>
<path d="M50.8296 30.4414H49.3662V31.9048H50.8296V30.4414Z" fill="black"/>
<path d="M52.2925 30.4414H50.8291V31.9048H52.2925V30.4414Z" fill="black"/>
<path d="M55.2193 30.4414H53.7559V31.9048H55.2193V30.4414Z" fill="black"/>
<path d="M59.6099 30.4414H58.1465V31.9048H59.6099V30.4414Z" fill="black"/>
<path d="M62.5367 30.4414H61.0732V31.9048H62.5367V30.4414Z" fill="black"/>
<path d="M5.46341 31.9043H4V33.3677H5.46341V31.9043Z" fill="black"/>
<path d="M6.92631 31.9043H5.46289V33.3677H6.92631V31.9043Z" fill="black"/>
<path d="M8.39017 31.9043H6.92676V33.3677H8.39017V31.9043Z" fill="black"/>
<path d="M11.3169 31.9043H9.85352V33.3677H11.3169V31.9043Z" fill="black"/>
<path d="M15.7076 31.9043H14.2441V33.3677H15.7076V31.9043Z" fill="black"/>
<path d="M21.5611 31.9043H20.0977V33.3677H21.5611V31.9043Z" fill="black"/>
<path d="M24.4878 31.9043H23.0244V33.3677H24.4878V31.9043Z" fill="black"/>
<path d="M27.4146 31.9043H25.9512V33.3677H27.4146V31.9043Z" fill="black"/>
<path d="M28.8775 31.9043H27.4141V33.3677H28.8775V31.9043Z" fill="black"/>
<path d="M30.3413 31.9043H28.8779V33.3677H30.3413V31.9043Z" fill="black"/>
<path d="M34.732 31.9043H33.2686V33.3677H34.732V31.9043Z" fill="black"/>
<path d="M36.1949 31.9043H34.7314V33.3677H36.1949V31.9043Z" fill="black"/>
<path d="M42.0494 31.9043H40.5859V33.3677H42.0494V31.9043Z" fill="black"/>
<path d="M43.5122 31.9043H42.0488V33.3677H43.5122V31.9043Z" fill="black"/>
<path d="M44.9751 31.9043H43.5117V33.3677H44.9751V31.9043Z" fill="black"/>
<path d="M46.439 31.9043H44.9756V33.3677H46.439V31.9043Z" fill="black"/>
<path d="M47.9019 31.9043H46.4385V33.3677H47.9019V31.9043Z" fill="black"/>
<path d="M49.3658 31.9043H47.9023V33.3677H49.3658V31.9043Z" fill="black"/>
<path d="M50.8296 31.9043H49.3662V33.3677H50.8296V31.9043Z" fill="black"/>
<path d="M52.2925 31.9043H50.8291V33.3677H52.2925V31.9043Z" fill="black"/>
<path d="M53.7564 31.9043H52.293V33.3677H53.7564V31.9043Z" fill="black"/>
<path d="M55.2193 31.9043H53.7559V33.3677H55.2193V31.9043Z" fill="black"/>
<path d="M56.6831 31.9043H55.2197V33.3677H56.6831V31.9043Z" fill="black"/>
<path d="M58.146 31.9043H56.6826V33.3677H58.146V31.9043Z" fill="black"/>
<path d="M59.6099 31.9043H58.1465V33.3677H59.6099V31.9043Z" fill="black"/>
<path d="M62.5367 31.9043H61.0732V33.3677H62.5367V31.9043Z" fill="black"/>
<path d="M64.0005 31.9043H62.5371V33.3677H64.0005V31.9043Z" fill="black"/>
<path d="M5.46341 33.3682H4V34.8316H5.46341V33.3682Z" fill="black"/>
<path d="M6.92631 33.3682H5.46289V34.8316H6.92631V33.3682Z" fill="black"/>
<path d="M8.39017 33.3682H6.92676V34.8316H8.39017V33.3682Z" fill="black"/>
<path d="M12.7808 33.3682H11.3174V34.8316H12.7808V33.3682Z" fill="black"/>
<path d="M14.2437 33.3682H12.7803V34.8316H14.2437V33.3682Z" fill="black"/>
<path d="M21.5611 33.3682H20.0977V34.8316H21.5611V33.3682Z" fill="black"/>
<path d="M24.4878 33.3682H23.0244V34.8316H24.4878V33.3682Z" fill="black"/>
<path d="M25.9517 33.3682H24.4883V34.8316H25.9517V33.3682Z" fill="black"/>
<path d="M31.8052 33.3682H30.3418V34.8316H31.8052V33.3682Z" fill="black"/>
<path d="M36.1949 33.3682H34.7314V34.8316H36.1949V33.3682Z" fill="black"/>
<path d="M39.1216 33.3682H37.6582V34.8316H39.1216V33.3682Z" fill="black"/>
<path d="M43.5122 33.3682H42.0488V34.8316H43.5122V33.3682Z" fill="black"/>
<path d="M44.9751 33.3682H43.5117V34.8316H44.9751V33.3682Z" fill="black"/>
<path d="M46.439 33.3682H44.9756V34.8316H46.439V33.3682Z" fill="black"/>
<path d="M53.7564 33.3682H52.293V34.8316H53.7564V33.3682Z" fill="black"/>
<path d="M55.2193 33.3682H53.7559V34.8316H55.2193V33.3682Z" fill="black"/>
<path d="M59.6099 33.3682H58.1465V34.8316H59.6099V33.3682Z" fill="black"/>
<path d="M6.92631 34.8311H5.46289V36.2945H6.92631V34.8311Z" fill="black"/>
<path d="M8.39017 34.8311H6.92676V36.2945H8.39017V34.8311Z" fill="black"/>
<path d="M9.85404 34.8311H8.39062V36.2945H9.85404V34.8311Z" fill="black"/>
<path d="M15.7076 34.8311H14.2441V36.2945H15.7076V34.8311Z" fill="black"/>
<path d="M18.6343 34.8311H17.1709V36.2945H18.6343V34.8311Z" fill="black"/>
<path d="M25.9517 34.8311H24.4883V36.2945H25.9517V34.8311Z" fill="black"/>
<path d="M31.8052 34.8311H30.3418V36.2945H31.8052V34.8311Z" fill="black"/>
<path d="M37.6587 34.8311H36.1953V36.2945H37.6587V34.8311Z" fill="black"/>
<path d="M39.1216 34.8311H37.6582V36.2945H39.1216V34.8311Z" fill="black"/>
<path d="M43.5122 34.8311H42.0488V36.2945H43.5122V34.8311Z" fill="black"/>
<path d="M49.3658 34.8311H47.9023V36.2945H49.3658V34.8311Z" fill="black"/>
<path d="M50.8296 34.8311H49.3662V36.2945H50.8296V34.8311Z" fill="black"/>
<path d="M52.2925 34.8311H50.8291V36.2945H52.2925V34.8311Z" fill="black"/>
<path d="M55.2193 34.8311H53.7559V36.2945H55.2193V34.8311Z" fill="black"/>
<path d="M56.6831 34.8311H55.2197V36.2945H56.6831V34.8311Z" fill="black"/>
<path d="M59.6099 34.8311H58.1465V36.2945H59.6099V34.8311Z" fill="black"/>
<path d="M61.0728 34.8311H59.6094V36.2945H61.0728V34.8311Z" fill="black"/>
<path d="M64.0005 34.8311H62.5371V36.2945H64.0005V34.8311Z" fill="black"/>
<path d="M6.92631 36.2949H5.46289V37.7583H6.92631V36.2949Z" fill="black"/>
<path d="M8.39017 36.2949H6.92676V37.7583H8.39017V36.2949Z" fill="black"/>
<path d="M9.85404 36.2949H8.39062V37.7583H9.85404V36.2949Z" fill="black"/>
<path d="M14.2437 36.2949H12.7803V37.7583H14.2437V36.2949Z" fill="black"/>
<path d="M17.1704 36.2949H15.707V37.7583H17.1704V36.2949Z" fill="black"/>
<path d="M23.0249 36.2949H21.5615V37.7583H23.0249V36.2949Z" fill="black"/>
<path d="M24.4878 36.2949H23.0244V37.7583H24.4878V36.2949Z" fill="black"/>
<path d="M27.4146 36.2949H25.9512V37.7583H27.4146V36.2949Z" fill="black"/>
<path d="M31.8052 36.2949H30.3418V37.7583H31.8052V36.2949Z" fill="black"/>
<path d="M36.1949 36.2949H34.7314V37.7583H36.1949V36.2949Z" fill="black"/>
<path d="M37.6587 36.2949H36.1953V37.7583H37.6587V36.2949Z" fill="black"/>
<path d="M39.1216 36.2949H37.6582V37.7583H39.1216V36.2949Z" fill="black"/>
<path d="M40.5855 36.2949H39.1221V37.7583H40.5855V36.2949Z" fill="black"/>
<path d="M42.0494 36.2949H40.5859V37.7583H42.0494V36.2949Z" fill="black"/>
<path d="M47.9019 36.2949H46.4385V37.7583H47.9019V36.2949Z" fill="black"/>
<path d="M52.2925 36.2949H50.8291V37.7583H52.2925V36.2949Z" fill="black"/>
<path d="M53.7564 36.2949H52.293V37.7583H53.7564V36.2949Z" fill="black"/>
<path d="M61.0728 36.2949H59.6094V37.7583H61.0728V36.2949Z" fill="black"/>
<path d="M6.92631 37.7578H5.46289V39.2212H6.92631V37.7578Z" fill="black"/>
<path d="M12.7808 37.7578H11.3174V39.2212H12.7808V37.7578Z" fill="black"/>
<path d="M15.7076 37.7578H14.2441V39.2212H15.7076V37.7578Z" fill="black"/>
<path d="M20.0972 37.7578H18.6338V39.2212H20.0972V37.7578Z" fill="black"/>
<path d="M21.5611 37.7578H20.0977V39.2212H21.5611V37.7578Z" fill="black"/>
<path d="M28.8775 37.7578H27.4141V39.2212H28.8775V37.7578Z" fill="black"/>
<path d="M31.8052 37.7578H30.3418V39.2212H31.8052V37.7578Z" fill="black"/>
<path d="M39.1216 37.7578H37.6582V39.2212H39.1216V37.7578Z" fill="black"/>
<path d="M42.0494 37.7578H40.5859V39.2212H42.0494V37.7578Z" fill="black"/>
<path d="M43.5122 37.7578H42.0488V39.2212H43.5122V37.7578Z" fill="black"/>
<path d="M44.9751 37.7578H43.5117V39.2212H44.9751V37.7578Z" fill="black"/>
<path d="M46.439 37.7578H44.9756V39.2212H46.439V37.7578Z" fill="black"/>
<path d="M47.9019 37.7578H46.4385V39.2212H47.9019V37.7578Z" fill="black"/>
<path d="M49.3658 37.7578H47.9023V39.2212H49.3658V37.7578Z" fill="black"/>
<path d="M50.8296 37.7578H49.3662V39.2212H50.8296V37.7578Z" fill="black"/>
<path d="M52.2925 37.7578H50.8291V39.2212H52.2925V37.7578Z" fill="black"/>
<path d="M53.7564 37.7578H52.293V39.2212H53.7564V37.7578Z" fill="black"/>
<path d="M55.2193 37.7578H53.7559V39.2212H55.2193V37.7578Z" fill="black"/>
<path d="M58.146 37.7578H56.6826V39.2212H58.146V37.7578Z" fill="black"/>
<path d="M64.0005 37.7578H62.5371V39.2212H64.0005V37.7578Z" fill="black"/>
<path d="M8.39017 39.2217H6.92676V40.6851H8.39017V39.2217Z" fill="black"/>
<path d="M11.3169 39.2217H9.85352V40.6851H11.3169V39.2217Z" fill="black"/>
<path d="M12.7808 39.2217H11.3174V40.6851H12.7808V39.2217Z" fill="black"/>
<path d="M14.2437 39.2217H12.7803V40.6851H14.2437V39.2217Z" fill="black"/>
<path d="M15.7076 39.2217H14.2441V40.6851H15.7076V39.2217Z" fill="black"/>
<path d="M17.1704 39.2217H15.707V40.6851H17.1704V39.2217Z" fill="black"/>
<path d="M20.0972 39.2217H18.6338V40.6851H20.0972V39.2217Z" fill="black"/>
<path d="M23.0249 39.2217H21.5615V40.6851H23.0249V39.2217Z" fill="black"/>
<path d="M25.9517 39.2217H24.4883V40.6851H25.9517V39.2217Z" fill="black"/>
<path d="M33.2681 39.2217H31.8047V40.6851H33.2681V39.2217Z" fill="black"/>
<path d="M34.732 39.2217H33.2686V40.6851H34.732V39.2217Z" fill="black"/>
<path d="M36.1949 39.2217H34.7314V40.6851H36.1949V39.2217Z" fill="black"/>
<path d="M42.0494 39.2217H40.5859V40.6851H42.0494V39.2217Z" fill="black"/>
<path d="M43.5122 39.2217H42.0488V40.6851H43.5122V39.2217Z" fill="black"/>
<path d="M44.9751 39.2217H43.5117V40.6851H44.9751V39.2217Z" fill="black"/>
<path d="M47.9019 39.2217H46.4385V40.6851H47.9019V39.2217Z" fill="black"/>
<path d="M50.8296 39.2217H49.3662V40.6851H50.8296V39.2217Z" fill="black"/>
<path d="M52.2925 39.2217H50.8291V40.6851H52.2925V39.2217Z" fill="black"/>
<path d="M56.6831 39.2217H55.2197V40.6851H56.6831V39.2217Z" fill="black"/>
<path d="M58.146 39.2217H56.6826V40.6851H58.146V39.2217Z" fill="black"/>
<path d="M61.0728 39.2217H59.6094V40.6851H61.0728V39.2217Z" fill="black"/>
<path d="M62.5367 39.2217H61.0732V40.6851H62.5367V39.2217Z" fill="black"/>
<path d="M5.46341 40.6855H4V42.149H5.46341V40.6855Z" fill="black"/>
<path d="M6.92631 40.6855H5.46289V42.149H6.92631V40.6855Z" fill="black"/>
<path d="M8.39017 40.6855H6.92676V42.149H8.39017V40.6855Z" fill="black"/>
<path d="M15.7076 40.6855H14.2441V42.149H15.7076V40.6855Z" fill="black"/>
<path d="M25.9517 40.6855H24.4883V42.149H25.9517V40.6855Z" fill="black"/>
<path d="M27.4146 40.6855H25.9512V42.149H27.4146V40.6855Z" fill="black"/>
<path d="M28.8775 40.6855H27.4141V42.149H28.8775V40.6855Z" fill="black"/>
<path d="M33.2681 40.6855H31.8047V42.149H33.2681V40.6855Z" fill="black"/>
<path d="M36.1949 40.6855H34.7314V42.149H36.1949V40.6855Z" fill="black"/>
<path d="M39.1216 40.6855H37.6582V42.149H39.1216V40.6855Z" fill="black"/>
<path d="M40.5855 40.6855H39.1221V42.149H40.5855V40.6855Z" fill="black"/>
<path d="M42.0494 40.6855H40.5859V42.149H42.0494V40.6855Z" fill="black"/>
<path d="M50.8296 40.6855H49.3662V42.149H50.8296V40.6855Z" fill="black"/>
<path d="M53.7564 40.6855H52.293V42.149H53.7564V40.6855Z" fill="black"/>
<path d="M56.6831 40.6855H55.2197V42.149H56.6831V40.6855Z" fill="black"/>
<path d="M58.146 40.6855H56.6826V42.149H58.146V40.6855Z" fill="black"/>
<path d="M59.6099 40.6855H58.1465V42.149H59.6099V40.6855Z" fill="black"/>
<path d="M8.39017 42.1475H6.92676V43.6109H8.39017V42.1475Z" fill="black"/>
<path d="M9.85404 42.1475H8.39062V43.6109H9.85404V42.1475Z" fill="black"/>
<path d="M12.7808 42.1475H11.3174V43.6109H12.7808V42.1475Z" fill="black"/>
<path d="M14.2437 42.1475H12.7803V43.6109H14.2437V42.1475Z" fill="black"/>
<path d="M15.7076 42.1475H14.2441V43.6109H15.7076V42.1475Z" fill="black"/>
<path d="M17.1704 42.1475H15.707V43.6109H17.1704V42.1475Z" fill="black"/>
<path d="M20.0972 42.1475H18.6338V43.6109H20.0972V42.1475Z" fill="black"/>
<path d="M21.5611 42.1475H20.0977V43.6109H21.5611V42.1475Z" fill="black"/>
<path d="M23.0249 42.1475H21.5615V43.6109H23.0249V42.1475Z" fill="black"/>
<path d="M30.3413 42.1475H28.8779V43.6109H30.3413V42.1475Z" fill="black"/>
<path d="M34.732 42.1475H33.2686V43.6109H34.732V42.1475Z" fill="black"/>
<path d="M36.1949 42.1475H34.7314V43.6109H36.1949V42.1475Z" fill="black"/>
<path d="M43.5122 42.1475H42.0488V43.6109H43.5122V42.1475Z" fill="black"/>
<path d="M47.9019 42.1475H46.4385V43.6109H47.9019V42.1475Z" fill="black"/>
<path d="M50.8296 42.1475H49.3662V43.6109H50.8296V42.1475Z" fill="black"/>
<path d="M52.2925 42.1475H50.8291V43.6109H52.2925V42.1475Z" fill="black"/>
<path d="M56.6831 42.1475H55.2197V43.6109H56.6831V42.1475Z" fill="black"/>
<path d="M61.0728 42.1475H59.6094V43.6109H61.0728V42.1475Z" fill="black"/>
<path d="M62.5367 42.1475H61.0732V43.6109H62.5367V42.1475Z" fill="black"/>
<path d="M5.46341 43.6123H4V45.0757H5.46341V43.6123Z" fill="black"/>
<path d="M8.39017 43.6123H6.92676V45.0757H8.39017V43.6123Z" fill="black"/>
<path d="M11.3169 43.6123H9.85352V45.0757H11.3169V43.6123Z" fill="black"/>
<path d="M15.7076 43.6123H14.2441V45.0757H15.7076V43.6123Z" fill="black"/>
<path d="M18.6343 43.6123H17.1709V45.0757H18.6343V43.6123Z" fill="black"/>
<path d="M21.5611 43.6123H20.0977V45.0757H21.5611V43.6123Z" fill="black"/>
<path d="M23.0249 43.6123H21.5615V45.0757H23.0249V43.6123Z" fill="black"/>
<path d="M24.4878 43.6123H23.0244V45.0757H24.4878V43.6123Z" fill="black"/>
<path d="M30.3413 43.6123H28.8779V45.0757H30.3413V43.6123Z" fill="black"/>
<path d="M33.2681 43.6123H31.8047V45.0757H33.2681V43.6123Z" fill="black"/>
<path d="M36.1949 43.6123H34.7314V45.0757H36.1949V43.6123Z" fill="black"/>
<path d="M39.1216 43.6123H37.6582V45.0757H39.1216V43.6123Z" fill="black"/>
<path d="M40.5855 43.6123H39.1221V45.0757H40.5855V43.6123Z" fill="black"/>
<path d="M43.5122 43.6123H42.0488V45.0757H43.5122V43.6123Z" fill="black"/>
<path d="M44.9751 43.6123H43.5117V45.0757H44.9751V43.6123Z" fill="black"/>
<path d="M49.3658 43.6123H47.9023V45.0757H49.3658V43.6123Z" fill="black"/>
<path d="M50.8296 43.6123H49.3662V45.0757H50.8296V43.6123Z" fill="black"/>
<path d="M52.2925 43.6123H50.8291V45.0757H52.2925V43.6123Z" fill="black"/>
<path d="M53.7564 43.6123H52.293V45.0757H53.7564V43.6123Z" fill="black"/>
<path d="M56.6831 43.6123H55.2197V45.0757H56.6831V43.6123Z" fill="black"/>
<path d="M58.146 43.6123H56.6826V45.0757H58.146V43.6123Z" fill="black"/>
<path d="M64.0005 43.6123H62.5371V45.0757H64.0005V43.6123Z" fill="black"/>
<path d="M6.92631 45.0752H5.46289V46.5386H6.92631V45.0752Z" fill="black"/>
<path d="M8.39017 45.0752H6.92676V46.5386H8.39017V45.0752Z" fill="black"/>
<path d="M9.85404 45.0752H8.39062V46.5386H9.85404V45.0752Z" fill="black"/>
<path d="M11.3169 45.0752H9.85352V46.5386H11.3169V45.0752Z" fill="black"/>
<path d="M14.2437 45.0752H12.7803V46.5386H14.2437V45.0752Z" fill="black"/>
<path d="M24.4878 45.0752H23.0244V46.5386H24.4878V45.0752Z" fill="black"/>
<path d="M28.8775 45.0752H27.4141V46.5386H28.8775V45.0752Z" fill="black"/>
<path d="M30.3413 45.0752H28.8779V46.5386H30.3413V45.0752Z" fill="black"/>
<path d="M39.1216 45.0752H37.6582V46.5386H39.1216V45.0752Z" fill="black"/>
<path d="M43.5122 45.0752H42.0488V46.5386H43.5122V45.0752Z" fill="black"/>
<path d="M44.9751 45.0752H43.5117V46.5386H44.9751V45.0752Z" fill="black"/>
<path d="M47.9019 45.0752H46.4385V46.5386H47.9019V45.0752Z" fill="black"/>
<path d="M49.3658 45.0752H47.9023V46.5386H49.3658V45.0752Z" fill="black"/>
<path d="M58.146 45.0752H56.6826V46.5386H58.146V45.0752Z" fill="black"/>
<path d="M5.46341 46.5381H4V48.0015H5.46341V46.5381Z" fill="black"/>
<path d="M6.92631 46.5381H5.46289V48.0015H6.92631V46.5381Z" fill="black"/>
<path d="M9.85404 46.5381H8.39062V48.0015H9.85404V46.5381Z" fill="black"/>
<path d="M11.3169 46.5381H9.85352V48.0015H11.3169V46.5381Z" fill="black"/>
<path d="M12.7808 46.5381H11.3174V48.0015H12.7808V46.5381Z" fill="black"/>
<path d="M15.7076 46.5381H14.2441V48.0015H15.7076V46.5381Z" fill="black"/>
<path d="M17.1704 46.5381H15.707V48.0015H17.1704V46.5381Z" fill="black"/>
<path d="M18.6343 46.5381H17.1709V48.0015H18.6343V46.5381Z" fill="black"/>
<path d="M24.4878 46.5381H23.0244V48.0015H24.4878V46.5381Z" fill="black"/>
<path d="M25.9517 46.5381H24.4883V48.0015H25.9517V46.5381Z" fill="black"/>
<path d="M30.3413 46.5381H28.8779V48.0015H30.3413V46.5381Z" fill="black"/>
<path d="M37.6587 46.5381H36.1953V48.0015H37.6587V46.5381Z" fill="black"/>
<path d="M40.5855 46.5381H39.1221V48.0015H40.5855V46.5381Z" fill="black"/>
<path d="M43.5122 46.5381H42.0488V48.0015H43.5122V46.5381Z" fill="black"/>
<path d="M46.439 46.5381H44.9756V48.0015H46.439V46.5381Z" fill="black"/>
<path d="M53.7564 46.5381H52.293V48.0015H53.7564V46.5381Z" fill="black"/>
<path d="M56.6831 46.5381H55.2197V48.0015H56.6831V46.5381Z" fill="black"/>
<path d="M58.146 46.5381H56.6826V48.0015H58.146V46.5381Z" fill="black"/>
<path d="M59.6099 46.5381H58.1465V48.0015H59.6099V46.5381Z" fill="black"/>
<path d="M62.5367 46.5381H61.0732V48.0015H62.5367V46.5381Z" fill="black"/>
<path d="M64.0005 46.5381H62.5371V48.0015H64.0005V46.5381Z" fill="black"/>
<path d="M5.46341 48.002H4V49.4654H5.46341V48.002Z" fill="black"/>
<path d="M6.92631 48.002H5.46289V49.4654H6.92631V48.002Z" fill="black"/>
<path d="M9.85404 48.002H8.39062V49.4654H9.85404V48.002Z" fill="black"/>
<path d="M11.3169 48.002H9.85352V49.4654H11.3169V48.002Z" fill="black"/>
<path d="M14.2437 48.002H12.7803V49.4654H14.2437V48.002Z" fill="black"/>
<path d="M15.7076 48.002H14.2441V49.4654H15.7076V48.002Z" fill="black"/>
<path d="M17.1704 48.002H15.707V49.4654H17.1704V48.002Z" fill="black"/>
<path d="M18.6343 48.002H17.1709V49.4654H18.6343V48.002Z" fill="black"/>
<path d="M21.5611 48.002H20.0977V49.4654H21.5611V48.002Z" fill="black"/>
<path d="M24.4878 48.002H23.0244V49.4654H24.4878V48.002Z" fill="black"/>
<path d="M27.4146 48.002H25.9512V49.4654H27.4146V48.002Z" fill="black"/>
<path d="M30.3413 48.002H28.8779V49.4654H30.3413V48.002Z" fill="black"/>
<path d="M33.2681 48.002H31.8047V49.4654H33.2681V48.002Z" fill="black"/>
<path d="M36.1949 48.002H34.7314V49.4654H36.1949V48.002Z" fill="black"/>
<path d="M37.6587 48.002H36.1953V49.4654H37.6587V48.002Z" fill="black"/>
<path d="M43.5122 48.002H42.0488V49.4654H43.5122V48.002Z" fill="black"/>
<path d="M46.439 48.002H44.9756V49.4654H46.439V48.002Z" fill="black"/>
<path d="M50.8296 48.002H49.3662V49.4654H50.8296V48.002Z" fill="black"/>
<path d="M52.2925 48.002H50.8291V49.4654H52.2925V48.002Z" fill="black"/>
<path d="M55.2193 48.002H53.7559V49.4654H55.2193V48.002Z" fill="black"/>
<path d="M56.6831 48.002H55.2197V49.4654H56.6831V48.002Z" fill="black"/>
<path d="M59.6099 48.002H58.1465V49.4654H59.6099V48.002Z" fill="black"/>
<path d="M5.46341 49.4658H4V50.9292H5.46341V49.4658Z" fill="black"/>
<path d="M8.39017 49.4658H6.92676V50.9292H8.39017V49.4658Z" fill="black"/>
<path d="M9.85404 49.4658H8.39062V50.9292H9.85404V49.4658Z" fill="black"/>
<path d="M11.3169 49.4658H9.85352V50.9292H11.3169V49.4658Z" fill="black"/>
<path d="M12.7808 49.4658H11.3174V50.9292H12.7808V49.4658Z" fill="black"/>
<path d="M15.7076 49.4658H14.2441V50.9292H15.7076V49.4658Z" fill="black"/>
<path d="M21.5611 49.4658H20.0977V50.9292H21.5611V49.4658Z" fill="black"/>
<path d="M23.0249 49.4658H21.5615V50.9292H23.0249V49.4658Z" fill="black"/>
<path d="M28.8775 49.4658H27.4141V50.9292H28.8775V49.4658Z" fill="black"/>
<path d="M31.8052 49.4658H30.3418V50.9292H31.8052V49.4658Z" fill="black"/>
<path d="M34.732 49.4658H33.2686V50.9292H34.732V49.4658Z" fill="black"/>
<path d="M36.1949 49.4658H34.7314V50.9292H36.1949V49.4658Z" fill="black"/>
<path d="M37.6587 49.4658H36.1953V50.9292H37.6587V49.4658Z" fill="black"/>
<path d="M40.5855 49.4658H39.1221V50.9292H40.5855V49.4658Z" fill="black"/>
<path d="M42.0494 49.4658H40.5859V50.9292H42.0494V49.4658Z" fill="black"/>
<path d="M43.5122 49.4658H42.0488V50.9292H43.5122V49.4658Z" fill="black"/>
<path d="M44.9751 49.4658H43.5117V50.9292H44.9751V49.4658Z" fill="black"/>
<path d="M46.439 49.4658H44.9756V50.9292H46.439V49.4658Z" fill="black"/>
<path d="M53.7564 49.4658H52.293V50.9292H53.7564V49.4658Z" fill="black"/>
<path d="M55.2193 49.4658H53.7559V50.9292H55.2193V49.4658Z" fill="black"/>
<path d="M56.6831 49.4658H55.2197V50.9292H56.6831V49.4658Z" fill="black"/>
<path d="M58.146 49.4658H56.6826V50.9292H58.146V49.4658Z" fill="black"/>
<path d="M59.6099 49.4658H58.1465V50.9292H59.6099V49.4658Z" fill="black"/>
<path d="M61.0728 49.4658H59.6094V50.9292H61.0728V49.4658Z" fill="black"/>
<path d="M64.0005 49.4658H62.5371V50.9292H64.0005V49.4658Z" fill="black"/>
<path d="M5.46341 50.9297H4V52.3931H5.46341V50.9297Z" fill="black"/>
<path d="M14.2437 50.9297H12.7803V52.3931H14.2437V50.9297Z" fill="black"/>
<path d="M17.1704 50.9297H15.707V52.3931H17.1704V50.9297Z" fill="black"/>
<path d="M18.6343 50.9297H17.1709V52.3931H18.6343V50.9297Z" fill="black"/>
<path d="M21.5611 50.9297H20.0977V52.3931H21.5611V50.9297Z" fill="black"/>
<path d="M30.3413 50.9297H28.8779V52.3931H30.3413V50.9297Z" fill="black"/>
<path d="M33.2681 50.9297H31.8047V52.3931H33.2681V50.9297Z" fill="black"/>
<path d="M37.6587 50.9297H36.1953V52.3931H37.6587V50.9297Z" fill="black"/>
<path d="M40.5855 50.9297H39.1221V52.3931H40.5855V50.9297Z" fill="black"/>
<path d="M46.439 50.9297H44.9756V52.3931H46.439V50.9297Z" fill="black"/>
<path d="M49.3658 50.9297H47.9023V52.3931H49.3658V50.9297Z" fill="black"/>
<path d="M52.2925 50.9297H50.8291V52.3931H52.2925V50.9297Z" fill="black"/>
<path d="M53.7564 50.9297H52.293V52.3931H53.7564V50.9297Z" fill="black"/>
<path d="M55.2193 50.9297H53.7559V52.3931H55.2193V50.9297Z" fill="black"/>
<path d="M56.6831 50.9297H55.2197V52.3931H56.6831V50.9297Z" fill="black"/>
<path d="M58.146 50.9297H56.6826V52.3931H58.146V50.9297Z" fill="black"/>
<path d="M61.0728 50.9297H59.6094V52.3931H61.0728V50.9297Z" fill="black"/>
<path d="M17.1704 52.3916H15.707V53.855H17.1704V52.3916Z" fill="black"/>
<path d="M18.6343 52.3916H17.1709V53.855H18.6343V52.3916Z" fill="black"/>
<path d="M20.0972 52.3916H18.6338V53.855H20.0972V52.3916Z" fill="black"/>
<path d="M23.0249 52.3916H21.5615V53.855H23.0249V52.3916Z" fill="black"/>
<path d="M24.4878 52.3916H23.0244V53.855H24.4878V52.3916Z" fill="black"/>
<path d="M25.9517 52.3916H24.4883V53.855H25.9517V52.3916Z" fill="black"/>
<path d="M27.4146 52.3916H25.9512V53.855H27.4146V52.3916Z" fill="black"/>
<path d="M28.8775 52.3916H27.4141V53.855H28.8775V52.3916Z" fill="black"/>
<path d="M36.1949 52.3916H34.7314V53.855H36.1949V52.3916Z" fill="black"/>
<path d="M42.0494 52.3916H40.5859V53.855H42.0494V52.3916Z" fill="black"/>
<path d="M43.5122 52.3916H42.0488V53.855H43.5122V52.3916Z" fill="black"/>
<path d="M46.439 52.3916H44.9756V53.855H46.439V52.3916Z" fill="black"/>
<path d="M49.3658 52.3916H47.9023V53.855H49.3658V52.3916Z" fill="black"/>
<path d="M50.8296 52.3916H49.3662V53.855H50.8296V52.3916Z" fill="black"/>
<path d="M52.2925 52.3916H50.8291V53.855H52.2925V52.3916Z" fill="black"/>
<path d="M58.146 52.3916H56.6826V53.855H58.146V52.3916Z" fill="black"/>
<path d="M61.0728 52.3916H59.6094V53.855H61.0728V52.3916Z" fill="black"/>
<path d="M5.46341 53.8555H4V55.3189H5.46341V53.8555Z" fill="black"/>
<path d="M6.92631 53.8555H5.46289V55.3189H6.92631V53.8555Z" fill="black"/>
<path d="M8.39017 53.8555H6.92676V55.3189H8.39017V53.8555Z" fill="black"/>
<path d="M9.85404 53.8555H8.39062V55.3189H9.85404V53.8555Z" fill="black"/>
<path d="M11.3169 53.8555H9.85352V55.3189H11.3169V53.8555Z" fill="black"/>
<path d="M12.7808 53.8555H11.3174V55.3189H12.7808V53.8555Z" fill="black"/>
<path d="M14.2437 53.8555H12.7803V55.3189H14.2437V53.8555Z" fill="black"/>
<path d="M21.5611 53.8555H20.0977V55.3189H21.5611V53.8555Z" fill="black"/>
<path d="M24.4878 53.8555H23.0244V55.3189H24.4878V53.8555Z" fill="black"/>
<path d="M27.4146 53.8555H25.9512V55.3189H27.4146V53.8555Z" fill="black"/>
<path d="M28.8775 53.8555H27.4141V55.3189H28.8775V53.8555Z" fill="black"/>
<path d="M30.3413 53.8555H28.8779V55.3189H30.3413V53.8555Z" fill="black"/>
<path d="M31.8052 53.8555H30.3418V55.3189H31.8052V53.8555Z" fill="black"/>
<path d="M34.732 53.8555H33.2686V55.3189H34.732V53.8555Z" fill="black"/>
<path d="M36.1949 53.8555H34.7314V55.3189H36.1949V53.8555Z" fill="black"/>
<path d="M37.6587 53.8555H36.1953V55.3189H37.6587V53.8555Z" fill="black"/>
<path d="M44.9751 53.8555H43.5117V55.3189H44.9751V53.8555Z" fill="black"/>
<path d="M49.3658 53.8555H47.9023V55.3189H49.3658V53.8555Z" fill="black"/>
<path d="M50.8296 53.8555H49.3662V55.3189H50.8296V53.8555Z" fill="black"/>
<path d="M52.2925 53.8555H50.8291V55.3189H52.2925V53.8555Z" fill="black"/>
<path d="M55.2193 53.8555H53.7559V55.3189H55.2193V53.8555Z" fill="black"/>
<path d="M58.146 53.8555H56.6826V55.3189H58.146V53.8555Z" fill="black"/>
<path d="M59.6099 53.8555H58.1465V55.3189H59.6099V53.8555Z" fill="black"/>
<path d="M61.0728 53.8555H59.6094V55.3189H61.0728V53.8555Z" fill="black"/>
<path d="M64.0005 53.8555H62.5371V55.3189H64.0005V53.8555Z" fill="black"/>
<path d="M5.46341 55.3193H4V56.7828H5.46341V55.3193Z" fill="black"/>
<path d="M14.2437 55.3193H12.7803V56.7828H14.2437V55.3193Z" fill="black"/>
<path d="M17.1704 55.3193H15.707V56.7828H17.1704V55.3193Z" fill="black"/>
<path d="M23.0249 55.3193H21.5615V56.7828H23.0249V55.3193Z" fill="black"/>
<path d="M27.4146 55.3193H25.9512V56.7828H27.4146V55.3193Z" fill="black"/>
<path d="M34.732 55.3193H33.2686V56.7828H34.732V55.3193Z" fill="black"/>
<path d="M36.1949 55.3193H34.7314V56.7828H36.1949V55.3193Z" fill="black"/>
<path d="M39.1216 55.3193H37.6582V56.7828H39.1216V55.3193Z" fill="black"/>
<path d="M42.0494 55.3193H40.5859V56.7828H42.0494V55.3193Z" fill="black"/>
<path d="M43.5122 55.3193H42.0488V56.7828H43.5122V55.3193Z" fill="black"/>
<path d="M44.9751 55.3193H43.5117V56.7828H44.9751V55.3193Z" fill="black"/>
<path d="M46.439 55.3193H44.9756V56.7828H46.439V55.3193Z" fill="black"/>
<path d="M52.2925 55.3193H50.8291V56.7828H52.2925V55.3193Z" fill="black"/>
<path d="M58.146 55.3193H56.6826V56.7828H58.146V55.3193Z" fill="black"/>
<path d="M59.6099 55.3193H58.1465V56.7828H59.6099V55.3193Z" fill="black"/>
<path d="M61.0728 55.3193H59.6094V56.7828H61.0728V55.3193Z" fill="black"/>
<path d="M64.0005 55.3193H62.5371V56.7828H64.0005V55.3193Z" fill="black"/>
<path d="M5.46341 56.7832H4V58.2466H5.46341V56.7832Z" fill="black"/>
<path d="M8.39017 56.7832H6.92676V58.2466H8.39017V56.7832Z" fill="black"/>
<path d="M9.85404 56.7832H8.39062V58.2466H9.85404V56.7832Z" fill="black"/>
<path d="M11.3169 56.7832H9.85352V58.2466H11.3169V56.7832Z" fill="black"/>
<path d="M14.2437 56.7832H12.7803V58.2466H14.2437V56.7832Z" fill="black"/>
<path d="M18.6343 56.7832H17.1709V58.2466H18.6343V56.7832Z" fill="black"/>
<path d="M20.0972 56.7832H18.6338V58.2466H20.0972V56.7832Z" fill="black"/>
<path d="M23.0249 56.7832H21.5615V58.2466H23.0249V56.7832Z" fill="black"/>
<path d="M24.4878 56.7832H23.0244V58.2466H24.4878V56.7832Z" fill="black"/>
<path d="M25.9517 56.7832H24.4883V58.2466H25.9517V56.7832Z" fill="black"/>
<path d="M27.4146 56.7832H25.9512V58.2466H27.4146V56.7832Z" fill="black"/>
<path d="M30.3413 56.7832H28.8779V58.2466H30.3413V56.7832Z" fill="black"/>
<path d="M33.2681 56.7832H31.8047V58.2466H33.2681V56.7832Z" fill="black"/>
<path d="M37.6587 56.7832H36.1953V58.2466H37.6587V56.7832Z" fill="black"/>
<path d="M42.0494 56.7832H40.5859V58.2466H42.0494V56.7832Z" fill="black"/>
<path d="M43.5122 56.7832H42.0488V58.2466H43.5122V56.7832Z" fill="black"/>
<path d="M44.9751 56.7832H43.5117V58.2466H44.9751V56.7832Z" fill="black"/>
<path d="M47.9019 56.7832H46.4385V58.2466H47.9019V56.7832Z" fill="black"/>
<path d="M49.3658 56.7832H47.9023V58.2466H49.3658V56.7832Z" fill="black"/>
<path d="M50.8296 56.7832H49.3662V58.2466H50.8296V56.7832Z" fill="black"/>
<path d="M52.2925 56.7832H50.8291V58.2466H52.2925V56.7832Z" fill="black"/>
<path d="M53.7564 56.7832H52.293V58.2466H53.7564V56.7832Z" fill="black"/>
<path d="M55.2193 56.7832H53.7559V58.2466H55.2193V56.7832Z" fill="black"/>
<path d="M56.6831 56.7832H55.2197V58.2466H56.6831V56.7832Z" fill="black"/>
<path d="M58.146 56.7832H56.6826V58.2466H58.146V56.7832Z" fill="black"/>
<path d="M62.5367 56.7832H61.0732V58.2466H62.5367V56.7832Z" fill="black"/>
<path d="M64.0005 56.7832H62.5371V58.2466H64.0005V56.7832Z" fill="black"/>
<path d="M5.46341 58.2461H4V59.7095H5.46341V58.2461Z" fill="black"/>
<path d="M8.39017 58.2461H6.92676V59.7095H8.39017V58.2461Z" fill="black"/>
<path d="M9.85404 58.2461H8.39062V59.7095H9.85404V58.2461Z" fill="black"/>
<path d="M11.3169 58.2461H9.85352V59.7095H11.3169V58.2461Z" fill="black"/>
<path d="M14.2437 58.2461H12.7803V59.7095H14.2437V58.2461Z" fill="black"/>
<path d="M20.0972 58.2461H18.6338V59.7095H20.0972V58.2461Z" fill="black"/>
<path d="M21.5611 58.2461H20.0977V59.7095H21.5611V58.2461Z" fill="black"/>
<path d="M24.4878 58.2461H23.0244V59.7095H24.4878V58.2461Z" fill="black"/>
<path d="M28.8775 58.2461H27.4141V59.7095H28.8775V58.2461Z" fill="black"/>
<path d="M31.8052 58.2461H30.3418V59.7095H31.8052V58.2461Z" fill="black"/>
<path d="M34.732 58.2461H33.2686V59.7095H34.732V58.2461Z" fill="black"/>
<path d="M39.1216 58.2461H37.6582V59.7095H39.1216V58.2461Z" fill="black"/>
<path d="M42.0494 58.2461H40.5859V59.7095H42.0494V58.2461Z" fill="black"/>
<path d="M44.9751 58.2461H43.5117V59.7095H44.9751V58.2461Z" fill="black"/>
<path d="M46.439 58.2461H44.9756V59.7095H46.439V58.2461Z" fill="black"/>
<path d="M52.2925 58.2461H50.8291V59.7095H52.2925V58.2461Z" fill="black"/>
<path d="M58.146 58.2461H56.6826V59.7095H58.146V58.2461Z" fill="black"/>
<path d="M59.6099 58.2461H58.1465V59.7095H59.6099V58.2461Z" fill="black"/>
<path d="M62.5367 58.2461H61.0732V59.7095H62.5367V58.2461Z" fill="black"/>
<path d="M5.46341 59.709H4V61.1724H5.46341V59.709Z" fill="black"/>
<path d="M8.39017 59.709H6.92676V61.1724H8.39017V59.709Z" fill="black"/>
<path d="M9.85404 59.709H8.39062V61.1724H9.85404V59.709Z" fill="black"/>
<path d="M11.3169 59.709H9.85352V61.1724H11.3169V59.709Z" fill="black"/>
<path d="M14.2437 59.709H12.7803V61.1724H14.2437V59.709Z" fill="black"/>
<path d="M18.6343 59.709H17.1709V61.1724H18.6343V59.709Z" fill="black"/>
<path d="M20.0972 59.709H18.6338V61.1724H20.0972V59.709Z" fill="black"/>
<path d="M21.5611 59.709H20.0977V61.1724H21.5611V59.709Z" fill="black"/>
<path d="M28.8775 59.709H27.4141V61.1724H28.8775V59.709Z" fill="black"/>
<path d="M31.8052 59.709H30.3418V61.1724H31.8052V59.709Z" fill="black"/>
<path d="M34.732 59.709H33.2686V61.1724H34.732V59.709Z" fill="black"/>
<path d="M40.5855 59.709H39.1221V61.1724H40.5855V59.709Z" fill="black"/>
<path d="M43.5122 59.709H42.0488V61.1724H43.5122V59.709Z" fill="black"/>
<path d="M47.9019 59.709H46.4385V61.1724H47.9019V59.709Z" fill="black"/>
<path d="M50.8296 59.709H49.3662V61.1724H50.8296V59.709Z" fill="black"/>
<path d="M55.2193 59.709H53.7559V61.1724H55.2193V59.709Z" fill="black"/>
<path d="M56.6831 59.709H55.2197V61.1724H56.6831V59.709Z" fill="black"/>
<path d="M58.146 59.709H56.6826V61.1724H58.146V59.709Z" fill="black"/>
<path d="M61.0728 59.709H59.6094V61.1724H61.0728V59.709Z" fill="black"/>
<path d="M62.5367 59.709H61.0732V61.1724H62.5367V59.709Z" fill="black"/>
<path d="M5.46341 61.1719H4V62.6353H5.46341V61.1719Z" fill="black"/>
<path d="M14.2437 61.1719H12.7803V62.6353H14.2437V61.1719Z" fill="black"/>
<path d="M18.6343 61.1719H17.1709V62.6353H18.6343V61.1719Z" fill="black"/>
<path d="M20.0972 61.1719H18.6338V62.6353H20.0972V61.1719Z" fill="black"/>
<path d="M21.5611 61.1719H20.0977V62.6353H21.5611V61.1719Z" fill="black"/>
<path d="M28.8775 61.1719H27.4141V62.6353H28.8775V61.1719Z" fill="black"/>
<path d="M31.8052 61.1719H30.3418V62.6353H31.8052V61.1719Z" fill="black"/>
<path d="M36.1949 61.1719H34.7314V62.6353H36.1949V61.1719Z" fill="black"/>
<path d="M42.0494 61.1719H40.5859V62.6353H42.0494V61.1719Z" fill="black"/>
<path d="M43.5122 61.1719H42.0488V62.6353H43.5122V61.1719Z" fill="black"/>
<path d="M44.9751 61.1719H43.5117V62.6353H44.9751V61.1719Z" fill="black"/>
<path d="M49.3658 61.1719H47.9023V62.6353H49.3658V61.1719Z" fill="black"/>
<path d="M55.2193 61.1719H53.7559V62.6353H55.2193V61.1719Z" fill="black"/>
<path d="M56.6831 61.1719H55.2197V62.6353H56.6831V61.1719Z" fill="black"/>
<path d="M62.5367 61.1719H61.0732V62.6353H62.5367V61.1719Z" fill="black"/>
<path d="M5.46341 62.6357H4V64.0992H5.46341V62.6357Z" fill="black"/>
<path d="M6.92631 62.6357H5.46289V64.0992H6.92631V62.6357Z" fill="black"/>
<path d="M8.39017 62.6357H6.92676V64.0992H8.39017V62.6357Z" fill="black"/>
<path d="M9.85404 62.6357H8.39062V64.0992H9.85404V62.6357Z" fill="black"/>
<path d="M11.3169 62.6357H9.85352V64.0992H11.3169V62.6357Z" fill="black"/>
<path d="M12.7808 62.6357H11.3174V64.0992H12.7808V62.6357Z" fill="black"/>
<path d="M14.2437 62.6357H12.7803V64.0992H14.2437V62.6357Z" fill="black"/>
<path d="M18.6343 62.6357H17.1709V64.0992H18.6343V62.6357Z" fill="black"/>
<path d="M20.0972 62.6357H18.6338V64.0992H20.0972V62.6357Z" fill="black"/>
<path d="M21.5611 62.6357H20.0977V64.0992H21.5611V62.6357Z" fill="black"/>
<path d="M24.4878 62.6357H23.0244V64.0992H24.4878V62.6357Z" fill="black"/>
<path d="M25.9517 62.6357H24.4883V64.0992H25.9517V62.6357Z" fill="black"/>
<path d="M27.4146 62.6357H25.9512V64.0992H27.4146V62.6357Z" fill="black"/>
<path d="M31.8052 62.6357H30.3418V64.0992H31.8052V62.6357Z" fill="black"/>
<path d="M36.1949 62.6357H34.7314V64.0992H36.1949V62.6357Z" fill="black"/>
<path d="M39.1216 62.6357H37.6582V64.0992H39.1216V62.6357Z" fill="black"/>
<path d="M44.9751 62.6357H43.5117V64.0992H44.9751V62.6357Z" fill="black"/>
<path d="M46.439 62.6357H44.9756V64.0992H46.439V62.6357Z" fill="black"/>
<path d="M49.3658 62.6357H47.9023V64.0992H49.3658V62.6357Z" fill="black"/>
<path d="M50.8296 62.6357H49.3662V64.0992H50.8296V62.6357Z" fill="black"/>
<path d="M52.2925 62.6357H50.8291V64.0992H52.2925V62.6357Z" fill="black"/>
<path d="M53.7564 62.6357H52.293V64.0992H53.7564V62.6357Z" fill="black"/>
<path d="M55.2193 62.6357H53.7559V64.0992H55.2193V62.6357Z" fill="black"/>
<path d="M56.6831 62.6357H55.2197V64.0992H56.6831V62.6357Z" fill="black"/>
<path d="M58.146 62.6357H56.6826V64.0992H58.146V62.6357Z" fill="black"/>
<path d="M59.6099 62.6357H58.1465V64.0992H59.6099V62.6357Z" fill="black"/>
</g>
<defs>
<clipPath id="clip0_20_6049">
<rect width="60" height="60" fill="white" transform="translate(4 4.09961)"/>
</clipPath>
</defs>
</svg>
