<svg width="45" height="45" viewBox="0 0 45 45" fill="none" xmlns="http://www.w3.org/2000/svg">
<path d="M0 10C0 4.47715 4.47715 0 10 0H35C40.5228 0 45 4.47715 45 10V35C45 40.5228 40.5228 45 35 45H10C4.47715 45 0 40.5228 0 35V10Z" fill="url(#paint0_linear_64_1189)"/>
<path d="M7.25195 30.9646C7.25195 26.7729 10.6501 23.3748 14.8418 23.3748C19.0336 23.3748 22.4317 26.7729 22.4317 30.9646C22.4317 35.1564 19.0336 38.5545 14.8418 38.5545C10.6501 38.5545 7.25195 35.1564 7.25195 30.9646Z" fill="white"/>
<path d="M7.25195 14.0743C7.25195 9.88249 10.6501 6.48438 14.8418 6.48438C19.0336 6.48438 22.4317 9.88249 22.4317 14.0743C22.4317 18.2661 19.0336 21.6642 14.8418 21.6642C10.6501 21.6642 7.25195 18.2661 7.25195 14.0743Z" fill="white"/>
<path d="M24.5645 6.48438C32.1215 6.48438 38.2476 12.6106 38.2476 20.1676V38.5544C30.6906 38.5544 24.5645 32.4282 24.5645 24.8712V6.48438Z" fill="white"/>
<defs>
<linearGradient id="paint0_linear_64_1189" x1="22.5" y1="0" x2="22.5" y2="55.8" gradientUnits="userSpaceOnUse">
<stop stop-color="#03B0FF"/>
<stop offset="0.504808" stop-color="#0686FF"/>
<stop offset="1" stop-color="#0C88FA"/>
</linearGradient>
</defs>
</svg>
