<svg width="45.000000" height="45.000000" viewBox="0 0 45 45" fill="none" xmlns="http://www.w3.org/2000/svg" xmlns:xlink="http://www.w3.org/1999/xlink">
	<desc>
			Created with Pixso.
	</desc>
	<defs>
		<clipPath id="clip11_47438">
			<rect id="App Icon Grid" rx="6.038901" width="44.864990" height="44.864990" transform="translate(0.067505 0.067505)" fill="white" fill-opacity="0"/>
		</clipPath>
	</defs>
	<rect id="App Icon Grid" rx="6.038901" width="44.864990" height="44.864990" transform="translate(0.067505 0.067505)" fill="#FFFFFF" fill-opacity="0"/>
	<g clip-path="url(#clip11_47438)">
		<path id="Vector" d="M7.25 14.07C7.25 9.88 10.64 6.48 14.84 6.48C19.03 6.48 22.42 9.88 22.42 14.07C22.42 18.26 19.03 21.66 14.84 21.66C10.64 21.66 7.25 18.26 7.25 14.07ZM38.24 20.16C38.24 12.6 32.11 6.48 24.56 6.48L24.56 24.87C24.56 32.42 30.68 38.55 38.24 38.55L38.24 20.16ZM7.25 30.96C7.25 26.77 10.64 23.37 14.84 23.37C19.03 23.37 22.42 26.77 22.42 30.96C22.42 35.15 19.03 38.55 14.84 38.55C10.64 38.55 7.25 35.15 7.25 30.96Z" fill="#FFFFFF" fill-opacity="1.000000" fill-rule="evenodd"/>
	</g>
</svg>
