<svg width="48" height="49" viewBox="0 0 48 49" fill="none" xmlns="http://www.w3.org/2000/svg">
<rect y="0.703125" width="48" height="48" rx="14" fill="#007AFF"/>
<path d="M30.6667 36.7031C30.6667 33.0212 27.6819 30.0365 24 30.0365C20.3181 30.0365 17.3333 33.0212 17.3333 36.7031M30.6667 36.7031H31.7375C33.228 36.7031 33.9733 36.7031 34.5432 36.4128C35.045 36.1571 35.454 35.7481 35.7096 35.2463C36 34.6764 36 33.9311 36 32.4406V16.9657C36 15.4751 36 14.7287 35.7096 14.1589C35.454 13.6571 35.045 13.2494 34.5432 12.9938C33.9728 12.7031 33.2271 12.7031 31.7336 12.7031H16.2669C14.7735 12.7031 14.0262 12.7031 13.4557 12.9938C12.954 13.2494 12.5463 13.6571 12.2906 14.1589C12 14.7293 12 15.4766 12 16.9701V32.4367C12 33.9302 12 34.6759 12.2906 35.2463C12.5463 35.7481 12.954 36.1571 13.4557 36.4128C14.0256 36.7031 14.772 36.7031 16.2625 36.7031H17.3333M30.6667 36.7031H17.3333M24 26.0365C21.7909 26.0365 20 24.2456 20 22.0365C20 19.8273 21.7909 18.0365 24 18.0365C26.2091 18.0365 28 19.8273 28 22.0365C28 24.2456 26.2091 26.0365 24 26.0365Z" stroke="white" stroke-width="2.66667" stroke-linecap="round" stroke-linejoin="round"/>
</svg>
