<svg width="48" height="48" viewBox="0 0 48 48" fill="none" xmlns="http://www.w3.org/2000/svg">
<rect width="48" height="48" rx="14" fill="#007AFF"/>
<path d="M21.3307 31.5422V34.6641C21.3307 36.1368 22.5246 37.3307 23.9974 37.3307C25.4702 37.3307 26.6641 36.1368 26.6641 34.6641V31.5422M23.9974 10.6641V11.9974M11.9974 23.9974H10.6641M15.3307 15.3307L14.5306 14.5306M32.6641 15.3307L33.4644 14.5306M37.3307 23.9974H35.9974M31.9974 23.9974C31.9974 28.4157 28.4157 31.9974 23.9974 31.9974C19.5791 31.9974 15.9974 28.4157 15.9974 23.9974C15.9974 19.5791 19.5791 15.9974 23.9974 15.9974C28.4157 15.9974 31.9974 19.5791 31.9974 23.9974Z" stroke="white" stroke-width="2.66667" stroke-linecap="round" stroke-linejoin="round"/>
</svg>
