<svg width="530" height="361" viewBox="0 0 530 361" fill="none" xmlns="http://www.w3.org/2000/svg">
<g clip-path="url(#clip0_1_20371)">
<path d="M0 40.0996C0 18.0082 17.9086 0.0996094 40 0.0996094H490C512.091 0.0996094 530 18.0082 530 40.0996V320.1C530 342.191 512.091 360.1 490 360.1H40C17.9086 360.1 0 342.191 0 320.1V40.0996Z" fill="#007AFF"/>
<circle opacity="0.4" cx="488" cy="31.0996" r="428" fill="url(#paint0_linear_1_20371)"/>
<circle opacity="0.4" cx="488" cy="31.0999" r="342.104" fill="url(#paint1_linear_1_20371)"/>
<circle opacity="0.4" cx="488" cy="31.0997" r="260.651" fill="url(#paint2_linear_1_20371)"/>
<circle opacity="0.4" cx="487.999" cy="31.0987" r="188.083" fill="url(#paint3_linear_1_20371)"/>
</g>
<defs>
<linearGradient id="paint0_linear_1_20371" x1="985.087" y1="-909.152" x2="60" y2="459.1" gradientUnits="userSpaceOnUse">
<stop stop-color="white"/>
<stop offset="1" stop-color="white" stop-opacity="0.15"/>
</linearGradient>
<linearGradient id="paint1_linear_1_20371" x1="885.326" y1="-720.451" x2="145.896" y2="373.204" gradientUnits="userSpaceOnUse">
<stop stop-color="white"/>
<stop offset="1" stop-color="white" stop-opacity="0.15"/>
</linearGradient>
<linearGradient id="paint2_linear_1_20371" x1="790.724" y1="-541.51" x2="227.35" y2="291.75" gradientUnits="userSpaceOnUse">
<stop stop-color="white"/>
<stop offset="1" stop-color="white" stop-opacity="0.15"/>
</linearGradient>
<linearGradient id="paint3_linear_1_20371" x1="706.442" y1="-382.092" x2="299.916" y2="219.182" gradientUnits="userSpaceOnUse">
<stop stop-color="white"/>
<stop offset="1" stop-color="white" stop-opacity="0.15"/>
</linearGradient>
<clipPath id="clip0_1_20371">
<path d="M0 40.0996C0 18.0082 17.9086 0.0996094 40 0.0996094H490C512.091 0.0996094 530 18.0082 530 40.0996V320.1C530 342.191 512.091 360.1 490 360.1H40C17.9086 360.1 0 342.191 0 320.1V40.0996Z" fill="white"/>
</clipPath>
</defs>
</svg>
