<svg width="530" height="361" viewBox="0 0 530 361" fill="none" xmlns="http://www.w3.org/2000/svg">
<g clip-path="url(#clip0_1_20352)">
<path d="M0 40.0996C0 18.0082 17.9086 0.0996094 40 0.0996094H490C512.091 0.0996094 530 18.0082 530 40.0996V320.1C530 342.191 512.091 360.1 490 360.1H40C17.9086 360.1 0 342.191 0 320.1V40.0996Z" fill="#007AFF"/>
<path opacity="0.4" d="M241.145 -152.552C255.977 -167.104 279.796 -166.877 294.348 -152.045L596.826 156.251C611.377 171.082 611.15 194.902 596.319 209.454L288.023 511.931C273.191 526.483 249.371 526.256 234.819 511.425L-67.6581 203.128C-82.2098 188.297 -81.9829 164.477 -67.1512 149.925L241.145 -152.552Z" fill="url(#paint0_linear_1_20352)"/>
<path opacity="0.4" d="M245.821 -82.1215C257.518 -93.5974 276.303 -93.4184 287.779 -81.7218L526.32 161.408C537.796 173.105 537.617 191.89 525.921 203.366L282.79 441.907C271.094 453.383 252.309 453.204 240.833 441.508L2.29139 198.377C-9.18446 186.681 -9.00549 167.896 2.69112 156.42L245.821 -82.1215Z" fill="url(#paint1_linear_1_20352)"/>
<path opacity="0.4" d="M251.457 -12.6503C260.041 -21.0727 273.828 -20.9413 282.25 -12.3569L457.321 166.082C465.744 174.666 465.612 188.453 457.028 196.876L278.589 371.947C270.004 380.369 256.218 380.238 247.795 371.653L72.7242 193.214C64.3018 184.63 64.4331 170.843 73.0175 162.421L251.457 -12.6503Z" fill="url(#paint2_linear_1_20352)"/>
<path opacity="0.4" d="M256.348 48.5501C262.231 42.7784 271.679 42.8684 277.45 48.7511L397.422 171.03C403.193 176.913 403.103 186.361 397.221 192.132L274.942 312.103C269.059 317.875 259.611 317.785 253.84 311.902L133.868 189.623C128.097 183.741 128.187 174.293 134.069 168.521L256.348 48.5501Z" fill="url(#paint3_linear_1_20352)"/>
</g>
<defs>
<linearGradient id="paint0_linear_1_20352" x1="868.473" y1="-0.222006" x2="-94.0063" y2="176.273" gradientUnits="userSpaceOnUse">
<stop stop-color="white"/>
<stop offset="1" stop-color="white" stop-opacity="0.15"/>
</linearGradient>
<linearGradient id="paint1_linear_1_20352" x1="740.548" y1="38.01" x2="-18.4875" y2="177.199" gradientUnits="userSpaceOnUse">
<stop stop-color="white"/>
<stop offset="1" stop-color="white" stop-opacity="0.15"/>
</linearGradient>
<linearGradient id="paint2_linear_1_20352" x1="614.548" y1="75.517" x2="57.4741" y2="177.671" gradientUnits="userSpaceOnUse">
<stop stop-color="white"/>
<stop offset="1" stop-color="white" stop-opacity="0.15"/>
</linearGradient>
<linearGradient id="paint3_linear_1_20352" x1="505.165" y1="108.969" x2="123.418" y2="178.972" gradientUnits="userSpaceOnUse">
<stop stop-color="white"/>
<stop offset="1" stop-color="white" stop-opacity="0.15"/>
</linearGradient>
<clipPath id="clip0_1_20352">
<path d="M0 40.0996C0 18.0082 17.9086 0.0996094 40 0.0996094H490C512.091 0.0996094 530 18.0082 530 40.0996V320.1C530 342.191 512.091 360.1 490 360.1H40C17.9086 360.1 0 342.191 0 320.1V40.0996Z" fill="white"/>
</clipPath>
</defs>
</svg>
