<svg width="730" height="361" viewBox="0 0 730 361" fill="none" xmlns="http://www.w3.org/2000/svg">
<g clip-path="url(#clip0_485_23948)">
<path d="M0 40.1016C0 18.0102 17.9086 0.101562 40 0.101562H690C712.091 0.101562 730 18.0102 730 40.1016V320.102C730 342.193 712.091 360.102 690 360.102H40C17.9086 360.102 0 342.193 0 320.102V40.1016Z" fill="#007AFF"/>
<path opacity="0.4" d="M456.89 -216.86C485.008 -262.706 555.289 -246.48 560.464 -192.948L575.141 -41.1184C577.864 -12.9506 601.156 8.76949 629.446 9.52098L781.929 13.5717C835.692 14.9998 856.78 83.978 813.008 115.226L688.858 203.852C665.826 220.294 658.662 251.325 672.155 276.2L744.889 410.28C770.534 457.554 721.341 510.306 672.394 488.022L533.567 424.818C507.811 413.093 477.355 422.404 462.56 446.527L382.81 576.557C354.692 622.402 284.41 606.177 279.235 552.645L264.558 400.815C261.835 372.647 238.543 350.927 210.254 350.176L57.7701 346.125C4.00771 344.697 -17.081 275.719 26.6914 244.471L150.841 155.845C173.874 139.403 181.038 108.371 167.544 83.4967L94.8101 -50.5835C69.1657 -97.8572 118.358 -150.61 167.306 -128.325L306.133 -65.1216C331.888 -53.3959 362.344 -62.7073 377.14 -86.8307L456.89 -216.86Z" fill="url(#paint0_linear_485_23948)"/>
<path opacity="0.4" d="M448.095 -122.529C469.528 -157.473 523.097 -145.106 527.042 -104.303L538.229 11.425C540.305 32.895 558.058 49.4505 579.621 50.0233L695.847 53.1108C736.826 54.1994 752.9 106.776 719.536 130.594L624.907 198.146C607.351 210.679 601.89 234.331 612.175 253.291L667.615 355.49C687.161 391.523 649.666 431.732 612.357 414.747L506.54 366.571C486.909 357.634 463.694 364.731 452.417 383.118L391.63 482.23C370.198 517.174 316.628 504.806 312.684 464.003L301.496 348.276C299.421 326.806 281.667 310.25 260.105 309.677L143.878 306.59C102.9 305.501 86.8252 252.925 120.189 229.107L214.819 161.555C232.375 149.022 237.835 125.369 227.55 106.409L172.111 4.21053C152.564 -31.8225 190.06 -72.0315 227.369 -55.046L333.185 -6.8708C352.817 2.06676 376.031 -5.03056 387.308 -23.4179L448.095 -122.529Z" fill="url(#paint1_linear_485_23948)"/>
<path opacity="0.4" d="M437.919 -13.5476C451.627 -35.8978 485.89 -27.9876 488.412 -1.8902L495.568 72.1285C496.895 85.8606 508.25 96.4494 522.042 96.8157L596.379 98.7905C622.589 99.4868 632.87 133.114 611.531 148.348L551.006 191.554C539.778 199.57 536.285 214.698 542.863 226.825L578.322 292.19C590.824 315.237 566.842 340.954 542.98 330.09L475.3 299.278C462.744 293.561 447.896 298.101 440.683 309.861L401.804 373.252C388.096 395.602 353.833 387.692 351.31 361.595L344.155 287.576C342.827 273.844 331.472 263.255 317.681 262.889L243.344 260.914C217.134 260.218 206.853 226.59 228.192 211.357L288.717 168.15C299.945 160.135 303.438 145.006 296.86 132.88L261.401 67.5141C248.899 44.4677 272.881 18.7503 296.743 29.6141L364.423 60.4267C376.979 66.1431 391.827 61.6036 399.04 49.8432L437.919 -13.5476Z" fill="url(#paint2_linear_485_23948)"/>
<path opacity="0.4" d="M429.235 79.4035C436.355 67.7958 454.149 71.904 455.46 85.4579L459.176 123.9C459.865 131.032 465.763 136.531 472.925 136.722L511.533 137.747C525.145 138.109 530.485 155.574 519.402 163.485L487.968 185.925C482.137 190.088 480.323 197.945 483.739 204.243L502.155 238.191C508.648 250.16 496.193 263.517 483.8 257.875L448.649 241.872C442.128 238.903 434.417 241.261 430.671 247.368L410.479 280.291C403.36 291.899 385.565 287.79 384.255 274.237L380.538 235.794C379.849 228.663 373.952 223.163 366.789 222.973L328.181 221.947C314.569 221.586 309.229 204.121 320.312 196.209L351.746 173.77C357.578 169.607 359.392 161.75 355.975 155.452L337.559 121.504C331.067 109.534 343.522 96.1777 355.915 101.82L391.065 117.823C397.586 120.791 405.297 118.434 409.043 112.326L429.235 79.4035Z" fill="url(#paint3_linear_485_23948)"/>
</g>
<defs>
<linearGradient id="paint0_linear_485_23948" x1="1319.78" y1="-860.373" x2="-243.999" y2="594.667" gradientUnits="userSpaceOnUse">
<stop stop-color="white"/>
<stop offset="1" stop-color="white" stop-opacity="0.15"/>
</linearGradient>
<linearGradient id="paint1_linear_485_23948" x1="1105.81" y1="-613.027" x2="-86.136" y2="496.033" gradientUnits="userSpaceOnUse">
<stop stop-color="white"/>
<stop offset="1" stop-color="white" stop-opacity="0.15"/>
</linearGradient>
<linearGradient id="paint2_linear_485_23948" x1="858.588" y1="-327.267" x2="96.228" y2="382.081" gradientUnits="userSpaceOnUse">
<stop stop-color="white"/>
<stop offset="1" stop-color="white" stop-opacity="0.15"/>
</linearGradient>
<linearGradient id="paint3_linear_485_23948" x1="647.713" y1="-83.5292" x2="251.776" y2="284.876" gradientUnits="userSpaceOnUse">
<stop stop-color="white"/>
<stop offset="1" stop-color="white" stop-opacity="0.15"/>
</linearGradient>
<clipPath id="clip0_485_23948">
<path d="M0 40.1016C0 18.0102 17.9086 0.101562 40 0.101562H690C712.091 0.101562 730 18.0102 730 40.1016V320.102C730 342.193 712.091 360.102 690 360.102H40C17.9086 360.102 0 342.193 0 320.102V40.1016Z" fill="white"/>
</clipPath>
</defs>
</svg>
