<svg width="387" height="480" viewBox="0 0 387 480" fill="none" xmlns="http://www.w3.org/2000/svg">
<g clip-path="url(#clip0_1_9997)">
<path d="M0 25C0 11.1929 11.1929 0 25 0H362C375.807 0 387 11.1929 387 25V455C387 468.807 375.807 480 362 480H25C11.1929 480 0 468.807 0 455V25Z" fill="url(#paint0_linear_1_9997)"/>
<path opacity="0.4" d="M220 230.9H464.21V522.971L342.105 406.143L220 522.971V230.9Z" fill="url(#paint1_linear_1_9997)"/>
</g>
<defs>
<linearGradient id="paint0_linear_1_9997" x1="193.5" y1="0" x2="193.5" y2="595.2" gradientUnits="userSpaceOnUse">
<stop stop-color="#03B0FF"/>
<stop offset="0.504808" stop-color="#0686FF"/>
<stop offset="1" stop-color="#0C88FA"/>
</linearGradient>
<linearGradient id="paint1_linear_1_9997" x1="483.92" y1="56.1181" x2="151.322" y2="467.437" gradientUnits="userSpaceOnUse">
<stop stop-color="white"/>
<stop offset="1" stop-color="white" stop-opacity="0.15"/>
</linearGradient>
<clipPath id="clip0_1_9997">
<path d="M0 25C0 11.1929 11.1929 0 25 0H362C375.807 0 387 11.1929 387 25V455C387 468.807 375.807 480 362 480H25C11.1929 480 0 468.807 0 455V25Z" fill="white"/>
</clipPath>
</defs>
</svg>
