<svg width="730" height="361" viewBox="0 0 730 361" fill="none" xmlns="http://www.w3.org/2000/svg">
<g clip-path="url(#clip0_485_23877)">
<path d="M0 40.1016C0 18.0102 17.9086 0.101562 40 0.101562H690C712.091 0.101562 730 18.0102 730 40.1016V320.102C730 342.193 712.091 360.102 690 360.102H40C17.9086 360.102 0 342.193 0 320.102V40.1016Z" fill="#007AFF"/>
<path opacity="0.4" d="M341.145 -152.55C355.977 -167.102 379.796 -166.875 394.348 -152.043L696.826 156.253C711.377 171.084 711.15 194.904 696.319 209.456L388.023 511.933C373.191 526.485 349.371 526.258 334.819 511.427L32.3419 203.13C17.7902 188.299 18.0171 164.479 32.8488 149.927L341.145 -152.55Z" fill="url(#paint0_linear_485_23877)"/>
<path opacity="0.4" d="M345.821 -82.1196C357.518 -93.5954 376.303 -93.4165 387.779 -81.7198L626.32 161.41C637.796 173.107 637.617 191.892 625.921 203.368L382.79 441.909C371.094 453.385 352.309 453.206 340.833 441.51L102.291 198.379C90.8155 186.683 90.9945 167.898 102.691 156.422L345.821 -82.1196Z" fill="url(#paint1_linear_485_23877)"/>
<path opacity="0.4" d="M351.457 -12.6483C360.041 -21.0707 373.828 -20.9394 382.25 -12.355L557.321 166.084C565.744 174.668 565.612 188.455 557.028 196.878L378.589 371.949C370.004 380.371 356.218 380.24 347.795 371.655L172.724 193.216C164.302 184.632 164.433 170.845 173.018 162.423L351.457 -12.6483Z" fill="url(#paint2_linear_485_23877)"/>
<path opacity="0.4" d="M356.348 48.552C362.231 42.7804 371.679 42.8704 377.45 48.7531L497.422 171.032C503.193 176.915 503.103 186.363 497.221 192.134L374.942 312.105C369.059 317.877 359.611 317.787 353.84 311.904L233.868 189.625C228.097 183.743 228.187 174.295 234.069 168.523L356.348 48.552Z" fill="url(#paint3_linear_485_23877)"/>
</g>
<defs>
<linearGradient id="paint0_linear_485_23877" x1="968.473" y1="-0.220053" x2="5.99369" y2="176.275" gradientUnits="userSpaceOnUse">
<stop stop-color="white"/>
<stop offset="1" stop-color="white" stop-opacity="0.15"/>
</linearGradient>
<linearGradient id="paint1_linear_485_23877" x1="840.548" y1="38.0119" x2="81.5125" y2="177.201" gradientUnits="userSpaceOnUse">
<stop stop-color="white"/>
<stop offset="1" stop-color="white" stop-opacity="0.15"/>
</linearGradient>
<linearGradient id="paint2_linear_485_23877" x1="714.548" y1="75.519" x2="157.474" y2="177.673" gradientUnits="userSpaceOnUse">
<stop stop-color="white"/>
<stop offset="1" stop-color="white" stop-opacity="0.15"/>
</linearGradient>
<linearGradient id="paint3_linear_485_23877" x1="605.165" y1="108.971" x2="223.418" y2="178.974" gradientUnits="userSpaceOnUse">
<stop stop-color="white"/>
<stop offset="1" stop-color="white" stop-opacity="0.15"/>
</linearGradient>
<clipPath id="clip0_485_23877">
<path d="M0 40.1016C0 18.0102 17.9086 0.101562 40 0.101562H690C712.091 0.101562 730 18.0102 730 40.1016V320.102C730 342.193 712.091 360.102 690 360.102H40C17.9086 360.102 0 342.193 0 320.102V40.1016Z" fill="white"/>
</clipPath>
</defs>
</svg>
