<svg width="1428" height="848" viewBox="0 0 1428 848" fill="none" xmlns="http://www.w3.org/2000/svg">
<g filter="url(#filter0_d_1_10046)">
<g clip-path="url(#clip0_1_10046)">
<path d="M9 15C9 6.71574 15.7157 0 24 0H1404C1412.28 0 1419 6.71573 1419 15V801C1419 809.284 1412.28 816 1404 816H24C15.7157 816 9 809.284 9 801V15Z" fill="url(#paint0_linear_1_10046)"/>
<circle cx="714.4" cy="1170.4" r="906.4" fill="white" fill-opacity="0.09"/>
<circle cx="714.4" cy="1340.4" r="906.4" fill="white" fill-opacity="0.09"/>
<circle cx="714.4" cy="1515.4" r="906.4" fill="white" fill-opacity="0.09"/>
</g>
</g>
<defs>
<filter id="filter0_d_1_10046" x="0.1" y="0" width="1427.8" height="847.9" filterUnits="userSpaceOnUse" color-interpolation-filters="sRGB">
<feFlood flood-opacity="0" result="BackgroundImageFix"/>
<feColorMatrix in="SourceAlpha" type="matrix" values="0 0 0 0 0 0 0 0 0 0 0 0 0 0 0 0 0 0 127 0" result="hardAlpha"/>
<feMorphology radius="9" operator="erode" in="SourceAlpha" result="effect1_dropShadow_1_10046"/>
<feOffset dy="23"/>
<feGaussianBlur stdDeviation="8.95"/>
<feComposite in2="hardAlpha" operator="out"/>
<feColorMatrix type="matrix" values="0 0 0 0 0 0 0 0 0 0.478431 0 0 0 0 1 0 0 0 0.15 0"/>
<feBlend mode="normal" in2="BackgroundImageFix" result="effect1_dropShadow_1_10046"/>
<feBlend mode="normal" in="SourceGraphic" in2="effect1_dropShadow_1_10046" result="shape"/>
</filter>
<linearGradient id="paint0_linear_1_10046" x1="714" y1="0" x2="714" y2="1011.84" gradientUnits="userSpaceOnUse">
<stop stop-color="#03B0FF"/>
<stop offset="0.504808" stop-color="#0686FF"/>
<stop offset="1" stop-color="#0C88FA"/>
</linearGradient>
<clipPath id="clip0_1_10046">
<path d="M9 15C9 6.71574 15.7157 0 24 0H1404C1412.28 0 1419 6.71573 1419 15V801C1419 809.284 1412.28 816 1404 816H24C15.7157 816 9 809.284 9 801V15Z" fill="white"/>
</clipPath>
</defs>
</svg>
