<svg width="145" height="66" viewBox="0 0 145 66" fill="none" xmlns="http://www.w3.org/2000/svg">
<path d="M0.626861 23.0369C0.280655 13.1228 8.03692 4.80528 17.951 4.45908L124.842 0.726359C134.756 0.380154 143.074 8.13641 143.42 18.0504L144.288 42.9045C144.634 52.8185 136.878 61.1361 126.964 61.4823L20.0726 65.215C10.1586 65.5612 1.84099 57.8049 1.49478 47.8909L0.626861 23.0369Z" fill="#007AFF"/>
<path d="M0.626861 23.0369C0.280655 13.1228 8.03692 4.80528 17.951 4.45908L124.842 0.726359C134.756 0.380154 143.074 8.13641 143.42 18.0504L144.288 42.9045C144.634 52.8185 136.878 61.1361 126.964 61.4823L20.0726 65.215C10.1586 65.5612 1.84099 57.8049 1.49478 47.8909L0.626861 23.0369Z" fill="url(#paint0_linear_485_24004)"/>
<path d="M14.48 45.5008L13.9089 29.1472L27.2495 28.6813L27.8206 45.035L24.7011 45.1439L24.2259 31.5371L17.1031 31.7859L17.5783 45.3926L14.48 45.5008ZM32.3908 51.0155L31.6056 28.5292L34.7145 28.4206L34.807 31.0717L35.0732 31.0624C35.2459 30.7153 35.4983 30.312 35.8305 29.8527C36.1626 29.3934 36.6317 28.9861 37.2375 28.631C37.8432 28.2687 38.6535 28.0699 39.6685 28.0344C40.9887 27.9883 42.1786 28.2808 43.2382 28.9118C44.2978 29.5428 45.1441 30.4762 45.7771 31.712C46.4172 32.9475 46.7681 34.4489 46.8298 36.2163C46.8916 37.9837 46.6499 39.5094 46.1049 40.7934C45.5597 42.0703 44.7843 43.0674 43.7789 43.7848C42.7733 44.495 41.6103 44.8732 40.2901 44.9193C39.2964 44.954 38.4779 44.8156 37.8345 44.5041C37.1982 44.1923 36.6948 43.819 36.3243 43.3842C35.9538 42.9494 35.6667 42.5615 35.4629 42.2204L35.2712 42.2271L35.5742 50.9043L32.3908 51.0155ZM35.0107 36.5971C35.0508 37.7469 35.2528 38.749 35.6166 39.6033C35.9805 40.4576 36.4868 41.1186 37.1356 41.5863C37.7842 42.0469 38.5663 42.2612 39.482 42.2293C40.4331 42.196 41.2192 41.9163 41.8405 41.39C42.4614 40.8567 42.9199 40.1478 43.2159 39.2633C43.5191 38.3786 43.6515 37.3897 43.6134 36.2967C43.5757 35.2178 43.3786 34.2546 43.0221 33.4072C42.6727 32.5595 42.1664 31.8985 41.5031 31.4242C40.8469 30.9496 40.0397 30.7291 39.0815 30.7625C38.1588 30.7948 37.3863 31.0598 36.7641 31.5577C36.149 32.0553 35.6931 32.7357 35.3963 33.5988C35.0995 34.462 34.971 35.4614 35.0107 36.5971ZM57.681 44.3227C56.1479 44.3762 54.7976 44.0716 53.6303 43.4088C52.463 42.746 51.5414 41.7939 50.8656 40.5525C50.1898 39.3112 49.8223 37.8458 49.7634 36.1565C49.7041 34.4601 49.9682 32.9656 50.5555 31.673C51.1429 30.3804 51.9957 29.3628 53.1139 28.6202C54.2321 27.8776 55.5578 27.4795 57.091 27.426C58.6241 27.3725 59.9744 27.6771 61.1417 28.3399C62.309 29.0027 63.2307 29.9583 63.9068 31.2068C64.5828 32.4553 64.9505 33.9277 65.0097 35.6241C65.0687 37.3134 64.8044 38.8008 64.2168 40.0863C63.6292 41.3718 62.7763 42.3859 61.6581 43.1285C60.5399 43.8711 59.2142 44.2691 57.681 44.3227ZM57.5983 41.6499C58.5921 41.6152 59.4062 41.3238 60.0409 40.7758C60.6756 40.2277 61.1338 39.5117 61.4156 38.6278C61.7046 37.7436 61.8307 36.7762 61.794 35.7257C61.7576 34.6823 61.5644 33.7297 61.2145 32.8678C60.8715 31.9986 60.3641 31.3092 59.6925 30.7996C59.0209 30.2901 58.1883 30.0527 57.1946 30.0874C56.1938 30.1223 55.3726 30.4175 54.7311 30.9729C54.0967 31.528 53.6351 32.2513 53.3464 33.1426C53.0646 34.0265 52.9419 34.9902 52.9784 36.0336C53.015 37.0841 53.2048 38.0404 53.5476 38.9025C53.8975 39.7644 54.4081 40.4466 55.0794 40.9491C55.7579 41.4512 56.5975 41.6849 57.5983 41.6499ZM76.0058 43.6828C74.3946 43.739 72.9949 43.4432 71.8068 42.7954C70.6256 42.1402 69.6971 41.1954 69.0215 39.9612C68.3528 38.7195 67.9888 37.2505 67.9296 35.5541C67.8711 33.879 68.1318 32.3917 68.7118 31.0923C69.2989 29.7926 70.1443 28.7646 71.2478 28.0083C72.3584 27.2517 73.6732 26.8469 75.1922 26.7939C76.1149 26.7617 77.0146 26.8831 77.8912 27.158C78.7678 27.433 79.5618 27.885 80.2731 28.5139C80.9844 29.1429 81.557 29.9721 81.9909 31.0017C82.4246 32.0241 82.6673 33.277 82.7191 34.7605L82.7585 35.8891L69.7586 36.343L69.6754 33.9581L79.5557 33.6131C79.5265 32.7755 79.3302 32.0398 78.9669 31.4057C78.6034 30.7646 78.1064 30.2668 77.4757 29.9121C76.8521 29.5573 76.1287 29.3942 75.3053 29.4229C74.411 29.4542 73.6379 29.7015 72.986 30.1649C72.3411 30.6209 71.8498 31.2066 71.5124 31.9219C71.1818 32.6299 71.0307 33.392 71.0592 34.2083L71.1243 36.0715C71.1625 37.1646 71.3866 38.0877 71.7966 38.8409C72.2138 39.5939 72.7772 40.1605 73.487 40.5408C74.1964 40.914 75.0161 41.0843 75.9459 41.0518C76.5492 41.0308 77.0964 40.9264 77.5873 40.7387C78.0779 40.5439 78.4982 40.2663 78.848 39.9058C79.1979 39.5454 79.4597 39.1063 79.6335 38.5886L82.6655 39.0263C82.4552 39.922 82.0494 40.7143 81.448 41.4034C80.8536 42.085 80.0943 42.6268 79.1703 43.0286C78.2531 43.4231 77.1983 43.6411 76.0058 43.6828ZM86.6427 42.9809L86.0716 26.6272L89.255 26.516L89.4945 33.3726L91.0276 33.3191L96.1862 26.274L100.126 26.1364L94.0683 34.3109L100.771 42.4875L96.8211 42.6254L91.6633 36.2603L89.5978 36.3325L89.8261 42.8697L86.6427 42.9809ZM101.953 28.8228L101.857 26.0759L115.656 25.5941L115.751 28.341L110.417 28.5273L110.892 42.134L107.784 42.2426L107.308 28.6358L101.953 28.8228ZM122.956 35.4341L122.949 35.2318C122.917 33.9111 123.012 32.856 123.233 32.0665C123.461 31.2768 123.801 30.6325 124.253 30.1335C124.704 29.6344 125.253 29.1747 125.9 28.7541C126.316 28.4695 126.689 28.1545 127.018 27.809C127.347 27.4635 127.603 27.0708 127.787 26.6309C127.97 26.1909 128.053 25.7084 128.035 25.1831C128.013 24.5514 127.845 24.0101 127.53 23.5591C127.216 23.1081 126.806 22.7671 126.301 22.5361C125.802 22.2976 125.251 22.189 124.648 22.21C124.101 22.2291 123.583 22.3609 123.094 22.6054C122.606 22.8499 122.206 23.2191 121.897 23.7132C121.587 24.2002 121.42 24.8207 121.397 25.5748L118.16 25.6878C118.165 24.4085 118.45 23.3183 119.016 22.4174C119.581 21.5093 120.346 20.811 121.309 20.3225C122.28 19.8338 123.362 19.5686 124.554 19.527C125.86 19.4814 127.011 19.6864 128.008 20.1419C129.004 20.5904 129.787 21.2417 130.357 22.0959C130.934 22.9428 131.243 23.9447 131.283 25.1017C131.311 25.8966 131.212 26.6179 130.986 27.2653C130.759 27.9057 130.424 28.4824 129.98 28.9954C129.543 29.5081 129.012 29.9673 128.387 30.3729C127.796 30.7701 127.32 31.1776 126.958 31.5953C126.603 32.0128 126.35 32.5013 126.199 33.0609C126.048 33.6205 125.98 34.3087 125.994 35.1254L126.001 35.3277L122.956 35.4341ZM124.79 41.8513C124.208 41.8716 123.7 41.6832 123.267 41.2862C122.834 40.882 122.607 40.3854 122.586 39.7962C122.566 39.2142 122.758 38.71 123.162 38.2837C123.566 37.8503 124.06 37.6235 124.642 37.6031C125.216 37.5831 125.721 37.7751 126.154 38.1793C126.594 38.5761 126.825 39.0655 126.845 39.6475C126.859 40.0379 126.772 40.3998 126.584 40.7333C126.404 41.0594 126.157 41.3238 125.845 41.5266C125.532 41.7294 125.18 41.8376 124.79 41.8513Z" fill="white"/>
<defs>
<linearGradient id="paint0_linear_485_24004" x1="71.3965" y1="2.59272" x2="74.0273" y2="77.9301" gradientUnits="userSpaceOnUse">
<stop stop-color="#03B0FF"/>
<stop offset="0.504808" stop-color="#0686FF"/>
<stop offset="1" stop-color="#0C88FA"/>
</linearGradient>
</defs>
</svg>
