<svg width="472" height="521" viewBox="0 0 472 521" fill="none" xmlns="http://www.w3.org/2000/svg">
<g clip-path="url(#clip0_485_23996)">
<path d="M0 25.1016C0 11.2944 11.1929 0.101562 25 0.101562H447C460.807 0.101562 472 11.2944 472 25.1016V495.102C472 508.909 460.807 520.102 447 520.102H25C11.1929 520.102 0 508.909 0 495.102V25.1016Z" fill="white"/>
<path opacity="0.1" d="M366.17 217.798C374.895 209.237 388.909 209.37 397.47 218.096L575.421 399.47C583.982 408.196 583.848 422.21 575.123 430.771L393.748 608.722C385.023 617.283 371.009 617.149 362.448 608.424L184.497 427.049C175.936 418.323 176.07 404.31 184.795 395.749L366.17 217.798Z" fill="#007AFF"/>
</g>
<path d="M25 0.601562H447C460.531 0.601562 471.5 11.5706 471.5 25.1016V495.102C471.5 508.633 460.531 519.602 447 519.602H25C11.469 519.602 0.5 508.633 0.5 495.102V25.1016C0.500001 11.5706 11.469 0.601562 25 0.601562Z" stroke="#007AFF"/>
<defs>
<clipPath id="clip0_485_23996">
<path d="M0 25.1016C0 11.2944 11.1929 0.101562 25 0.101562H447C460.807 0.101562 472 11.2944 472 25.1016V495.102C472 508.909 460.807 520.102 447 520.102H25C11.1929 520.102 0 508.909 0 495.102V25.1016Z" fill="white"/>
</clipPath>
</defs>
</svg>
