<svg width="472" height="481" viewBox="0 0 472 481" fill="none" xmlns="http://www.w3.org/2000/svg">
<g clip-path="url(#clip0_1_22117)">
<path d="M0 25.0996C0 11.2925 11.1929 0.0996094 25 0.0996094H447C460.807 0.0996094 472 11.2925 472 25.0996V455.1C472 468.907 460.807 480.1 447 480.1H25C11.1929 480.1 0 468.907 0 455.1V25.0996Z" fill="url(#paint0_linear_1_22117)"/>
<path opacity="0.4" d="M292 231H536.21V523.07L414.105 406.242L292 523.07V231Z" fill="url(#paint1_linear_1_22117)"/>
</g>
<defs>
<linearGradient id="paint0_linear_1_22117" x1="236" y1="0.0996094" x2="236" y2="595.3" gradientUnits="userSpaceOnUse">
<stop stop-color="#03B0FF"/>
<stop offset="0.504808" stop-color="#0686FF"/>
<stop offset="1" stop-color="#0C88FA"/>
</linearGradient>
<linearGradient id="paint1_linear_1_22117" x1="555.92" y1="56.2177" x2="223.322" y2="467.537" gradientUnits="userSpaceOnUse">
<stop stop-color="white"/>
<stop offset="1" stop-color="white" stop-opacity="0.15"/>
</linearGradient>
<clipPath id="clip0_1_22117">
<path d="M0 25.0996C0 11.2925 11.1929 0.0996094 25 0.0996094H447C460.807 0.0996094 472 11.2925 472 25.0996V455.1C472 468.907 460.807 480.1 447 480.1H25C11.1929 480.1 0 468.907 0 455.1V25.0996Z" fill="white"/>
</clipPath>
</defs>
</svg>
