<svg width="144" height="39" viewBox="0 0 144 39" fill="none" xmlns="http://www.w3.org/2000/svg">
<mask id="path-1-outside-1_1_22223" maskUnits="userSpaceOnUse" x="0" y="0" width="144" height="39" fill="black">
<rect fill="white" width="144" height="39"/>
<path d="M15.2349 2.98389C16.2505 2.98389 16.7583 3.4917 16.7583 4.50732C16.7583 4.97282 16.6208 5.58643 16.3457 6.34814C16.3457 7.04639 16.4938 8.03027 16.79 9.2998C17.0863 10.5693 17.3719 12.2832 17.647 14.4414C17.922 16.5996 18.3346 18.5885 18.8848 20.4082C20.0062 19.181 21.0218 18.0702 21.9316 17.0757C26.4808 12.1034 29.2526 8.78141 30.2471 7.10986C32.109 4.06299 33.569 2.53955 34.627 2.53955C35.3887 2.53955 35.8647 2.89925 36.0552 3.61865C35.5897 8.29476 34.3519 13.7008 32.3418 19.8369C30.3317 25.973 29.0304 30.8184 28.438 34.373C28.3322 34.902 28.0889 35.3358 27.708 35.6743C27.3271 36.0129 26.9674 36.1821 26.6289 36.1821C25.9307 36.1821 25.5392 35.7272 25.4546 34.8174C25.9201 30.9242 26.8722 26.9569 28.311 22.9155C29.771 18.8742 31.0088 14.3779 32.0244 9.42676L29.5488 12.4736C28.6813 13.5104 27.8667 14.5155 27.105 15.4888C24.3543 19.0223 21.8153 21.7412 19.4878 23.6455C19.0646 23.8994 18.6097 24.0264 18.123 24.0264C17.6576 24.0264 17.2555 23.8148 16.917 23.3916C16.5785 22.9473 16.2716 22.249 15.9966 21.2969C15.7215 20.3447 15.4465 19.1175 15.1714 17.6152C14.9175 16.113 14.6001 14.2933 14.2192 12.1562L13.9019 10.728C10.1991 19.2339 7.81869 24.8833 6.76074 27.6763C5.72396 30.4481 5.18441 31.908 5.14209 32.0562C5.12093 32.2043 5.07861 32.4159 5.01514 32.6909C4.97282 32.966 4.89876 33.2199 4.79297 33.4526C4.96224 33.6219 5.04688 33.8864 5.04688 34.2461C5.04688 34.5846 4.84587 34.9338 4.44385 35.2935C4.06299 35.632 3.61865 35.8013 3.11084 35.8013C2.37028 35.8013 2 35.3993 2 34.5952C2 31.0617 5.89323 20.916 13.6797 4.1582C14.2298 3.37533 14.7482 2.98389 15.2349 2.98389Z"/>
<path d="M55.4639 30.3423C56.2044 30.3423 56.5747 30.7337 56.5747 31.5166C56.5747 32.4264 55.4639 33.4526 53.2422 34.5952C51.0205 35.7378 49.1691 36.3091 47.688 36.3091C46.2069 36.3091 45.096 36.0658 44.3555 35.5791C43.6149 35.0924 43.0119 34.4154 42.5464 33.5479C41.6366 31.8551 41.1816 29.8133 41.1816 27.4224C41.1816 23.1906 41.8164 19.2021 43.0859 15.457C44.3555 11.7119 46.0482 8.61214 48.1641 6.15771C50.2799 3.68213 52.5651 2.44434 55.0195 2.44434C56.3314 2.44434 57.3576 2.99447 58.0981 4.09473C58.8599 5.17383 59.2407 6.45394 59.2407 7.93506C59.2407 10.7069 58.5107 13.0555 57.0508 14.981C55.612 16.9064 53.8346 18.4827 51.7188 19.71C49.6029 20.9372 47.1696 22.1009 44.4189 23.2012L44.292 27.8667C44.292 31.506 45.3923 33.3257 47.5928 33.3257C48.7777 33.3257 50.0155 32.9871 51.3062 32.3101C52.618 31.6118 53.5596 31.1146 54.1309 30.8184C54.7021 30.501 55.1465 30.3423 55.4639 30.3423ZM56.2573 8.06201C56.2573 6.3693 55.5485 5.52295 54.1309 5.52295C52.8613 5.52295 51.3696 6.66553 49.6558 8.95068C47.9419 11.2358 46.5243 14.251 45.4028 17.9961C45.1278 18.9059 44.9691 19.5936 44.9268 20.0591C45.7731 19.5936 46.6406 19.1493 47.5293 18.7261C48.418 18.3029 49.2855 17.8586 50.1318 17.3931C52.0784 16.314 53.5807 15.055 54.6387 13.6162C55.7178 12.1562 56.2573 10.3049 56.2573 8.06201Z"/>
<path d="M69.9849 8.12549C68.6942 10.0298 68.0488 11.9552 68.0488 13.9019V14.2192L68.3027 15.3301C68.3027 15.8167 68.1229 16.2399 67.7632 16.5996C67.4246 16.9593 67.0438 17.1392 66.6206 17.1392C65.5627 17.1392 65.0337 16.314 65.0337 14.6636C65.0337 12.3573 65.7214 9.89225 67.0967 7.26855C68.472 4.6237 69.8262 3.30127 71.1592 3.30127C71.7939 3.30127 72.2065 3.65039 72.397 4.34863C72.397 6.46452 73.1693 7.78695 74.7139 8.31592C75.1794 8.48519 75.666 8.56982 76.1738 8.56982C77.5915 8.56982 78.861 8.09375 79.9824 7.1416C81.527 4.1582 83.0716 2.6665 84.6162 2.6665C85.3991 2.79346 85.7905 3.35417 85.7905 4.34863C85.7905 5.32194 84.6374 6.77132 82.3311 8.69678C81.6117 10.1356 80.9557 11.6379 80.3633 13.2036C79.792 14.7694 79.2524 16.2082 78.7446 17.52C78.2368 18.8107 77.6232 20.6515 76.9038 23.0425C76.1844 25.4334 75.8247 27.8561 75.8247 30.3105C75.8247 32.765 76.2585 33.9922 77.126 33.9922C78.1839 33.9922 79.9295 32.3312 82.3628 29.0093C82.7437 28.5015 83.061 28.0571 83.3149 27.6763C83.5688 27.2954 83.8122 26.9992 84.0449 26.7876C84.2988 26.5548 84.6585 26.4385 85.124 26.4385C85.9069 26.4385 86.2983 26.7876 86.2983 27.4858C86.2983 27.8244 86.2137 28.1523 86.0444 28.4697C83.8651 31.305 82.2782 33.2093 81.2837 34.1826C79.3371 36.0446 77.7819 36.9756 76.6182 36.9756C74.1849 36.9756 72.9683 35.0924 72.9683 31.3262C72.9683 26.375 74.0368 21.3075 76.1738 16.1235C76.8298 14.5155 77.5386 12.8439 78.3003 11.1089C77.4539 11.4051 76.5018 11.5532 75.4438 11.5532C72.7567 11.5532 70.937 10.4106 69.9849 8.12549Z"/>
<path d="M96.979 36.6582C96.2384 36.6582 95.8682 36.2244 95.8682 35.3569C95.8682 34.8914 96.0163 34.4788 96.3125 34.1191C96.6934 33.167 97.0954 31.7599 97.5186 29.8979C97.9417 28.036 98.2697 26.6712 98.5024 25.8037C98.7352 24.9362 98.9574 23.8359 99.1689 22.5029L99.8672 18.3135C100.523 14.4837 101.073 11.8812 101.518 10.5059C102.449 7.73405 103.528 6.34814 104.755 6.34814C105.199 6.34814 105.548 6.63379 105.802 7.20508L106.659 9.42676C106.659 10.3577 106.342 11.0454 105.707 11.4897C105.495 11.6167 105.252 11.6802 104.977 11.6802C104.723 11.6802 104.501 11.5532 104.311 11.2993C103.295 15.2137 102.681 17.9009 102.47 19.3608C101.983 22.7251 101.602 24.8939 101.327 25.8672C101.073 26.8405 100.714 28.237 100.248 30.0566C99.1055 34.4577 98.0158 36.6582 96.979 36.6582ZM106.12 4.66602C101.74 4.66602 97.7407 5.26904 94.1226 6.4751C94.0168 6.51742 93.9215 6.53857 93.8369 6.53857H93.583C93.054 6.53857 92.6097 6.39046 92.25 6.09424C91.8903 5.77686 91.7104 5.45947 91.7104 5.14209C91.7104 4.80355 91.8586 4.53906 92.1548 4.34863C95.7729 2.78288 100.322 2 105.802 2C107.982 2 109.907 2.10579 111.579 2.31738C113.25 2.50781 114.53 2.64535 115.419 2.72998C116.329 2.81462 116.868 2.97331 117.038 3.20605C117.228 3.4388 117.323 3.73503 117.323 4.09473C117.323 4.45443 117.122 4.82471 116.72 5.20557C116.318 5.58643 115.747 5.77686 115.006 5.77686C114.287 5.77686 113.06 5.59701 111.325 5.2373C109.611 4.85645 107.876 4.66602 106.12 4.66602Z"/>
<path d="M120.958 35.6743C118.482 35.6743 117.245 34.1191 117.245 31.0088C117.245 27.8984 118.398 24.0898 120.704 19.583C123.032 15.055 125.761 11.1512 128.893 7.87158C132.024 4.5708 134.574 2.92041 136.542 2.92041C138.53 2.92041 139.662 3.78792 139.938 5.52295C140.022 6.05192 140.086 6.61263 140.128 7.20508C140.318 7.07812 140.551 7.01465 140.826 7.01465C141.821 7.01465 142.318 7.49072 142.318 8.44287V8.69678C142.318 8.76025 142.053 9.7124 141.524 11.5532C140.995 13.394 140.392 16.4621 139.715 20.7573C139.038 25.0526 138.7 28.7236 138.7 31.7705C138.89 31.8975 139.112 32.0456 139.366 32.2148C139.62 32.363 139.938 32.6063 140.318 32.9448C140.699 33.2622 140.89 33.6431 140.89 34.0874C140.89 34.5317 140.752 34.9338 140.477 35.2935C140.202 35.632 139.811 35.8013 139.303 35.8013C138.266 35.8013 137.324 35.2723 136.478 34.2144C135.653 33.1564 135.24 32.0138 135.24 30.7866C135.24 28.1418 135.96 23.5926 137.398 17.1392C135.6 20.9054 133.272 24.5342 130.416 28.0254C127.56 31.5166 125.581 33.6642 124.481 34.4683C123.402 35.2723 122.228 35.6743 120.958 35.6743ZM120.482 31.1357C120.482 31.9186 120.81 32.3101 121.466 32.3101C121.931 32.3101 122.323 32.1514 122.64 31.834C127.02 28.0677 130.945 22.8521 134.415 16.187C136.383 12.3784 137.42 10.1885 137.525 9.61719C137.652 9.0459 137.716 8.55924 137.716 8.15723C137.716 7.75521 137.61 7.37435 137.398 7.01465C137.187 6.65495 136.891 6.4751 136.51 6.4751C136.129 6.4751 135.568 6.67611 134.828 7.07812C133.198 7.9668 131.188 9.86051 128.797 12.7593C126.428 15.658 124.449 18.8107 122.862 22.2173C121.275 25.6239 120.482 28.5967 120.482 31.1357Z"/>
</mask>
<path d="M15.2349 2.98389C16.2505 2.98389 16.7583 3.4917 16.7583 4.50732C16.7583 4.97282 16.6208 5.58643 16.3457 6.34814C16.3457 7.04639 16.4938 8.03027 16.79 9.2998C17.0863 10.5693 17.3719 12.2832 17.647 14.4414C17.922 16.5996 18.3346 18.5885 18.8848 20.4082C20.0062 19.181 21.0218 18.0702 21.9316 17.0757C26.4808 12.1034 29.2526 8.78141 30.2471 7.10986C32.109 4.06299 33.569 2.53955 34.627 2.53955C35.3887 2.53955 35.8647 2.89925 36.0552 3.61865C35.5897 8.29476 34.3519 13.7008 32.3418 19.8369C30.3317 25.973 29.0304 30.8184 28.438 34.373C28.3322 34.902 28.0889 35.3358 27.708 35.6743C27.3271 36.0129 26.9674 36.1821 26.6289 36.1821C25.9307 36.1821 25.5392 35.7272 25.4546 34.8174C25.9201 30.9242 26.8722 26.9569 28.311 22.9155C29.771 18.8742 31.0088 14.3779 32.0244 9.42676L29.5488 12.4736C28.6813 13.5104 27.8667 14.5155 27.105 15.4888C24.3543 19.0223 21.8153 21.7412 19.4878 23.6455C19.0646 23.8994 18.6097 24.0264 18.123 24.0264C17.6576 24.0264 17.2555 23.8148 16.917 23.3916C16.5785 22.9473 16.2716 22.249 15.9966 21.2969C15.7215 20.3447 15.4465 19.1175 15.1714 17.6152C14.9175 16.113 14.6001 14.2933 14.2192 12.1562L13.9019 10.728C10.1991 19.2339 7.81869 24.8833 6.76074 27.6763C5.72396 30.4481 5.18441 31.908 5.14209 32.0562C5.12093 32.2043 5.07861 32.4159 5.01514 32.6909C4.97282 32.966 4.89876 33.2199 4.79297 33.4526C4.96224 33.6219 5.04688 33.8864 5.04688 34.2461C5.04688 34.5846 4.84587 34.9338 4.44385 35.2935C4.06299 35.632 3.61865 35.8013 3.11084 35.8013C2.37028 35.8013 2 35.3993 2 34.5952C2 31.0617 5.89323 20.916 13.6797 4.1582C14.2298 3.37533 14.7482 2.98389 15.2349 2.98389Z" fill="url(#paint0_linear_1_22223)"/>
<path d="M55.4639 30.3423C56.2044 30.3423 56.5747 30.7337 56.5747 31.5166C56.5747 32.4264 55.4639 33.4526 53.2422 34.5952C51.0205 35.7378 49.1691 36.3091 47.688 36.3091C46.2069 36.3091 45.096 36.0658 44.3555 35.5791C43.6149 35.0924 43.0119 34.4154 42.5464 33.5479C41.6366 31.8551 41.1816 29.8133 41.1816 27.4224C41.1816 23.1906 41.8164 19.2021 43.0859 15.457C44.3555 11.7119 46.0482 8.61214 48.1641 6.15771C50.2799 3.68213 52.5651 2.44434 55.0195 2.44434C56.3314 2.44434 57.3576 2.99447 58.0981 4.09473C58.8599 5.17383 59.2407 6.45394 59.2407 7.93506C59.2407 10.7069 58.5107 13.0555 57.0508 14.981C55.612 16.9064 53.8346 18.4827 51.7188 19.71C49.6029 20.9372 47.1696 22.1009 44.4189 23.2012L44.292 27.8667C44.292 31.506 45.3923 33.3257 47.5928 33.3257C48.7777 33.3257 50.0155 32.9871 51.3062 32.3101C52.618 31.6118 53.5596 31.1146 54.1309 30.8184C54.7021 30.501 55.1465 30.3423 55.4639 30.3423ZM56.2573 8.06201C56.2573 6.3693 55.5485 5.52295 54.1309 5.52295C52.8613 5.52295 51.3696 6.66553 49.6558 8.95068C47.9419 11.2358 46.5243 14.251 45.4028 17.9961C45.1278 18.9059 44.9691 19.5936 44.9268 20.0591C45.7731 19.5936 46.6406 19.1493 47.5293 18.7261C48.418 18.3029 49.2855 17.8586 50.1318 17.3931C52.0784 16.314 53.5807 15.055 54.6387 13.6162C55.7178 12.1562 56.2573 10.3049 56.2573 8.06201Z" fill="url(#paint1_linear_1_22223)"/>
<path d="M69.9849 8.12549C68.6942 10.0298 68.0488 11.9552 68.0488 13.9019V14.2192L68.3027 15.3301C68.3027 15.8167 68.1229 16.2399 67.7632 16.5996C67.4246 16.9593 67.0438 17.1392 66.6206 17.1392C65.5627 17.1392 65.0337 16.314 65.0337 14.6636C65.0337 12.3573 65.7214 9.89225 67.0967 7.26855C68.472 4.6237 69.8262 3.30127 71.1592 3.30127C71.7939 3.30127 72.2065 3.65039 72.397 4.34863C72.397 6.46452 73.1693 7.78695 74.7139 8.31592C75.1794 8.48519 75.666 8.56982 76.1738 8.56982C77.5915 8.56982 78.861 8.09375 79.9824 7.1416C81.527 4.1582 83.0716 2.6665 84.6162 2.6665C85.3991 2.79346 85.7905 3.35417 85.7905 4.34863C85.7905 5.32194 84.6374 6.77132 82.3311 8.69678C81.6117 10.1356 80.9557 11.6379 80.3633 13.2036C79.792 14.7694 79.2524 16.2082 78.7446 17.52C78.2368 18.8107 77.6232 20.6515 76.9038 23.0425C76.1844 25.4334 75.8247 27.8561 75.8247 30.3105C75.8247 32.765 76.2585 33.9922 77.126 33.9922C78.1839 33.9922 79.9295 32.3312 82.3628 29.0093C82.7437 28.5015 83.061 28.0571 83.3149 27.6763C83.5688 27.2954 83.8122 26.9992 84.0449 26.7876C84.2988 26.5548 84.6585 26.4385 85.124 26.4385C85.9069 26.4385 86.2983 26.7876 86.2983 27.4858C86.2983 27.8244 86.2137 28.1523 86.0444 28.4697C83.8651 31.305 82.2782 33.2093 81.2837 34.1826C79.3371 36.0446 77.7819 36.9756 76.6182 36.9756C74.1849 36.9756 72.9683 35.0924 72.9683 31.3262C72.9683 26.375 74.0368 21.3075 76.1738 16.1235C76.8298 14.5155 77.5386 12.8439 78.3003 11.1089C77.4539 11.4051 76.5018 11.5532 75.4438 11.5532C72.7567 11.5532 70.937 10.4106 69.9849 8.12549Z" fill="url(#paint2_linear_1_22223)"/>
<path d="M96.979 36.6582C96.2384 36.6582 95.8682 36.2244 95.8682 35.3569C95.8682 34.8914 96.0163 34.4788 96.3125 34.1191C96.6934 33.167 97.0954 31.7599 97.5186 29.8979C97.9417 28.036 98.2697 26.6712 98.5024 25.8037C98.7352 24.9362 98.9574 23.8359 99.1689 22.5029L99.8672 18.3135C100.523 14.4837 101.073 11.8812 101.518 10.5059C102.449 7.73405 103.528 6.34814 104.755 6.34814C105.199 6.34814 105.548 6.63379 105.802 7.20508L106.659 9.42676C106.659 10.3577 106.342 11.0454 105.707 11.4897C105.495 11.6167 105.252 11.6802 104.977 11.6802C104.723 11.6802 104.501 11.5532 104.311 11.2993C103.295 15.2137 102.681 17.9009 102.47 19.3608C101.983 22.7251 101.602 24.8939 101.327 25.8672C101.073 26.8405 100.714 28.237 100.248 30.0566C99.1055 34.4577 98.0158 36.6582 96.979 36.6582ZM106.12 4.66602C101.74 4.66602 97.7407 5.26904 94.1226 6.4751C94.0168 6.51742 93.9215 6.53857 93.8369 6.53857H93.583C93.054 6.53857 92.6097 6.39046 92.25 6.09424C91.8903 5.77686 91.7104 5.45947 91.7104 5.14209C91.7104 4.80355 91.8586 4.53906 92.1548 4.34863C95.7729 2.78288 100.322 2 105.802 2C107.982 2 109.907 2.10579 111.579 2.31738C113.25 2.50781 114.53 2.64535 115.419 2.72998C116.329 2.81462 116.868 2.97331 117.038 3.20605C117.228 3.4388 117.323 3.73503 117.323 4.09473C117.323 4.45443 117.122 4.82471 116.72 5.20557C116.318 5.58643 115.747 5.77686 115.006 5.77686C114.287 5.77686 113.06 5.59701 111.325 5.2373C109.611 4.85645 107.876 4.66602 106.12 4.66602Z" fill="url(#paint3_linear_1_22223)"/>
<path d="M120.958 35.6743C118.482 35.6743 117.245 34.1191 117.245 31.0088C117.245 27.8984 118.398 24.0898 120.704 19.583C123.032 15.055 125.761 11.1512 128.893 7.87158C132.024 4.5708 134.574 2.92041 136.542 2.92041C138.53 2.92041 139.662 3.78792 139.938 5.52295C140.022 6.05192 140.086 6.61263 140.128 7.20508C140.318 7.07812 140.551 7.01465 140.826 7.01465C141.821 7.01465 142.318 7.49072 142.318 8.44287V8.69678C142.318 8.76025 142.053 9.7124 141.524 11.5532C140.995 13.394 140.392 16.4621 139.715 20.7573C139.038 25.0526 138.7 28.7236 138.7 31.7705C138.89 31.8975 139.112 32.0456 139.366 32.2148C139.62 32.363 139.938 32.6063 140.318 32.9448C140.699 33.2622 140.89 33.6431 140.89 34.0874C140.89 34.5317 140.752 34.9338 140.477 35.2935C140.202 35.632 139.811 35.8013 139.303 35.8013C138.266 35.8013 137.324 35.2723 136.478 34.2144C135.653 33.1564 135.24 32.0138 135.24 30.7866C135.24 28.1418 135.96 23.5926 137.398 17.1392C135.6 20.9054 133.272 24.5342 130.416 28.0254C127.56 31.5166 125.581 33.6642 124.481 34.4683C123.402 35.2723 122.228 35.6743 120.958 35.6743ZM120.482 31.1357C120.482 31.9186 120.81 32.3101 121.466 32.3101C121.931 32.3101 122.323 32.1514 122.64 31.834C127.02 28.0677 130.945 22.8521 134.415 16.187C136.383 12.3784 137.42 10.1885 137.525 9.61719C137.652 9.0459 137.716 8.55924 137.716 8.15723C137.716 7.75521 137.61 7.37435 137.398 7.01465C137.187 6.65495 136.891 6.4751 136.51 6.4751C136.129 6.4751 135.568 6.67611 134.828 7.07812C133.198 7.9668 131.188 9.86051 128.797 12.7593C126.428 15.658 124.449 18.8107 122.862 22.2173C121.275 25.6239 120.482 28.5967 120.482 31.1357Z" fill="url(#paint4_linear_1_22223)"/>
<path d="M15.2349 2.98389C16.2505 2.98389 16.7583 3.4917 16.7583 4.50732C16.7583 4.97282 16.6208 5.58643 16.3457 6.34814C16.3457 7.04639 16.4938 8.03027 16.79 9.2998C17.0863 10.5693 17.3719 12.2832 17.647 14.4414C17.922 16.5996 18.3346 18.5885 18.8848 20.4082C20.0062 19.181 21.0218 18.0702 21.9316 17.0757C26.4808 12.1034 29.2526 8.78141 30.2471 7.10986C32.109 4.06299 33.569 2.53955 34.627 2.53955C35.3887 2.53955 35.8647 2.89925 36.0552 3.61865C35.5897 8.29476 34.3519 13.7008 32.3418 19.8369C30.3317 25.973 29.0304 30.8184 28.438 34.373C28.3322 34.902 28.0889 35.3358 27.708 35.6743C27.3271 36.0129 26.9674 36.1821 26.6289 36.1821C25.9307 36.1821 25.5392 35.7272 25.4546 34.8174C25.9201 30.9242 26.8722 26.9569 28.311 22.9155C29.771 18.8742 31.0088 14.3779 32.0244 9.42676L29.5488 12.4736C28.6813 13.5104 27.8667 14.5155 27.105 15.4888C24.3543 19.0223 21.8153 21.7412 19.4878 23.6455C19.0646 23.8994 18.6097 24.0264 18.123 24.0264C17.6576 24.0264 17.2555 23.8148 16.917 23.3916C16.5785 22.9473 16.2716 22.249 15.9966 21.2969C15.7215 20.3447 15.4465 19.1175 15.1714 17.6152C14.9175 16.113 14.6001 14.2933 14.2192 12.1562L13.9019 10.728C10.1991 19.2339 7.81869 24.8833 6.76074 27.6763C5.72396 30.4481 5.18441 31.908 5.14209 32.0562C5.12093 32.2043 5.07861 32.4159 5.01514 32.6909C4.97282 32.966 4.89876 33.2199 4.79297 33.4526C4.96224 33.6219 5.04688 33.8864 5.04688 34.2461C5.04688 34.5846 4.84587 34.9338 4.44385 35.2935C4.06299 35.632 3.61865 35.8013 3.11084 35.8013C2.37028 35.8013 2 35.3993 2 34.5952C2 31.0617 5.89323 20.916 13.6797 4.1582C14.2298 3.37533 14.7482 2.98389 15.2349 2.98389Z" stroke="url(#paint5_linear_1_22223)" stroke-width="2.4" mask="url(#path-1-outside-1_1_22223)"/>
<path d="M55.4639 30.3423C56.2044 30.3423 56.5747 30.7337 56.5747 31.5166C56.5747 32.4264 55.4639 33.4526 53.2422 34.5952C51.0205 35.7378 49.1691 36.3091 47.688 36.3091C46.2069 36.3091 45.096 36.0658 44.3555 35.5791C43.6149 35.0924 43.0119 34.4154 42.5464 33.5479C41.6366 31.8551 41.1816 29.8133 41.1816 27.4224C41.1816 23.1906 41.8164 19.2021 43.0859 15.457C44.3555 11.7119 46.0482 8.61214 48.1641 6.15771C50.2799 3.68213 52.5651 2.44434 55.0195 2.44434C56.3314 2.44434 57.3576 2.99447 58.0981 4.09473C58.8599 5.17383 59.2407 6.45394 59.2407 7.93506C59.2407 10.7069 58.5107 13.0555 57.0508 14.981C55.612 16.9064 53.8346 18.4827 51.7188 19.71C49.6029 20.9372 47.1696 22.1009 44.4189 23.2012L44.292 27.8667C44.292 31.506 45.3923 33.3257 47.5928 33.3257C48.7777 33.3257 50.0155 32.9871 51.3062 32.3101C52.618 31.6118 53.5596 31.1146 54.1309 30.8184C54.7021 30.501 55.1465 30.3423 55.4639 30.3423ZM56.2573 8.06201C56.2573 6.3693 55.5485 5.52295 54.1309 5.52295C52.8613 5.52295 51.3696 6.66553 49.6558 8.95068C47.9419 11.2358 46.5243 14.251 45.4028 17.9961C45.1278 18.9059 44.9691 19.5936 44.9268 20.0591C45.7731 19.5936 46.6406 19.1493 47.5293 18.7261C48.418 18.3029 49.2855 17.8586 50.1318 17.3931C52.0784 16.314 53.5807 15.055 54.6387 13.6162C55.7178 12.1562 56.2573 10.3049 56.2573 8.06201Z" stroke="url(#paint6_linear_1_22223)" stroke-width="2.4" mask="url(#path-1-outside-1_1_22223)"/>
<path d="M69.9849 8.12549C68.6942 10.0298 68.0488 11.9552 68.0488 13.9019V14.2192L68.3027 15.3301C68.3027 15.8167 68.1229 16.2399 67.7632 16.5996C67.4246 16.9593 67.0438 17.1392 66.6206 17.1392C65.5627 17.1392 65.0337 16.314 65.0337 14.6636C65.0337 12.3573 65.7214 9.89225 67.0967 7.26855C68.472 4.6237 69.8262 3.30127 71.1592 3.30127C71.7939 3.30127 72.2065 3.65039 72.397 4.34863C72.397 6.46452 73.1693 7.78695 74.7139 8.31592C75.1794 8.48519 75.666 8.56982 76.1738 8.56982C77.5915 8.56982 78.861 8.09375 79.9824 7.1416C81.527 4.1582 83.0716 2.6665 84.6162 2.6665C85.3991 2.79346 85.7905 3.35417 85.7905 4.34863C85.7905 5.32194 84.6374 6.77132 82.3311 8.69678C81.6117 10.1356 80.9557 11.6379 80.3633 13.2036C79.792 14.7694 79.2524 16.2082 78.7446 17.52C78.2368 18.8107 77.6232 20.6515 76.9038 23.0425C76.1844 25.4334 75.8247 27.8561 75.8247 30.3105C75.8247 32.765 76.2585 33.9922 77.126 33.9922C78.1839 33.9922 79.9295 32.3312 82.3628 29.0093C82.7437 28.5015 83.061 28.0571 83.3149 27.6763C83.5688 27.2954 83.8122 26.9992 84.0449 26.7876C84.2988 26.5548 84.6585 26.4385 85.124 26.4385C85.9069 26.4385 86.2983 26.7876 86.2983 27.4858C86.2983 27.8244 86.2137 28.1523 86.0444 28.4697C83.8651 31.305 82.2782 33.2093 81.2837 34.1826C79.3371 36.0446 77.7819 36.9756 76.6182 36.9756C74.1849 36.9756 72.9683 35.0924 72.9683 31.3262C72.9683 26.375 74.0368 21.3075 76.1738 16.1235C76.8298 14.5155 77.5386 12.8439 78.3003 11.1089C77.4539 11.4051 76.5018 11.5532 75.4438 11.5532C72.7567 11.5532 70.937 10.4106 69.9849 8.12549Z" stroke="url(#paint7_linear_1_22223)" stroke-width="2.4" mask="url(#path-1-outside-1_1_22223)"/>
<path d="M96.979 36.6582C96.2384 36.6582 95.8682 36.2244 95.8682 35.3569C95.8682 34.8914 96.0163 34.4788 96.3125 34.1191C96.6934 33.167 97.0954 31.7599 97.5186 29.8979C97.9417 28.036 98.2697 26.6712 98.5024 25.8037C98.7352 24.9362 98.9574 23.8359 99.1689 22.5029L99.8672 18.3135C100.523 14.4837 101.073 11.8812 101.518 10.5059C102.449 7.73405 103.528 6.34814 104.755 6.34814C105.199 6.34814 105.548 6.63379 105.802 7.20508L106.659 9.42676C106.659 10.3577 106.342 11.0454 105.707 11.4897C105.495 11.6167 105.252 11.6802 104.977 11.6802C104.723 11.6802 104.501 11.5532 104.311 11.2993C103.295 15.2137 102.681 17.9009 102.47 19.3608C101.983 22.7251 101.602 24.8939 101.327 25.8672C101.073 26.8405 100.714 28.237 100.248 30.0566C99.1055 34.4577 98.0158 36.6582 96.979 36.6582ZM106.12 4.66602C101.74 4.66602 97.7407 5.26904 94.1226 6.4751C94.0168 6.51742 93.9215 6.53857 93.8369 6.53857H93.583C93.054 6.53857 92.6097 6.39046 92.25 6.09424C91.8903 5.77686 91.7104 5.45947 91.7104 5.14209C91.7104 4.80355 91.8586 4.53906 92.1548 4.34863C95.7729 2.78288 100.322 2 105.802 2C107.982 2 109.907 2.10579 111.579 2.31738C113.25 2.50781 114.53 2.64535 115.419 2.72998C116.329 2.81462 116.868 2.97331 117.038 3.20605C117.228 3.4388 117.323 3.73503 117.323 4.09473C117.323 4.45443 117.122 4.82471 116.72 5.20557C116.318 5.58643 115.747 5.77686 115.006 5.77686C114.287 5.77686 113.06 5.59701 111.325 5.2373C109.611 4.85645 107.876 4.66602 106.12 4.66602Z" stroke="url(#paint8_linear_1_22223)" stroke-width="2.4" mask="url(#path-1-outside-1_1_22223)"/>
<path d="M120.958 35.6743C118.482 35.6743 117.245 34.1191 117.245 31.0088C117.245 27.8984 118.398 24.0898 120.704 19.583C123.032 15.055 125.761 11.1512 128.893 7.87158C132.024 4.5708 134.574 2.92041 136.542 2.92041C138.53 2.92041 139.662 3.78792 139.938 5.52295C140.022 6.05192 140.086 6.61263 140.128 7.20508C140.318 7.07812 140.551 7.01465 140.826 7.01465C141.821 7.01465 142.318 7.49072 142.318 8.44287V8.69678C142.318 8.76025 142.053 9.7124 141.524 11.5532C140.995 13.394 140.392 16.4621 139.715 20.7573C139.038 25.0526 138.7 28.7236 138.7 31.7705C138.89 31.8975 139.112 32.0456 139.366 32.2148C139.62 32.363 139.938 32.6063 140.318 32.9448C140.699 33.2622 140.89 33.6431 140.89 34.0874C140.89 34.5317 140.752 34.9338 140.477 35.2935C140.202 35.632 139.811 35.8013 139.303 35.8013C138.266 35.8013 137.324 35.2723 136.478 34.2144C135.653 33.1564 135.24 32.0138 135.24 30.7866C135.24 28.1418 135.96 23.5926 137.398 17.1392C135.6 20.9054 133.272 24.5342 130.416 28.0254C127.56 31.5166 125.581 33.6642 124.481 34.4683C123.402 35.2723 122.228 35.6743 120.958 35.6743ZM120.482 31.1357C120.482 31.9186 120.81 32.3101 121.466 32.3101C121.931 32.3101 122.323 32.1514 122.64 31.834C127.02 28.0677 130.945 22.8521 134.415 16.187C136.383 12.3784 137.42 10.1885 137.525 9.61719C137.652 9.0459 137.716 8.55924 137.716 8.15723C137.716 7.75521 137.61 7.37435 137.398 7.01465C137.187 6.65495 136.891 6.4751 136.51 6.4751C136.129 6.4751 135.568 6.67611 134.828 7.07812C133.198 7.9668 131.188 9.86051 128.797 12.7593C126.428 15.658 124.449 18.8107 122.862 22.2173C121.275 25.6239 120.482 28.5967 120.482 31.1357Z" stroke="url(#paint9_linear_1_22223)" stroke-width="2.4" mask="url(#path-1-outside-1_1_22223)"/>
<defs>
<linearGradient id="paint0_linear_1_22223" x1="128.317" y1="-90.8262" x2="189.79" y2="-4.99104" gradientUnits="userSpaceOnUse">
<stop stop-color="white"/>
<stop offset="1" stop-color="white" stop-opacity="0.8"/>
</linearGradient>
<linearGradient id="paint1_linear_1_22223" x1="128.317" y1="-90.8262" x2="189.79" y2="-4.99104" gradientUnits="userSpaceOnUse">
<stop stop-color="white"/>
<stop offset="1" stop-color="white" stop-opacity="0.8"/>
</linearGradient>
<linearGradient id="paint2_linear_1_22223" x1="128.317" y1="-90.8262" x2="189.79" y2="-4.99104" gradientUnits="userSpaceOnUse">
<stop stop-color="white"/>
<stop offset="1" stop-color="white" stop-opacity="0.8"/>
</linearGradient>
<linearGradient id="paint3_linear_1_22223" x1="128.317" y1="-90.8262" x2="189.79" y2="-4.99104" gradientUnits="userSpaceOnUse">
<stop stop-color="white"/>
<stop offset="1" stop-color="white" stop-opacity="0.8"/>
</linearGradient>
<linearGradient id="paint4_linear_1_22223" x1="128.317" y1="-90.8262" x2="189.79" y2="-4.99104" gradientUnits="userSpaceOnUse">
<stop stop-color="white"/>
<stop offset="1" stop-color="white" stop-opacity="0.8"/>
</linearGradient>
<linearGradient id="paint5_linear_1_22223" x1="128.317" y1="-90.8262" x2="189.79" y2="-4.99104" gradientUnits="userSpaceOnUse">
<stop stop-color="white"/>
<stop offset="1" stop-color="white" stop-opacity="0.8"/>
</linearGradient>
<linearGradient id="paint6_linear_1_22223" x1="128.317" y1="-90.8262" x2="189.79" y2="-4.99104" gradientUnits="userSpaceOnUse">
<stop stop-color="white"/>
<stop offset="1" stop-color="white" stop-opacity="0.8"/>
</linearGradient>
<linearGradient id="paint7_linear_1_22223" x1="128.317" y1="-90.8262" x2="189.79" y2="-4.99104" gradientUnits="userSpaceOnUse">
<stop stop-color="white"/>
<stop offset="1" stop-color="white" stop-opacity="0.8"/>
</linearGradient>
<linearGradient id="paint8_linear_1_22223" x1="128.317" y1="-90.8262" x2="189.79" y2="-4.99104" gradientUnits="userSpaceOnUse">
<stop stop-color="white"/>
<stop offset="1" stop-color="white" stop-opacity="0.8"/>
</linearGradient>
<linearGradient id="paint9_linear_1_22223" x1="128.317" y1="-90.8262" x2="189.79" y2="-4.99104" gradientUnits="userSpaceOnUse">
<stop stop-color="white"/>
<stop offset="1" stop-color="white" stop-opacity="0.8"/>
</linearGradient>
</defs>
</svg>
