<svg width="530" height="361" viewBox="0 0 530 361" fill="none" xmlns="http://www.w3.org/2000/svg">
<g clip-path="url(#clip0_1_20423)">
<path d="M0 40.0996C0 18.0082 17.9086 0.0996094 40 0.0996094H490C512.091 0.0996094 530 18.0082 530 40.0996V320.1C530 342.191 512.091 360.1 490 360.1H40C17.9086 360.1 0 342.191 0 320.1V40.0996Z" fill="#007AFF"/>
<path opacity="0.4" d="M336.89 -216.86C365.008 -262.706 435.289 -246.48 440.464 -192.948L455.141 -41.1184C457.864 -12.9506 481.156 8.76949 509.446 9.52098L661.929 13.5717C715.692 14.9998 736.78 83.978 693.008 115.226L568.858 203.852C545.826 220.294 538.662 251.325 552.155 276.2L624.889 410.28C650.534 457.554 601.341 510.306 552.394 488.022L413.567 424.818C387.811 413.093 357.355 422.404 342.56 446.527L262.81 576.557C234.692 622.402 164.41 606.177 159.235 552.645L144.558 400.815C141.835 372.647 118.543 350.927 90.2539 350.176L-62.2299 346.125C-115.992 344.697 -137.081 275.719 -93.3086 244.471L30.8411 155.845C53.8736 139.403 61.0377 108.371 47.544 83.4967L-25.1899 -50.5835C-50.8343 -97.8572 -1.64179 -150.61 47.3056 -128.325L186.133 -65.1216C211.888 -53.3959 242.344 -62.7073 257.14 -86.8307L336.89 -216.86Z" fill="url(#paint0_linear_1_20423)"/>
<path opacity="0.4" d="M328.099 -122.529C349.531 -157.473 403.101 -145.106 407.046 -104.303L418.233 11.425C420.309 32.895 438.062 49.4505 459.625 50.0233L575.851 53.1108C616.83 54.1994 632.904 106.776 599.54 130.594L504.911 198.146C487.355 210.679 481.894 234.331 492.179 253.291L547.619 355.49C567.165 391.523 529.67 431.732 492.361 414.747L386.544 366.571C366.913 357.634 343.698 364.731 332.421 383.118L271.634 482.23C250.202 517.174 196.632 504.806 192.688 464.003L181.5 348.276C179.425 326.806 161.671 310.25 140.108 309.677L23.8823 306.59C-17.0965 305.501 -33.1709 252.925 0.193375 229.107L94.8228 161.555C112.379 149.022 117.839 125.369 107.554 106.409L52.1149 4.21053C32.5682 -31.8225 70.0637 -72.0315 107.372 -55.046L213.189 -6.8708C232.821 2.06676 256.035 -5.03056 267.312 -23.4179L328.099 -122.529Z" fill="url(#paint1_linear_1_20423)"/>
<path opacity="0.4" d="M317.921 -13.5515C331.629 -35.9017 365.892 -27.9915 368.414 -1.89411L375.57 72.1246C376.897 85.8567 388.252 96.4455 402.044 96.8118L476.381 98.7866C502.591 99.4828 512.872 133.11 491.532 148.344L431.008 191.55C419.78 199.566 416.287 214.694 422.865 226.821L458.324 292.186C470.826 315.233 446.844 340.95 422.981 330.086L355.302 299.274C342.746 293.558 327.898 298.097 320.685 309.857L281.806 373.248C268.098 395.598 233.835 387.688 231.312 361.591L224.157 287.572C222.829 273.84 211.474 263.251 197.683 262.885L123.346 260.91C97.1357 260.214 86.8548 226.586 108.194 211.353L168.719 168.146C179.947 160.131 183.44 145.003 176.862 132.876L141.403 67.5102C128.901 44.4638 152.883 18.7464 176.745 29.6102L244.425 60.4227C256.981 66.1391 271.829 61.5997 279.042 49.8393L317.921 -13.5515Z" fill="url(#paint2_linear_1_20423)"/>
<path opacity="0.4" d="M309.233 79.4035C316.353 67.7958 334.147 71.904 335.458 85.4579L339.174 123.9C339.863 131.032 345.761 136.531 352.923 136.722L391.531 137.747C405.143 138.109 410.483 155.574 399.4 163.485L367.966 185.925C362.135 190.088 360.321 197.945 363.737 204.243L382.153 238.191C388.646 250.16 376.191 263.517 363.798 257.875L328.648 241.872C322.126 238.903 314.415 241.261 310.669 247.368L290.477 280.291C283.358 291.899 265.563 287.79 264.253 274.237L260.536 235.794C259.847 228.663 253.95 223.163 246.787 222.973L208.179 221.947C194.567 221.586 189.227 204.121 200.31 196.209L231.744 173.77C237.576 169.607 239.39 161.75 235.973 155.452L217.558 121.504C211.065 109.534 223.52 96.1777 235.913 101.82L271.063 117.823C277.584 120.791 285.295 118.434 289.041 112.326L309.233 79.4035Z" fill="url(#paint3_linear_1_20423)"/>
</g>
<defs>
<linearGradient id="paint0_linear_1_20423" x1="1199.78" y1="-860.373" x2="-363.999" y2="594.667" gradientUnits="userSpaceOnUse">
<stop stop-color="white"/>
<stop offset="1" stop-color="white" stop-opacity="0.15"/>
</linearGradient>
<linearGradient id="paint1_linear_1_20423" x1="985.813" y1="-613.027" x2="-206.132" y2="496.033" gradientUnits="userSpaceOnUse">
<stop stop-color="white"/>
<stop offset="1" stop-color="white" stop-opacity="0.15"/>
</linearGradient>
<linearGradient id="paint2_linear_1_20423" x1="738.59" y1="-327.271" x2="-23.7701" y2="382.077" gradientUnits="userSpaceOnUse">
<stop stop-color="white"/>
<stop offset="1" stop-color="white" stop-opacity="0.15"/>
</linearGradient>
<linearGradient id="paint3_linear_1_20423" x1="527.711" y1="-83.5292" x2="131.774" y2="284.876" gradientUnits="userSpaceOnUse">
<stop stop-color="white"/>
<stop offset="1" stop-color="white" stop-opacity="0.15"/>
</linearGradient>
<clipPath id="clip0_1_20423">
<path d="M0 40.0996C0 18.0082 17.9086 0.0996094 40 0.0996094H490C512.091 0.0996094 530 18.0082 530 40.0996V320.1C530 342.191 512.091 360.1 490 360.1H40C17.9086 360.1 0 342.191 0 320.1V40.0996Z" fill="white"/>
</clipPath>
</defs>
</svg>
