<svg width="198" height="64" viewBox="0 0 198 64" fill="none" xmlns="http://www.w3.org/2000/svg">
<mask id="path-1-outside-1_1_22262" maskUnits="userSpaceOnUse" x="0" y="0" width="198" height="64" fill="black">
<rect fill="white" width="198" height="64"/>
<path d="M5.20557 27.7397C5.20557 31.5907 6.61263 33.5161 9.42676 33.5161C10.8232 33.5161 12.1351 32.839 13.3623 31.4849C13.8278 30.9559 14.2616 30.4798 14.6636 30.0566C15.0656 29.6335 15.4782 29.4219 15.9014 29.4219C16.7477 29.4219 17.1709 29.7922 17.1709 30.5327C17.1709 31.8869 16.3034 33.2622 14.5684 34.6587C12.8333 36.034 10.8656 36.7217 8.66504 36.7217C6.48568 36.7217 4.82471 35.9176 3.68213 34.3096C2.56071 32.6803 2 30.8501 2 28.8188C2 25.0314 2.69824 21.1064 4.09473 17.0439C5.51237 12.9814 7.36377 9.57487 9.64893 6.82422C11.9552 4.07357 14.3885 2.69824 16.9487 2.69824C18.8107 2.69824 20.0379 3.36475 20.6304 4.69775C20.7785 5.05745 20.9478 5.52295 21.1382 6.09424C21.3498 6.64437 21.5825 6.99349 21.8364 7.1416C22.0057 7.41667 22.0903 7.75521 22.0903 8.15723C22.0903 8.53809 21.9105 8.89779 21.5508 9.23633C21.1911 9.57487 20.7891 9.74414 20.3447 9.74414C19.4349 9.74414 18.853 9.07764 18.5991 7.74463C18.3452 6.39046 17.6364 5.71338 16.4727 5.71338C14.8434 5.71338 13.1507 6.95117 11.3945 9.42676C9.65951 11.9023 8.18896 14.9069 6.98291 18.4404C5.79801 21.974 5.20557 25.0737 5.20557 27.7397Z"/>
<path d="M31.4062 36.9121C30.6657 36.9121 30.2954 36.4784 30.2954 35.6108C30.2954 35.1453 30.4435 34.7327 30.7397 34.373C31.1206 33.4209 31.5226 32.0138 31.9458 30.1519C32.369 28.2899 32.6969 26.9251 32.9297 26.0576C33.1624 25.1901 33.3846 24.0898 33.5962 22.7568L34.2944 18.5674C34.9504 14.7376 35.5005 12.1351 35.9448 10.7598C36.8758 7.98796 37.9549 6.60205 39.1821 6.60205C39.6265 6.60205 39.9756 6.8877 40.2295 7.45898L41.0864 9.68066C41.0864 10.6117 40.769 11.2993 40.1343 11.7437C39.9227 11.8706 39.6794 11.9341 39.4043 11.9341C39.1504 11.9341 38.9282 11.8071 38.7378 11.5532C37.7222 15.4676 37.1086 18.1548 36.897 19.6147C36.4103 22.979 36.0295 25.1478 35.7544 26.1211C35.5005 27.0944 35.1408 28.4909 34.6753 30.3105C33.5327 34.7116 32.443 36.9121 31.4062 36.9121ZM40.5469 4.91992C36.167 4.91992 32.168 5.52295 28.5498 6.729C28.444 6.77132 28.3488 6.79248 28.2642 6.79248H28.0103C27.4813 6.79248 27.0369 6.64437 26.6772 6.34814C26.3175 6.03076 26.1377 5.71338 26.1377 5.396C26.1377 5.05745 26.2858 4.79297 26.582 4.60254C30.2002 3.03678 34.7493 2.25391 40.2295 2.25391C42.4089 2.25391 44.3343 2.3597 46.0059 2.57129C47.6774 2.76172 48.9575 2.89925 49.8462 2.98389C50.756 3.06852 51.2956 3.22721 51.4648 3.45996C51.6553 3.69271 51.7505 3.98893 51.7505 4.34863C51.7505 4.70833 51.5495 5.07861 51.1475 5.45947C50.7454 5.84033 50.1742 6.03076 49.4336 6.03076C48.7142 6.03076 47.487 5.85091 45.752 5.49121C44.0381 5.11035 42.3031 4.91992 40.5469 4.91992Z"/>
<path d="M55.3853 35.9282C52.9097 35.9282 51.6719 34.373 51.6719 31.2627C51.6719 28.1523 52.825 24.3438 55.1313 19.8369C57.4588 15.3089 60.1883 11.4051 63.3198 8.12549C66.4513 4.82471 69.001 3.17432 70.9688 3.17432C72.9577 3.17432 74.0897 4.04183 74.3647 5.77686C74.4494 6.30583 74.5129 6.86654 74.5552 7.45898C74.7456 7.33203 74.9784 7.26855 75.2534 7.26855C76.2479 7.26855 76.7451 7.74463 76.7451 8.69678V8.95068C76.7451 9.01416 76.4806 9.96631 75.9517 11.8071C75.4227 13.6479 74.8197 16.716 74.1426 21.0112C73.4655 25.3065 73.127 28.9775 73.127 32.0244C73.3174 32.1514 73.5396 32.2995 73.7935 32.4688C74.0474 32.6169 74.3647 32.8602 74.7456 33.1987C75.1265 33.5161 75.3169 33.897 75.3169 34.3413C75.3169 34.7856 75.1794 35.1877 74.9043 35.5474C74.6292 35.8859 74.2378 36.0552 73.73 36.0552C72.6932 36.0552 71.7516 35.5262 70.9053 34.4683C70.0801 33.4103 69.6675 32.2677 69.6675 31.0405C69.6675 28.3957 70.3869 23.8465 71.8257 17.3931C70.0272 21.1593 67.6997 24.7881 64.8433 28.2793C61.9868 31.7705 60.0085 33.9181 58.9082 34.7222C57.8291 35.5262 56.6548 35.9282 55.3853 35.9282ZM54.9092 31.3896C54.9092 32.1725 55.2371 32.564 55.8931 32.564C56.3586 32.564 56.75 32.4053 57.0674 32.0879C61.4473 28.3216 65.3722 23.106 68.8423 16.4409C70.8101 12.6323 71.8468 10.4424 71.9526 9.87109C72.0796 9.2998 72.1431 8.81315 72.1431 8.41113C72.1431 8.00911 72.0373 7.62826 71.8257 7.26855C71.6141 6.90885 71.3179 6.729 70.937 6.729C70.5562 6.729 69.9954 6.93001 69.2549 7.33203C67.6256 8.2207 65.6156 10.1144 63.2246 13.0132C60.8548 15.9119 58.8765 19.0646 57.2896 22.4712C55.7026 25.8778 54.9092 28.8506 54.9092 31.3896Z"/>
<path d="M93.1704 11.8706C96.2596 5.94613 99.6027 2.98389 103.2 2.98389C105.083 2.98389 106.437 3.5446 107.262 4.66602C108.087 5.76628 108.5 7.40609 108.5 9.58545C108.5 13.5845 107.929 17.6681 106.786 21.8364C105.644 25.9836 103.93 29.5171 101.645 32.437C99.3805 35.3358 96.7039 36.7852 93.6147 36.7852C92.4298 36.7852 91.4777 36.5312 90.7583 36.0234C90.0389 35.5156 89.457 34.6587 89.0127 33.4526C87.9336 38.3615 86.9074 43.2386 85.9341 48.084C84.9819 52.9505 83.9875 57.3516 82.9507 61.2871C82.5275 62.1546 81.9245 62.5884 81.1416 62.5884C80.4857 62.5884 80.1154 62.1546 80.0308 61.2871C81.4272 55.807 82.5487 50.8558 83.395 46.4336C84.2414 42.0114 84.8867 38.6154 85.3311 36.2456C85.7965 33.8758 86.4419 30.4798 87.2671 26.0576C88.1134 21.6143 89.4676 14.6742 91.3296 5.2373V3.80908C91.3296 3.3859 91.52 2.98389 91.9009 2.60303C92.3029 2.20101 92.7578 2 93.2656 2C93.7946 2 94.1755 2.20101 94.4082 2.60303C94.6621 3.00505 94.7891 3.39648 94.7891 3.77734C94.7891 4.13704 94.7573 4.46501 94.6938 4.76123C94.6304 5.05745 94.5563 5.35368 94.4717 5.6499C94.387 5.92497 94.3024 6.20003 94.2178 6.4751C94.1331 6.75016 94.0802 6.99349 94.0591 7.20508L93.1704 11.8706ZM90.3774 28.7236C90.3774 32.0456 91.6047 33.7065 94.0591 33.7065C96.3442 33.7065 98.439 32.2889 100.343 29.4536C102.777 25.8143 104.385 20.9689 105.167 14.9175C105.4 13.2459 105.517 11.6379 105.517 10.0933C105.517 7.30029 104.829 5.90381 103.454 5.90381C102.078 5.90381 100.481 6.90885 98.6611 8.91895C96.1221 11.7331 94.1014 15.0656 92.5991 18.9165C91.118 22.7674 90.3774 26.0365 90.3774 28.7236Z"/>
<path d="M119.308 36.9121C118.567 36.9121 118.197 36.4784 118.197 35.6108C118.197 35.1453 118.345 34.7327 118.641 34.373C119.022 33.4209 119.424 32.0138 119.847 30.1519C120.27 28.2899 120.598 26.9251 120.831 26.0576C121.064 25.1901 121.286 24.0898 121.498 22.7568L122.196 18.5674C122.852 14.7376 123.402 12.1351 123.846 10.7598C124.777 7.98796 125.856 6.60205 127.083 6.60205C127.528 6.60205 127.877 6.8877 128.131 7.45898L128.988 9.68066C128.988 10.6117 128.67 11.2993 128.036 11.7437C127.824 11.8706 127.581 11.9341 127.306 11.9341C127.052 11.9341 126.83 11.8071 126.639 11.5532C125.624 15.4676 125.01 18.1548 124.798 19.6147C124.312 22.979 123.931 25.1478 123.656 26.1211C123.402 27.0944 123.042 28.4909 122.577 30.3105C121.434 34.7116 120.344 36.9121 119.308 36.9121ZM128.448 4.91992C124.068 4.91992 120.069 5.52295 116.451 6.729C116.345 6.77132 116.25 6.79248 116.166 6.79248H115.912C115.383 6.79248 114.938 6.64437 114.579 6.34814C114.219 6.03076 114.039 5.71338 114.039 5.396C114.039 5.05745 114.187 4.79297 114.483 4.60254C118.102 3.03678 122.651 2.25391 128.131 2.25391C130.31 2.25391 132.236 2.3597 133.907 2.57129C135.579 2.76172 136.859 2.89925 137.748 2.98389C138.657 3.06852 139.197 3.22721 139.366 3.45996C139.557 3.69271 139.652 3.98893 139.652 4.34863C139.652 4.70833 139.451 5.07861 139.049 5.45947C138.647 5.84033 138.076 6.03076 137.335 6.03076C136.616 6.03076 135.388 5.85091 133.653 5.49121C131.939 5.11035 130.204 4.91992 128.448 4.91992Z"/>
<path d="M143.287 35.9282C140.811 35.9282 139.573 34.373 139.573 31.2627C139.573 28.1523 140.726 24.3438 143.033 19.8369C145.36 15.3089 148.09 11.4051 151.221 8.12549C154.353 4.82471 156.902 3.17432 158.87 3.17432C160.859 3.17432 161.991 4.04183 162.266 5.77686C162.351 6.30583 162.414 6.86654 162.457 7.45898C162.647 7.33203 162.88 7.26855 163.155 7.26855C164.149 7.26855 164.646 7.74463 164.646 8.69678V8.95068C164.646 9.01416 164.382 9.96631 163.853 11.8071C163.324 13.6479 162.721 16.716 162.044 21.0112C161.367 25.3065 161.028 28.9775 161.028 32.0244C161.219 32.1514 161.441 32.2995 161.695 32.4688C161.949 32.6169 162.266 32.8602 162.647 33.1987C163.028 33.5161 163.218 33.897 163.218 34.3413C163.218 34.7856 163.081 35.1877 162.806 35.5474C162.531 35.8859 162.139 36.0552 161.631 36.0552C160.595 36.0552 159.653 35.5262 158.807 34.4683C157.981 33.4103 157.569 32.2677 157.569 31.0405C157.569 28.3957 158.288 23.8465 159.727 17.3931C157.929 21.1593 155.601 24.7881 152.745 28.2793C149.888 31.7705 147.91 33.9181 146.81 34.7222C145.73 35.5262 144.556 35.9282 143.287 35.9282ZM142.811 31.3896C142.811 32.1725 143.139 32.564 143.794 32.564C144.26 32.564 144.651 32.4053 144.969 32.0879C149.349 28.3216 153.274 23.106 156.744 16.4409C158.711 12.6323 159.748 10.4424 159.854 9.87109C159.981 9.2998 160.044 8.81315 160.044 8.41113C160.044 8.00911 159.939 7.62826 159.727 7.26855C159.515 6.90885 159.219 6.729 158.838 6.729C158.458 6.729 157.897 6.93001 157.156 7.33203C155.527 8.2207 153.517 10.1144 151.126 13.0132C148.756 15.9119 146.778 19.0646 145.191 22.4712C143.604 25.8778 142.811 28.8506 142.811 31.3896Z"/>
<path d="M192.878 10.2202C192.878 8.12549 192.307 7.07812 191.165 7.07812C189.641 7.07812 186.732 11.4474 182.437 20.186C180.49 24.1427 179.125 27.1367 178.342 29.168C177.581 31.1781 177.009 32.5957 176.628 33.4209C176.248 34.2461 175.867 34.8703 175.486 35.2935C175.126 35.7166 174.714 35.9282 174.248 35.9282C173.804 35.9282 173.539 35.8224 173.455 35.6108C173.37 35.3781 173.328 34.9761 173.328 34.4048C173.328 33.8123 174.174 28.8188 175.867 19.4243C177.581 10.0086 178.564 5.05745 178.818 4.5708C179.093 4.08415 179.337 3.77734 179.548 3.65039C179.76 3.50228 180.141 3.42822 180.691 3.42822C181.241 3.42822 181.664 3.63981 181.96 4.06299C182.278 4.48617 182.437 4.86702 182.437 5.20557C182.437 5.52295 182.394 5.84033 182.31 6.15771C182.161 6.729 181.939 7.43783 181.643 8.28418C180.627 11.1829 179.654 15.2878 178.723 20.5986L178.057 24.439C178.543 23.4233 179.093 22.2067 179.707 20.7891C180.321 19.3503 181.23 17.2979 182.437 14.6318C183.643 11.9658 184.986 9.58545 186.467 7.49072C188.372 4.74007 190.149 3.36475 191.799 3.36475C194.698 3.36475 196.147 5.7028 196.147 10.3789C196.147 12.1351 195.894 14.325 195.386 16.9487C194.899 19.5724 194.349 22.4395 193.735 25.5498C193.143 28.6602 192.815 31.231 192.751 33.2622L192.371 35.0078C192.371 35.4733 192.297 35.8013 192.148 35.9917C192.021 36.2033 191.609 36.3091 190.911 36.3091C190.234 36.3091 189.736 36.1821 189.419 35.9282C189.123 35.6743 189.028 35.2194 189.133 34.5635L192.307 15.584C192.688 13.2354 192.878 11.4474 192.878 10.2202Z"/>
</mask>
<path d="M5.20557 27.7397C5.20557 31.5907 6.61263 33.5161 9.42676 33.5161C10.8232 33.5161 12.1351 32.839 13.3623 31.4849C13.8278 30.9559 14.2616 30.4798 14.6636 30.0566C15.0656 29.6335 15.4782 29.4219 15.9014 29.4219C16.7477 29.4219 17.1709 29.7922 17.1709 30.5327C17.1709 31.8869 16.3034 33.2622 14.5684 34.6587C12.8333 36.034 10.8656 36.7217 8.66504 36.7217C6.48568 36.7217 4.82471 35.9176 3.68213 34.3096C2.56071 32.6803 2 30.8501 2 28.8188C2 25.0314 2.69824 21.1064 4.09473 17.0439C5.51237 12.9814 7.36377 9.57487 9.64893 6.82422C11.9552 4.07357 14.3885 2.69824 16.9487 2.69824C18.8107 2.69824 20.0379 3.36475 20.6304 4.69775C20.7785 5.05745 20.9478 5.52295 21.1382 6.09424C21.3498 6.64437 21.5825 6.99349 21.8364 7.1416C22.0057 7.41667 22.0903 7.75521 22.0903 8.15723C22.0903 8.53809 21.9105 8.89779 21.5508 9.23633C21.1911 9.57487 20.7891 9.74414 20.3447 9.74414C19.4349 9.74414 18.853 9.07764 18.5991 7.74463C18.3452 6.39046 17.6364 5.71338 16.4727 5.71338C14.8434 5.71338 13.1507 6.95117 11.3945 9.42676C9.65951 11.9023 8.18896 14.9069 6.98291 18.4404C5.79801 21.974 5.20557 25.0737 5.20557 27.7397Z" fill="url(#paint0_linear_1_22262)"/>
<path d="M31.4062 36.9121C30.6657 36.9121 30.2954 36.4784 30.2954 35.6108C30.2954 35.1453 30.4435 34.7327 30.7397 34.373C31.1206 33.4209 31.5226 32.0138 31.9458 30.1519C32.369 28.2899 32.6969 26.9251 32.9297 26.0576C33.1624 25.1901 33.3846 24.0898 33.5962 22.7568L34.2944 18.5674C34.9504 14.7376 35.5005 12.1351 35.9448 10.7598C36.8758 7.98796 37.9549 6.60205 39.1821 6.60205C39.6265 6.60205 39.9756 6.8877 40.2295 7.45898L41.0864 9.68066C41.0864 10.6117 40.769 11.2993 40.1343 11.7437C39.9227 11.8706 39.6794 11.9341 39.4043 11.9341C39.1504 11.9341 38.9282 11.8071 38.7378 11.5532C37.7222 15.4676 37.1086 18.1548 36.897 19.6147C36.4103 22.979 36.0295 25.1478 35.7544 26.1211C35.5005 27.0944 35.1408 28.4909 34.6753 30.3105C33.5327 34.7116 32.443 36.9121 31.4062 36.9121ZM40.5469 4.91992C36.167 4.91992 32.168 5.52295 28.5498 6.729C28.444 6.77132 28.3488 6.79248 28.2642 6.79248H28.0103C27.4813 6.79248 27.0369 6.64437 26.6772 6.34814C26.3175 6.03076 26.1377 5.71338 26.1377 5.396C26.1377 5.05745 26.2858 4.79297 26.582 4.60254C30.2002 3.03678 34.7493 2.25391 40.2295 2.25391C42.4089 2.25391 44.3343 2.3597 46.0059 2.57129C47.6774 2.76172 48.9575 2.89925 49.8462 2.98389C50.756 3.06852 51.2956 3.22721 51.4648 3.45996C51.6553 3.69271 51.7505 3.98893 51.7505 4.34863C51.7505 4.70833 51.5495 5.07861 51.1475 5.45947C50.7454 5.84033 50.1742 6.03076 49.4336 6.03076C48.7142 6.03076 47.487 5.85091 45.752 5.49121C44.0381 5.11035 42.3031 4.91992 40.5469 4.91992Z" fill="url(#paint1_linear_1_22262)"/>
<path d="M55.3853 35.9282C52.9097 35.9282 51.6719 34.373 51.6719 31.2627C51.6719 28.1523 52.825 24.3438 55.1313 19.8369C57.4588 15.3089 60.1883 11.4051 63.3198 8.12549C66.4513 4.82471 69.001 3.17432 70.9688 3.17432C72.9577 3.17432 74.0897 4.04183 74.3647 5.77686C74.4494 6.30583 74.5129 6.86654 74.5552 7.45898C74.7456 7.33203 74.9784 7.26855 75.2534 7.26855C76.2479 7.26855 76.7451 7.74463 76.7451 8.69678V8.95068C76.7451 9.01416 76.4806 9.96631 75.9517 11.8071C75.4227 13.6479 74.8197 16.716 74.1426 21.0112C73.4655 25.3065 73.127 28.9775 73.127 32.0244C73.3174 32.1514 73.5396 32.2995 73.7935 32.4688C74.0474 32.6169 74.3647 32.8602 74.7456 33.1987C75.1265 33.5161 75.3169 33.897 75.3169 34.3413C75.3169 34.7856 75.1794 35.1877 74.9043 35.5474C74.6292 35.8859 74.2378 36.0552 73.73 36.0552C72.6932 36.0552 71.7516 35.5262 70.9053 34.4683C70.0801 33.4103 69.6675 32.2677 69.6675 31.0405C69.6675 28.3957 70.3869 23.8465 71.8257 17.3931C70.0272 21.1593 67.6997 24.7881 64.8433 28.2793C61.9868 31.7705 60.0085 33.9181 58.9082 34.7222C57.8291 35.5262 56.6548 35.9282 55.3853 35.9282ZM54.9092 31.3896C54.9092 32.1725 55.2371 32.564 55.8931 32.564C56.3586 32.564 56.75 32.4053 57.0674 32.0879C61.4473 28.3216 65.3722 23.106 68.8423 16.4409C70.8101 12.6323 71.8468 10.4424 71.9526 9.87109C72.0796 9.2998 72.1431 8.81315 72.1431 8.41113C72.1431 8.00911 72.0373 7.62826 71.8257 7.26855C71.6141 6.90885 71.3179 6.729 70.937 6.729C70.5562 6.729 69.9954 6.93001 69.2549 7.33203C67.6256 8.2207 65.6156 10.1144 63.2246 13.0132C60.8548 15.9119 58.8765 19.0646 57.2896 22.4712C55.7026 25.8778 54.9092 28.8506 54.9092 31.3896Z" fill="url(#paint2_linear_1_22262)"/>
<path d="M93.1704 11.8706C96.2596 5.94613 99.6027 2.98389 103.2 2.98389C105.083 2.98389 106.437 3.5446 107.262 4.66602C108.087 5.76628 108.5 7.40609 108.5 9.58545C108.5 13.5845 107.929 17.6681 106.786 21.8364C105.644 25.9836 103.93 29.5171 101.645 32.437C99.3805 35.3358 96.7039 36.7852 93.6147 36.7852C92.4298 36.7852 91.4777 36.5312 90.7583 36.0234C90.0389 35.5156 89.457 34.6587 89.0127 33.4526C87.9336 38.3615 86.9074 43.2386 85.9341 48.084C84.9819 52.9505 83.9875 57.3516 82.9507 61.2871C82.5275 62.1546 81.9245 62.5884 81.1416 62.5884C80.4857 62.5884 80.1154 62.1546 80.0308 61.2871C81.4272 55.807 82.5487 50.8558 83.395 46.4336C84.2414 42.0114 84.8867 38.6154 85.3311 36.2456C85.7965 33.8758 86.4419 30.4798 87.2671 26.0576C88.1134 21.6143 89.4676 14.6742 91.3296 5.2373V3.80908C91.3296 3.3859 91.52 2.98389 91.9009 2.60303C92.3029 2.20101 92.7578 2 93.2656 2C93.7946 2 94.1755 2.20101 94.4082 2.60303C94.6621 3.00505 94.7891 3.39648 94.7891 3.77734C94.7891 4.13704 94.7573 4.46501 94.6938 4.76123C94.6304 5.05745 94.5563 5.35368 94.4717 5.6499C94.387 5.92497 94.3024 6.20003 94.2178 6.4751C94.1331 6.75016 94.0802 6.99349 94.0591 7.20508L93.1704 11.8706ZM90.3774 28.7236C90.3774 32.0456 91.6047 33.7065 94.0591 33.7065C96.3442 33.7065 98.439 32.2889 100.343 29.4536C102.777 25.8143 104.385 20.9689 105.167 14.9175C105.4 13.2459 105.517 11.6379 105.517 10.0933C105.517 7.30029 104.829 5.90381 103.454 5.90381C102.078 5.90381 100.481 6.90885 98.6611 8.91895C96.1221 11.7331 94.1014 15.0656 92.5991 18.9165C91.118 22.7674 90.3774 26.0365 90.3774 28.7236Z" fill="url(#paint3_linear_1_22262)"/>
<path d="M119.308 36.9121C118.567 36.9121 118.197 36.4784 118.197 35.6108C118.197 35.1453 118.345 34.7327 118.641 34.373C119.022 33.4209 119.424 32.0138 119.847 30.1519C120.27 28.2899 120.598 26.9251 120.831 26.0576C121.064 25.1901 121.286 24.0898 121.498 22.7568L122.196 18.5674C122.852 14.7376 123.402 12.1351 123.846 10.7598C124.777 7.98796 125.856 6.60205 127.083 6.60205C127.528 6.60205 127.877 6.8877 128.131 7.45898L128.988 9.68066C128.988 10.6117 128.67 11.2993 128.036 11.7437C127.824 11.8706 127.581 11.9341 127.306 11.9341C127.052 11.9341 126.83 11.8071 126.639 11.5532C125.624 15.4676 125.01 18.1548 124.798 19.6147C124.312 22.979 123.931 25.1478 123.656 26.1211C123.402 27.0944 123.042 28.4909 122.577 30.3105C121.434 34.7116 120.344 36.9121 119.308 36.9121ZM128.448 4.91992C124.068 4.91992 120.069 5.52295 116.451 6.729C116.345 6.77132 116.25 6.79248 116.166 6.79248H115.912C115.383 6.79248 114.938 6.64437 114.579 6.34814C114.219 6.03076 114.039 5.71338 114.039 5.396C114.039 5.05745 114.187 4.79297 114.483 4.60254C118.102 3.03678 122.651 2.25391 128.131 2.25391C130.31 2.25391 132.236 2.3597 133.907 2.57129C135.579 2.76172 136.859 2.89925 137.748 2.98389C138.657 3.06852 139.197 3.22721 139.366 3.45996C139.557 3.69271 139.652 3.98893 139.652 4.34863C139.652 4.70833 139.451 5.07861 139.049 5.45947C138.647 5.84033 138.076 6.03076 137.335 6.03076C136.616 6.03076 135.388 5.85091 133.653 5.49121C131.939 5.11035 130.204 4.91992 128.448 4.91992Z" fill="url(#paint4_linear_1_22262)"/>
<path d="M143.287 35.9282C140.811 35.9282 139.573 34.373 139.573 31.2627C139.573 28.1523 140.726 24.3438 143.033 19.8369C145.36 15.3089 148.09 11.4051 151.221 8.12549C154.353 4.82471 156.902 3.17432 158.87 3.17432C160.859 3.17432 161.991 4.04183 162.266 5.77686C162.351 6.30583 162.414 6.86654 162.457 7.45898C162.647 7.33203 162.88 7.26855 163.155 7.26855C164.149 7.26855 164.646 7.74463 164.646 8.69678V8.95068C164.646 9.01416 164.382 9.96631 163.853 11.8071C163.324 13.6479 162.721 16.716 162.044 21.0112C161.367 25.3065 161.028 28.9775 161.028 32.0244C161.219 32.1514 161.441 32.2995 161.695 32.4688C161.949 32.6169 162.266 32.8602 162.647 33.1987C163.028 33.5161 163.218 33.897 163.218 34.3413C163.218 34.7856 163.081 35.1877 162.806 35.5474C162.531 35.8859 162.139 36.0552 161.631 36.0552C160.595 36.0552 159.653 35.5262 158.807 34.4683C157.981 33.4103 157.569 32.2677 157.569 31.0405C157.569 28.3957 158.288 23.8465 159.727 17.3931C157.929 21.1593 155.601 24.7881 152.745 28.2793C149.888 31.7705 147.91 33.9181 146.81 34.7222C145.73 35.5262 144.556 35.9282 143.287 35.9282ZM142.811 31.3896C142.811 32.1725 143.139 32.564 143.794 32.564C144.26 32.564 144.651 32.4053 144.969 32.0879C149.349 28.3216 153.274 23.106 156.744 16.4409C158.711 12.6323 159.748 10.4424 159.854 9.87109C159.981 9.2998 160.044 8.81315 160.044 8.41113C160.044 8.00911 159.939 7.62826 159.727 7.26855C159.515 6.90885 159.219 6.729 158.838 6.729C158.458 6.729 157.897 6.93001 157.156 7.33203C155.527 8.2207 153.517 10.1144 151.126 13.0132C148.756 15.9119 146.778 19.0646 145.191 22.4712C143.604 25.8778 142.811 28.8506 142.811 31.3896Z" fill="url(#paint5_linear_1_22262)"/>
<path d="M192.878 10.2202C192.878 8.12549 192.307 7.07812 191.165 7.07812C189.641 7.07812 186.732 11.4474 182.437 20.186C180.49 24.1427 179.125 27.1367 178.342 29.168C177.581 31.1781 177.009 32.5957 176.628 33.4209C176.248 34.2461 175.867 34.8703 175.486 35.2935C175.126 35.7166 174.714 35.9282 174.248 35.9282C173.804 35.9282 173.539 35.8224 173.455 35.6108C173.37 35.3781 173.328 34.9761 173.328 34.4048C173.328 33.8123 174.174 28.8188 175.867 19.4243C177.581 10.0086 178.564 5.05745 178.818 4.5708C179.093 4.08415 179.337 3.77734 179.548 3.65039C179.76 3.50228 180.141 3.42822 180.691 3.42822C181.241 3.42822 181.664 3.63981 181.96 4.06299C182.278 4.48617 182.437 4.86702 182.437 5.20557C182.437 5.52295 182.394 5.84033 182.31 6.15771C182.161 6.729 181.939 7.43783 181.643 8.28418C180.627 11.1829 179.654 15.2878 178.723 20.5986L178.057 24.439C178.543 23.4233 179.093 22.2067 179.707 20.7891C180.321 19.3503 181.23 17.2979 182.437 14.6318C183.643 11.9658 184.986 9.58545 186.467 7.49072C188.372 4.74007 190.149 3.36475 191.799 3.36475C194.698 3.36475 196.147 5.7028 196.147 10.3789C196.147 12.1351 195.894 14.325 195.386 16.9487C194.899 19.5724 194.349 22.4395 193.735 25.5498C193.143 28.6602 192.815 31.231 192.751 33.2622L192.371 35.0078C192.371 35.4733 192.297 35.8013 192.148 35.9917C192.021 36.2033 191.609 36.3091 190.911 36.3091C190.234 36.3091 189.736 36.1821 189.419 35.9282C189.123 35.6743 189.028 35.2194 189.133 34.5635L192.307 15.584C192.688 13.2354 192.878 11.4474 192.878 10.2202Z" fill="url(#paint6_linear_1_22262)"/>
<path d="M5.20557 27.7397C5.20557 31.5907 6.61263 33.5161 9.42676 33.5161C10.8232 33.5161 12.1351 32.839 13.3623 31.4849C13.8278 30.9559 14.2616 30.4798 14.6636 30.0566C15.0656 29.6335 15.4782 29.4219 15.9014 29.4219C16.7477 29.4219 17.1709 29.7922 17.1709 30.5327C17.1709 31.8869 16.3034 33.2622 14.5684 34.6587C12.8333 36.034 10.8656 36.7217 8.66504 36.7217C6.48568 36.7217 4.82471 35.9176 3.68213 34.3096C2.56071 32.6803 2 30.8501 2 28.8188C2 25.0314 2.69824 21.1064 4.09473 17.0439C5.51237 12.9814 7.36377 9.57487 9.64893 6.82422C11.9552 4.07357 14.3885 2.69824 16.9487 2.69824C18.8107 2.69824 20.0379 3.36475 20.6304 4.69775C20.7785 5.05745 20.9478 5.52295 21.1382 6.09424C21.3498 6.64437 21.5825 6.99349 21.8364 7.1416C22.0057 7.41667 22.0903 7.75521 22.0903 8.15723C22.0903 8.53809 21.9105 8.89779 21.5508 9.23633C21.1911 9.57487 20.7891 9.74414 20.3447 9.74414C19.4349 9.74414 18.853 9.07764 18.5991 7.74463C18.3452 6.39046 17.6364 5.71338 16.4727 5.71338C14.8434 5.71338 13.1507 6.95117 11.3945 9.42676C9.65951 11.9023 8.18896 14.9069 6.98291 18.4404C5.79801 21.974 5.20557 25.0737 5.20557 27.7397Z" stroke="url(#paint7_linear_1_22262)" stroke-width="2.4" mask="url(#path-1-outside-1_1_22262)"/>
<path d="M31.4062 36.9121C30.6657 36.9121 30.2954 36.4784 30.2954 35.6108C30.2954 35.1453 30.4435 34.7327 30.7397 34.373C31.1206 33.4209 31.5226 32.0138 31.9458 30.1519C32.369 28.2899 32.6969 26.9251 32.9297 26.0576C33.1624 25.1901 33.3846 24.0898 33.5962 22.7568L34.2944 18.5674C34.9504 14.7376 35.5005 12.1351 35.9448 10.7598C36.8758 7.98796 37.9549 6.60205 39.1821 6.60205C39.6265 6.60205 39.9756 6.8877 40.2295 7.45898L41.0864 9.68066C41.0864 10.6117 40.769 11.2993 40.1343 11.7437C39.9227 11.8706 39.6794 11.9341 39.4043 11.9341C39.1504 11.9341 38.9282 11.8071 38.7378 11.5532C37.7222 15.4676 37.1086 18.1548 36.897 19.6147C36.4103 22.979 36.0295 25.1478 35.7544 26.1211C35.5005 27.0944 35.1408 28.4909 34.6753 30.3105C33.5327 34.7116 32.443 36.9121 31.4062 36.9121ZM40.5469 4.91992C36.167 4.91992 32.168 5.52295 28.5498 6.729C28.444 6.77132 28.3488 6.79248 28.2642 6.79248H28.0103C27.4813 6.79248 27.0369 6.64437 26.6772 6.34814C26.3175 6.03076 26.1377 5.71338 26.1377 5.396C26.1377 5.05745 26.2858 4.79297 26.582 4.60254C30.2002 3.03678 34.7493 2.25391 40.2295 2.25391C42.4089 2.25391 44.3343 2.3597 46.0059 2.57129C47.6774 2.76172 48.9575 2.89925 49.8462 2.98389C50.756 3.06852 51.2956 3.22721 51.4648 3.45996C51.6553 3.69271 51.7505 3.98893 51.7505 4.34863C51.7505 4.70833 51.5495 5.07861 51.1475 5.45947C50.7454 5.84033 50.1742 6.03076 49.4336 6.03076C48.7142 6.03076 47.487 5.85091 45.752 5.49121C44.0381 5.11035 42.3031 4.91992 40.5469 4.91992Z" stroke="url(#paint8_linear_1_22262)" stroke-width="2.4" mask="url(#path-1-outside-1_1_22262)"/>
<path d="M55.3853 35.9282C52.9097 35.9282 51.6719 34.373 51.6719 31.2627C51.6719 28.1523 52.825 24.3438 55.1313 19.8369C57.4588 15.3089 60.1883 11.4051 63.3198 8.12549C66.4513 4.82471 69.001 3.17432 70.9688 3.17432C72.9577 3.17432 74.0897 4.04183 74.3647 5.77686C74.4494 6.30583 74.5129 6.86654 74.5552 7.45898C74.7456 7.33203 74.9784 7.26855 75.2534 7.26855C76.2479 7.26855 76.7451 7.74463 76.7451 8.69678V8.95068C76.7451 9.01416 76.4806 9.96631 75.9517 11.8071C75.4227 13.6479 74.8197 16.716 74.1426 21.0112C73.4655 25.3065 73.127 28.9775 73.127 32.0244C73.3174 32.1514 73.5396 32.2995 73.7935 32.4688C74.0474 32.6169 74.3647 32.8602 74.7456 33.1987C75.1265 33.5161 75.3169 33.897 75.3169 34.3413C75.3169 34.7856 75.1794 35.1877 74.9043 35.5474C74.6292 35.8859 74.2378 36.0552 73.73 36.0552C72.6932 36.0552 71.7516 35.5262 70.9053 34.4683C70.0801 33.4103 69.6675 32.2677 69.6675 31.0405C69.6675 28.3957 70.3869 23.8465 71.8257 17.3931C70.0272 21.1593 67.6997 24.7881 64.8433 28.2793C61.9868 31.7705 60.0085 33.9181 58.9082 34.7222C57.8291 35.5262 56.6548 35.9282 55.3853 35.9282ZM54.9092 31.3896C54.9092 32.1725 55.2371 32.564 55.8931 32.564C56.3586 32.564 56.75 32.4053 57.0674 32.0879C61.4473 28.3216 65.3722 23.106 68.8423 16.4409C70.8101 12.6323 71.8468 10.4424 71.9526 9.87109C72.0796 9.2998 72.1431 8.81315 72.1431 8.41113C72.1431 8.00911 72.0373 7.62826 71.8257 7.26855C71.6141 6.90885 71.3179 6.729 70.937 6.729C70.5562 6.729 69.9954 6.93001 69.2549 7.33203C67.6256 8.2207 65.6156 10.1144 63.2246 13.0132C60.8548 15.9119 58.8765 19.0646 57.2896 22.4712C55.7026 25.8778 54.9092 28.8506 54.9092 31.3896Z" stroke="url(#paint9_linear_1_22262)" stroke-width="2.4" mask="url(#path-1-outside-1_1_22262)"/>
<path d="M93.1704 11.8706C96.2596 5.94613 99.6027 2.98389 103.2 2.98389C105.083 2.98389 106.437 3.5446 107.262 4.66602C108.087 5.76628 108.5 7.40609 108.5 9.58545C108.5 13.5845 107.929 17.6681 106.786 21.8364C105.644 25.9836 103.93 29.5171 101.645 32.437C99.3805 35.3358 96.7039 36.7852 93.6147 36.7852C92.4298 36.7852 91.4777 36.5312 90.7583 36.0234C90.0389 35.5156 89.457 34.6587 89.0127 33.4526C87.9336 38.3615 86.9074 43.2386 85.9341 48.084C84.9819 52.9505 83.9875 57.3516 82.9507 61.2871C82.5275 62.1546 81.9245 62.5884 81.1416 62.5884C80.4857 62.5884 80.1154 62.1546 80.0308 61.2871C81.4272 55.807 82.5487 50.8558 83.395 46.4336C84.2414 42.0114 84.8867 38.6154 85.3311 36.2456C85.7965 33.8758 86.4419 30.4798 87.2671 26.0576C88.1134 21.6143 89.4676 14.6742 91.3296 5.2373V3.80908C91.3296 3.3859 91.52 2.98389 91.9009 2.60303C92.3029 2.20101 92.7578 2 93.2656 2C93.7946 2 94.1755 2.20101 94.4082 2.60303C94.6621 3.00505 94.7891 3.39648 94.7891 3.77734C94.7891 4.13704 94.7573 4.46501 94.6938 4.76123C94.6304 5.05745 94.5563 5.35368 94.4717 5.6499C94.387 5.92497 94.3024 6.20003 94.2178 6.4751C94.1331 6.75016 94.0802 6.99349 94.0591 7.20508L93.1704 11.8706ZM90.3774 28.7236C90.3774 32.0456 91.6047 33.7065 94.0591 33.7065C96.3442 33.7065 98.439 32.2889 100.343 29.4536C102.777 25.8143 104.385 20.9689 105.167 14.9175C105.4 13.2459 105.517 11.6379 105.517 10.0933C105.517 7.30029 104.829 5.90381 103.454 5.90381C102.078 5.90381 100.481 6.90885 98.6611 8.91895C96.1221 11.7331 94.1014 15.0656 92.5991 18.9165C91.118 22.7674 90.3774 26.0365 90.3774 28.7236Z" stroke="url(#paint10_linear_1_22262)" stroke-width="2.4" mask="url(#path-1-outside-1_1_22262)"/>
<path d="M119.308 36.9121C118.567 36.9121 118.197 36.4784 118.197 35.6108C118.197 35.1453 118.345 34.7327 118.641 34.373C119.022 33.4209 119.424 32.0138 119.847 30.1519C120.27 28.2899 120.598 26.9251 120.831 26.0576C121.064 25.1901 121.286 24.0898 121.498 22.7568L122.196 18.5674C122.852 14.7376 123.402 12.1351 123.846 10.7598C124.777 7.98796 125.856 6.60205 127.083 6.60205C127.528 6.60205 127.877 6.8877 128.131 7.45898L128.988 9.68066C128.988 10.6117 128.67 11.2993 128.036 11.7437C127.824 11.8706 127.581 11.9341 127.306 11.9341C127.052 11.9341 126.83 11.8071 126.639 11.5532C125.624 15.4676 125.01 18.1548 124.798 19.6147C124.312 22.979 123.931 25.1478 123.656 26.1211C123.402 27.0944 123.042 28.4909 122.577 30.3105C121.434 34.7116 120.344 36.9121 119.308 36.9121ZM128.448 4.91992C124.068 4.91992 120.069 5.52295 116.451 6.729C116.345 6.77132 116.25 6.79248 116.166 6.79248H115.912C115.383 6.79248 114.938 6.64437 114.579 6.34814C114.219 6.03076 114.039 5.71338 114.039 5.396C114.039 5.05745 114.187 4.79297 114.483 4.60254C118.102 3.03678 122.651 2.25391 128.131 2.25391C130.31 2.25391 132.236 2.3597 133.907 2.57129C135.579 2.76172 136.859 2.89925 137.748 2.98389C138.657 3.06852 139.197 3.22721 139.366 3.45996C139.557 3.69271 139.652 3.98893 139.652 4.34863C139.652 4.70833 139.451 5.07861 139.049 5.45947C138.647 5.84033 138.076 6.03076 137.335 6.03076C136.616 6.03076 135.388 5.85091 133.653 5.49121C131.939 5.11035 130.204 4.91992 128.448 4.91992Z" stroke="url(#paint11_linear_1_22262)" stroke-width="2.4" mask="url(#path-1-outside-1_1_22262)"/>
<path d="M143.287 35.9282C140.811 35.9282 139.573 34.373 139.573 31.2627C139.573 28.1523 140.726 24.3438 143.033 19.8369C145.36 15.3089 148.09 11.4051 151.221 8.12549C154.353 4.82471 156.902 3.17432 158.87 3.17432C160.859 3.17432 161.991 4.04183 162.266 5.77686C162.351 6.30583 162.414 6.86654 162.457 7.45898C162.647 7.33203 162.88 7.26855 163.155 7.26855C164.149 7.26855 164.646 7.74463 164.646 8.69678V8.95068C164.646 9.01416 164.382 9.96631 163.853 11.8071C163.324 13.6479 162.721 16.716 162.044 21.0112C161.367 25.3065 161.028 28.9775 161.028 32.0244C161.219 32.1514 161.441 32.2995 161.695 32.4688C161.949 32.6169 162.266 32.8602 162.647 33.1987C163.028 33.5161 163.218 33.897 163.218 34.3413C163.218 34.7856 163.081 35.1877 162.806 35.5474C162.531 35.8859 162.139 36.0552 161.631 36.0552C160.595 36.0552 159.653 35.5262 158.807 34.4683C157.981 33.4103 157.569 32.2677 157.569 31.0405C157.569 28.3957 158.288 23.8465 159.727 17.3931C157.929 21.1593 155.601 24.7881 152.745 28.2793C149.888 31.7705 147.91 33.9181 146.81 34.7222C145.73 35.5262 144.556 35.9282 143.287 35.9282ZM142.811 31.3896C142.811 32.1725 143.139 32.564 143.794 32.564C144.26 32.564 144.651 32.4053 144.969 32.0879C149.349 28.3216 153.274 23.106 156.744 16.4409C158.711 12.6323 159.748 10.4424 159.854 9.87109C159.981 9.2998 160.044 8.81315 160.044 8.41113C160.044 8.00911 159.939 7.62826 159.727 7.26855C159.515 6.90885 159.219 6.729 158.838 6.729C158.458 6.729 157.897 6.93001 157.156 7.33203C155.527 8.2207 153.517 10.1144 151.126 13.0132C148.756 15.9119 146.778 19.0646 145.191 22.4712C143.604 25.8778 142.811 28.8506 142.811 31.3896Z" stroke="url(#paint12_linear_1_22262)" stroke-width="2.4" mask="url(#path-1-outside-1_1_22262)"/>
<path d="M192.878 10.2202C192.878 8.12549 192.307 7.07812 191.165 7.07812C189.641 7.07812 186.732 11.4474 182.437 20.186C180.49 24.1427 179.125 27.1367 178.342 29.168C177.581 31.1781 177.009 32.5957 176.628 33.4209C176.248 34.2461 175.867 34.8703 175.486 35.2935C175.126 35.7166 174.714 35.9282 174.248 35.9282C173.804 35.9282 173.539 35.8224 173.455 35.6108C173.37 35.3781 173.328 34.9761 173.328 34.4048C173.328 33.8123 174.174 28.8188 175.867 19.4243C177.581 10.0086 178.564 5.05745 178.818 4.5708C179.093 4.08415 179.337 3.77734 179.548 3.65039C179.76 3.50228 180.141 3.42822 180.691 3.42822C181.241 3.42822 181.664 3.63981 181.96 4.06299C182.278 4.48617 182.437 4.86702 182.437 5.20557C182.437 5.52295 182.394 5.84033 182.31 6.15771C182.161 6.729 181.939 7.43783 181.643 8.28418C180.627 11.1829 179.654 15.2878 178.723 20.5986L178.057 24.439C178.543 23.4233 179.093 22.2067 179.707 20.7891C180.321 19.3503 181.23 17.2979 182.437 14.6318C183.643 11.9658 184.986 9.58545 186.467 7.49072C188.372 4.74007 190.149 3.36475 191.799 3.36475C194.698 3.36475 196.147 5.7028 196.147 10.3789C196.147 12.1351 195.894 14.325 195.386 16.9487C194.899 19.5724 194.349 22.4395 193.735 25.5498C193.143 28.6602 192.815 31.231 192.751 33.2622L192.371 35.0078C192.371 35.4733 192.297 35.8013 192.148 35.9917C192.021 36.2033 191.609 36.3091 190.911 36.3091C190.234 36.3091 189.736 36.1821 189.419 35.9282C189.123 35.6743 189.028 35.2194 189.133 34.5635L192.307 15.584C192.688 13.2354 192.878 11.4474 192.878 10.2202Z" stroke="url(#paint13_linear_1_22262)" stroke-width="2.4" mask="url(#path-1-outside-1_1_22262)"/>
<defs>
<linearGradient id="paint0_linear_1_22262" x1="175.064" y1="-90.5723" x2="227.961" y2="12.0118" gradientUnits="userSpaceOnUse">
<stop stop-color="white"/>
<stop offset="1" stop-color="white" stop-opacity="0.8"/>
</linearGradient>
<linearGradient id="paint1_linear_1_22262" x1="175.064" y1="-90.5723" x2="227.961" y2="12.0118" gradientUnits="userSpaceOnUse">
<stop stop-color="white"/>
<stop offset="1" stop-color="white" stop-opacity="0.8"/>
</linearGradient>
<linearGradient id="paint2_linear_1_22262" x1="175.064" y1="-90.5723" x2="227.961" y2="12.0118" gradientUnits="userSpaceOnUse">
<stop stop-color="white"/>
<stop offset="1" stop-color="white" stop-opacity="0.8"/>
</linearGradient>
<linearGradient id="paint3_linear_1_22262" x1="175.064" y1="-90.5723" x2="227.961" y2="12.0118" gradientUnits="userSpaceOnUse">
<stop stop-color="white"/>
<stop offset="1" stop-color="white" stop-opacity="0.8"/>
</linearGradient>
<linearGradient id="paint4_linear_1_22262" x1="175.064" y1="-90.5723" x2="227.961" y2="12.0118" gradientUnits="userSpaceOnUse">
<stop stop-color="white"/>
<stop offset="1" stop-color="white" stop-opacity="0.8"/>
</linearGradient>
<linearGradient id="paint5_linear_1_22262" x1="175.064" y1="-90.5723" x2="227.961" y2="12.0118" gradientUnits="userSpaceOnUse">
<stop stop-color="white"/>
<stop offset="1" stop-color="white" stop-opacity="0.8"/>
</linearGradient>
<linearGradient id="paint6_linear_1_22262" x1="175.064" y1="-90.5723" x2="227.961" y2="12.0118" gradientUnits="userSpaceOnUse">
<stop stop-color="white"/>
<stop offset="1" stop-color="white" stop-opacity="0.8"/>
</linearGradient>
<linearGradient id="paint7_linear_1_22262" x1="175.064" y1="-90.5723" x2="227.961" y2="12.0118" gradientUnits="userSpaceOnUse">
<stop stop-color="white"/>
<stop offset="1" stop-color="white" stop-opacity="0.8"/>
</linearGradient>
<linearGradient id="paint8_linear_1_22262" x1="175.064" y1="-90.5723" x2="227.961" y2="12.0118" gradientUnits="userSpaceOnUse">
<stop stop-color="white"/>
<stop offset="1" stop-color="white" stop-opacity="0.8"/>
</linearGradient>
<linearGradient id="paint9_linear_1_22262" x1="175.064" y1="-90.5723" x2="227.961" y2="12.0118" gradientUnits="userSpaceOnUse">
<stop stop-color="white"/>
<stop offset="1" stop-color="white" stop-opacity="0.8"/>
</linearGradient>
<linearGradient id="paint10_linear_1_22262" x1="175.064" y1="-90.5723" x2="227.961" y2="12.0118" gradientUnits="userSpaceOnUse">
<stop stop-color="white"/>
<stop offset="1" stop-color="white" stop-opacity="0.8"/>
</linearGradient>
<linearGradient id="paint11_linear_1_22262" x1="175.064" y1="-90.5723" x2="227.961" y2="12.0118" gradientUnits="userSpaceOnUse">
<stop stop-color="white"/>
<stop offset="1" stop-color="white" stop-opacity="0.8"/>
</linearGradient>
<linearGradient id="paint12_linear_1_22262" x1="175.064" y1="-90.5723" x2="227.961" y2="12.0118" gradientUnits="userSpaceOnUse">
<stop stop-color="white"/>
<stop offset="1" stop-color="white" stop-opacity="0.8"/>
</linearGradient>
<linearGradient id="paint13_linear_1_22262" x1="175.064" y1="-90.5723" x2="227.961" y2="12.0118" gradientUnits="userSpaceOnUse">
<stop stop-color="white"/>
<stop offset="1" stop-color="white" stop-opacity="0.8"/>
</linearGradient>
</defs>
</svg>
