<svg width="387" height="520" viewBox="0 0 387 520" fill="none" xmlns="http://www.w3.org/2000/svg">
<g clip-path="url(#clip0_1_9977)">
<path d="M0 25C0 11.1929 11.1929 0 25 0H362C375.807 0 387 11.1929 387 25V495C387 508.807 375.807 520 362 520H25C11.1929 520 0 508.807 0 495V25Z" fill="white"/>
<circle opacity="0.1" cx="330.5" cy="415.5" r="197.5" fill="#007AFF"/>
</g>
<path d="M25 0.5H362C375.531 0.5 386.5 11.469 386.5 25V495C386.5 508.531 375.531 519.5 362 519.5H25C11.469 519.5 0.5 508.531 0.5 495V25C0.500001 11.469 11.469 0.5 25 0.5Z" stroke="#007AFF"/>
<defs>
<clipPath id="clip0_1_9977">
<path d="M0 25C0 11.1929 11.1929 0 25 0H362C375.807 0 387 11.1929 387 25V495C387 508.807 375.807 520 362 520H25C11.1929 520 0 508.807 0 495V25Z" fill="white"/>
</clipPath>
</defs>
</svg>
