<svg width="474" height="521" viewBox="0 0 474 521" fill="none" xmlns="http://www.w3.org/2000/svg">
<g clip-path="url(#clip0_485_24000)">
<path d="M0 25.1016C0 11.2944 11.1929 0.101562 25 0.101562H449C462.807 0.101562 474 11.2944 474 25.1016V495.102C474 508.909 462.807 520.102 449 520.102H25C11.1929 520.102 0 508.909 0 495.102V25.1016Z" fill="white"/>
<circle opacity="0.1" cx="449.5" cy="415.797" r="197.5" fill="#007AFF"/>
</g>
<path d="M25 0.601562H449C462.531 0.601562 473.5 11.5706 473.5 25.1016V495.102C473.5 508.633 462.531 519.602 449 519.602H25C11.469 519.602 0.5 508.633 0.5 495.102V25.1016C0.500001 11.5706 11.469 0.601562 25 0.601562Z" stroke="#007AFF"/>
<defs>
<clipPath id="clip0_485_24000">
<path d="M0 25.1016C0 11.2944 11.1929 0.101562 25 0.101562H449C462.807 0.101562 474 11.2944 474 25.1016V495.102C474 508.909 462.807 520.102 449 520.102H25C11.1929 520.102 0 508.909 0 495.102V25.1016Z" fill="white"/>
</clipPath>
</defs>
</svg>
