<svg width="173.234375" height="62.992188" viewBox="0 0 173.234 62.9922" fill="none" xmlns="http://www.w3.org/2000/svg" xmlns:xlink="http://www.w3.org/1999/xlink">
	<desc>
			Created with Pixso.
	</desc>
	<defs>
		<linearGradient x1="147.350601" y1="-91.369080" x2="104.260307" y2="64.630905" id="paint_linear_485_24102_0" gradientUnits="userSpaceOnUse">
			<stop stop-color="#FFFFFF"/>
			<stop offset="1.000000" stop-color="#FFFFFF" stop-opacity="0.800000"/>
		</linearGradient>
		<linearGradient x1="147.350601" y1="-91.369080" x2="104.260307" y2="64.630905" id="paint_linear_485_24102_1" gradientUnits="userSpaceOnUse">
			<stop stop-color="#FFFFFF"/>
			<stop offset="1.000000" stop-color="#FFFFFF" stop-opacity="0.800000"/>
		</linearGradient>
	</defs>
	<path id="проект" d="M50.42 2.21Q45.35 2.64 40.95 11.07L41.84 6.4C41.86 6.19 41.92 5.95 42 5.67L42.25 4.85C42.34 4.55 42.41 4.25 42.47 3.96Q42.57 3.52 42.57 2.98Q42.57 2.4 42.19 1.8Q42.06 1.58 41.87 1.43L41.87 1.43Q41.54 1.2 41.05 1.2C40.54 1.2 40.08 1.4 39.68 1.8Q39.18 2.3 39.12 2.85Q39.11 2.93 39.11 3.01L39.11 4.43C37.25 13.87 35.89 20.82 35.05 25.25C34.22 29.67 33.58 33.07 33.11 35.44Q32.45 39 31.17 45.64Q29.91 52.27 27.81 60.49C27.89 61.35 28.27 61.78 28.92 61.78C29.71 61.78 30.31 61.35 30.73 60.49Q32.28 54.58 33.71 47.28C34.69 42.44 35.71 37.56 36.79 32.65C37.24 33.85 37.82 34.71 38.54 35.22Q39.62 35.98 41.39 35.98C44.49 35.98 47.16 34.53 49.42 31.64Q52.85 27.25 54.57 21.03Q56.28 14.78 56.28 8.78Q56.28 5.51 55.04 3.86Q54.84 3.59 54.6 3.36L54.6 3.36Q53.35 2.18 50.98 2.18Q50.7 2.18 50.42 2.21ZM148.83 5.92Q154.26 4.12 160.83 4.12C162.59 4.12 164.32 4.31 166.03 4.69C167.77 5.05 169 5.23 169.71 5.23Q170.79 5.23 171.39 4.7Q171.41 4.67 171.43 4.66C171.83 4.28 172.03 3.91 172.03 3.55Q172.03 3.07 171.82 2.75Q171.78 2.71 171.75 2.66Q171.5 2.31 170.13 2.18C169.24 2.1 167.96 1.96 166.29 1.77C164.62 1.56 162.69 1.45 160.51 1.45Q152.29 1.45 146.86 3.8C146.57 4 146.42 4.25 146.42 4.6C146.42 4.91 146.6 5.23 146.96 5.55Q147.08 5.65 147.22 5.73Q147.68 5.99 148.29 5.99L148.55 5.99Q148.67 5.99 148.83 5.92ZM123.01 2.18C123.54 2.18 123.9 2.54 124.09 3.26C124.09 4.15 124.01 4.94 123.84 5.64C123.67 6.34 123.43 7.53 123.14 9.23Q122.73 11.74 122.09 15Q129.27 4.91 134.44 2.4C135.22 2.03 136 1.83 136.75 1.83Q137.93 1.83 139.23 3.52Q140.57 5.17 140.57 6.31C140.57 7.07 140.39 7.63 140.03 7.99C139.67 8.35 139.26 8.53 138.82 8.53C138.37 8.53 138.01 8.34 137.74 7.96C137.49 7.58 137.25 7.17 137.04 6.72Q136.75 6.06 136.47 5.48Q136.26 5.02 135.95 4.93Q135.88 4.91 135.8 4.91Q135.39 4.91 134 5.71C133.07 6.24 131.61 7.57 129.64 9.71C127.68 11.82 126.24 13.48 125.33 14.69Q126 21.03 127.9 25.64Q129.81 30.24 131.9 31.89Q132.92 32.67 133.97 32.71Q134.03 32.71 134.09 32.71Q135.21 32.71 135.88 32.16Q135.89 32.15 135.9 32.14C136.34 31.76 136.71 31.15 136.98 30.3C137.28 29.43 137.54 28.96 137.77 28.87Q138.15 28.75 138.53 28.75Q138.92 28.75 139.39 29.19C139.73 29.49 139.9 30.06 139.9 30.9C139.9 31.73 139.53 32.56 138.82 33.38C137.4 34.96 135.96 35.76 134.5 35.76C130.33 35.76 127.1 32.33 124.79 25.48C123.84 22.68 123.21 20.25 122.92 18.17C122.5 18.88 122.03 19.69 121.52 20.62L120.73 22.08Q119.43 29 118.73 33.95C118.64 34.48 118.4 34.92 118 35.25C117.62 35.59 117.26 35.76 116.92 35.76C116.2 35.76 115.8 35.31 115.71 34.39C116.25 31.48 117 27.1 117.96 21.29C118.94 15.47 119.66 11.5 120.13 9.35C120.59 7.2 120.92 5.32 121.1 3.74C121.24 3.32 121.48 2.96 121.84 2.66C122.22 2.34 122.61 2.18 123.01 2.18ZM106.08 30.97C106.08 30.18 105.71 29.79 104.97 29.79Q104.5 29.79 103.64 30.27C103.07 30.57 102.12 31.07 100.81 31.76Q98.88 32.78 97.1 32.78C94.89 32.78 93.8 30.96 93.8 27.32L93.92 22.65C96.67 21.55 99.1 20.39 101.22 19.16Q103.15 18.04 104.71 16.53L104.71 16.53Q105.71 15.57 106.56 14.43Q106.94 13.92 107.26 13.38L107.26 13.38Q108.75 10.82 108.75 7.39Q108.75 5.6 108.01 4.21L108.01 4.21L108.01 4.21Q107.83 3.87 107.6 3.55C106.86 2.45 105.84 1.89 104.53 1.89Q104.03 1.89 103.56 1.96L103.55 1.96Q100.42 2.39 97.67 5.61C95.55 8.07 93.86 11.17 92.59 14.91Q90.68 20.53 90.68 26.88C90.68 29.27 91.14 31.31 92.05 33C92.52 33.87 93.12 34.54 93.86 35.03C94.6 35.52 95.71 35.76 97.19 35.76C98.67 35.76 100.53 35.19 102.75 34.05Q106.08 32.33 106.08 30.97ZM77.6 2.31Q79.42 2.31 80.68 3.15Q83.59 5.07 83.59 11.39Q83.59 18.46 79.69 26.59C77.93 30.23 75.82 32.85 73.34 34.46C72.07 35.28 70.76 35.7 69.4 35.7Q67.28 35.7 65.86 34.69L65.86 34.69Q64.89 34 64.26 32.84C63.23 30.94 62.71 28.89 62.71 26.68C62.71 22.75 63.36 18.93 64.67 15.23C66.01 11.53 67.81 8.45 70.07 5.99Q72.83 3.03 76.03 2.45L76.03 2.45L76.03 2.45Q76.8 2.31 77.6 2.31ZM20.75 9.42Q20.75 7 19.73 6.44L19.73 6.44Q19.42 6.28 19.03 6.28Q16.75 6.28 10.31 19.39Q7.39 25.32 6.21 28.37Q5.07 31.38 4.5 32.62C4.12 33.45 3.74 34.07 3.35 34.5C3 34.92 2.58 35.13 2.12 35.13C1.67 35.13 1.41 35.02 1.32 34.81C1.24 34.57 1.2 34.17 1.2 33.6Q1.2 32.71 3.74 18.62Q6.31 4.5 6.69 3.77C6.96 3.28 7.21 2.98 7.42 2.85Q7.74 2.63 8.56 2.63Q9.03 2.63 9.39 2.84L9.39 2.84L9.39 2.84Q9.64 2.99 9.83 3.26Q10.31 3.89 10.31 4.4Q10.31 4.88 10.18 5.35Q9.96 6.21 9.51 7.48Q7.99 11.83 6.6 19.8L5.92 23.64Q6.66 22.11 7.58 19.99Q8.5 17.83 10.31 13.83Q12.12 9.83 14.34 6.69Q17.2 2.57 19.67 2.57Q20.88 2.57 21.75 3.1Q24.02 4.51 24.02 9.57Q24.02 12.21 23.25 16.14C22.77 18.77 22.22 21.64 21.6 24.75C21.01 27.85 20.68 30.43 20.62 32.46L20.25 34.21C20.25 34.67 20.17 35 20.02 35.19C19.89 35.4 19.48 35.51 18.78 35.51Q17.77 35.51 17.29 35.13C17 34.87 16.9 34.42 17 33.76L20.17 14.78Q20.75 11.26 20.75 9.42ZM99.16 8.4Q101.73 4.97 103.64 4.97C105.05 4.97 105.76 5.82 105.76 7.51Q105.76 10.84 104.18 13.02L104.18 13.02Q104.16 13.04 104.14 13.07C103.09 14.51 101.58 15.77 99.64 16.85C98.79 17.31 97.92 17.75 97.03 18.17C96.14 18.6 95.28 19.04 94.43 19.51C94.47 19.04 94.64 18.35 94.91 17.45C96.03 13.71 97.45 10.69 99.16 8.4ZM39.7 32.28Q38.16 31.14 38.16 27.92Q38.16 23.89 40.38 18.11Q42.64 12.34 46.44 8.12C48.26 6.1 49.86 5.1 51.24 5.1Q51.64 5.1 51.96 5.26L51.96 5.26Q53.3 5.92 53.3 9.29C53.3 10.84 53.18 12.44 52.95 14.11C52.17 20.17 50.56 25.01 48.12 28.65Q45.57 32.46 42.57 32.85Q42.21 32.9 41.84 32.9Q40.54 32.9 39.7 32.28L39.7 32.28ZM69.09 12.82Q65.66 19.67 65.66 26.21C65.66 29.24 66.5 31.27 68.17 32.3C68.67 32.62 69.26 32.78 69.92 32.78C71.27 32.78 72.78 31.6 74.45 29.25C76.12 26.91 77.53 24.02 78.67 20.59Q80.39 15.42 80.39 11.74C80.39 9.26 80.24 7.69 79.94 7.04C79.67 6.39 79.34 5.92 78.96 5.67C78.6 5.42 77.99 5.29 77.12 5.29C76.27 5.29 75.34 5.63 74.32 6.31Q71.37 8.21 69.09 12.82ZM150.58 34.81C150.58 35.67 150.95 36.11 151.69 36.11C152.73 36.11 153.82 33.91 154.96 29.51C155.42 27.69 155.78 26.29 156.03 25.32Q156.45 23.86 157.18 18.82C157.39 17.35 158 14.67 159.02 10.75Q159.24 11.04 159.51 11.11Q159.6 11.14 159.69 11.14C159.96 11.14 160.21 11.07 160.42 10.94Q160.7 10.75 160.89 10.49Q161.37 9.87 161.37 8.88L160.51 6.66Q160.22 6 159.76 5.85Q159.62 5.8 159.46 5.8Q159.38 5.8 159.29 5.81Q157.56 6 156.23 9.96C155.78 11.33 155.23 13.93 154.57 17.77L153.88 21.96Q153.56 23.96 153.21 25.25C152.98 26.12 152.65 27.49 152.23 29.35C151.81 31.21 151.4 32.62 151.03 33.57C150.73 33.93 150.58 34.35 150.58 34.81Z" fill="url(#paint_linear_485_24102_0)" fill-opacity="1.000000" fill-rule="evenodd"/>
	<path id="проект" d="M55.21 2.3Q53.65 0.98 50.98 0.98Q50.51 0.98 50.05 1.03Q46.54 1.46 43.42 5.1Q43.55 4.66 43.65 4.21Q43.77 3.64 43.77 2.98Q43.77 2.92 43.77 2.86Q43.74 2.01 43.21 1.18Q42.92 0.67 42.48 0.39Q41.89 0 41.05 0Q40.57 0 40.13 0.14Q39.42 0.36 38.83 0.96Q38.15 1.63 37.97 2.42Q37.91 2.71 37.91 3.01L37.91 4.32L33.87 25.03L31.93 35.22L30 45.41Q28.74 52 26.65 60.19L26.6 60.39L26.62 60.6Q26.75 61.99 27.5 62.57Q28.05 62.99 28.92 62.99Q29.66 62.99 30.25 62.7Q31.21 62.23 31.81 61.01L31.86 60.91L31.89 60.79Q33.46 54.85 34.89 47.53L37.35 35.8Q37.59 36.02 37.85 36.2Q39.24 37.18 41.39 37.18Q42.97 37.18 44.42 36.75Q47.75 35.73 50.37 32.38Q53.95 27.81 55.72 21.35Q57.48 14.94 57.48 8.78Q57.48 5.11 56.01 3.15Q55.66 2.67 55.21 2.3ZM36.38 34.57C36.51 33.92 36.65 33.29 36.79 32.65C37.04 33.32 37.33 33.89 37.67 34.34C37.93 34.71 38.22 35 38.54 35.22Q39.62 35.98 41.39 35.98C44.49 35.98 47.16 34.53 49.42 31.64Q52.85 27.25 54.57 21.03Q56.28 14.78 56.28 8.78Q56.28 5.51 55.04 3.86Q54.84 3.59 54.6 3.36L54.6 3.36Q53.35 2.18 50.98 2.18Q50.7 2.18 50.42 2.21Q46.38 2.55 42.76 7.98Q41.84 9.36 40.95 11.07L41.63 7.53L41.84 6.4C41.86 6.19 41.92 5.95 42 5.67L42.25 4.85C42.34 4.55 42.41 4.25 42.47 3.96Q42.57 3.52 42.57 2.98Q42.57 2.4 42.19 1.8Q42.06 1.58 41.87 1.43L41.87 1.43Q41.54 1.2 41.05 1.2C40.54 1.2 40.08 1.4 39.68 1.8Q39.18 2.3 39.12 2.85L39.12 2.85Q39.11 2.93 39.11 3.01L39.11 4.43C37.25 13.87 35.89 20.82 35.05 25.25C34.22 29.67 33.58 33.07 33.11 35.44Q32.45 39 31.17 45.64Q29.91 52.27 27.81 60.49C27.89 61.35 28.27 61.78 28.92 61.78C29.71 61.78 30.31 61.35 30.73 60.49Q32.28 54.58 33.71 47.28C34.56 43.07 35.45 38.83 36.38 34.57ZM148.83 5.92Q154.26 4.12 160.83 4.12C162.59 4.12 164.32 4.31 166.03 4.69C167.77 5.05 169 5.23 169.71 5.23Q170.79 5.23 171.39 4.7Q171.41 4.67 171.43 4.66C171.83 4.28 172.03 3.91 172.03 3.55Q172.03 3.07 171.82 2.75Q171.78 2.71 171.75 2.66Q171.5 2.31 170.13 2.18C169.24 2.1 167.96 1.96 166.29 1.77C164.62 1.56 162.69 1.45 160.51 1.45Q152.29 1.45 146.86 3.8C146.57 4 146.42 4.25 146.42 4.6C146.42 4.91 146.6 5.23 146.96 5.55Q147.08 5.65 147.22 5.73Q147.68 5.99 148.29 5.99L148.55 5.99Q148.67 5.99 148.83 5.92ZM149.24 7.06Q148.89 7.19 148.55 7.19L148.29 7.19Q147.47 7.19 146.8 6.86Q146.48 6.71 146.2 6.47L146.18 6.46L146.17 6.45Q145.41 5.78 145.26 5Q145.22 4.8 145.22 4.6Q145.22 4.03 145.45 3.6Q145.7 3.12 146.21 2.79L146.3 2.74L146.39 2.7Q152.04 0.25 160.51 0.25Q163.85 0.25 166.44 0.58L170.26 0.99Q172.1 1.16 172.69 1.92Q172.85 2.1 172.96 2.32Q173.23 2.86 173.23 3.55Q173.23 3.7 173.21 3.84Q173.1 4.73 172.25 5.53Q172.1 5.68 171.92 5.81Q171.04 6.43 169.71 6.43Q168.51 6.43 165.79 5.86Q164.23 5.52 162.64 5.39Q161.86 5.33 161.08 5.32Q161.39 5.66 161.61 6.17L161.62 6.2L162.57 8.66L162.57 8.88Q162.57 10.17 161.96 11.07Q161.63 11.56 161.1 11.92L161.07 11.95L161.03 11.97Q160.85 12.08 160.67 12.15Q160.28 12.3 159.85 12.33Q158.64 17.1 158.37 18.99Q157.63 24.09 157.2 25.64L156.12 29.81Q154.22 37.14 151.81 37.31Q151.75 37.31 151.69 37.31Q150.63 37.31 150.05 36.78Q149.38 36.16 149.38 34.81Q149.38 34.25 149.56 33.75Q149.71 33.34 149.96 32.97Q150.48 31.64 151.06 29.08Q151.7 26.27 152.05 24.95Q152.39 23.71 152.69 21.77L153.39 17.57Q154.39 11.74 155.09 9.59Q156.07 6.66 157.41 5.45Q153.03 5.8 149.24 7.06ZM151.03 33.57C150.73 33.93 150.58 34.35 150.58 34.81C150.58 35.67 150.95 36.11 151.69 36.11C152.73 36.11 153.82 33.91 154.96 29.51C155.42 27.69 155.78 26.29 156.03 25.32Q156.45 23.86 157.18 18.82C157.37 17.52 157.87 15.27 158.68 12.06C158.79 11.64 158.9 11.21 159.02 10.75Q159.24 11.04 159.51 11.11Q159.6 11.14 159.69 11.14C159.86 11.14 160.03 11.1 160.18 11.05C160.26 11.03 160.34 10.99 160.42 10.94Q160.7 10.75 160.89 10.49Q161.37 9.87 161.37 8.88L160.51 6.66Q160.22 6 159.76 5.85Q159.62 5.8 159.46 5.8Q159.38 5.8 159.29 5.81Q157.56 6 156.23 9.96C155.78 11.33 155.23 13.93 154.57 17.77L153.88 21.96Q153.56 23.96 153.21 25.25C152.98 26.12 152.65 27.49 152.23 29.35C151.81 31.21 151.4 32.62 151.03 33.57ZM125 5.92Q125.29 4.74 125.29 3.26L125.29 3.1L125.25 2.96Q124.93 1.75 124.16 1.28Q123.68 0.98 123.01 0.98Q122.76 0.98 122.51 1.03Q121.75 1.17 121.07 1.73Q120.58 2.14 120.28 2.66Q120.07 3 119.96 3.39L119.93 3.5L119.92 3.6Q119.64 5.92 118.95 9.1Q118.25 12.33 116.78 21.09L114.5 34.35L114.52 34.51Q114.65 35.9 115.41 36.5Q115.98 36.96 116.92 36.96Q117 36.96 117.07 36.96Q117.95 36.9 118.78 36.16Q119.19 35.82 119.46 35.39Q119.8 34.82 119.92 34.12Q120.6 29.26 121.87 22.49L122.37 21.57Q122.87 23.56 123.65 25.86Q126.72 34.98 132.07 36.6Q133.23 36.96 134.5 36.96Q134.72 36.96 134.94 36.94Q137.43 36.74 139.72 34.17Q140.96 32.75 141.08 31.24Q141.1 31.07 141.1 30.9Q141.1 29.12 140.21 28.32Q140.21 28.31 140.2 28.3Q139.42 27.58 138.61 27.55Q138.57 27.55 138.53 27.55Q138.44 27.55 138.35 27.55Q137.86 27.58 137.39 27.74L137.38 27.74L137.36 27.75Q136.47 28.07 135.84 29.93Q135.53 30.88 135.12 31.23Q134.78 31.51 134.09 31.51Q133.39 31.51 132.64 30.95Q130.79 29.49 129.01 25.17Q127.25 20.91 126.57 15.03Q127.91 13.33 130.53 10.52Q133.35 7.45 134.59 6.75Q135.2 6.4 135.5 6.25Q135.72 6.69 135.94 7.19L135.95 7.21L135.96 7.24Q136.32 7.98 136.74 8.63L136.75 8.64L136.77 8.66Q137.18 9.23 137.74 9.5Q138.22 9.73 138.82 9.73Q139.25 9.73 139.64 9.61Q140.31 9.4 140.87 8.84Q140.96 8.75 141.03 8.67Q141.76 7.79 141.76 6.31Q141.76 4.75 140.18 2.78Q138.58 0.71 136.89 0.64Q136.82 0.64 136.75 0.64Q135.34 0.64 133.92 1.32Q129.64 3.39 124.19 10.21Q124.26 9.82 124.32 9.43Q124.76 6.93 125 5.92ZM123.74 12.75Q122.93 13.82 122.09 15Q122.37 13.56 122.61 12.25Q122.91 10.63 123.14 9.23C123.43 7.53 123.67 6.34 123.84 5.64C124.01 4.94 124.09 4.15 124.09 3.26C123.9 2.54 123.54 2.18 123.01 2.18C122.61 2.18 122.22 2.34 121.84 2.66C121.48 2.96 121.24 3.32 121.1 3.74C120.92 5.32 120.59 7.2 120.13 9.35C119.66 11.5 118.94 15.47 117.96 21.29C117 27.1 116.25 31.48 115.71 34.39C115.8 35.31 116.2 35.76 116.92 35.76C117.26 35.76 117.62 35.59 118 35.25C118.4 34.92 118.64 34.48 118.73 33.95Q119.43 29 120.73 22.08L121.52 20.62C121.68 20.34 121.83 20.06 121.98 19.8C122.31 19.2 122.63 18.66 122.92 18.17C123 18.75 123.1 19.36 123.25 20C123.59 21.64 124.1 23.46 124.79 25.48C127.1 32.33 130.33 35.76 134.5 35.76C135.96 35.76 137.4 34.96 138.82 33.38C139.53 32.56 139.9 31.73 139.9 30.9C139.9 30.06 139.73 29.49 139.39 29.19Q138.92 28.75 138.53 28.75Q138.15 28.75 137.77 28.87C137.54 28.96 137.28 29.43 136.98 30.3C136.71 31.15 136.34 31.76 135.9 32.14Q135.89 32.15 135.88 32.16Q135.21 32.71 134.09 32.71Q134.03 32.71 133.97 32.71Q132.92 32.67 131.9 31.89Q129.81 30.24 127.9 25.64Q126 21.03 125.33 14.69C126.24 13.48 127.68 11.82 129.64 9.71C131.61 7.57 133.07 6.24 134 5.71Q135.39 4.91 135.8 4.91Q135.88 4.91 135.95 4.93Q136.26 5.02 136.47 5.48Q136.75 6.06 137.04 6.72C137.25 7.17 137.49 7.58 137.74 7.96C138.01 8.34 138.37 8.53 138.82 8.53C139.26 8.53 139.67 8.35 140.03 7.99C140.39 7.63 140.57 7.07 140.57 6.31Q140.57 5.17 139.23 3.52Q137.93 1.83 136.75 1.83C136 1.83 135.22 2.03 134.44 2.4Q129.87 4.62 123.74 12.75ZM107.28 31Q107.28 30.98 107.28 30.97Q107.28 30.09 106.87 29.5Q106.78 29.38 106.68 29.26Q106.5 29.09 106.31 28.96Q105.76 28.6 104.97 28.6Q104.18 28.6 103.07 29.21L100.25 30.7Q98.58 31.58 97.1 31.58Q96.55 31.58 96.16 31.33Q95.85 31.14 95.65 30.79Q95 29.71 95 27.33L95.1 23.47Q98.86 21.92 101.82 20.2Q103.91 19 105.58 17.36Q106.63 16.34 107.51 15.16Q108.01 14.5 108.41 13.79Q109.95 11.02 109.95 7.39Q109.95 5.42 109.16 3.82Q108.92 3.32 108.59 2.86Q107.85 1.76 106.81 1.22Q105.8 0.7 104.53 0.7Q103.81 0.7 103.1 0.82Q99.69 1.4 96.76 4.82Q93.43 8.68 91.46 14.53Q89.49 20.33 89.49 26.88Q89.49 30.76 91 33.57Q91.71 34.89 92.8 35.75Q93 35.89 93.2 36.03Q94.61 36.96 97.19 36.96Q99.71 36.96 103.29 35.11Q107.25 33.08 107.28 31ZM107.6 3.55C106.86 2.45 105.84 1.89 104.53 1.89Q104.03 1.89 103.56 1.96L103.56 1.96L103.55 1.96Q100.42 2.39 97.67 5.61C95.55 8.07 93.86 11.17 92.59 14.91Q90.68 20.53 90.68 26.88C90.68 29.27 91.14 31.31 92.05 33C92.52 33.87 93.12 34.54 93.86 35.03C94.6 35.52 95.71 35.76 97.19 35.76C98.67 35.76 100.53 35.19 102.75 34.05Q106.08 32.33 106.08 30.97C106.08 30.18 105.71 29.79 104.97 29.79Q104.5 29.79 103.64 30.27C103.07 30.57 102.12 31.07 100.81 31.76Q98.88 32.78 97.1 32.78C94.89 32.78 93.8 30.96 93.8 27.32L93.92 22.65C96.67 21.55 99.1 20.39 101.22 19.16Q103.15 18.04 104.71 16.53L104.71 16.53L104.71 16.53Q105.71 15.57 106.56 14.43Q106.94 13.92 107.26 13.38L107.26 13.38L107.26 13.38Q108.75 10.82 108.75 7.39Q108.75 5.6 108.01 4.21L108.01 4.21L108.01 4.21Q107.83 3.87 107.6 3.55ZM80.77 27.11Q84.79 18.74 84.79 11.39Q84.79 6.49 83.1 3.92Q82.33 2.76 81.26 2.08Q79.74 1.11 77.6 1.11Q76.57 1.11 75.58 1.31Q72.14 2.01 69.19 5.17Q65.63 9.03 63.54 14.82Q62.56 17.61 62.05 20.48Q61.51 23.53 61.51 26.68Q61.51 28.69 62.03 30.54Q62.46 32.03 63.21 33.42Q64.01 34.89 65.25 35.74Q66.92 36.9 69.4 36.9Q69.91 36.9 70.41 36.83Q72.26 36.6 74 35.46Q77.99 32.87 80.77 27.11ZM11.39 19.92Q17.5 7.48 19.03 7.48Q19.07 7.48 19.1 7.49Q19.55 7.6 19.55 9.42Q19.55 11.16 19 14.58L15.82 33.57Q15.61 34.85 16.14 35.63Q16.29 35.85 16.51 36.03L16.53 36.05L16.54 36.07Q17.35 36.71 18.78 36.71Q20.38 36.71 20.96 35.94Q20.98 35.91 21 35.88Q21.41 35.31 21.44 34.35L21.82 32.6L21.82 32.5Q21.92 29.54 22.78 24.97L24.43 16.38Q25.22 12.32 25.22 9.57Q25.22 5.73 23.95 3.68Q23.29 2.62 22.34 2.04Q21.21 1.36 19.67 1.36Q16.57 1.36 13.35 6Q11.07 9.23 9.21 13.34Q9.11 13.57 9.01 13.79Q9.81 10.27 10.64 7.88Q11.1 6.57 11.34 5.67Q11.49 5.11 11.5 4.56Q11.51 4.48 11.51 4.4Q11.51 3.5 10.8 2.56Q10.44 2.04 9.94 1.76Q9.35 1.42 8.56 1.42Q7.39 1.42 6.77 1.84Q6.2 2.21 5.64 3.17L5.64 3.2L5.63 3.21Q5.16 4.1 2.56 18.41Q0 32.6 0 33.6Q0 34.67 0.2 35.22L0.21 35.24L0.21 35.25Q0.35 35.59 0.58 35.82Q1.1 36.32 2.12 36.32Q2.57 36.32 2.97 36.19Q3.68 35.95 4.26 35.28Q4.95 34.51 5.59 33.12Q6.17 31.85 7.33 28.8Q8.49 25.8 11.39 19.92ZM3.35 34.5C3.74 34.07 4.12 33.45 4.5 32.62Q5.07 31.38 6.21 28.37Q7.39 25.32 10.31 19.39Q16.75 6.28 19.03 6.28Q19.42 6.28 19.73 6.44L19.73 6.44Q20.75 7 20.75 9.42Q20.75 11.26 20.17 14.78L17 33.76C16.9 34.42 17 34.87 17.29 35.13Q17.77 35.51 18.78 35.51C19.48 35.51 19.89 35.4 20.02 35.19C20.17 35 20.25 34.67 20.25 34.21L20.62 32.46C20.68 30.43 21.01 27.85 21.6 24.75C22.22 21.64 22.77 18.77 23.25 16.14Q24.02 12.21 24.02 9.57Q24.02 4.51 21.75 3.1Q20.88 2.57 19.67 2.57Q17.2 2.57 14.34 6.69Q12.12 9.83 10.31 13.83Q8.81 17.14 7.92 19.19Q7.74 19.62 7.58 19.99Q6.66 22.11 5.92 23.64L6.6 19.8Q6.67 19.32 6.76 18.84Q8.08 11.57 9.51 7.48Q9.96 6.21 10.18 5.35Q10.31 4.88 10.31 4.4Q10.31 3.89 9.83 3.26Q9.64 2.99 9.39 2.84L9.39 2.84L9.39 2.84L9.39 2.84Q9.03 2.63 8.56 2.63Q7.74 2.63 7.42 2.85C7.21 2.98 6.96 3.28 6.69 3.77Q6.31 4.5 3.74 18.62Q1.2 32.71 1.2 33.6C1.2 34.17 1.24 34.57 1.32 34.81C1.41 35.02 1.67 35.13 2.12 35.13C2.58 35.13 3 34.92 3.35 34.5ZM80.68 3.15Q79.42 2.31 77.6 2.31Q76.8 2.31 76.03 2.45L76.03 2.45L76.03 2.45Q72.83 3.03 70.07 5.99C67.81 8.45 66.01 11.53 64.67 15.23C63.36 18.93 62.71 22.75 62.71 26.68C62.71 28.89 63.23 30.94 64.26 32.84Q64.89 34 65.86 34.69L65.86 34.69L65.86 34.69Q67.28 35.7 69.4 35.7C70.76 35.7 72.07 35.28 73.34 34.46C75.82 32.85 77.93 30.23 79.69 26.59Q83.59 18.46 83.59 11.39Q83.59 5.07 80.68 3.15ZM78.96 5.67C78.6 5.42 77.99 5.29 77.12 5.29C76.27 5.29 75.34 5.63 74.32 6.31Q71.37 8.21 69.09 12.82Q65.66 19.67 65.66 26.21C65.66 29.24 66.5 31.27 68.17 32.3C68.67 32.62 69.26 32.78 69.92 32.78C71.27 32.78 72.78 31.6 74.45 29.25C76.12 26.91 77.53 24.02 78.67 20.59Q80.39 15.42 80.39 11.74C80.39 9.26 80.24 7.69 79.94 7.04C79.67 6.39 79.34 5.92 78.96 5.67ZM103.64 4.97Q101.73 4.97 99.16 8.4C97.45 10.69 96.03 13.71 94.91 17.45C94.85 17.64 94.8 17.81 94.75 17.98C94.57 18.63 94.46 19.14 94.43 19.51C94.88 19.27 95.32 19.03 95.78 18.8C96.19 18.59 96.61 18.38 97.03 18.17C97.92 17.75 98.79 17.31 99.64 16.85C101.58 15.77 103.09 14.51 104.14 13.07Q104.16 13.04 104.18 13.02L104.18 13.02L104.18 13.02Q105.76 10.84 105.76 7.51C105.76 5.82 105.05 4.97 103.64 4.97ZM96.23 17.24Q96.37 17.17 96.52 17.1Q97.82 16.47 99.06 15.79Q101.75 14.31 103.18 12.35Q104.57 10.48 104.57 7.51Q104.57 6.61 104.14 6.32Q103.93 6.17 103.64 6.17Q102.33 6.17 100.12 9.12Q97.81 12.21 96.23 17.24ZM38.16 27.92Q38.16 31.14 39.7 32.28L39.7 32.28Q40.54 32.9 41.84 32.9Q42.21 32.9 42.57 32.85L42.57 32.85Q45.57 32.46 48.12 28.65C50.56 25.01 52.17 20.17 52.95 14.11C53.18 12.44 53.3 10.84 53.3 9.29Q53.3 5.92 51.96 5.26L51.96 5.26Q51.64 5.1 51.24 5.1C49.86 5.1 48.26 6.1 46.44 8.12Q42.64 12.34 40.38 18.11Q38.16 23.89 38.16 27.92ZM42.16 31.69Q42 31.71 41.84 31.71Q40.84 31.71 40.28 31.21Q40.15 31.09 40.04 30.95Q39.35 30.02 39.35 27.92Q39.35 24.11 41.5 18.55Q43.67 12.98 47.33 8.92Q49.71 6.3 51.24 6.3Q51.28 6.3 51.34 6.32Q51.55 6.37 51.71 6.68Q52.1 7.48 52.1 9.29Q52.1 11.53 51.76 13.96Q50.62 22.76 47.13 27.98Q44.77 31.49 42.16 31.69ZM68.6 31.15Q66.86 29.89 66.86 26.21Q66.86 19.96 70.16 13.35Q72.3 9.04 74.99 7.31Q76.21 6.5 77.12 6.5Q78.03 6.5 78.27 6.65L78.28 6.66L78.29 6.67Q78.57 6.85 78.84 7.5L78.84 7.52L78.85 7.53Q79.19 8.28 79.19 11.74Q79.19 15.22 77.53 20.21Q75.88 25.18 73.47 28.56Q71.32 31.58 69.92 31.58Q69.32 31.58 68.87 31.32Q68.84 31.31 68.8 31.28Q68.7 31.22 68.6 31.15Z" fill="url(#paint_linear_485_24102_1)" fill-opacity="1.000000" fill-rule="evenodd"/>
</svg>
