<svg width="340" height="347" viewBox="0 0 340 347" fill="none" xmlns="http://www.w3.org/2000/svg">
<g clip-path="url(#clip0_79_58817)">
<path d="M0 25.0996C0 11.2925 11.1929 0.0996094 25 0.0996094H315C328.807 0.0996094 340 11.2925 340 25.0996V321.1C340 334.907 328.807 346.1 315 346.1H25C11.1929 346.1 0 334.907 0 321.1V25.0996Z" fill="#007AFF"/>
<path opacity="0.4" d="M236.217 33.8881C247.196 14.871 274.645 14.871 285.625 33.8881L493.138 393.311C504.117 412.328 490.393 436.1 468.434 436.1H53.4079C31.4488 436.1 17.7244 412.328 28.7039 393.311L236.217 33.8881Z" fill="url(#paint0_linear_79_58817)"/>
</g>
<defs>
<linearGradient id="paint0_linear_79_58817" x1="559.313" y1="-275.2" x2="107.384" y2="496.634" gradientUnits="userSpaceOnUse">
<stop stop-color="white"/>
<stop offset="1" stop-color="white" stop-opacity="0.15"/>
</linearGradient>
<clipPath id="clip0_79_58817">
<path d="M0 25.0996C0 11.2925 11.1929 0.0996094 25 0.0996094H315C328.807 0.0996094 340 11.2925 340 25.0996V321.1C340 334.907 328.807 346.1 315 346.1H25C11.1929 346.1 0 334.907 0 321.1V25.0996Z" fill="white"/>
</clipPath>
</defs>
</svg>
