<svg width="600" height="186" viewBox="0 0 600 186" fill="none" xmlns="http://www.w3.org/2000/svg">
<g clip-path="url(#clip0_79_53768)">
<path d="M0 25C0 11.1929 11.1929 0 25 0H575C588.807 0 600 11.1929 600 25V161C600 174.807 588.807 186 575 186H25C11.1929 186 0 174.807 0 161V25Z" fill="url(#paint0_linear_79_53768)"/>
<path opacity="0.4" d="M496.757 2.11303C497.354 -2.91268 504.646 -2.91268 505.243 2.11303L510.246 44.2741C516.705 98.7155 559.628 141.638 614.069 148.098L656.23 153.101C661.257 153.697 661.257 160.99 656.23 161.587L614.069 166.589C559.628 173.049 516.705 215.972 510.246 270.413L505.243 312.574C504.646 317.6 497.354 317.6 496.757 312.574L491.754 270.413C485.295 215.972 442.372 173.049 387.93 166.589L345.769 161.587C340.744 160.99 340.744 153.697 345.769 153.101L387.93 148.098C442.372 141.638 485.295 98.7155 491.754 44.2741L496.757 2.11303Z" fill="url(#paint1_linear_79_53768)"/>
</g>
<defs>
<linearGradient id="paint0_linear_79_53768" x1="300" y1="0" x2="300" y2="230.64" gradientUnits="userSpaceOnUse">
<stop stop-color="#03B0FF"/>
<stop offset="0.504808" stop-color="#0686FF"/>
<stop offset="1" stop-color="#0C88FA"/>
</linearGradient>
<linearGradient id="paint1_linear_79_53768" x1="685.665" y1="-191.955" x2="342" y2="316.344" gradientUnits="userSpaceOnUse">
<stop stop-color="white"/>
<stop offset="1" stop-color="white" stop-opacity="0.15"/>
</linearGradient>
<clipPath id="clip0_79_53768">
<path d="M0 25C0 11.1929 11.1929 0 25 0H575C588.807 0 600 11.1929 600 25V161C600 174.807 588.807 186 575 186H25C11.1929 186 0 174.807 0 161V25Z" fill="white"/>
</clipPath>
</defs>
</svg>
