<svg width="600" height="360" viewBox="0 0 600 360" fill="none" xmlns="http://www.w3.org/2000/svg">
<g clip-path="url(#clip0_1_9873)">
<path d="M0 40C0 17.9086 17.9086 0 40 0H560C582.091 0 600 17.9086 600 40V320C600 342.091 582.091 360 560 360H40C17.9086 360 0 342.091 0 320V40Z" fill="#007AFF"/>
<circle opacity="0.4" cx="488" cy="31" r="428" fill="url(#paint0_linear_1_9873)"/>
<circle opacity="0.4" cx="488" cy="31.0003" r="342.104" fill="url(#paint1_linear_1_9873)"/>
<circle opacity="0.4" cx="488" cy="31.0001" r="260.651" fill="url(#paint2_linear_1_9873)"/>
<circle opacity="0.4" cx="487.999" cy="30.9991" r="188.083" fill="url(#paint3_linear_1_9873)"/>
</g>
<defs>
<linearGradient id="paint0_linear_1_9873" x1="985.087" y1="-909.252" x2="60" y2="459" gradientUnits="userSpaceOnUse">
<stop stop-color="white"/>
<stop offset="1" stop-color="white" stop-opacity="0.15"/>
</linearGradient>
<linearGradient id="paint1_linear_1_9873" x1="885.326" y1="-720.551" x2="145.896" y2="373.104" gradientUnits="userSpaceOnUse">
<stop stop-color="white"/>
<stop offset="1" stop-color="white" stop-opacity="0.15"/>
</linearGradient>
<linearGradient id="paint2_linear_1_9873" x1="790.724" y1="-541.61" x2="227.35" y2="291.651" gradientUnits="userSpaceOnUse">
<stop stop-color="white"/>
<stop offset="1" stop-color="white" stop-opacity="0.15"/>
</linearGradient>
<linearGradient id="paint3_linear_1_9873" x1="706.442" y1="-382.191" x2="299.916" y2="219.082" gradientUnits="userSpaceOnUse">
<stop stop-color="white"/>
<stop offset="1" stop-color="white" stop-opacity="0.15"/>
</linearGradient>
<clipPath id="clip0_1_9873">
<path d="M0 40C0 17.9086 17.9086 0 40 0H560C582.091 0 600 17.9086 600 40V320C600 342.091 582.091 360 560 360H40C17.9086 360 0 342.091 0 320V40Z" fill="white"/>
</clipPath>
</defs>
</svg>
