<svg width="370" height="271" viewBox="0 0 370 271" fill="none" xmlns="http://www.w3.org/2000/svg">
<g clip-path="url(#clip0_79_56278)">
<path d="M0 25.0996C0 11.2925 11.1929 0.0996094 25 0.0996094H345C358.807 0.0996094 370 11.2925 370 25.0996V245.1C370 258.907 358.807 270.1 345 270.1H25C11.1929 270.1 0 258.907 0 245.1V25.0996Z" fill="white"/>
<path opacity="0.1" d="M325.946 91.2318C334.36 76.6592 355.393 76.6592 363.807 91.2318L522.823 366.655C531.236 381.228 520.719 399.443 503.892 399.443H185.861C169.034 399.443 158.517 381.228 166.93 366.655L325.946 91.2318Z" fill="#007AFF"/>
</g>
<path d="M25 0.599609H345C358.531 0.599613 369.5 11.5686 369.5 25.0996V245.1C369.5 258.631 358.531 269.6 345 269.6H25C11.469 269.6 0.500001 258.631 0.5 245.1V25.0996C0.500001 11.7802 11.1287 0.943062 24.3672 0.607422L25 0.599609Z" stroke="#007AFF"/>
<defs>
<clipPath id="clip0_79_56278">
<path d="M0 25.0996C0 11.2925 11.1929 0.0996094 25 0.0996094H345C358.807 0.0996094 370 11.2925 370 25.0996V245.1C370 258.907 358.807 270.1 345 270.1H25C11.1929 270.1 0 258.907 0 245.1V25.0996Z" fill="white"/>
</clipPath>
</defs>
</svg>
