<svg width="370" height="361" viewBox="0 0 370 361" fill="none" xmlns="http://www.w3.org/2000/svg">
<g clip-path="url(#clip0_79_56181)">
<path d="M0 40.0996C0 18.0082 17.9086 0.0996094 40 0.0996094H330C352.091 0.0996094 370 18.0082 370 40.0996V320.1C370 342.191 352.091 360.1 330 360.1H40C17.9086 360.1 0 342.191 0 320.1V40.0996Z" fill="#007AFF"/>
<circle opacity="0.4" cx="488" cy="31.0996" r="428" fill="url(#paint0_linear_79_56181)"/>
<circle opacity="0.4" cx="488.002" cy="31.1019" r="342.104" fill="url(#paint1_linear_79_56181)"/>
<circle opacity="0.4" cx="488.002" cy="31.1017" r="260.651" fill="url(#paint2_linear_79_56181)"/>
<circle opacity="0.4" cx="487.997" cy="31.0967" r="188.083" fill="url(#paint3_linear_79_56181)"/>
</g>
<defs>
<linearGradient id="paint0_linear_79_56181" x1="985.087" y1="-909.152" x2="60" y2="459.1" gradientUnits="userSpaceOnUse">
<stop stop-color="white"/>
<stop offset="1" stop-color="white" stop-opacity="0.15"/>
</linearGradient>
<linearGradient id="paint1_linear_79_56181" x1="885.328" y1="-720.449" x2="145.898" y2="373.206" gradientUnits="userSpaceOnUse">
<stop stop-color="white"/>
<stop offset="1" stop-color="white" stop-opacity="0.15"/>
</linearGradient>
<linearGradient id="paint2_linear_79_56181" x1="790.726" y1="-541.509" x2="227.352" y2="291.752" gradientUnits="userSpaceOnUse">
<stop stop-color="white"/>
<stop offset="1" stop-color="white" stop-opacity="0.15"/>
</linearGradient>
<linearGradient id="paint3_linear_79_56181" x1="706.44" y1="-382.094" x2="299.914" y2="219.18" gradientUnits="userSpaceOnUse">
<stop stop-color="white"/>
<stop offset="1" stop-color="white" stop-opacity="0.15"/>
</linearGradient>
<clipPath id="clip0_79_56181">
<path d="M0 40.0996C0 18.0082 17.9086 0.0996094 40 0.0996094H330C352.091 0.0996094 370 18.0082 370 40.0996V320.1C370 342.191 352.091 360.1 330 360.1H40C17.9086 360.1 0 342.191 0 320.1V40.0996Z" fill="white"/>
</clipPath>
</defs>
</svg>
