<svg width="600" height="186" viewBox="0 0 600 186" fill="none" xmlns="http://www.w3.org/2000/svg">
<g clip-path="url(#clip0_79_53772)">
<path d="M0 25C0 11.1929 11.1929 0 25 0H575C588.807 0 600 11.1929 600 25V161C600 174.807 588.807 186 575 186H25C11.1929 186 0 174.807 0 161V25Z" fill="url(#paint0_linear_79_53772)"/>
<path opacity="0.4" fill-rule="evenodd" clip-rule="evenodd" d="M574.225 191.498H682.199C682.199 103.078 610.52 31.3984 522.1 31.3984C433.679 31.3984 362 103.078 362 191.498H469.974C469.974 162.71 493.311 139.373 522.1 139.373C550.888 139.373 574.225 162.71 574.225 191.498Z" fill="url(#paint1_linear_79_53772)"/>
</g>
<defs>
<linearGradient id="paint0_linear_79_53772" x1="300" y1="0" x2="300" y2="230.64" gradientUnits="userSpaceOnUse">
<stop stop-color="#03B0FF"/>
<stop offset="0.504808" stop-color="#0686FF"/>
<stop offset="1" stop-color="#0C88FA"/>
</linearGradient>
<linearGradient id="paint1_linear_79_53772" x1="708.042" y1="-64.4092" x2="594.914" y2="270.236" gradientUnits="userSpaceOnUse">
<stop stop-color="white"/>
<stop offset="1" stop-color="white" stop-opacity="0.15"/>
</linearGradient>
<clipPath id="clip0_79_53772">
<path d="M0 25C0 11.1929 11.1929 0 25 0H575C588.807 0 600 11.1929 600 25V161C600 174.807 588.807 186 575 186H25C11.1929 186 0 174.807 0 161V25Z" fill="white"/>
</clipPath>
</defs>
</svg>
