<svg width="2548" height="1062" viewBox="0 0 2548 1062" fill="none" xmlns="http://www.w3.org/2000/svg">
<g filter="url(#filter0_d_1_22186)">
<g clip-path="url(#clip0_1_22186)">
<path d="M9 15C9 6.71571 15.7157 0 24 0H2524C2532.28 0 2539 6.71573 2539 15V1015C2539 1023.28 2532.28 1030 2524 1030H24.0001C15.7158 1030 9 1023.28 9 1015V15Z" fill="url(#paint0_linear_1_22186)"/>
<circle cx="1274.4" cy="1548.6" r="1371.6" fill="white" fill-opacity="0.09"/>
<circle cx="1274.4" cy="1805.85" r="1371.6" fill="white" fill-opacity="0.09"/>
<circle cx="1274.4" cy="2070.67" r="1371.6" fill="white" fill-opacity="0.09"/>
</g>
</g>
<defs>
<filter id="filter0_d_1_22186" x="0.1" y="0" width="2547.8" height="1061.9" filterUnits="userSpaceOnUse" color-interpolation-filters="sRGB">
<feFlood flood-opacity="0" result="BackgroundImageFix"/>
<feColorMatrix in="SourceAlpha" type="matrix" values="0 0 0 0 0 0 0 0 0 0 0 0 0 0 0 0 0 0 127 0" result="hardAlpha"/>
<feMorphology radius="9" operator="erode" in="SourceAlpha" result="effect1_dropShadow_1_22186"/>
<feOffset dy="23"/>
<feGaussianBlur stdDeviation="8.95"/>
<feComposite in2="hardAlpha" operator="out"/>
<feColorMatrix type="matrix" values="0 0 0 0 0 0 0 0 0 0.478431 0 0 0 0 1 0 0 0 0.15 0"/>
<feBlend mode="normal" in2="BackgroundImageFix" result="effect1_dropShadow_1_22186"/>
<feBlend mode="normal" in="SourceGraphic" in2="effect1_dropShadow_1_22186" result="shape"/>
</filter>
<linearGradient id="paint0_linear_1_22186" x1="1274" y1="0" x2="1274" y2="1277.2" gradientUnits="userSpaceOnUse">
<stop stop-color="#03B0FF"/>
<stop offset="0.504808" stop-color="#0686FF"/>
<stop offset="1" stop-color="#0C88FA"/>
</linearGradient>
<clipPath id="clip0_1_22186">
<path d="M9 15C9 6.71571 15.7157 0 24 0H2524C2532.28 0 2539 6.71573 2539 15V1015C2539 1023.28 2532.28 1030 2524 1030H24.0001C15.7158 1030 9 1023.28 9 1015V15Z" fill="white"/>
</clipPath>
</defs>
</svg>
