<svg width="600" height="186" viewBox="0 0 600 186" fill="none" xmlns="http://www.w3.org/2000/svg">
<g clip-path="url(#clip0_79_53764)">
<path d="M0 25C0 11.1929 11.1929 0 25 0H575C588.807 0 600 11.1929 600 25V161C600 174.807 588.807 186 575 186H25C11.1929 186 0 174.807 0 161V25Z" fill="url(#paint0_linear_79_53764)"/>
<path opacity="0.4" d="M386 24.3438H581.788V258.503L483.894 164.839L386 258.503V24.3438Z" fill="url(#paint1_linear_79_53764)"/>
</g>
<defs>
<linearGradient id="paint0_linear_79_53764" x1="300" y1="0" x2="300" y2="230.64" gradientUnits="userSpaceOnUse">
<stop stop-color="#03B0FF"/>
<stop offset="0.504808" stop-color="#0686FF"/>
<stop offset="1" stop-color="#0C88FA"/>
</linearGradient>
<linearGradient id="paint1_linear_79_53764" x1="597.59" y1="-115.783" x2="330.94" y2="213.98" gradientUnits="userSpaceOnUse">
<stop stop-color="white"/>
<stop offset="1" stop-color="white" stop-opacity="0.15"/>
</linearGradient>
<clipPath id="clip0_79_53764">
<path d="M0 25C0 11.1929 11.1929 0 25 0H575C588.807 0 600 11.1929 600 25V161C600 174.807 588.807 186 575 186H25C11.1929 186 0 174.807 0 161V25Z" fill="white"/>
</clipPath>
</defs>
</svg>
