<svg width="530" height="521" viewBox="0 0 530 521" fill="none" xmlns="http://www.w3.org/2000/svg">
<g clip-path="url(#clip0_1_20488)">
<path d="M0 25.0996C0 11.2925 11.1929 0.0996094 25 0.0996094H505C518.807 0.0996094 530 11.2925 530 25.0996V495.1C530 508.907 518.807 520.1 505 520.1H25C11.1929 520.1 0 508.907 0 495.1V25.0996Z" fill="#007AFF"/>
<path opacity="0.4" d="M426.217 207.888C437.196 188.871 464.645 188.871 475.625 207.888L683.138 567.311C694.117 586.328 680.393 610.1 658.434 610.1H243.408C221.449 610.1 207.724 586.328 218.704 567.311L426.217 207.888Z" fill="url(#paint0_linear_1_20488)"/>
</g>
<defs>
<linearGradient id="paint0_linear_1_20488" x1="749.313" y1="-101.2" x2="297.384" y2="670.634" gradientUnits="userSpaceOnUse">
<stop stop-color="white"/>
<stop offset="1" stop-color="white" stop-opacity="0.15"/>
</linearGradient>
<clipPath id="clip0_1_20488">
<path d="M0 25.0996C0 11.2925 11.1929 0.0996094 25 0.0996094H505C518.807 0.0996094 530 11.2925 530 25.0996V495.1C530 508.907 518.807 520.1 505 520.1H25C11.1929 520.1 0 508.907 0 495.1V25.0996Z" fill="white"/>
</clipPath>
</defs>
</svg>
