<svg width="370" height="424" viewBox="0 0 370 424" fill="none" xmlns="http://www.w3.org/2000/svg">
<g clip-path="url(#clip0_79_56299)">
<path d="M0 25.0996C0 11.2925 11.1929 0.0996094 25 0.0996094H345C358.807 0.0996094 370 11.2925 370 25.0996V398.1C370 411.907 358.807 423.1 345 423.1H25C11.1929 423.1 0 411.907 0 398.1V25.0996Z" fill="#007AFF"/>
<path opacity="0.4" d="M266.217 110.888C277.196 91.871 304.645 91.871 315.625 110.888L523.138 470.311C534.117 489.328 520.393 513.1 498.434 513.1H83.4079C61.4488 513.1 47.7244 489.328 58.7039 470.311L266.217 110.888Z" fill="url(#paint0_linear_79_56299)"/>
</g>
<defs>
<linearGradient id="paint0_linear_79_56299" x1="589.313" y1="-198.2" x2="137.384" y2="573.634" gradientUnits="userSpaceOnUse">
<stop stop-color="white"/>
<stop offset="1" stop-color="white" stop-opacity="0.15"/>
</linearGradient>
<clipPath id="clip0_79_56299">
<path d="M0 25.0996C0 11.2925 11.1929 0.0996094 25 0.0996094H345C358.807 0.0996094 370 11.2925 370 25.0996V398.1C370 411.907 358.807 423.1 345 423.1H25C11.1929 423.1 0 411.907 0 398.1V25.0996Z" fill="white"/>
</clipPath>
</defs>
</svg>
