<svg width="600" height="360" viewBox="0 0 600 360" fill="none" xmlns="http://www.w3.org/2000/svg">
<g clip-path="url(#clip0_1_9925)">
<path d="M0 40C0 17.9086 17.9086 0 40 0H560C582.091 0 600 17.9086 600 40V320C600 342.091 582.091 360 560 360H40C17.9086 360 0 342.091 0 320V40Z" fill="#007AFF"/>
<path opacity="0.4" d="M336.89 -216.96C365.008 -262.805 435.289 -246.58 440.464 -193.048L455.141 -41.218C457.864 -13.0502 481.156 8.66988 509.446 9.42137L661.929 13.4721C715.692 14.9002 736.78 83.8784 693.008 115.126L568.858 203.752C545.826 220.194 538.662 251.226 552.155 276.1L624.889 410.18C650.534 457.454 601.341 510.207 552.394 487.922L413.567 424.719C387.811 412.993 357.355 422.304 342.56 446.428L262.81 576.457C234.692 622.303 164.41 606.077 159.235 552.545L144.558 400.715C141.835 372.548 118.543 350.828 90.2539 350.076L-62.2299 346.025C-115.992 344.597 -137.081 275.619 -93.3086 244.371L30.8411 155.745C53.8736 139.303 61.0377 108.272 47.544 83.3971L-25.1899 -50.6831C-50.8343 -97.9568 -1.64179 -150.709 47.3056 -128.425L186.133 -65.2213C211.888 -53.4955 242.344 -62.8069 257.14 -86.9303L336.89 -216.96Z" fill="url(#paint0_linear_1_9925)"/>
<path opacity="0.4" d="M328.099 -122.629C349.531 -157.573 403.101 -145.205 407.046 -104.402L418.233 11.3254C420.309 32.7954 438.062 49.3509 459.625 49.9237L575.851 53.0112C616.83 54.0998 632.904 106.676 599.54 130.494L504.911 198.046C487.355 210.579 481.894 234.232 492.179 253.192L547.619 355.391C567.165 391.423 529.67 431.632 492.361 414.647L386.544 366.472C366.913 357.534 343.698 364.632 332.421 383.019L271.634 482.13C250.202 517.074 196.632 504.707 192.688 463.904L181.5 348.176C179.425 326.706 161.671 310.15 140.108 309.578L23.8823 306.49C-17.0965 305.402 -33.1709 252.825 0.193375 229.007L94.8228 161.455C112.379 148.922 117.839 125.27 107.554 106.31L52.1149 4.11092C32.5682 -31.9221 70.0637 -72.1311 107.372 -55.1456L213.189 -6.97041C232.821 1.96715 256.035 -5.13017 267.312 -23.5175L328.099 -122.629Z" fill="url(#paint1_linear_1_9925)"/>
<path opacity="0.4" d="M317.921 -13.6511C331.629 -36.0013 365.892 -28.0911 368.414 -1.99372L375.57 72.025C376.897 85.7571 388.252 96.3459 402.044 96.7122L476.381 98.687C502.591 99.3832 512.872 133.011 491.532 148.244L431.008 191.451C419.78 199.466 416.287 214.594 422.865 226.721L458.324 292.087C470.826 315.133 446.844 340.851 422.981 329.987L355.302 299.174C342.746 293.458 327.898 297.997 320.685 309.758L281.806 373.149C268.098 395.499 233.835 387.589 231.312 361.491L224.157 287.472C222.829 273.74 211.474 263.152 197.683 262.785L123.346 260.81C97.1357 260.114 86.8548 226.487 108.194 211.253L168.719 168.047C179.947 160.031 183.44 144.903 176.862 132.776L141.403 67.4106C128.901 44.3641 152.883 18.6468 176.745 29.5106L244.425 60.3231C256.981 66.0395 271.829 61.5001 279.042 49.7397L317.921 -13.6511Z" fill="url(#paint2_linear_1_9925)"/>
<path opacity="0.4" d="M309.233 79.3039C316.353 67.6961 334.147 71.8044 335.458 85.3583L339.174 123.8C339.863 130.932 345.761 136.432 352.923 136.622L391.531 137.648C405.143 138.009 410.483 155.474 399.4 163.386L367.966 185.825C362.135 189.988 360.321 197.845 363.737 204.143L382.153 238.091C388.646 250.061 376.191 263.417 363.798 257.775L328.648 241.772C322.126 238.803 314.415 241.161 310.669 247.269L290.477 280.191C283.358 291.799 265.563 287.691 264.253 274.137L260.536 235.695C259.847 228.563 253.95 223.064 246.787 222.873L208.179 221.848C194.567 221.486 189.227 204.021 200.31 196.11L231.744 173.67C237.576 169.507 239.39 161.65 235.973 155.352L217.558 121.404C211.065 109.435 223.52 96.078 235.913 101.72L271.063 117.723C277.584 120.692 285.295 118.334 289.041 112.226L309.233 79.3039Z" fill="url(#paint3_linear_1_9925)"/>
</g>
<defs>
<linearGradient id="paint0_linear_1_9925" x1="1199.78" y1="-860.472" x2="-363.999" y2="594.567" gradientUnits="userSpaceOnUse">
<stop stop-color="white"/>
<stop offset="1" stop-color="white" stop-opacity="0.15"/>
</linearGradient>
<linearGradient id="paint1_linear_1_9925" x1="985.813" y1="-613.127" x2="-206.132" y2="495.934" gradientUnits="userSpaceOnUse">
<stop stop-color="white"/>
<stop offset="1" stop-color="white" stop-opacity="0.15"/>
</linearGradient>
<linearGradient id="paint2_linear_1_9925" x1="738.59" y1="-327.371" x2="-23.7701" y2="381.977" gradientUnits="userSpaceOnUse">
<stop stop-color="white"/>
<stop offset="1" stop-color="white" stop-opacity="0.15"/>
</linearGradient>
<linearGradient id="paint3_linear_1_9925" x1="527.711" y1="-83.6288" x2="131.774" y2="284.777" gradientUnits="userSpaceOnUse">
<stop stop-color="white"/>
<stop offset="1" stop-color="white" stop-opacity="0.15"/>
</linearGradient>
<clipPath id="clip0_1_9925">
<path d="M0 40C0 17.9086 17.9086 0 40 0H560C582.091 0 600 17.9086 600 40V320C600 342.091 582.091 360 560 360H40C17.9086 360 0 342.091 0 320V40Z" fill="white"/>
</clipPath>
</defs>
</svg>
