<svg width="340" height="266" viewBox="0 0 340 266" fill="none" xmlns="http://www.w3.org/2000/svg">
<g clip-path="url(#clip0_79_58800)">
<path d="M0 25.0996C0 11.2925 11.1929 0.0996094 25 0.0996094H315C328.807 0.0996094 340 11.2925 340 25.0996V240.1C340 253.907 328.807 265.1 315 265.1H25C11.1929 265.1 0 253.907 0 240.1V25.0996Z" fill="white"/>
<path opacity="0.1" d="M426.57 92.5165C433.366 85.8487 444.28 85.9527 450.948 92.7487L589.547 234.014C596.215 240.81 596.111 251.725 589.315 258.393L448.05 396.992C441.254 403.66 430.339 403.556 423.671 396.76L285.072 255.494C278.404 248.698 278.508 237.783 285.304 231.116L426.57 92.5165Z" fill="#007AFF"/>
</g>
<path d="M25 0.599609H315C328.531 0.599611 339.5 11.5686 339.5 25.0996V240.1C339.5 253.631 328.531 264.6 315 264.6H25C11.469 264.6 0.5 253.631 0.5 240.1V25.0996L0.507812 24.4668C0.843451 11.2283 11.6806 0.59961 25 0.599609Z" stroke="#007AFF"/>
<defs>
<clipPath id="clip0_79_58800">
<path d="M0 25.0996C0 11.2925 11.1929 0.0996094 25 0.0996094H315C328.807 0.0996094 340 11.2925 340 25.0996V240.1C340 253.907 328.807 265.1 315 265.1H25C11.1929 265.1 0 253.907 0 240.1V25.0996Z" fill="white"/>
</clipPath>
</defs>
</svg>
