<svg width="111" height="64" viewBox="0 0 111 64" fill="none" xmlns="http://www.w3.org/2000/svg">
<mask id="path-1-outside-1_1_22236" maskUnits="userSpaceOnUse" x="0" y="0" width="111" height="64" fill="black">
<rect fill="white" width="111" height="64"/>
<path d="M25.9307 3.11084C26.6501 3.11084 27.0098 3.4917 27.0098 4.25342C27.0098 4.99398 26.6606 6.528 25.9624 8.85547C25.2642 11.1618 24.8092 12.7699 24.5977 13.6797C24.4072 14.5684 24.1745 15.7109 23.8994 17.1074C23.6455 18.4827 23.3916 19.8898 23.1377 21.3286C22.8838 22.7674 22.6087 24.3014 22.3125 25.9307C22.0374 27.5599 21.6989 29.3796 21.2969 31.3896C21.2969 32.1725 21.4238 32.7332 21.6777 33.0718C21.9528 33.3892 22.1538 33.6219 22.2808 33.77C22.4077 33.9181 22.4712 34.2144 22.4712 34.6587C22.4712 35.0819 22.2173 35.4733 21.7095 35.833C21.2228 36.2139 20.715 36.4043 20.186 36.4043C19.6571 36.4043 19.1387 36.0023 18.6309 35.1982C18.123 34.373 17.8691 33.6748 17.8691 33.1035V31.9927C17.8691 30.9136 18.2394 28.9458 18.98 26.0894C19.7417 23.2118 20.2918 21.1382 20.6304 19.8687C20.9689 18.578 21.2546 17.3719 21.4873 16.2505C20.9583 17.3296 20.387 18.578 19.7734 19.9956C19.1598 21.3921 18.25 23.381 17.0439 25.9624C13.8278 32.8179 10.4001 36.2456 6.76074 36.2456C4.56022 36.2456 3.0791 35.0501 2.31738 32.6592C2.10579 31.9609 2 31.0088 2 29.8027C2 28.5755 2.12695 27.1261 2.38086 25.4546C2.63477 23.7619 2.95215 22.1009 3.33301 20.4717C3.73503 18.8213 4.16878 17.2132 4.63428 15.6475C5.09977 14.0817 5.67106 12.1562 6.34814 9.87109C7.02523 7.56478 7.39551 5.78744 7.45898 4.53906C7.58594 4.11589 7.82926 3.75618 8.18896 3.45996C8.56982 3.14258 8.96126 2.98389 9.36328 2.98389C9.78646 2.98389 10.1462 3.5446 10.4424 4.66602C10.4424 6.12598 10.1144 7.94564 9.4585 10.125C8.80257 12.3044 8.24186 14.1134 7.77637 15.5522C5.99902 21.0535 5.11035 25.8989 5.11035 30.0884C5.11035 31.3791 5.61816 32.2889 6.63379 32.8179C6.99349 32.9871 7.45898 33.0718 8.03027 33.0718C9.23633 33.0718 10.6857 31.8551 12.3784 29.4219C14.0711 26.9886 15.7109 24.0581 17.2979 20.6304C18.9059 17.1815 20.1437 14.2192 21.0112 11.7437C21.8787 9.26807 22.5241 7.5542 22.9473 6.60205C24.0264 4.27458 25.0208 3.11084 25.9307 3.11084Z"/>
<path d="M54.7974 27.0415C55.5379 27.0415 55.9082 27.4012 55.9082 28.1206C55.9082 28.7131 55.7389 29.1468 55.4004 29.4219C53.0094 31.2627 50.7243 32.9554 48.5449 34.5C48.1852 36.5312 47.8255 38.5731 47.4658 40.6255C47.1061 42.6779 46.6724 44.9419 46.1646 47.4175C45.6779 49.8931 45.0643 52.2205 44.3237 54.3999C43.6043 56.6004 42.5464 58.4836 41.1499 60.0493C39.7746 61.6151 38.0501 62.3979 35.9766 62.3979C33.9242 62.3979 32.1997 61.6891 30.8032 60.2715C29.3856 58.875 28.6768 57.0977 28.6768 54.9395C28.6768 52.7812 29.1846 50.7923 30.2002 48.9727C31.1947 47.153 32.4959 45.3757 34.104 43.6406C35.7332 41.9268 37.5529 40.2235 39.563 38.5308C41.5942 36.8592 43.6361 35.1665 45.6885 33.4526C45.9001 32.5005 46.1646 31.3579 46.4819 30.0249C46.7993 28.6919 47.1696 27.1261 47.5928 25.3276C45.9001 30.5116 43.763 33.897 41.1816 35.4839C40.3353 35.9917 39.5418 36.2456 38.8013 36.2456C37.299 36.2456 36.0506 35.6426 35.0562 34.4365C34.0828 33.2305 33.5962 31.6224 33.5962 29.6123C33.5962 25.9095 34.2944 21.9951 35.6909 17.8691C37.0874 13.722 39.0129 10.1567 41.4673 7.17334C43.9217 4.16878 46.6089 2.6665 49.5288 2.6665C51.0099 2.6665 52.3324 3.00505 53.4961 3.68213C53.75 3.55518 54.0356 3.4917 54.353 3.4917C55.0513 3.4917 55.4004 3.8514 55.4004 4.5708C55.4004 5.26904 55.2734 5.95671 55.0195 6.63379C53.8135 9.82878 51.7928 18.0596 48.9575 31.3262C49.7404 30.776 50.5233 30.1413 51.3062 29.4219C52.1102 28.7025 52.7767 28.1312 53.3057 27.708C53.8558 27.2637 54.353 27.0415 54.7974 27.0415ZM38.5474 18.3452C37.2144 22.048 36.5479 25.444 36.5479 28.5332C36.5479 31.6012 37.3519 33.1353 38.96 33.1353C40.3141 33.1353 41.8799 31.8446 43.6572 29.2632C45.4346 26.6818 46.8311 23.7936 47.8467 20.5986C48.8623 17.4036 49.6981 14.5684 50.354 12.0928C51.0311 9.59603 51.5812 7.59652 52.0044 6.09424C51.3273 5.52295 50.4915 5.2373 49.4971 5.2373C47.5716 5.2373 45.6038 6.49626 43.5938 9.01416C41.5837 11.5321 39.9015 14.6424 38.5474 18.3452ZM45.1807 36.9756C41.2451 40.2341 38.431 42.8577 36.7383 44.8467C33.4798 48.7188 31.8506 51.8397 31.8506 54.2095C31.8506 56.6004 32.3584 58.1027 33.374 58.7163C33.8184 58.9914 34.4849 59.1289 35.3735 59.1289C36.2834 59.1289 37.098 58.9385 37.8174 58.5576C38.5579 58.1768 39.2562 57.4574 39.9121 56.3994C40.5892 55.3626 41.2451 53.9132 41.8799 52.0513C42.5358 50.2104 43.0648 48.3062 43.4668 46.3384C43.89 44.3918 44.165 43.0482 44.292 42.3076C44.4401 41.5671 44.5671 40.89 44.6729 40.2764C44.7786 39.6628 44.8633 39.0809 44.9268 38.5308C45.0114 38.0018 45.096 37.4834 45.1807 36.9756Z"/>
<path d="M75.793 30.4058C76.5335 30.4058 76.9038 30.7972 76.9038 31.5801C76.9038 32.4899 75.793 33.5161 73.5713 34.6587C71.3496 35.8013 69.4982 36.3726 68.0171 36.3726C66.536 36.3726 65.4251 36.1292 64.6846 35.6426C63.944 35.1559 63.341 34.4788 62.8755 33.6113C61.9657 31.9186 61.5107 29.8768 61.5107 27.4858C61.5107 23.2541 62.1455 19.2656 63.415 15.5205C64.6846 11.7754 66.3773 8.67562 68.4932 6.22119C70.609 3.74561 72.8942 2.50781 75.3486 2.50781C76.6605 2.50781 77.6867 3.05794 78.4272 4.1582C79.189 5.2373 79.5698 6.51742 79.5698 7.99854C79.5698 10.7703 78.8398 13.119 77.3799 15.0444C75.9411 16.9699 74.1637 18.5462 72.0479 19.7734C69.932 21.0007 67.4987 22.1644 64.748 23.2646L64.6211 27.9302C64.6211 31.5695 65.7214 33.3892 67.9219 33.3892C69.1068 33.3892 70.3446 33.0506 71.6353 32.3735C72.9471 31.6753 73.8887 31.1781 74.46 30.8818C75.0312 30.5645 75.4756 30.4058 75.793 30.4058ZM76.5864 8.12549C76.5864 6.43278 75.8776 5.58643 74.46 5.58643C73.1904 5.58643 71.6987 6.729 69.9849 9.01416C68.271 11.2993 66.8534 14.3145 65.7319 18.0596C65.4569 18.9694 65.2982 19.6571 65.2559 20.1226C66.1022 19.6571 66.9697 19.2127 67.8584 18.7896C68.7471 18.3664 69.6146 17.922 70.4609 17.4565C72.4076 16.3774 73.9098 15.1185 74.9678 13.6797C76.0469 12.2197 76.5864 10.3683 76.5864 8.12549Z"/>
<path d="M107.738 4.72949C108.352 4.72949 108.722 5.09977 108.849 5.84033C108.849 7.93506 108.161 10.1567 106.786 12.5054C106.469 13.0343 106.204 13.3517 105.993 13.4575C105.548 15.9331 105.136 18.1019 104.755 19.9639C104.374 21.8047 103.919 24.0052 103.39 26.5654C102.882 29.1257 102.565 31.1357 102.438 32.5957C102.332 34.0557 102.216 34.902 102.089 35.1348C101.793 35.7484 101.295 36.0552 100.597 36.0552C99.8989 36.0552 99.5075 35.8965 99.4229 35.5791C99.3382 35.2617 99.2959 34.9232 99.2959 34.5635C99.7826 29.9508 100.798 24.2274 102.343 17.3931C99.7191 20.4188 97.4762 23.2329 95.6143 25.8354C93.7734 28.438 92.451 30.2894 91.647 31.3896C90.8429 32.4688 90.0706 33.3786 89.3301 34.1191C87.8278 35.6214 86.188 36.3726 84.4106 36.3726C82.6333 36.3726 81.2686 35.9071 80.3164 34.9761C79.999 34.6799 79.8403 34.3201 79.8403 33.897C79.8403 33.4526 80.0308 33.0506 80.4116 32.6909C80.7713 32.3312 81.1839 32.1514 81.6494 32.1514C82.0938 32.1514 82.4323 32.3101 82.665 32.6274C82.8978 32.9237 83.1305 33.1247 83.3633 33.2305C83.5749 33.3363 84.0298 33.3892 84.728 33.3892C85.4474 33.3892 86.1562 33.1776 86.8545 32.7544C87.5527 32.3101 88.2721 31.6753 89.0127 30.8501C89.7744 30.0037 90.5996 28.9775 91.4883 27.7715C92.377 26.5654 93.1598 25.5181 93.8369 24.6294C94.5352 23.7196 95.0959 23.0107 95.519 22.5029C95.9634 21.974 96.4289 21.4132 96.9155 20.8208C97.4022 20.2284 97.8677 19.6782 98.312 19.1704C98.7775 18.6414 99.1055 18.25 99.2959 17.9961C97.0954 20.0273 95.2122 21.043 93.6465 21.043C92.652 21.043 91.8268 20.7256 91.1709 20.0908C90.515 19.4349 90.187 18.3875 90.187 16.9487C90.187 15.5099 90.8112 13.5527 92.0596 11.0771C93.3079 8.5804 94.8949 6.44336 96.8203 4.66602C98.7458 2.88867 100.565 2 102.279 2C104.014 2 105.347 2.59245 106.278 3.77734C106.532 4.11589 106.776 4.47559 107.008 4.85645C107.22 4.77181 107.463 4.72949 107.738 4.72949ZM103.39 12.1562C103.898 9.99805 104.395 8.38997 104.882 7.33203C104.268 6.27409 103.782 5.6499 103.422 5.45947C103.083 5.26904 102.66 5.17383 102.152 5.17383C101.01 5.17383 99.6979 5.82975 98.2168 7.1416C96.7568 8.43229 95.5508 9.98747 94.5986 11.8071C93.6465 13.6056 93.1704 15.0762 93.1704 16.2188C93.1704 17.9749 93.6676 18.853 94.6621 18.853C96.5241 18.853 98.8516 17.2873 101.645 14.1558C102.322 13.394 102.903 12.7275 103.39 12.1562Z"/>
</mask>
<path d="M25.9307 3.11084C26.6501 3.11084 27.0098 3.4917 27.0098 4.25342C27.0098 4.99398 26.6606 6.528 25.9624 8.85547C25.2642 11.1618 24.8092 12.7699 24.5977 13.6797C24.4072 14.5684 24.1745 15.7109 23.8994 17.1074C23.6455 18.4827 23.3916 19.8898 23.1377 21.3286C22.8838 22.7674 22.6087 24.3014 22.3125 25.9307C22.0374 27.5599 21.6989 29.3796 21.2969 31.3896C21.2969 32.1725 21.4238 32.7332 21.6777 33.0718C21.9528 33.3892 22.1538 33.6219 22.2808 33.77C22.4077 33.9181 22.4712 34.2144 22.4712 34.6587C22.4712 35.0819 22.2173 35.4733 21.7095 35.833C21.2228 36.2139 20.715 36.4043 20.186 36.4043C19.6571 36.4043 19.1387 36.0023 18.6309 35.1982C18.123 34.373 17.8691 33.6748 17.8691 33.1035V31.9927C17.8691 30.9136 18.2394 28.9458 18.98 26.0894C19.7417 23.2118 20.2918 21.1382 20.6304 19.8687C20.9689 18.578 21.2546 17.3719 21.4873 16.2505C20.9583 17.3296 20.387 18.578 19.7734 19.9956C19.1598 21.3921 18.25 23.381 17.0439 25.9624C13.8278 32.8179 10.4001 36.2456 6.76074 36.2456C4.56022 36.2456 3.0791 35.0501 2.31738 32.6592C2.10579 31.9609 2 31.0088 2 29.8027C2 28.5755 2.12695 27.1261 2.38086 25.4546C2.63477 23.7619 2.95215 22.1009 3.33301 20.4717C3.73503 18.8213 4.16878 17.2132 4.63428 15.6475C5.09977 14.0817 5.67106 12.1562 6.34814 9.87109C7.02523 7.56478 7.39551 5.78744 7.45898 4.53906C7.58594 4.11589 7.82926 3.75618 8.18896 3.45996C8.56982 3.14258 8.96126 2.98389 9.36328 2.98389C9.78646 2.98389 10.1462 3.5446 10.4424 4.66602C10.4424 6.12598 10.1144 7.94564 9.4585 10.125C8.80257 12.3044 8.24186 14.1134 7.77637 15.5522C5.99902 21.0535 5.11035 25.8989 5.11035 30.0884C5.11035 31.3791 5.61816 32.2889 6.63379 32.8179C6.99349 32.9871 7.45898 33.0718 8.03027 33.0718C9.23633 33.0718 10.6857 31.8551 12.3784 29.4219C14.0711 26.9886 15.7109 24.0581 17.2979 20.6304C18.9059 17.1815 20.1437 14.2192 21.0112 11.7437C21.8787 9.26807 22.5241 7.5542 22.9473 6.60205C24.0264 4.27458 25.0208 3.11084 25.9307 3.11084Z" fill="url(#paint0_linear_1_22236)"/>
<path d="M54.7974 27.0415C55.5379 27.0415 55.9082 27.4012 55.9082 28.1206C55.9082 28.7131 55.7389 29.1468 55.4004 29.4219C53.0094 31.2627 50.7243 32.9554 48.5449 34.5C48.1852 36.5312 47.8255 38.5731 47.4658 40.6255C47.1061 42.6779 46.6724 44.9419 46.1646 47.4175C45.6779 49.8931 45.0643 52.2205 44.3237 54.3999C43.6043 56.6004 42.5464 58.4836 41.1499 60.0493C39.7746 61.6151 38.0501 62.3979 35.9766 62.3979C33.9242 62.3979 32.1997 61.6891 30.8032 60.2715C29.3856 58.875 28.6768 57.0977 28.6768 54.9395C28.6768 52.7812 29.1846 50.7923 30.2002 48.9727C31.1947 47.153 32.4959 45.3757 34.104 43.6406C35.7332 41.9268 37.5529 40.2235 39.563 38.5308C41.5942 36.8592 43.6361 35.1665 45.6885 33.4526C45.9001 32.5005 46.1646 31.3579 46.4819 30.0249C46.7993 28.6919 47.1696 27.1261 47.5928 25.3276C45.9001 30.5116 43.763 33.897 41.1816 35.4839C40.3353 35.9917 39.5418 36.2456 38.8013 36.2456C37.299 36.2456 36.0506 35.6426 35.0562 34.4365C34.0828 33.2305 33.5962 31.6224 33.5962 29.6123C33.5962 25.9095 34.2944 21.9951 35.6909 17.8691C37.0874 13.722 39.0129 10.1567 41.4673 7.17334C43.9217 4.16878 46.6089 2.6665 49.5288 2.6665C51.0099 2.6665 52.3324 3.00505 53.4961 3.68213C53.75 3.55518 54.0356 3.4917 54.353 3.4917C55.0513 3.4917 55.4004 3.8514 55.4004 4.5708C55.4004 5.26904 55.2734 5.95671 55.0195 6.63379C53.8135 9.82878 51.7928 18.0596 48.9575 31.3262C49.7404 30.776 50.5233 30.1413 51.3062 29.4219C52.1102 28.7025 52.7767 28.1312 53.3057 27.708C53.8558 27.2637 54.353 27.0415 54.7974 27.0415ZM38.5474 18.3452C37.2144 22.048 36.5479 25.444 36.5479 28.5332C36.5479 31.6012 37.3519 33.1353 38.96 33.1353C40.3141 33.1353 41.8799 31.8446 43.6572 29.2632C45.4346 26.6818 46.8311 23.7936 47.8467 20.5986C48.8623 17.4036 49.6981 14.5684 50.354 12.0928C51.0311 9.59603 51.5812 7.59652 52.0044 6.09424C51.3273 5.52295 50.4915 5.2373 49.4971 5.2373C47.5716 5.2373 45.6038 6.49626 43.5938 9.01416C41.5837 11.5321 39.9015 14.6424 38.5474 18.3452ZM45.1807 36.9756C41.2451 40.2341 38.431 42.8577 36.7383 44.8467C33.4798 48.7188 31.8506 51.8397 31.8506 54.2095C31.8506 56.6004 32.3584 58.1027 33.374 58.7163C33.8184 58.9914 34.4849 59.1289 35.3735 59.1289C36.2834 59.1289 37.098 58.9385 37.8174 58.5576C38.5579 58.1768 39.2562 57.4574 39.9121 56.3994C40.5892 55.3626 41.2451 53.9132 41.8799 52.0513C42.5358 50.2104 43.0648 48.3062 43.4668 46.3384C43.89 44.3918 44.165 43.0482 44.292 42.3076C44.4401 41.5671 44.5671 40.89 44.6729 40.2764C44.7786 39.6628 44.8633 39.0809 44.9268 38.5308C45.0114 38.0018 45.096 37.4834 45.1807 36.9756Z" fill="url(#paint1_linear_1_22236)"/>
<path d="M75.793 30.4058C76.5335 30.4058 76.9038 30.7972 76.9038 31.5801C76.9038 32.4899 75.793 33.5161 73.5713 34.6587C71.3496 35.8013 69.4982 36.3726 68.0171 36.3726C66.536 36.3726 65.4251 36.1292 64.6846 35.6426C63.944 35.1559 63.341 34.4788 62.8755 33.6113C61.9657 31.9186 61.5107 29.8768 61.5107 27.4858C61.5107 23.2541 62.1455 19.2656 63.415 15.5205C64.6846 11.7754 66.3773 8.67562 68.4932 6.22119C70.609 3.74561 72.8942 2.50781 75.3486 2.50781C76.6605 2.50781 77.6867 3.05794 78.4272 4.1582C79.189 5.2373 79.5698 6.51742 79.5698 7.99854C79.5698 10.7703 78.8398 13.119 77.3799 15.0444C75.9411 16.9699 74.1637 18.5462 72.0479 19.7734C69.932 21.0007 67.4987 22.1644 64.748 23.2646L64.6211 27.9302C64.6211 31.5695 65.7214 33.3892 67.9219 33.3892C69.1068 33.3892 70.3446 33.0506 71.6353 32.3735C72.9471 31.6753 73.8887 31.1781 74.46 30.8818C75.0312 30.5645 75.4756 30.4058 75.793 30.4058ZM76.5864 8.12549C76.5864 6.43278 75.8776 5.58643 74.46 5.58643C73.1904 5.58643 71.6987 6.729 69.9849 9.01416C68.271 11.2993 66.8534 14.3145 65.7319 18.0596C65.4569 18.9694 65.2982 19.6571 65.2559 20.1226C66.1022 19.6571 66.9697 19.2127 67.8584 18.7896C68.7471 18.3664 69.6146 17.922 70.4609 17.4565C72.4076 16.3774 73.9098 15.1185 74.9678 13.6797C76.0469 12.2197 76.5864 10.3683 76.5864 8.12549Z" fill="url(#paint2_linear_1_22236)"/>
<path d="M107.738 4.72949C108.352 4.72949 108.722 5.09977 108.849 5.84033C108.849 7.93506 108.161 10.1567 106.786 12.5054C106.469 13.0343 106.204 13.3517 105.993 13.4575C105.548 15.9331 105.136 18.1019 104.755 19.9639C104.374 21.8047 103.919 24.0052 103.39 26.5654C102.882 29.1257 102.565 31.1357 102.438 32.5957C102.332 34.0557 102.216 34.902 102.089 35.1348C101.793 35.7484 101.295 36.0552 100.597 36.0552C99.8989 36.0552 99.5075 35.8965 99.4229 35.5791C99.3382 35.2617 99.2959 34.9232 99.2959 34.5635C99.7826 29.9508 100.798 24.2274 102.343 17.3931C99.7191 20.4188 97.4762 23.2329 95.6143 25.8354C93.7734 28.438 92.451 30.2894 91.647 31.3896C90.8429 32.4688 90.0706 33.3786 89.3301 34.1191C87.8278 35.6214 86.188 36.3726 84.4106 36.3726C82.6333 36.3726 81.2686 35.9071 80.3164 34.9761C79.999 34.6799 79.8403 34.3201 79.8403 33.897C79.8403 33.4526 80.0308 33.0506 80.4116 32.6909C80.7713 32.3312 81.1839 32.1514 81.6494 32.1514C82.0938 32.1514 82.4323 32.3101 82.665 32.6274C82.8978 32.9237 83.1305 33.1247 83.3633 33.2305C83.5749 33.3363 84.0298 33.3892 84.728 33.3892C85.4474 33.3892 86.1562 33.1776 86.8545 32.7544C87.5527 32.3101 88.2721 31.6753 89.0127 30.8501C89.7744 30.0037 90.5996 28.9775 91.4883 27.7715C92.377 26.5654 93.1598 25.5181 93.8369 24.6294C94.5352 23.7196 95.0959 23.0107 95.519 22.5029C95.9634 21.974 96.4289 21.4132 96.9155 20.8208C97.4022 20.2284 97.8677 19.6782 98.312 19.1704C98.7775 18.6414 99.1055 18.25 99.2959 17.9961C97.0954 20.0273 95.2122 21.043 93.6465 21.043C92.652 21.043 91.8268 20.7256 91.1709 20.0908C90.515 19.4349 90.187 18.3875 90.187 16.9487C90.187 15.5099 90.8112 13.5527 92.0596 11.0771C93.3079 8.5804 94.8949 6.44336 96.8203 4.66602C98.7458 2.88867 100.565 2 102.279 2C104.014 2 105.347 2.59245 106.278 3.77734C106.532 4.11589 106.776 4.47559 107.008 4.85645C107.22 4.77181 107.463 4.72949 107.738 4.72949ZM103.39 12.1562C103.898 9.99805 104.395 8.38997 104.882 7.33203C104.268 6.27409 103.782 5.6499 103.422 5.45947C103.083 5.26904 102.66 5.17383 102.152 5.17383C101.01 5.17383 99.6979 5.82975 98.2168 7.1416C96.7568 8.43229 95.5508 9.98747 94.5986 11.8071C93.6465 13.6056 93.1704 15.0762 93.1704 16.2188C93.1704 17.9749 93.6676 18.853 94.6621 18.853C96.5241 18.853 98.8516 17.2873 101.645 14.1558C102.322 13.394 102.903 12.7275 103.39 12.1562Z" fill="url(#paint3_linear_1_22236)"/>
<path d="M25.9307 3.11084C26.6501 3.11084 27.0098 3.4917 27.0098 4.25342C27.0098 4.99398 26.6606 6.528 25.9624 8.85547C25.2642 11.1618 24.8092 12.7699 24.5977 13.6797C24.4072 14.5684 24.1745 15.7109 23.8994 17.1074C23.6455 18.4827 23.3916 19.8898 23.1377 21.3286C22.8838 22.7674 22.6087 24.3014 22.3125 25.9307C22.0374 27.5599 21.6989 29.3796 21.2969 31.3896C21.2969 32.1725 21.4238 32.7332 21.6777 33.0718C21.9528 33.3892 22.1538 33.6219 22.2808 33.77C22.4077 33.9181 22.4712 34.2144 22.4712 34.6587C22.4712 35.0819 22.2173 35.4733 21.7095 35.833C21.2228 36.2139 20.715 36.4043 20.186 36.4043C19.6571 36.4043 19.1387 36.0023 18.6309 35.1982C18.123 34.373 17.8691 33.6748 17.8691 33.1035V31.9927C17.8691 30.9136 18.2394 28.9458 18.98 26.0894C19.7417 23.2118 20.2918 21.1382 20.6304 19.8687C20.9689 18.578 21.2546 17.3719 21.4873 16.2505C20.9583 17.3296 20.387 18.578 19.7734 19.9956C19.1598 21.3921 18.25 23.381 17.0439 25.9624C13.8278 32.8179 10.4001 36.2456 6.76074 36.2456C4.56022 36.2456 3.0791 35.0501 2.31738 32.6592C2.10579 31.9609 2 31.0088 2 29.8027C2 28.5755 2.12695 27.1261 2.38086 25.4546C2.63477 23.7619 2.95215 22.1009 3.33301 20.4717C3.73503 18.8213 4.16878 17.2132 4.63428 15.6475C5.09977 14.0817 5.67106 12.1562 6.34814 9.87109C7.02523 7.56478 7.39551 5.78744 7.45898 4.53906C7.58594 4.11589 7.82926 3.75618 8.18896 3.45996C8.56982 3.14258 8.96126 2.98389 9.36328 2.98389C9.78646 2.98389 10.1462 3.5446 10.4424 4.66602C10.4424 6.12598 10.1144 7.94564 9.4585 10.125C8.80257 12.3044 8.24186 14.1134 7.77637 15.5522C5.99902 21.0535 5.11035 25.8989 5.11035 30.0884C5.11035 31.3791 5.61816 32.2889 6.63379 32.8179C6.99349 32.9871 7.45898 33.0718 8.03027 33.0718C9.23633 33.0718 10.6857 31.8551 12.3784 29.4219C14.0711 26.9886 15.7109 24.0581 17.2979 20.6304C18.9059 17.1815 20.1437 14.2192 21.0112 11.7437C21.8787 9.26807 22.5241 7.5542 22.9473 6.60205C24.0264 4.27458 25.0208 3.11084 25.9307 3.11084Z" stroke="url(#paint4_linear_1_22236)" stroke-width="2.4" mask="url(#path-1-outside-1_1_22236)"/>
<path d="M54.7974 27.0415C55.5379 27.0415 55.9082 27.4012 55.9082 28.1206C55.9082 28.7131 55.7389 29.1468 55.4004 29.4219C53.0094 31.2627 50.7243 32.9554 48.5449 34.5C48.1852 36.5312 47.8255 38.5731 47.4658 40.6255C47.1061 42.6779 46.6724 44.9419 46.1646 47.4175C45.6779 49.8931 45.0643 52.2205 44.3237 54.3999C43.6043 56.6004 42.5464 58.4836 41.1499 60.0493C39.7746 61.6151 38.0501 62.3979 35.9766 62.3979C33.9242 62.3979 32.1997 61.6891 30.8032 60.2715C29.3856 58.875 28.6768 57.0977 28.6768 54.9395C28.6768 52.7812 29.1846 50.7923 30.2002 48.9727C31.1947 47.153 32.4959 45.3757 34.104 43.6406C35.7332 41.9268 37.5529 40.2235 39.563 38.5308C41.5942 36.8592 43.6361 35.1665 45.6885 33.4526C45.9001 32.5005 46.1646 31.3579 46.4819 30.0249C46.7993 28.6919 47.1696 27.1261 47.5928 25.3276C45.9001 30.5116 43.763 33.897 41.1816 35.4839C40.3353 35.9917 39.5418 36.2456 38.8013 36.2456C37.299 36.2456 36.0506 35.6426 35.0562 34.4365C34.0828 33.2305 33.5962 31.6224 33.5962 29.6123C33.5962 25.9095 34.2944 21.9951 35.6909 17.8691C37.0874 13.722 39.0129 10.1567 41.4673 7.17334C43.9217 4.16878 46.6089 2.6665 49.5288 2.6665C51.0099 2.6665 52.3324 3.00505 53.4961 3.68213C53.75 3.55518 54.0356 3.4917 54.353 3.4917C55.0513 3.4917 55.4004 3.8514 55.4004 4.5708C55.4004 5.26904 55.2734 5.95671 55.0195 6.63379C53.8135 9.82878 51.7928 18.0596 48.9575 31.3262C49.7404 30.776 50.5233 30.1413 51.3062 29.4219C52.1102 28.7025 52.7767 28.1312 53.3057 27.708C53.8558 27.2637 54.353 27.0415 54.7974 27.0415ZM38.5474 18.3452C37.2144 22.048 36.5479 25.444 36.5479 28.5332C36.5479 31.6012 37.3519 33.1353 38.96 33.1353C40.3141 33.1353 41.8799 31.8446 43.6572 29.2632C45.4346 26.6818 46.8311 23.7936 47.8467 20.5986C48.8623 17.4036 49.6981 14.5684 50.354 12.0928C51.0311 9.59603 51.5812 7.59652 52.0044 6.09424C51.3273 5.52295 50.4915 5.2373 49.4971 5.2373C47.5716 5.2373 45.6038 6.49626 43.5938 9.01416C41.5837 11.5321 39.9015 14.6424 38.5474 18.3452ZM45.1807 36.9756C41.2451 40.2341 38.431 42.8577 36.7383 44.8467C33.4798 48.7188 31.8506 51.8397 31.8506 54.2095C31.8506 56.6004 32.3584 58.1027 33.374 58.7163C33.8184 58.9914 34.4849 59.1289 35.3735 59.1289C36.2834 59.1289 37.098 58.9385 37.8174 58.5576C38.5579 58.1768 39.2562 57.4574 39.9121 56.3994C40.5892 55.3626 41.2451 53.9132 41.8799 52.0513C42.5358 50.2104 43.0648 48.3062 43.4668 46.3384C43.89 44.3918 44.165 43.0482 44.292 42.3076C44.4401 41.5671 44.5671 40.89 44.6729 40.2764C44.7786 39.6628 44.8633 39.0809 44.9268 38.5308C45.0114 38.0018 45.096 37.4834 45.1807 36.9756Z" stroke="url(#paint5_linear_1_22236)" stroke-width="2.4" mask="url(#path-1-outside-1_1_22236)"/>
<path d="M75.793 30.4058C76.5335 30.4058 76.9038 30.7972 76.9038 31.5801C76.9038 32.4899 75.793 33.5161 73.5713 34.6587C71.3496 35.8013 69.4982 36.3726 68.0171 36.3726C66.536 36.3726 65.4251 36.1292 64.6846 35.6426C63.944 35.1559 63.341 34.4788 62.8755 33.6113C61.9657 31.9186 61.5107 29.8768 61.5107 27.4858C61.5107 23.2541 62.1455 19.2656 63.415 15.5205C64.6846 11.7754 66.3773 8.67562 68.4932 6.22119C70.609 3.74561 72.8942 2.50781 75.3486 2.50781C76.6605 2.50781 77.6867 3.05794 78.4272 4.1582C79.189 5.2373 79.5698 6.51742 79.5698 7.99854C79.5698 10.7703 78.8398 13.119 77.3799 15.0444C75.9411 16.9699 74.1637 18.5462 72.0479 19.7734C69.932 21.0007 67.4987 22.1644 64.748 23.2646L64.6211 27.9302C64.6211 31.5695 65.7214 33.3892 67.9219 33.3892C69.1068 33.3892 70.3446 33.0506 71.6353 32.3735C72.9471 31.6753 73.8887 31.1781 74.46 30.8818C75.0312 30.5645 75.4756 30.4058 75.793 30.4058ZM76.5864 8.12549C76.5864 6.43278 75.8776 5.58643 74.46 5.58643C73.1904 5.58643 71.6987 6.729 69.9849 9.01416C68.271 11.2993 66.8534 14.3145 65.7319 18.0596C65.4569 18.9694 65.2982 19.6571 65.2559 20.1226C66.1022 19.6571 66.9697 19.2127 67.8584 18.7896C68.7471 18.3664 69.6146 17.922 70.4609 17.4565C72.4076 16.3774 73.9098 15.1185 74.9678 13.6797C76.0469 12.2197 76.5864 10.3683 76.5864 8.12549Z" stroke="url(#paint6_linear_1_22236)" stroke-width="2.4" mask="url(#path-1-outside-1_1_22236)"/>
<path d="M107.738 4.72949C108.352 4.72949 108.722 5.09977 108.849 5.84033C108.849 7.93506 108.161 10.1567 106.786 12.5054C106.469 13.0343 106.204 13.3517 105.993 13.4575C105.548 15.9331 105.136 18.1019 104.755 19.9639C104.374 21.8047 103.919 24.0052 103.39 26.5654C102.882 29.1257 102.565 31.1357 102.438 32.5957C102.332 34.0557 102.216 34.902 102.089 35.1348C101.793 35.7484 101.295 36.0552 100.597 36.0552C99.8989 36.0552 99.5075 35.8965 99.4229 35.5791C99.3382 35.2617 99.2959 34.9232 99.2959 34.5635C99.7826 29.9508 100.798 24.2274 102.343 17.3931C99.7191 20.4188 97.4762 23.2329 95.6143 25.8354C93.7734 28.438 92.451 30.2894 91.647 31.3896C90.8429 32.4688 90.0706 33.3786 89.3301 34.1191C87.8278 35.6214 86.188 36.3726 84.4106 36.3726C82.6333 36.3726 81.2686 35.9071 80.3164 34.9761C79.999 34.6799 79.8403 34.3201 79.8403 33.897C79.8403 33.4526 80.0308 33.0506 80.4116 32.6909C80.7713 32.3312 81.1839 32.1514 81.6494 32.1514C82.0938 32.1514 82.4323 32.3101 82.665 32.6274C82.8978 32.9237 83.1305 33.1247 83.3633 33.2305C83.5749 33.3363 84.0298 33.3892 84.728 33.3892C85.4474 33.3892 86.1562 33.1776 86.8545 32.7544C87.5527 32.3101 88.2721 31.6753 89.0127 30.8501C89.7744 30.0037 90.5996 28.9775 91.4883 27.7715C92.377 26.5654 93.1598 25.5181 93.8369 24.6294C94.5352 23.7196 95.0959 23.0107 95.519 22.5029C95.9634 21.974 96.4289 21.4132 96.9155 20.8208C97.4022 20.2284 97.8677 19.6782 98.312 19.1704C98.7775 18.6414 99.1055 18.25 99.2959 17.9961C97.0954 20.0273 95.2122 21.043 93.6465 21.043C92.652 21.043 91.8268 20.7256 91.1709 20.0908C90.515 19.4349 90.187 18.3875 90.187 16.9487C90.187 15.5099 90.8112 13.5527 92.0596 11.0771C93.3079 8.5804 94.8949 6.44336 96.8203 4.66602C98.7458 2.88867 100.565 2 102.279 2C104.014 2 105.347 2.59245 106.278 3.77734C106.532 4.11589 106.776 4.47559 107.008 4.85645C107.22 4.77181 107.463 4.72949 107.738 4.72949ZM103.39 12.1562C103.898 9.99805 104.395 8.38997 104.882 7.33203C104.268 6.27409 103.782 5.6499 103.422 5.45947C103.083 5.26904 102.66 5.17383 102.152 5.17383C101.01 5.17383 99.6979 5.82975 98.2168 7.1416C96.7568 8.43229 95.5508 9.98747 94.5986 11.8071C93.6465 13.6056 93.1704 15.0762 93.1704 16.2188C93.1704 17.9749 93.6676 18.853 94.6621 18.853C96.5241 18.853 98.8516 17.2873 101.645 14.1558C102.322 13.394 102.903 12.7275 103.39 12.1562Z" stroke="url(#paint7_linear_1_22236)" stroke-width="2.4" mask="url(#path-1-outside-1_1_22236)"/>
<defs>
<linearGradient id="paint0_linear_1_22236" x1="94.7725" y1="-90.7617" x2="159.603" y2="-22.2401" gradientUnits="userSpaceOnUse">
<stop stop-color="white"/>
<stop offset="1" stop-color="white" stop-opacity="0.8"/>
</linearGradient>
<linearGradient id="paint1_linear_1_22236" x1="94.7725" y1="-90.7617" x2="159.603" y2="-22.2401" gradientUnits="userSpaceOnUse">
<stop stop-color="white"/>
<stop offset="1" stop-color="white" stop-opacity="0.8"/>
</linearGradient>
<linearGradient id="paint2_linear_1_22236" x1="94.7725" y1="-90.7617" x2="159.603" y2="-22.2401" gradientUnits="userSpaceOnUse">
<stop stop-color="white"/>
<stop offset="1" stop-color="white" stop-opacity="0.8"/>
</linearGradient>
<linearGradient id="paint3_linear_1_22236" x1="94.7725" y1="-90.7617" x2="159.603" y2="-22.2401" gradientUnits="userSpaceOnUse">
<stop stop-color="white"/>
<stop offset="1" stop-color="white" stop-opacity="0.8"/>
</linearGradient>
<linearGradient id="paint4_linear_1_22236" x1="94.7725" y1="-90.7617" x2="159.603" y2="-22.2401" gradientUnits="userSpaceOnUse">
<stop stop-color="white"/>
<stop offset="1" stop-color="white" stop-opacity="0.8"/>
</linearGradient>
<linearGradient id="paint5_linear_1_22236" x1="94.7725" y1="-90.7617" x2="159.603" y2="-22.2401" gradientUnits="userSpaceOnUse">
<stop stop-color="white"/>
<stop offset="1" stop-color="white" stop-opacity="0.8"/>
</linearGradient>
<linearGradient id="paint6_linear_1_22236" x1="94.7725" y1="-90.7617" x2="159.603" y2="-22.2401" gradientUnits="userSpaceOnUse">
<stop stop-color="white"/>
<stop offset="1" stop-color="white" stop-opacity="0.8"/>
</linearGradient>
<linearGradient id="paint7_linear_1_22236" x1="94.7725" y1="-90.7617" x2="159.603" y2="-22.2401" gradientUnits="userSpaceOnUse">
<stop stop-color="white"/>
<stop offset="1" stop-color="white" stop-opacity="0.8"/>
</linearGradient>
</defs>
</svg>
