<svg width="475" height="481" viewBox="0 0 475 481" fill="none" xmlns="http://www.w3.org/2000/svg">
<g clip-path="url(#clip0_1_22121)">
<path d="M0 25.0996C0 11.2925 11.1929 0.0996094 25 0.0996094H450C463.807 0.0996094 475 11.2925 475 25.0996V455.1C475 468.907 463.807 480.1 450 480.1H25C11.1929 480.1 0 468.907 0 455.1V25.0996Z" fill="url(#paint0_linear_1_22121)"/>
<path opacity="0.4" d="M406.85 188.575C407.574 182.475 416.426 182.475 417.151 188.575L423.223 239.752C431.064 305.835 483.165 357.936 549.248 365.777L600.424 371.85C606.525 372.574 606.525 381.426 600.424 382.151L549.248 388.223C483.165 396.064 431.064 448.165 423.223 514.248L417.151 565.424C416.426 571.525 407.574 571.525 406.85 565.424L400.777 514.248C392.936 448.165 340.835 396.064 274.752 388.223L223.575 382.151C217.475 381.426 217.475 372.574 223.575 371.85L274.752 365.777C340.835 357.936 392.936 305.835 400.777 239.752L406.85 188.575Z" fill="url(#paint1_linear_1_22121)"/>
</g>
<defs>
<linearGradient id="paint0_linear_1_22121" x1="237.5" y1="0.0996094" x2="237.5" y2="595.3" gradientUnits="userSpaceOnUse">
<stop stop-color="#03B0FF"/>
<stop offset="0.504808" stop-color="#0686FF"/>
<stop offset="1" stop-color="#0C88FA"/>
</linearGradient>
<linearGradient id="paint1_linear_1_22121" x1="636.154" y1="-46.9922" x2="219" y2="570" gradientUnits="userSpaceOnUse">
<stop stop-color="white"/>
<stop offset="1" stop-color="white" stop-opacity="0.15"/>
</linearGradient>
<clipPath id="clip0_1_22121">
<path d="M0 25.0996C0 11.2925 11.1929 0.0996094 25 0.0996094H450C463.807 0.0996094 475 11.2925 475 25.0996V455.1C475 468.907 463.807 480.1 450 480.1H25C11.1929 480.1 0 468.907 0 455.1V25.0996Z" fill="white"/>
</clipPath>
</defs>
</svg>
