<svg width="340" height="481" viewBox="0 0 340 481" fill="none" xmlns="http://www.w3.org/2000/svg">
<g clip-path="url(#clip0_1_20503)">
<path d="M0 25.0996C0 11.2925 11.1929 0.0996094 25 0.0996094H315C328.807 0.0996094 340 11.2925 340 25.0996V455.1C340 468.907 328.807 480.1 315 480.1H25C11.1929 480.1 0 468.907 0 455.1V25.0996Z" fill="url(#paint0_linear_1_20503)"/>
<path opacity="0.4" d="M307.85 188.575C308.574 182.475 317.426 182.475 318.151 188.575L324.223 239.752C332.064 305.835 384.165 357.936 450.248 365.777L501.424 371.85C507.525 372.574 507.525 381.426 501.424 382.151L450.248 388.223C384.165 396.064 332.064 448.165 324.223 514.248L318.151 565.424C317.426 571.525 308.574 571.525 307.85 565.424L301.777 514.248C293.936 448.165 241.835 396.064 175.752 388.223L124.575 382.151C118.475 381.426 118.475 372.574 124.575 371.85L175.752 365.777C241.835 357.936 293.936 305.835 301.777 239.752L307.85 188.575Z" fill="url(#paint1_linear_1_20503)"/>
</g>
<defs>
<linearGradient id="paint0_linear_1_20503" x1="170" y1="0.0996094" x2="170" y2="595.3" gradientUnits="userSpaceOnUse">
<stop stop-color="#03B0FF"/>
<stop offset="0.504808" stop-color="#0686FF"/>
<stop offset="1" stop-color="#0C88FA"/>
</linearGradient>
<linearGradient id="paint1_linear_1_20503" x1="537.154" y1="-46.9922" x2="120" y2="570" gradientUnits="userSpaceOnUse">
<stop stop-color="white"/>
<stop offset="1" stop-color="white" stop-opacity="0.15"/>
</linearGradient>
<clipPath id="clip0_1_20503">
<path d="M0 25.0996C0 11.2925 11.1929 0.0996094 25 0.0996094H315C328.807 0.0996094 340 11.2925 340 25.0996V455.1C340 468.907 328.807 480.1 315 480.1H25C11.1929 480.1 0 468.907 0 455.1V25.0996Z" fill="white"/>
</clipPath>
</defs>
</svg>
