<svg width="386" height="480" viewBox="0 0 386 480" fill="none" xmlns="http://www.w3.org/2000/svg">
<g clip-path="url(#clip0_1_10005)">
<path d="M0 25C0 11.1929 11.1929 0 25 0H361C374.807 0 386 11.1929 386 25V455C386 468.807 374.807 480 361 480H25C11.1929 480 0 468.807 0 455V25Z" fill="url(#paint0_linear_1_10005)"/>
<path opacity="0.4" fill-rule="evenodd" clip-rule="evenodd" d="M438.248 473H602.199C602.199 338.74 493.36 229.9 359.1 229.9C224.839 229.9 116 338.74 116 473H279.951C279.951 429.287 315.387 393.851 359.1 393.851C402.813 393.851 438.248 429.287 438.248 473Z" fill="url(#paint1_linear_1_10005)"/>
</g>
<defs>
<linearGradient id="paint0_linear_1_10005" x1="193" y1="0" x2="193" y2="595.2" gradientUnits="userSpaceOnUse">
<stop stop-color="#03B0FF"/>
<stop offset="0.504808" stop-color="#0686FF"/>
<stop offset="1" stop-color="#0C88FA"/>
</linearGradient>
<linearGradient id="paint1_linear_1_10005" x1="641.44" y1="84.4235" x2="469.663" y2="592.557" gradientUnits="userSpaceOnUse">
<stop stop-color="white"/>
<stop offset="1" stop-color="white" stop-opacity="0.15"/>
</linearGradient>
<clipPath id="clip0_1_10005">
<path d="M0 25C0 11.1929 11.1929 0 25 0H361C374.807 0 386 11.1929 386 25V455C386 468.807 374.807 480 361 480H25C11.1929 480 0 468.807 0 455V25Z" fill="white"/>
</clipPath>
</defs>
</svg>
