<svg width="386" height="480" viewBox="0 0 386 480" fill="none" xmlns="http://www.w3.org/2000/svg">
<g clip-path="url(#clip0_1_10001)">
<path d="M0 25C0 11.1929 11.1929 0 25 0H361C374.807 0 386 11.1929 386 25V455C386 468.807 374.807 480 361 480H25C11.1929 480 0 468.807 0 455V25Z" fill="url(#paint0_linear_1_10001)"/>
<path opacity="0.4" d="M307.85 188.476C308.574 182.375 317.426 182.375 318.151 188.476L324.223 239.652C332.064 305.735 384.165 357.837 450.248 365.678L501.424 371.75C507.525 372.474 507.525 381.326 501.424 382.051L450.248 388.123C384.165 395.964 332.064 448.066 324.223 514.148L318.151 565.325C317.426 571.426 308.574 571.426 307.85 565.325L301.777 514.148C293.936 448.066 241.835 395.964 175.752 388.123L124.575 382.051C118.475 381.326 118.475 372.474 124.575 371.75L175.752 365.678C241.835 357.837 293.936 305.735 301.777 239.652L307.85 188.476Z" fill="url(#paint1_linear_1_10001)"/>
</g>
<defs>
<linearGradient id="paint0_linear_1_10001" x1="193" y1="0" x2="193" y2="595.2" gradientUnits="userSpaceOnUse">
<stop stop-color="#03B0FF"/>
<stop offset="0.504808" stop-color="#0686FF"/>
<stop offset="1" stop-color="#0C88FA"/>
</linearGradient>
<linearGradient id="paint1_linear_1_10001" x1="537.154" y1="-47.0918" x2="120" y2="569.9" gradientUnits="userSpaceOnUse">
<stop stop-color="white"/>
<stop offset="1" stop-color="white" stop-opacity="0.15"/>
</linearGradient>
<clipPath id="clip0_1_10001">
<path d="M0 25C0 11.1929 11.1929 0 25 0H361C374.807 0 386 11.1929 386 25V455C386 468.807 374.807 480 361 480H25C11.1929 480 0 468.807 0 455V25Z" fill="white"/>
</clipPath>
</defs>
</svg>
