<svg width="370" height="250" viewBox="0 0 370 250" fill="none" xmlns="http://www.w3.org/2000/svg">
<g clip-path="url(#clip0_79_56310)">
<path d="M0 25.0996C0 11.2925 11.1929 0.0996094 25 0.0996094H345C358.807 0.0996094 370 11.2925 370 25.0996V224.1C370 237.907 358.807 249.1 345 249.1H25C11.1929 249.1 0 237.907 0 224.1V25.0996Z" fill="url(#paint0_linear_79_56310)"/>
<path opacity="0.4" d="M206 74.4434H401.788V308.602L303.894 214.939L206 308.602V74.4434Z" fill="url(#paint1_linear_79_56310)"/>
</g>
<defs>
<linearGradient id="paint0_linear_79_56310" x1="185" y1="0.0996094" x2="185" y2="308.86" gradientUnits="userSpaceOnUse">
<stop stop-color="#03B0FF"/>
<stop offset="0.504808" stop-color="#0686FF"/>
<stop offset="1" stop-color="#0C88FA"/>
</linearGradient>
<linearGradient id="paint1_linear_79_56310" x1="417.59" y1="-65.6831" x2="150.94" y2="264.08" gradientUnits="userSpaceOnUse">
<stop stop-color="white"/>
<stop offset="1" stop-color="white" stop-opacity="0.15"/>
</linearGradient>
<clipPath id="clip0_79_56310">
<path d="M0 25.0996C0 11.2925 11.1929 0.0996094 25 0.0996094H345C358.807 0.0996094 370 11.2925 370 25.0996V224.1C370 237.907 358.807 249.1 345 249.1H25C11.1929 249.1 0 237.907 0 224.1V25.0996Z" fill="white"/>
</clipPath>
</defs>
</svg>
