<svg width="370" height="250" viewBox="0 0 370 250" fill="none" xmlns="http://www.w3.org/2000/svg">
<g clip-path="url(#clip0_79_56314)">
<path d="M0 25.0996C0 11.2925 11.1929 0.0996094 25 0.0996094H345C358.807 0.0996094 370 11.2925 370 25.0996V224.1C370 237.907 358.807 249.1 345 249.1H25C11.1929 249.1 0 237.907 0 224.1V25.0996Z" fill="url(#paint0_linear_79_56314)"/>
<path opacity="0.4" d="M310.757 53.1111C311.354 48.0854 318.646 48.0854 319.243 53.1111L324.246 95.2722C330.705 149.714 373.628 192.636 428.069 199.096L470.23 204.099C475.257 204.695 475.257 211.988 470.23 212.585L428.069 217.588C373.628 224.047 330.705 266.97 324.246 321.411L319.243 363.572C318.646 368.598 311.354 368.598 310.757 363.572L305.754 321.411C299.295 266.97 256.372 224.047 201.93 217.588L159.769 212.585C154.744 211.988 154.744 204.695 159.769 204.099L201.93 199.096C256.372 192.636 299.295 149.714 305.754 95.2722L310.757 53.1111Z" fill="url(#paint1_linear_79_56314)"/>
</g>
<defs>
<linearGradient id="paint0_linear_79_56314" x1="185" y1="0.0996094" x2="185" y2="308.86" gradientUnits="userSpaceOnUse">
<stop stop-color="#03B0FF"/>
<stop offset="0.504808" stop-color="#0686FF"/>
<stop offset="1" stop-color="#0C88FA"/>
</linearGradient>
<linearGradient id="paint1_linear_79_56314" x1="499.665" y1="-140.957" x2="156" y2="367.342" gradientUnits="userSpaceOnUse">
<stop stop-color="white"/>
<stop offset="1" stop-color="white" stop-opacity="0.15"/>
</linearGradient>
<clipPath id="clip0_79_56314">
<path d="M0 25.0996C0 11.2925 11.1929 0.0996094 25 0.0996094H345C358.807 0.0996094 370 11.2925 370 25.0996V224.1C370 237.907 358.807 249.1 345 249.1H25C11.1929 249.1 0 237.907 0 224.1V25.0996Z" fill="white"/>
</clipPath>
</defs>
</svg>
