<svg width="730" height="521" viewBox="0 0 730 521" fill="none" xmlns="http://www.w3.org/2000/svg">
<g clip-path="url(#clip0_485_24013)">
<path d="M0 25.1016C0 11.2944 11.1929 0.101562 25 0.101562H705C718.807 0.101562 730 11.2944 730 25.1016V495.102C730 508.909 718.807 520.102 705 520.102H25C11.1929 520.102 0 508.909 0 495.102V25.1016Z" fill="#007AFF"/>
<path opacity="0.4" d="M626.217 207.89C637.196 188.873 664.645 188.873 675.625 207.89L883.138 567.313C894.117 586.33 880.393 610.102 858.434 610.102H443.408C421.449 610.102 407.724 586.33 418.704 567.313L626.217 207.89Z" fill="url(#paint0_linear_485_24013)"/>
</g>
<defs>
<linearGradient id="paint0_linear_485_24013" x1="949.313" y1="-101.198" x2="497.384" y2="670.636" gradientUnits="userSpaceOnUse">
<stop stop-color="white"/>
<stop offset="1" stop-color="white" stop-opacity="0.15"/>
</linearGradient>
<clipPath id="clip0_485_24013">
<path d="M0 25.1016C0 11.2944 11.1929 0.101562 25 0.101562H705C718.807 0.101562 730 11.2944 730 25.1016V495.102C730 508.909 718.807 520.102 705 520.102H25C11.1929 520.102 0 508.909 0 495.102V25.1016Z" fill="white"/>
</clipPath>
</defs>
</svg>
