<svg width="600" height="235" viewBox="0 0 600 235" fill="none" xmlns="http://www.w3.org/2000/svg">
<g clip-path="url(#clip0_79_53732)">
<path d="M0 25C0 11.1929 11.1929 0 25 0H575C588.807 0 600 11.1929 600 25V210C600 223.807 588.807 235 575 235H25C11.1929 235 0 223.807 0 210V25Z" fill="white"/>
<path opacity="0.1" d="M477.946 56.1322C486.36 41.5595 507.393 41.5596 515.807 56.1322L674.823 331.555C683.236 346.128 672.719 364.344 655.892 364.344H337.861C321.034 364.344 310.517 346.128 318.93 331.555L477.946 56.1322Z" fill="#007AFF"/>
</g>
<path d="M25 0.5H575C588.531 0.500006 599.5 11.469 599.5 25V210C599.5 223.531 588.531 234.5 575 234.5H25C11.469 234.5 0.5 223.531 0.5 210V25L0.507812 24.3672C0.843451 11.1287 11.6806 0.5 25 0.5Z" stroke="#007AFF"/>
<defs>
<clipPath id="clip0_79_53732">
<path d="M0 25C0 11.1929 11.1929 0 25 0H575C588.807 0 600 11.1929 600 25V210C600 223.807 588.807 235 575 235H25C11.1929 235 0 223.807 0 210V25Z" fill="white"/>
</clipPath>
</defs>
</svg>
