<svg width="600" height="520" viewBox="0 0 600 520" fill="none" xmlns="http://www.w3.org/2000/svg">
<g clip-path="url(#clip0_20_9134)">
<path d="M0 25C0 11.1929 11.1929 0 25 0H575C588.807 0 600 11.1929 600 25V495C600 508.807 588.807 520 575 520H25C11.1929 520 0 508.807 0 495V25Z" fill="#007AFF"/>
<path opacity="0.4" d="M496.217 207.788C507.196 188.771 534.645 188.771 545.625 207.788L753.138 567.212C764.117 586.229 750.393 610 728.434 610H313.408C291.449 610 277.724 586.229 288.704 567.212L496.217 207.788Z" fill="url(#paint0_linear_20_9134)"/>
</g>
<defs>
<linearGradient id="paint0_linear_20_9134" x1="819.313" y1="-101.299" x2="367.384" y2="670.534" gradientUnits="userSpaceOnUse">
<stop stop-color="white"/>
<stop offset="1" stop-color="white" stop-opacity="0.15"/>
</linearGradient>
<clipPath id="clip0_20_9134">
<path d="M0 25C0 11.1929 11.1929 0 25 0H575C588.807 0 600 11.1929 600 25V495C600 508.807 588.807 520 575 520H25C11.1929 520 0 508.807 0 495V25Z" fill="white"/>
</clipPath>
</defs>
</svg>
