<svg width="370" height="361" viewBox="0 0 370 361" fill="none" xmlns="http://www.w3.org/2000/svg">
<g clip-path="url(#clip0_79_56233)">
<path d="M0 40.0996C0 18.0082 17.9086 0.0996094 40 0.0996094H330C352.091 0.0996094 370 18.0082 370 40.0996V320.1C370 342.191 352.091 360.1 330 360.1H40C17.9086 360.1 0 342.191 0 320.1V40.0996Z" fill="#007AFF"/>
<path opacity="0.4" d="M336.89 -216.862C365.008 -262.708 435.289 -246.482 440.464 -192.95L455.141 -41.1203C457.864 -12.9525 481.156 8.76753 509.446 9.51903L661.929 13.5697C715.692 14.9979 736.78 83.9761 693.008 115.224L568.858 203.85C545.826 220.292 538.662 251.323 552.155 276.198L624.889 410.278C650.534 457.552 601.341 510.304 552.394 488.02L413.567 424.816C387.811 413.091 357.355 422.402 342.56 446.525L262.81 576.555C234.692 622.4 164.41 606.175 159.235 552.643L144.558 400.813C141.835 372.645 118.543 350.925 90.2539 350.174L-62.2299 346.123C-115.992 344.695 -137.081 275.717 -93.3086 244.469L30.8411 155.843C53.8736 139.401 61.0377 108.37 47.544 83.4947L-25.1899 -50.5854C-50.8343 -97.8592 -1.64179 -150.612 47.3056 -128.327L186.133 -65.1236C211.888 -53.3979 242.344 -62.7093 257.14 -86.8326L336.89 -216.862Z" fill="url(#paint0_linear_79_56233)"/>
<path opacity="0.4" d="M328.095 -122.531C349.528 -157.475 403.097 -145.108 407.042 -104.305L418.229 11.423C420.305 32.8931 438.058 49.4486 459.621 50.0214L575.847 53.1089C616.826 54.1975 632.9 106.774 599.536 130.592L504.907 198.144C487.351 210.677 481.89 234.329 492.175 253.29L547.615 355.488C567.161 391.521 529.666 431.73 492.357 414.745L386.54 366.569C366.909 357.632 343.694 364.729 332.417 383.117L271.63 482.228C250.198 517.172 196.628 504.804 192.684 464.001L181.496 348.274C179.421 326.804 161.667 310.248 140.105 309.675L23.8784 306.588C-17.1004 305.499 -33.1748 252.923 0.189469 229.105L94.8189 161.553C112.375 149.02 117.835 125.367 107.55 106.407L52.111 4.20857C32.5643 -31.8244 70.0598 -72.0335 107.369 -55.0479L213.185 -6.87276C232.817 2.0648 256.031 -5.03252 267.308 -23.4198L328.095 -122.531Z" fill="url(#paint1_linear_79_56233)"/>
<path opacity="0.4" d="M317.919 -13.5495C331.627 -35.8998 365.89 -27.9895 368.412 -1.89216L375.568 72.1266C376.895 85.8587 388.25 96.4474 402.042 96.8138L476.379 98.7886C502.589 99.4848 512.87 133.112 491.531 148.346L431.006 191.552C419.778 199.568 416.285 214.696 422.863 226.823L458.322 292.188C470.824 315.235 446.842 340.952 422.98 330.088L355.3 299.276C342.744 293.559 327.896 298.099 320.683 309.859L281.804 373.25C268.096 395.6 233.833 387.69 231.31 361.593L224.155 287.574C222.827 273.842 211.472 263.253 197.681 262.887L123.344 260.912C97.1338 260.216 86.8528 226.588 108.192 211.355L168.717 168.148C179.945 160.133 183.438 145.005 176.86 132.878L141.401 67.5122C128.899 44.4657 152.881 18.7483 176.743 29.6121L244.423 60.4247C256.979 66.1411 271.827 61.6017 279.04 49.8413L317.919 -13.5495Z" fill="url(#paint2_linear_79_56233)"/>
<path opacity="0.4" d="M309.228 79.4016C316.347 67.7938 334.142 71.902 335.452 85.4559L339.168 123.898C339.858 131.03 345.755 136.529 352.918 136.72L391.525 137.745C405.138 138.107 410.477 155.572 399.394 163.483L367.96 185.923C362.129 190.086 360.315 197.943 363.731 204.241L382.147 238.189C388.64 250.158 376.185 263.515 363.792 257.873L328.642 241.87C322.121 238.901 314.409 241.259 310.663 247.366L290.471 280.289C283.352 291.897 265.557 287.789 264.247 274.235L260.531 235.792C259.841 228.661 253.944 223.161 246.781 222.971L208.173 221.945C194.561 221.584 189.222 204.119 200.305 196.207L231.738 173.768C237.57 169.605 239.384 161.748 235.967 155.45L217.552 121.502C211.059 109.532 223.514 96.1757 235.907 101.818L271.057 117.821C277.578 120.79 285.289 118.432 289.036 112.324L309.228 79.4016Z" fill="url(#paint3_linear_79_56233)"/>
</g>
<defs>
<linearGradient id="paint0_linear_79_56233" x1="1199.78" y1="-860.375" x2="-363.999" y2="594.665" gradientUnits="userSpaceOnUse">
<stop stop-color="white"/>
<stop offset="1" stop-color="white" stop-opacity="0.15"/>
</linearGradient>
<linearGradient id="paint1_linear_79_56233" x1="985.809" y1="-613.029" x2="-206.136" y2="496.031" gradientUnits="userSpaceOnUse">
<stop stop-color="white"/>
<stop offset="1" stop-color="white" stop-opacity="0.15"/>
</linearGradient>
<linearGradient id="paint2_linear_79_56233" x1="738.588" y1="-327.269" x2="-23.772" y2="382.079" gradientUnits="userSpaceOnUse">
<stop stop-color="white"/>
<stop offset="1" stop-color="white" stop-opacity="0.15"/>
</linearGradient>
<linearGradient id="paint3_linear_79_56233" x1="527.706" y1="-83.5312" x2="131.768" y2="284.874" gradientUnits="userSpaceOnUse">
<stop stop-color="white"/>
<stop offset="1" stop-color="white" stop-opacity="0.15"/>
</linearGradient>
<clipPath id="clip0_79_56233">
<path d="M0 40.0996C0 18.0082 17.9086 0.0996094 40 0.0996094H330C352.091 0.0996094 370 18.0082 370 40.0996V320.1C370 342.191 352.091 360.1 330 360.1H40C17.9086 360.1 0 342.191 0 320.1V40.0996Z" fill="white"/>
</clipPath>
</defs>
</svg>
