<svg width="218" height="64" viewBox="0 0 218 64" fill="none" xmlns="http://www.w3.org/2000/svg">
<mask id="path-1-outside-1_1_22249" maskUnits="userSpaceOnUse" x="0" y="0" width="218" height="64" fill="black">
<rect fill="white" width="218" height="64"/>
<path d="M9.2998 2.34912C9.82878 2.34912 10.1885 2.70882 10.3789 3.42822C10.3789 4.31689 10.2943 5.11035 10.125 5.80859C9.95573 6.50684 9.72298 7.70231 9.42676 9.39502C9.15169 11.0666 8.80257 12.992 8.37939 15.1714C13.1613 8.44287 17.2767 4.24284 20.7256 2.57129C21.5085 2.19043 22.2808 2 23.0425 2C23.8254 2 24.6506 2.56071 25.5181 3.68213C26.4067 4.78239 26.8511 5.71338 26.8511 6.4751C26.8511 7.23682 26.6712 7.79753 26.3115 8.15723C25.9518 8.51693 25.5498 8.69678 25.1055 8.69678C24.6611 8.69678 24.3014 8.50635 24.0264 8.12549C23.7725 7.74463 23.5397 7.33203 23.3281 6.8877C23.1377 6.44336 22.9473 6.03076 22.7568 5.6499C22.5876 5.26904 22.3654 5.07861 22.0903 5.07861C21.8153 5.07861 21.2122 5.3431 20.2812 5.87207C19.3503 6.40104 17.9009 7.73405 15.9331 9.87109C13.9653 11.987 12.5265 13.6479 11.6167 14.854C12.061 19.0858 12.918 22.7357 14.1875 25.8037C15.457 28.8717 16.79 30.9559 18.1865 32.0562C18.9059 32.6063 19.6359 32.8813 20.3765 32.8813C21.1382 32.8813 21.7412 32.6909 22.1855 32.3101C22.6299 31.9292 22.9896 31.3156 23.2646 30.4692C23.5609 29.6017 23.8254 29.1257 24.0581 29.041C24.312 28.9564 24.5659 28.9141 24.8198 28.9141C25.0737 28.9141 25.3594 29.0622 25.6768 29.3584C26.0153 29.6546 26.1846 30.2259 26.1846 31.0723C26.1846 31.8975 25.8249 32.7227 25.1055 33.5479C23.6878 35.1348 22.249 35.9282 20.7891 35.9282C16.6208 35.9282 13.3835 32.5005 11.0771 25.645C10.125 22.8521 9.50081 20.4188 9.20459 18.3452C8.78141 19.0435 8.31592 19.8581 7.80811 20.7891L7.01465 22.249C6.14714 26.8617 5.48063 30.8184 5.01514 34.1191C4.9305 34.6481 4.68717 35.0819 4.28516 35.4204C3.9043 35.759 3.5446 35.9282 3.20605 35.9282C2.48665 35.9282 2.08464 35.4733 2 34.5635C2.52897 31.6436 3.28011 27.2743 4.25342 21.4556C5.22673 15.6369 5.94613 11.659 6.41162 9.52197C6.87712 7.36377 7.20508 5.49121 7.39551 3.9043C7.52246 3.48112 7.76579 3.12142 8.12549 2.8252C8.50635 2.50781 8.89779 2.34912 9.2998 2.34912Z"/>
<path d="M48.4814 2.47607C52.4805 2.47607 54.48 5.50179 54.48 11.5532C54.48 16.2716 53.1787 21.3392 50.5762 26.7559C48.82 30.3952 46.7041 33.0189 44.2285 34.627C42.959 35.4521 41.6471 35.8647 40.293 35.8647C37.902 35.8647 36.1882 34.9126 35.1514 33.0083C34.1146 31.104 33.5962 29.0516 33.5962 26.8511C33.5962 22.9155 34.2521 19.0964 35.564 15.3936C36.897 11.6908 38.6955 8.61214 40.9595 6.15771C43.2446 3.70329 45.752 2.47607 48.4814 2.47607ZM39.9756 12.9814C37.6904 17.5518 36.5479 22.0163 36.5479 26.375C36.5479 29.4007 37.3836 31.432 39.0552 32.4688C39.563 32.7861 40.1449 32.9448 40.8008 32.9448C42.1549 32.9448 43.6678 31.7705 45.3394 29.4219C47.0109 27.0732 48.418 24.1851 49.5605 20.7573C50.7031 17.3084 51.2744 14.3568 51.2744 11.9023C51.2744 9.42676 51.1263 7.861 50.8301 7.20508C50.555 6.54915 50.2271 6.09424 49.8462 5.84033C49.4865 5.58643 48.8729 5.45947 48.0054 5.45947C47.159 5.45947 46.228 5.79801 45.2124 6.4751C43.2446 7.74463 41.499 9.91341 39.9756 12.9814Z"/>
<path d="M72.3335 2.60303C73.3491 2.60303 73.8569 3.11084 73.8569 4.12646C73.8569 4.59196 73.7194 5.20557 73.4443 5.96729C73.4443 6.66553 73.5924 7.64941 73.8887 8.91895C74.1849 10.1885 74.4705 11.9023 74.7456 14.0605C75.0207 16.2188 75.4333 18.2077 75.9834 20.0273C77.1048 18.8001 78.1204 17.6893 79.0303 16.6948C83.5794 11.7225 86.3512 8.40055 87.3457 6.729C89.2077 3.68213 90.6676 2.15869 91.7256 2.15869C92.4873 2.15869 92.9634 2.51839 93.1538 3.23779C92.6883 7.9139 91.4505 13.32 89.4404 19.4561C87.4303 25.5921 86.1291 30.4375 85.5366 33.9922C85.4308 34.5212 85.1875 34.9549 84.8066 35.2935C84.4258 35.632 84.0661 35.8013 83.7275 35.8013C83.0293 35.8013 82.6379 35.3464 82.5532 34.4365C83.0187 30.5433 83.9709 26.576 85.4097 22.5347C86.8696 18.4933 88.1074 13.9971 89.123 9.0459L86.6475 12.0928C85.7799 13.1296 84.9653 14.1346 84.2036 15.1079C81.453 18.6414 78.9139 21.3604 76.5864 23.2646C76.1632 23.5186 75.7083 23.6455 75.2217 23.6455C74.7562 23.6455 74.3542 23.4339 74.0156 23.0107C73.6771 22.5664 73.3703 21.8682 73.0952 20.916C72.8202 19.9639 72.5451 18.7367 72.27 17.2344C72.0161 15.7321 71.6987 13.9124 71.3179 11.7754L71.0005 10.3472C67.2977 18.853 64.9173 24.5024 63.8594 27.2954C62.8226 30.0672 62.283 31.5272 62.2407 31.6753C62.2196 31.8234 62.1772 32.035 62.1138 32.3101C62.0715 32.5851 61.9974 32.839 61.8916 33.0718C62.0609 33.241 62.1455 33.5055 62.1455 33.8652C62.1455 34.2038 61.9445 34.5529 61.5425 34.9126C61.1616 35.2511 60.7173 35.4204 60.2095 35.4204C59.4689 35.4204 59.0986 35.0184 59.0986 34.2144C59.0986 30.6808 62.9919 20.5352 70.7783 3.77734C71.3285 2.99447 71.8468 2.60303 72.3335 2.60303Z"/>
<path d="M100.883 35.2935C98.4072 35.2935 97.1694 33.7383 97.1694 30.6279C97.1694 27.5176 98.3226 23.709 100.629 19.2021C102.956 14.6742 105.686 10.7703 108.817 7.49072C111.949 4.18994 114.499 2.53955 116.466 2.53955C118.455 2.53955 119.587 3.40706 119.862 5.14209C119.947 5.67106 120.01 6.23177 120.053 6.82422C120.243 6.69727 120.476 6.63379 120.751 6.63379C121.745 6.63379 122.243 7.10986 122.243 8.06201V8.31592C122.243 8.37939 121.978 9.33154 121.449 11.1724C120.92 13.0132 120.317 16.0812 119.64 20.3765C118.963 24.6717 118.625 28.3428 118.625 31.3896C118.815 31.5166 119.037 31.6647 119.291 31.834C119.545 31.9821 119.862 32.2254 120.243 32.564C120.624 32.8813 120.814 33.2622 120.814 33.7065C120.814 34.1509 120.677 34.5529 120.402 34.9126C120.127 35.2511 119.735 35.4204 119.228 35.4204C118.191 35.4204 117.249 34.8914 116.403 33.8335C115.578 32.7756 115.165 31.633 115.165 30.4058C115.165 27.7609 115.884 23.2118 117.323 16.7583C115.525 20.5246 113.197 24.1533 110.341 27.6445C107.484 31.1357 105.506 33.2834 104.406 34.0874C103.327 34.8914 102.152 35.2935 100.883 35.2935ZM100.407 30.7549C100.407 31.5378 100.735 31.9292 101.391 31.9292C101.856 31.9292 102.248 31.7705 102.565 31.4531C106.945 27.6868 110.87 22.4712 114.34 15.8062C116.308 11.9976 117.344 9.80762 117.45 9.23633C117.577 8.66504 117.641 8.17839 117.641 7.77637C117.641 7.37435 117.535 6.99349 117.323 6.63379C117.112 6.27409 116.815 6.09424 116.435 6.09424C116.054 6.09424 115.493 6.29525 114.752 6.69727C113.123 7.58594 111.113 9.47966 108.722 12.3784C106.352 15.2772 104.374 18.4298 102.787 21.8364C101.2 25.243 100.407 28.2158 100.407 30.7549Z"/>
<path d="M153.871 33.7065C153.871 35.2511 153.024 36.0234 151.332 36.0234C150.062 36.0234 149.12 35.6955 148.507 35.0396C147.914 34.3625 147.618 33.5161 147.618 32.5005C147.618 31.4849 147.883 29.6229 148.412 26.9146C148.962 24.1851 149.48 21.5614 149.967 19.0435C146.751 21.4344 143.831 22.6299 141.207 22.6299C139.26 22.6299 137.758 22.1009 136.7 21.043C136.552 21.7835 136.404 22.6616 136.256 23.6772C136.108 24.6929 135.896 26.1317 135.621 27.9937C134.817 33.1564 133.643 35.7378 132.098 35.7378C131.4 35.7378 131.008 35.2829 130.924 34.373C131.389 30.4798 132.437 24.8198 134.066 17.3931C135.716 9.94515 136.721 5.53353 137.081 4.1582C137.229 3.73503 137.483 3.37533 137.843 3.0791C138.202 2.76172 138.583 2.60303 138.985 2.60303C139.535 2.60303 139.906 2.97331 140.096 3.71387C140.054 4.72949 139.662 6.98291 138.922 10.4741C138.181 13.9653 137.705 16.4515 137.494 17.9326C138.488 19.0117 139.98 19.5513 141.969 19.5513C143.979 19.5513 146.169 18.5568 148.539 16.5679C149.279 15.9331 149.967 15.2454 150.602 14.5049C150.94 13.0449 151.268 11.6061 151.585 10.1885C151.903 8.74967 152.252 7.46956 152.633 6.34814C153.014 5.20557 153.447 4.28516 153.934 3.58691C154.442 2.88867 155.055 2.53955 155.775 2.53955C156.494 2.53955 156.854 2.95215 156.854 3.77734V4.09473C154.442 12.3678 152.94 18.3135 152.347 21.9316C151.755 25.5498 151.395 28.0254 151.268 29.3584C151.141 30.6914 151.056 31.4954 151.014 31.7705C150.972 32.0244 150.951 32.2889 150.951 32.564C150.951 32.8179 151.035 32.9448 151.205 32.9448C151.395 32.9448 151.564 32.8813 151.712 32.7544C151.882 32.6274 152.231 32.564 152.76 32.564C153.5 32.564 153.871 32.9448 153.871 33.7065Z"/>
<path d="M185.562 26.5972C186.303 26.5972 186.673 26.9569 186.673 27.6763C186.673 28.2687 186.504 28.7025 186.165 28.9775C183.774 30.8184 181.489 32.5111 179.31 34.0557C178.95 36.0869 178.59 38.1287 178.23 40.1812C177.871 42.2336 177.437 44.4976 176.929 46.9731C176.443 49.4487 175.829 51.7762 175.088 53.9556C174.369 56.1561 173.311 58.0392 171.915 59.605C170.539 61.1707 168.815 61.9536 166.741 61.9536C164.689 61.9536 162.964 61.2448 161.568 59.8271C160.15 58.4307 159.441 56.6533 159.441 54.4951C159.441 52.3369 159.949 50.348 160.965 48.5283C161.959 46.7087 163.261 44.9313 164.869 43.1963C166.498 41.4824 168.318 39.7791 170.328 38.0864C172.359 36.4149 174.401 34.7222 176.453 33.0083C176.665 32.0562 176.929 30.9136 177.247 29.5806C177.564 28.2476 177.934 26.6818 178.357 24.8833C176.665 30.0672 174.528 33.4526 171.946 35.0396C171.1 35.5474 170.306 35.8013 169.566 35.8013C168.064 35.8013 166.815 35.1982 165.821 33.9922C164.847 32.7861 164.361 31.1781 164.361 29.168C164.361 25.4652 165.059 21.5508 166.456 17.4248C167.852 13.2777 169.778 9.7124 172.232 6.729C174.686 3.72445 177.374 2.22217 180.293 2.22217C181.775 2.22217 183.097 2.56071 184.261 3.23779C184.515 3.11084 184.8 3.04736 185.118 3.04736C185.816 3.04736 186.165 3.40706 186.165 4.12646C186.165 4.82471 186.038 5.51237 185.784 6.18945C184.578 9.38444 182.557 17.6152 179.722 30.8818C180.505 30.3317 181.288 29.6969 182.071 28.9775C182.875 28.2581 183.541 27.6868 184.07 27.2637C184.62 26.8193 185.118 26.5972 185.562 26.5972ZM169.312 17.9009C167.979 21.6037 167.312 24.9997 167.312 28.0889C167.312 31.1569 168.117 32.6909 169.725 32.6909C171.079 32.6909 172.645 31.4002 174.422 28.8188C176.199 26.2375 177.596 23.3493 178.611 20.1543C179.627 16.9593 180.463 14.124 181.119 11.6484C181.796 9.15169 182.346 7.15218 182.769 5.6499C182.092 5.07861 181.256 4.79297 180.262 4.79297C178.336 4.79297 176.368 6.05192 174.358 8.56982C172.348 11.0877 170.666 14.1981 169.312 17.9009ZM175.945 36.5312C172.01 39.7897 169.196 42.4134 167.503 44.4023C164.244 48.2744 162.615 51.3953 162.615 53.7651C162.615 56.1561 163.123 57.6584 164.139 58.272C164.583 58.547 165.25 58.6846 166.138 58.6846C167.048 58.6846 167.863 58.4941 168.582 58.1133C169.323 57.7324 170.021 57.013 170.677 55.9551C171.354 54.9183 172.01 53.4689 172.645 51.6069C173.3 49.7661 173.829 47.8618 174.231 45.894C174.655 43.9474 174.93 42.6038 175.057 41.8633C175.205 41.1227 175.332 40.4456 175.438 39.832C175.543 39.2184 175.628 38.6366 175.691 38.0864C175.776 37.5575 175.861 37.0391 175.945 36.5312Z"/>
<path d="M194.878 35.2935C192.402 35.2935 191.165 33.7383 191.165 30.6279C191.165 27.5176 192.318 23.709 194.624 19.2021C196.951 14.6742 199.681 10.7703 202.812 7.49072C205.944 4.18994 208.494 2.53955 210.461 2.53955C212.45 2.53955 213.582 3.40706 213.857 5.14209C213.942 5.67106 214.006 6.23177 214.048 6.82422C214.238 6.69727 214.471 6.63379 214.746 6.63379C215.741 6.63379 216.238 7.10986 216.238 8.06201V8.31592C216.238 8.37939 215.973 9.33154 215.444 11.1724C214.915 13.0132 214.312 16.0812 213.635 20.3765C212.958 24.6717 212.62 28.3428 212.62 31.3896C212.81 31.5166 213.032 31.6647 213.286 31.834C213.54 31.9821 213.857 32.2254 214.238 32.564C214.619 32.8813 214.81 33.2622 214.81 33.7065C214.81 34.1509 214.672 34.5529 214.397 34.9126C214.122 35.2511 213.73 35.4204 213.223 35.4204C212.186 35.4204 211.244 34.8914 210.398 33.8335C209.573 32.7756 209.16 31.633 209.16 30.4058C209.16 27.7609 209.88 23.2118 211.318 16.7583C209.52 20.5246 207.192 24.1533 204.336 27.6445C201.479 31.1357 199.501 33.2834 198.401 34.0874C197.322 34.8914 196.147 35.2935 194.878 35.2935ZM194.402 30.7549C194.402 31.5378 194.73 31.9292 195.386 31.9292C195.851 31.9292 196.243 31.7705 196.56 31.4531C200.94 27.6868 204.865 22.4712 208.335 15.8062C210.303 11.9976 211.34 9.80762 211.445 9.23633C211.572 8.66504 211.636 8.17839 211.636 7.77637C211.636 7.37435 211.53 6.99349 211.318 6.63379C211.107 6.27409 210.811 6.09424 210.43 6.09424C210.049 6.09424 209.488 6.29525 208.748 6.69727C207.118 7.58594 205.108 9.47966 202.717 12.3784C200.347 15.2772 198.369 18.4298 196.782 21.8364C195.195 25.243 194.402 28.2158 194.402 30.7549Z"/>
</mask>
<path d="M9.2998 2.34912C9.82878 2.34912 10.1885 2.70882 10.3789 3.42822C10.3789 4.31689 10.2943 5.11035 10.125 5.80859C9.95573 6.50684 9.72298 7.70231 9.42676 9.39502C9.15169 11.0666 8.80257 12.992 8.37939 15.1714C13.1613 8.44287 17.2767 4.24284 20.7256 2.57129C21.5085 2.19043 22.2808 2 23.0425 2C23.8254 2 24.6506 2.56071 25.5181 3.68213C26.4067 4.78239 26.8511 5.71338 26.8511 6.4751C26.8511 7.23682 26.6712 7.79753 26.3115 8.15723C25.9518 8.51693 25.5498 8.69678 25.1055 8.69678C24.6611 8.69678 24.3014 8.50635 24.0264 8.12549C23.7725 7.74463 23.5397 7.33203 23.3281 6.8877C23.1377 6.44336 22.9473 6.03076 22.7568 5.6499C22.5876 5.26904 22.3654 5.07861 22.0903 5.07861C21.8153 5.07861 21.2122 5.3431 20.2812 5.87207C19.3503 6.40104 17.9009 7.73405 15.9331 9.87109C13.9653 11.987 12.5265 13.6479 11.6167 14.854C12.061 19.0858 12.918 22.7357 14.1875 25.8037C15.457 28.8717 16.79 30.9559 18.1865 32.0562C18.9059 32.6063 19.6359 32.8813 20.3765 32.8813C21.1382 32.8813 21.7412 32.6909 22.1855 32.3101C22.6299 31.9292 22.9896 31.3156 23.2646 30.4692C23.5609 29.6017 23.8254 29.1257 24.0581 29.041C24.312 28.9564 24.5659 28.9141 24.8198 28.9141C25.0737 28.9141 25.3594 29.0622 25.6768 29.3584C26.0153 29.6546 26.1846 30.2259 26.1846 31.0723C26.1846 31.8975 25.8249 32.7227 25.1055 33.5479C23.6878 35.1348 22.249 35.9282 20.7891 35.9282C16.6208 35.9282 13.3835 32.5005 11.0771 25.645C10.125 22.8521 9.50081 20.4188 9.20459 18.3452C8.78141 19.0435 8.31592 19.8581 7.80811 20.7891L7.01465 22.249C6.14714 26.8617 5.48063 30.8184 5.01514 34.1191C4.9305 34.6481 4.68717 35.0819 4.28516 35.4204C3.9043 35.759 3.5446 35.9282 3.20605 35.9282C2.48665 35.9282 2.08464 35.4733 2 34.5635C2.52897 31.6436 3.28011 27.2743 4.25342 21.4556C5.22673 15.6369 5.94613 11.659 6.41162 9.52197C6.87712 7.36377 7.20508 5.49121 7.39551 3.9043C7.52246 3.48112 7.76579 3.12142 8.12549 2.8252C8.50635 2.50781 8.89779 2.34912 9.2998 2.34912Z" fill="url(#paint0_linear_1_22249)"/>
<path d="M48.4814 2.47607C52.4805 2.47607 54.48 5.50179 54.48 11.5532C54.48 16.2716 53.1787 21.3392 50.5762 26.7559C48.82 30.3952 46.7041 33.0189 44.2285 34.627C42.959 35.4521 41.6471 35.8647 40.293 35.8647C37.902 35.8647 36.1882 34.9126 35.1514 33.0083C34.1146 31.104 33.5962 29.0516 33.5962 26.8511C33.5962 22.9155 34.2521 19.0964 35.564 15.3936C36.897 11.6908 38.6955 8.61214 40.9595 6.15771C43.2446 3.70329 45.752 2.47607 48.4814 2.47607ZM39.9756 12.9814C37.6904 17.5518 36.5479 22.0163 36.5479 26.375C36.5479 29.4007 37.3836 31.432 39.0552 32.4688C39.563 32.7861 40.1449 32.9448 40.8008 32.9448C42.1549 32.9448 43.6678 31.7705 45.3394 29.4219C47.0109 27.0732 48.418 24.1851 49.5605 20.7573C50.7031 17.3084 51.2744 14.3568 51.2744 11.9023C51.2744 9.42676 51.1263 7.861 50.8301 7.20508C50.555 6.54915 50.2271 6.09424 49.8462 5.84033C49.4865 5.58643 48.8729 5.45947 48.0054 5.45947C47.159 5.45947 46.228 5.79801 45.2124 6.4751C43.2446 7.74463 41.499 9.91341 39.9756 12.9814Z" fill="url(#paint1_linear_1_22249)"/>
<path d="M72.3335 2.60303C73.3491 2.60303 73.8569 3.11084 73.8569 4.12646C73.8569 4.59196 73.7194 5.20557 73.4443 5.96729C73.4443 6.66553 73.5924 7.64941 73.8887 8.91895C74.1849 10.1885 74.4705 11.9023 74.7456 14.0605C75.0207 16.2188 75.4333 18.2077 75.9834 20.0273C77.1048 18.8001 78.1204 17.6893 79.0303 16.6948C83.5794 11.7225 86.3512 8.40055 87.3457 6.729C89.2077 3.68213 90.6676 2.15869 91.7256 2.15869C92.4873 2.15869 92.9634 2.51839 93.1538 3.23779C92.6883 7.9139 91.4505 13.32 89.4404 19.4561C87.4303 25.5921 86.1291 30.4375 85.5366 33.9922C85.4308 34.5212 85.1875 34.9549 84.8066 35.2935C84.4258 35.632 84.0661 35.8013 83.7275 35.8013C83.0293 35.8013 82.6379 35.3464 82.5532 34.4365C83.0187 30.5433 83.9709 26.576 85.4097 22.5347C86.8696 18.4933 88.1074 13.9971 89.123 9.0459L86.6475 12.0928C85.7799 13.1296 84.9653 14.1346 84.2036 15.1079C81.453 18.6414 78.9139 21.3604 76.5864 23.2646C76.1632 23.5186 75.7083 23.6455 75.2217 23.6455C74.7562 23.6455 74.3542 23.4339 74.0156 23.0107C73.6771 22.5664 73.3703 21.8682 73.0952 20.916C72.8202 19.9639 72.5451 18.7367 72.27 17.2344C72.0161 15.7321 71.6987 13.9124 71.3179 11.7754L71.0005 10.3472C67.2977 18.853 64.9173 24.5024 63.8594 27.2954C62.8226 30.0672 62.283 31.5272 62.2407 31.6753C62.2196 31.8234 62.1772 32.035 62.1138 32.3101C62.0715 32.5851 61.9974 32.839 61.8916 33.0718C62.0609 33.241 62.1455 33.5055 62.1455 33.8652C62.1455 34.2038 61.9445 34.5529 61.5425 34.9126C61.1616 35.2511 60.7173 35.4204 60.2095 35.4204C59.4689 35.4204 59.0986 35.0184 59.0986 34.2144C59.0986 30.6808 62.9919 20.5352 70.7783 3.77734C71.3285 2.99447 71.8468 2.60303 72.3335 2.60303Z" fill="url(#paint2_linear_1_22249)"/>
<path d="M100.883 35.2935C98.4072 35.2935 97.1694 33.7383 97.1694 30.6279C97.1694 27.5176 98.3226 23.709 100.629 19.2021C102.956 14.6742 105.686 10.7703 108.817 7.49072C111.949 4.18994 114.499 2.53955 116.466 2.53955C118.455 2.53955 119.587 3.40706 119.862 5.14209C119.947 5.67106 120.01 6.23177 120.053 6.82422C120.243 6.69727 120.476 6.63379 120.751 6.63379C121.745 6.63379 122.243 7.10986 122.243 8.06201V8.31592C122.243 8.37939 121.978 9.33154 121.449 11.1724C120.92 13.0132 120.317 16.0812 119.64 20.3765C118.963 24.6717 118.625 28.3428 118.625 31.3896C118.815 31.5166 119.037 31.6647 119.291 31.834C119.545 31.9821 119.862 32.2254 120.243 32.564C120.624 32.8813 120.814 33.2622 120.814 33.7065C120.814 34.1509 120.677 34.5529 120.402 34.9126C120.127 35.2511 119.735 35.4204 119.228 35.4204C118.191 35.4204 117.249 34.8914 116.403 33.8335C115.578 32.7756 115.165 31.633 115.165 30.4058C115.165 27.7609 115.884 23.2118 117.323 16.7583C115.525 20.5246 113.197 24.1533 110.341 27.6445C107.484 31.1357 105.506 33.2834 104.406 34.0874C103.327 34.8914 102.152 35.2935 100.883 35.2935ZM100.407 30.7549C100.407 31.5378 100.735 31.9292 101.391 31.9292C101.856 31.9292 102.248 31.7705 102.565 31.4531C106.945 27.6868 110.87 22.4712 114.34 15.8062C116.308 11.9976 117.344 9.80762 117.45 9.23633C117.577 8.66504 117.641 8.17839 117.641 7.77637C117.641 7.37435 117.535 6.99349 117.323 6.63379C117.112 6.27409 116.815 6.09424 116.435 6.09424C116.054 6.09424 115.493 6.29525 114.752 6.69727C113.123 7.58594 111.113 9.47966 108.722 12.3784C106.352 15.2772 104.374 18.4298 102.787 21.8364C101.2 25.243 100.407 28.2158 100.407 30.7549Z" fill="url(#paint3_linear_1_22249)"/>
<path d="M153.871 33.7065C153.871 35.2511 153.024 36.0234 151.332 36.0234C150.062 36.0234 149.12 35.6955 148.507 35.0396C147.914 34.3625 147.618 33.5161 147.618 32.5005C147.618 31.4849 147.883 29.6229 148.412 26.9146C148.962 24.1851 149.48 21.5614 149.967 19.0435C146.751 21.4344 143.831 22.6299 141.207 22.6299C139.26 22.6299 137.758 22.1009 136.7 21.043C136.552 21.7835 136.404 22.6616 136.256 23.6772C136.108 24.6929 135.896 26.1317 135.621 27.9937C134.817 33.1564 133.643 35.7378 132.098 35.7378C131.4 35.7378 131.008 35.2829 130.924 34.373C131.389 30.4798 132.437 24.8198 134.066 17.3931C135.716 9.94515 136.721 5.53353 137.081 4.1582C137.229 3.73503 137.483 3.37533 137.843 3.0791C138.202 2.76172 138.583 2.60303 138.985 2.60303C139.535 2.60303 139.906 2.97331 140.096 3.71387C140.054 4.72949 139.662 6.98291 138.922 10.4741C138.181 13.9653 137.705 16.4515 137.494 17.9326C138.488 19.0117 139.98 19.5513 141.969 19.5513C143.979 19.5513 146.169 18.5568 148.539 16.5679C149.279 15.9331 149.967 15.2454 150.602 14.5049C150.94 13.0449 151.268 11.6061 151.585 10.1885C151.903 8.74967 152.252 7.46956 152.633 6.34814C153.014 5.20557 153.447 4.28516 153.934 3.58691C154.442 2.88867 155.055 2.53955 155.775 2.53955C156.494 2.53955 156.854 2.95215 156.854 3.77734V4.09473C154.442 12.3678 152.94 18.3135 152.347 21.9316C151.755 25.5498 151.395 28.0254 151.268 29.3584C151.141 30.6914 151.056 31.4954 151.014 31.7705C150.972 32.0244 150.951 32.2889 150.951 32.564C150.951 32.8179 151.035 32.9448 151.205 32.9448C151.395 32.9448 151.564 32.8813 151.712 32.7544C151.882 32.6274 152.231 32.564 152.76 32.564C153.5 32.564 153.871 32.9448 153.871 33.7065Z" fill="url(#paint4_linear_1_22249)"/>
<path d="M185.562 26.5972C186.303 26.5972 186.673 26.9569 186.673 27.6763C186.673 28.2687 186.504 28.7025 186.165 28.9775C183.774 30.8184 181.489 32.5111 179.31 34.0557C178.95 36.0869 178.59 38.1287 178.23 40.1812C177.871 42.2336 177.437 44.4976 176.929 46.9731C176.443 49.4487 175.829 51.7762 175.088 53.9556C174.369 56.1561 173.311 58.0392 171.915 59.605C170.539 61.1707 168.815 61.9536 166.741 61.9536C164.689 61.9536 162.964 61.2448 161.568 59.8271C160.15 58.4307 159.441 56.6533 159.441 54.4951C159.441 52.3369 159.949 50.348 160.965 48.5283C161.959 46.7087 163.261 44.9313 164.869 43.1963C166.498 41.4824 168.318 39.7791 170.328 38.0864C172.359 36.4149 174.401 34.7222 176.453 33.0083C176.665 32.0562 176.929 30.9136 177.247 29.5806C177.564 28.2476 177.934 26.6818 178.357 24.8833C176.665 30.0672 174.528 33.4526 171.946 35.0396C171.1 35.5474 170.306 35.8013 169.566 35.8013C168.064 35.8013 166.815 35.1982 165.821 33.9922C164.847 32.7861 164.361 31.1781 164.361 29.168C164.361 25.4652 165.059 21.5508 166.456 17.4248C167.852 13.2777 169.778 9.7124 172.232 6.729C174.686 3.72445 177.374 2.22217 180.293 2.22217C181.775 2.22217 183.097 2.56071 184.261 3.23779C184.515 3.11084 184.8 3.04736 185.118 3.04736C185.816 3.04736 186.165 3.40706 186.165 4.12646C186.165 4.82471 186.038 5.51237 185.784 6.18945C184.578 9.38444 182.557 17.6152 179.722 30.8818C180.505 30.3317 181.288 29.6969 182.071 28.9775C182.875 28.2581 183.541 27.6868 184.07 27.2637C184.62 26.8193 185.118 26.5972 185.562 26.5972ZM169.312 17.9009C167.979 21.6037 167.312 24.9997 167.312 28.0889C167.312 31.1569 168.117 32.6909 169.725 32.6909C171.079 32.6909 172.645 31.4002 174.422 28.8188C176.199 26.2375 177.596 23.3493 178.611 20.1543C179.627 16.9593 180.463 14.124 181.119 11.6484C181.796 9.15169 182.346 7.15218 182.769 5.6499C182.092 5.07861 181.256 4.79297 180.262 4.79297C178.336 4.79297 176.368 6.05192 174.358 8.56982C172.348 11.0877 170.666 14.1981 169.312 17.9009ZM175.945 36.5312C172.01 39.7897 169.196 42.4134 167.503 44.4023C164.244 48.2744 162.615 51.3953 162.615 53.7651C162.615 56.1561 163.123 57.6584 164.139 58.272C164.583 58.547 165.25 58.6846 166.138 58.6846C167.048 58.6846 167.863 58.4941 168.582 58.1133C169.323 57.7324 170.021 57.013 170.677 55.9551C171.354 54.9183 172.01 53.4689 172.645 51.6069C173.3 49.7661 173.829 47.8618 174.231 45.894C174.655 43.9474 174.93 42.6038 175.057 41.8633C175.205 41.1227 175.332 40.4456 175.438 39.832C175.543 39.2184 175.628 38.6366 175.691 38.0864C175.776 37.5575 175.861 37.0391 175.945 36.5312Z" fill="url(#paint5_linear_1_22249)"/>
<path d="M194.878 35.2935C192.402 35.2935 191.165 33.7383 191.165 30.6279C191.165 27.5176 192.318 23.709 194.624 19.2021C196.951 14.6742 199.681 10.7703 202.812 7.49072C205.944 4.18994 208.494 2.53955 210.461 2.53955C212.45 2.53955 213.582 3.40706 213.857 5.14209C213.942 5.67106 214.006 6.23177 214.048 6.82422C214.238 6.69727 214.471 6.63379 214.746 6.63379C215.741 6.63379 216.238 7.10986 216.238 8.06201V8.31592C216.238 8.37939 215.973 9.33154 215.444 11.1724C214.915 13.0132 214.312 16.0812 213.635 20.3765C212.958 24.6717 212.62 28.3428 212.62 31.3896C212.81 31.5166 213.032 31.6647 213.286 31.834C213.54 31.9821 213.857 32.2254 214.238 32.564C214.619 32.8813 214.81 33.2622 214.81 33.7065C214.81 34.1509 214.672 34.5529 214.397 34.9126C214.122 35.2511 213.73 35.4204 213.223 35.4204C212.186 35.4204 211.244 34.8914 210.398 33.8335C209.573 32.7756 209.16 31.633 209.16 30.4058C209.16 27.7609 209.88 23.2118 211.318 16.7583C209.52 20.5246 207.192 24.1533 204.336 27.6445C201.479 31.1357 199.501 33.2834 198.401 34.0874C197.322 34.8914 196.147 35.2935 194.878 35.2935ZM194.402 30.7549C194.402 31.5378 194.73 31.9292 195.386 31.9292C195.851 31.9292 196.243 31.7705 196.56 31.4531C200.94 27.6868 204.865 22.4712 208.335 15.8062C210.303 11.9976 211.34 9.80762 211.445 9.23633C211.572 8.66504 211.636 8.17839 211.636 7.77637C211.636 7.37435 211.53 6.99349 211.318 6.63379C211.107 6.27409 210.811 6.09424 210.43 6.09424C210.049 6.09424 209.488 6.29525 208.748 6.69727C207.118 7.58594 205.108 9.47966 202.717 12.3784C200.347 15.2772 198.369 18.4298 196.782 21.8364C195.195 25.243 194.402 28.2158 194.402 30.7549Z" fill="url(#paint6_linear_1_22249)"/>
<path d="M9.2998 2.34912C9.82878 2.34912 10.1885 2.70882 10.3789 3.42822C10.3789 4.31689 10.2943 5.11035 10.125 5.80859C9.95573 6.50684 9.72298 7.70231 9.42676 9.39502C9.15169 11.0666 8.80257 12.992 8.37939 15.1714C13.1613 8.44287 17.2767 4.24284 20.7256 2.57129C21.5085 2.19043 22.2808 2 23.0425 2C23.8254 2 24.6506 2.56071 25.5181 3.68213C26.4067 4.78239 26.8511 5.71338 26.8511 6.4751C26.8511 7.23682 26.6712 7.79753 26.3115 8.15723C25.9518 8.51693 25.5498 8.69678 25.1055 8.69678C24.6611 8.69678 24.3014 8.50635 24.0264 8.12549C23.7725 7.74463 23.5397 7.33203 23.3281 6.8877C23.1377 6.44336 22.9473 6.03076 22.7568 5.6499C22.5876 5.26904 22.3654 5.07861 22.0903 5.07861C21.8153 5.07861 21.2122 5.3431 20.2812 5.87207C19.3503 6.40104 17.9009 7.73405 15.9331 9.87109C13.9653 11.987 12.5265 13.6479 11.6167 14.854C12.061 19.0858 12.918 22.7357 14.1875 25.8037C15.457 28.8717 16.79 30.9559 18.1865 32.0562C18.9059 32.6063 19.6359 32.8813 20.3765 32.8813C21.1382 32.8813 21.7412 32.6909 22.1855 32.3101C22.6299 31.9292 22.9896 31.3156 23.2646 30.4692C23.5609 29.6017 23.8254 29.1257 24.0581 29.041C24.312 28.9564 24.5659 28.9141 24.8198 28.9141C25.0737 28.9141 25.3594 29.0622 25.6768 29.3584C26.0153 29.6546 26.1846 30.2259 26.1846 31.0723C26.1846 31.8975 25.8249 32.7227 25.1055 33.5479C23.6878 35.1348 22.249 35.9282 20.7891 35.9282C16.6208 35.9282 13.3835 32.5005 11.0771 25.645C10.125 22.8521 9.50081 20.4188 9.20459 18.3452C8.78141 19.0435 8.31592 19.8581 7.80811 20.7891L7.01465 22.249C6.14714 26.8617 5.48063 30.8184 5.01514 34.1191C4.9305 34.6481 4.68717 35.0819 4.28516 35.4204C3.9043 35.759 3.5446 35.9282 3.20605 35.9282C2.48665 35.9282 2.08464 35.4733 2 34.5635C2.52897 31.6436 3.28011 27.2743 4.25342 21.4556C5.22673 15.6369 5.94613 11.659 6.41162 9.52197C6.87712 7.36377 7.20508 5.49121 7.39551 3.9043C7.52246 3.48112 7.76579 3.12142 8.12549 2.8252C8.50635 2.50781 8.89779 2.34912 9.2998 2.34912Z" stroke="url(#paint7_linear_1_22249)" stroke-width="2.4" mask="url(#path-1-outside-1_1_22249)"/>
<path d="M48.4814 2.47607C52.4805 2.47607 54.48 5.50179 54.48 11.5532C54.48 16.2716 53.1787 21.3392 50.5762 26.7559C48.82 30.3952 46.7041 33.0189 44.2285 34.627C42.959 35.4521 41.6471 35.8647 40.293 35.8647C37.902 35.8647 36.1882 34.9126 35.1514 33.0083C34.1146 31.104 33.5962 29.0516 33.5962 26.8511C33.5962 22.9155 34.2521 19.0964 35.564 15.3936C36.897 11.6908 38.6955 8.61214 40.9595 6.15771C43.2446 3.70329 45.752 2.47607 48.4814 2.47607ZM39.9756 12.9814C37.6904 17.5518 36.5479 22.0163 36.5479 26.375C36.5479 29.4007 37.3836 31.432 39.0552 32.4688C39.563 32.7861 40.1449 32.9448 40.8008 32.9448C42.1549 32.9448 43.6678 31.7705 45.3394 29.4219C47.0109 27.0732 48.418 24.1851 49.5605 20.7573C50.7031 17.3084 51.2744 14.3568 51.2744 11.9023C51.2744 9.42676 51.1263 7.861 50.8301 7.20508C50.555 6.54915 50.2271 6.09424 49.8462 5.84033C49.4865 5.58643 48.8729 5.45947 48.0054 5.45947C47.159 5.45947 46.228 5.79801 45.2124 6.4751C43.2446 7.74463 41.499 9.91341 39.9756 12.9814Z" stroke="url(#paint8_linear_1_22249)" stroke-width="2.4" mask="url(#path-1-outside-1_1_22249)"/>
<path d="M72.3335 2.60303C73.3491 2.60303 73.8569 3.11084 73.8569 4.12646C73.8569 4.59196 73.7194 5.20557 73.4443 5.96729C73.4443 6.66553 73.5924 7.64941 73.8887 8.91895C74.1849 10.1885 74.4705 11.9023 74.7456 14.0605C75.0207 16.2188 75.4333 18.2077 75.9834 20.0273C77.1048 18.8001 78.1204 17.6893 79.0303 16.6948C83.5794 11.7225 86.3512 8.40055 87.3457 6.729C89.2077 3.68213 90.6676 2.15869 91.7256 2.15869C92.4873 2.15869 92.9634 2.51839 93.1538 3.23779C92.6883 7.9139 91.4505 13.32 89.4404 19.4561C87.4303 25.5921 86.1291 30.4375 85.5366 33.9922C85.4308 34.5212 85.1875 34.9549 84.8066 35.2935C84.4258 35.632 84.0661 35.8013 83.7275 35.8013C83.0293 35.8013 82.6379 35.3464 82.5532 34.4365C83.0187 30.5433 83.9709 26.576 85.4097 22.5347C86.8696 18.4933 88.1074 13.9971 89.123 9.0459L86.6475 12.0928C85.7799 13.1296 84.9653 14.1346 84.2036 15.1079C81.453 18.6414 78.9139 21.3604 76.5864 23.2646C76.1632 23.5186 75.7083 23.6455 75.2217 23.6455C74.7562 23.6455 74.3542 23.4339 74.0156 23.0107C73.6771 22.5664 73.3703 21.8682 73.0952 20.916C72.8202 19.9639 72.5451 18.7367 72.27 17.2344C72.0161 15.7321 71.6987 13.9124 71.3179 11.7754L71.0005 10.3472C67.2977 18.853 64.9173 24.5024 63.8594 27.2954C62.8226 30.0672 62.283 31.5272 62.2407 31.6753C62.2196 31.8234 62.1772 32.035 62.1138 32.3101C62.0715 32.5851 61.9974 32.839 61.8916 33.0718C62.0609 33.241 62.1455 33.5055 62.1455 33.8652C62.1455 34.2038 61.9445 34.5529 61.5425 34.9126C61.1616 35.2511 60.7173 35.4204 60.2095 35.4204C59.4689 35.4204 59.0986 35.0184 59.0986 34.2144C59.0986 30.6808 62.9919 20.5352 70.7783 3.77734C71.3285 2.99447 71.8468 2.60303 72.3335 2.60303Z" stroke="url(#paint9_linear_1_22249)" stroke-width="2.4" mask="url(#path-1-outside-1_1_22249)"/>
<path d="M100.883 35.2935C98.4072 35.2935 97.1694 33.7383 97.1694 30.6279C97.1694 27.5176 98.3226 23.709 100.629 19.2021C102.956 14.6742 105.686 10.7703 108.817 7.49072C111.949 4.18994 114.499 2.53955 116.466 2.53955C118.455 2.53955 119.587 3.40706 119.862 5.14209C119.947 5.67106 120.01 6.23177 120.053 6.82422C120.243 6.69727 120.476 6.63379 120.751 6.63379C121.745 6.63379 122.243 7.10986 122.243 8.06201V8.31592C122.243 8.37939 121.978 9.33154 121.449 11.1724C120.92 13.0132 120.317 16.0812 119.64 20.3765C118.963 24.6717 118.625 28.3428 118.625 31.3896C118.815 31.5166 119.037 31.6647 119.291 31.834C119.545 31.9821 119.862 32.2254 120.243 32.564C120.624 32.8813 120.814 33.2622 120.814 33.7065C120.814 34.1509 120.677 34.5529 120.402 34.9126C120.127 35.2511 119.735 35.4204 119.228 35.4204C118.191 35.4204 117.249 34.8914 116.403 33.8335C115.578 32.7756 115.165 31.633 115.165 30.4058C115.165 27.7609 115.884 23.2118 117.323 16.7583C115.525 20.5246 113.197 24.1533 110.341 27.6445C107.484 31.1357 105.506 33.2834 104.406 34.0874C103.327 34.8914 102.152 35.2935 100.883 35.2935ZM100.407 30.7549C100.407 31.5378 100.735 31.9292 101.391 31.9292C101.856 31.9292 102.248 31.7705 102.565 31.4531C106.945 27.6868 110.87 22.4712 114.34 15.8062C116.308 11.9976 117.344 9.80762 117.45 9.23633C117.577 8.66504 117.641 8.17839 117.641 7.77637C117.641 7.37435 117.535 6.99349 117.323 6.63379C117.112 6.27409 116.815 6.09424 116.435 6.09424C116.054 6.09424 115.493 6.29525 114.752 6.69727C113.123 7.58594 111.113 9.47966 108.722 12.3784C106.352 15.2772 104.374 18.4298 102.787 21.8364C101.2 25.243 100.407 28.2158 100.407 30.7549Z" stroke="url(#paint10_linear_1_22249)" stroke-width="2.4" mask="url(#path-1-outside-1_1_22249)"/>
<path d="M153.871 33.7065C153.871 35.2511 153.024 36.0234 151.332 36.0234C150.062 36.0234 149.12 35.6955 148.507 35.0396C147.914 34.3625 147.618 33.5161 147.618 32.5005C147.618 31.4849 147.883 29.6229 148.412 26.9146C148.962 24.1851 149.48 21.5614 149.967 19.0435C146.751 21.4344 143.831 22.6299 141.207 22.6299C139.26 22.6299 137.758 22.1009 136.7 21.043C136.552 21.7835 136.404 22.6616 136.256 23.6772C136.108 24.6929 135.896 26.1317 135.621 27.9937C134.817 33.1564 133.643 35.7378 132.098 35.7378C131.4 35.7378 131.008 35.2829 130.924 34.373C131.389 30.4798 132.437 24.8198 134.066 17.3931C135.716 9.94515 136.721 5.53353 137.081 4.1582C137.229 3.73503 137.483 3.37533 137.843 3.0791C138.202 2.76172 138.583 2.60303 138.985 2.60303C139.535 2.60303 139.906 2.97331 140.096 3.71387C140.054 4.72949 139.662 6.98291 138.922 10.4741C138.181 13.9653 137.705 16.4515 137.494 17.9326C138.488 19.0117 139.98 19.5513 141.969 19.5513C143.979 19.5513 146.169 18.5568 148.539 16.5679C149.279 15.9331 149.967 15.2454 150.602 14.5049C150.94 13.0449 151.268 11.6061 151.585 10.1885C151.903 8.74967 152.252 7.46956 152.633 6.34814C153.014 5.20557 153.447 4.28516 153.934 3.58691C154.442 2.88867 155.055 2.53955 155.775 2.53955C156.494 2.53955 156.854 2.95215 156.854 3.77734V4.09473C154.442 12.3678 152.94 18.3135 152.347 21.9316C151.755 25.5498 151.395 28.0254 151.268 29.3584C151.141 30.6914 151.056 31.4954 151.014 31.7705C150.972 32.0244 150.951 32.2889 150.951 32.564C150.951 32.8179 151.035 32.9448 151.205 32.9448C151.395 32.9448 151.564 32.8813 151.712 32.7544C151.882 32.6274 152.231 32.564 152.76 32.564C153.5 32.564 153.871 32.9448 153.871 33.7065Z" stroke="url(#paint11_linear_1_22249)" stroke-width="2.4" mask="url(#path-1-outside-1_1_22249)"/>
<path d="M185.562 26.5972C186.303 26.5972 186.673 26.9569 186.673 27.6763C186.673 28.2687 186.504 28.7025 186.165 28.9775C183.774 30.8184 181.489 32.5111 179.31 34.0557C178.95 36.0869 178.59 38.1287 178.23 40.1812C177.871 42.2336 177.437 44.4976 176.929 46.9731C176.443 49.4487 175.829 51.7762 175.088 53.9556C174.369 56.1561 173.311 58.0392 171.915 59.605C170.539 61.1707 168.815 61.9536 166.741 61.9536C164.689 61.9536 162.964 61.2448 161.568 59.8271C160.15 58.4307 159.441 56.6533 159.441 54.4951C159.441 52.3369 159.949 50.348 160.965 48.5283C161.959 46.7087 163.261 44.9313 164.869 43.1963C166.498 41.4824 168.318 39.7791 170.328 38.0864C172.359 36.4149 174.401 34.7222 176.453 33.0083C176.665 32.0562 176.929 30.9136 177.247 29.5806C177.564 28.2476 177.934 26.6818 178.357 24.8833C176.665 30.0672 174.528 33.4526 171.946 35.0396C171.1 35.5474 170.306 35.8013 169.566 35.8013C168.064 35.8013 166.815 35.1982 165.821 33.9922C164.847 32.7861 164.361 31.1781 164.361 29.168C164.361 25.4652 165.059 21.5508 166.456 17.4248C167.852 13.2777 169.778 9.7124 172.232 6.729C174.686 3.72445 177.374 2.22217 180.293 2.22217C181.775 2.22217 183.097 2.56071 184.261 3.23779C184.515 3.11084 184.8 3.04736 185.118 3.04736C185.816 3.04736 186.165 3.40706 186.165 4.12646C186.165 4.82471 186.038 5.51237 185.784 6.18945C184.578 9.38444 182.557 17.6152 179.722 30.8818C180.505 30.3317 181.288 29.6969 182.071 28.9775C182.875 28.2581 183.541 27.6868 184.07 27.2637C184.62 26.8193 185.118 26.5972 185.562 26.5972ZM169.312 17.9009C167.979 21.6037 167.312 24.9997 167.312 28.0889C167.312 31.1569 168.117 32.6909 169.725 32.6909C171.079 32.6909 172.645 31.4002 174.422 28.8188C176.199 26.2375 177.596 23.3493 178.611 20.1543C179.627 16.9593 180.463 14.124 181.119 11.6484C181.796 9.15169 182.346 7.15218 182.769 5.6499C182.092 5.07861 181.256 4.79297 180.262 4.79297C178.336 4.79297 176.368 6.05192 174.358 8.56982C172.348 11.0877 170.666 14.1981 169.312 17.9009ZM175.945 36.5312C172.01 39.7897 169.196 42.4134 167.503 44.4023C164.244 48.2744 162.615 51.3953 162.615 53.7651C162.615 56.1561 163.123 57.6584 164.139 58.272C164.583 58.547 165.25 58.6846 166.138 58.6846C167.048 58.6846 167.863 58.4941 168.582 58.1133C169.323 57.7324 170.021 57.013 170.677 55.9551C171.354 54.9183 172.01 53.4689 172.645 51.6069C173.3 49.7661 173.829 47.8618 174.231 45.894C174.655 43.9474 174.93 42.6038 175.057 41.8633C175.205 41.1227 175.332 40.4456 175.438 39.832C175.543 39.2184 175.628 38.6366 175.691 38.0864C175.776 37.5575 175.861 37.0391 175.945 36.5312Z" stroke="url(#paint12_linear_1_22249)" stroke-width="2.4" mask="url(#path-1-outside-1_1_22249)"/>
<path d="M194.878 35.2935C192.402 35.2935 191.165 33.7383 191.165 30.6279C191.165 27.5176 192.318 23.709 194.624 19.2021C196.951 14.6742 199.681 10.7703 202.812 7.49072C205.944 4.18994 208.494 2.53955 210.461 2.53955C212.45 2.53955 213.582 3.40706 213.857 5.14209C213.942 5.67106 214.006 6.23177 214.048 6.82422C214.238 6.69727 214.471 6.63379 214.746 6.63379C215.741 6.63379 216.238 7.10986 216.238 8.06201V8.31592C216.238 8.37939 215.973 9.33154 215.444 11.1724C214.915 13.0132 214.312 16.0812 213.635 20.3765C212.958 24.6717 212.62 28.3428 212.62 31.3896C212.81 31.5166 213.032 31.6647 213.286 31.834C213.54 31.9821 213.857 32.2254 214.238 32.564C214.619 32.8813 214.81 33.2622 214.81 33.7065C214.81 34.1509 214.672 34.5529 214.397 34.9126C214.122 35.2511 213.73 35.4204 213.223 35.4204C212.186 35.4204 211.244 34.8914 210.398 33.8335C209.573 32.7756 209.16 31.633 209.16 30.4058C209.16 27.7609 209.88 23.2118 211.318 16.7583C209.52 20.5246 207.192 24.1533 204.336 27.6445C201.479 31.1357 199.501 33.2834 198.401 34.0874C197.322 34.8914 196.147 35.2935 194.878 35.2935ZM194.402 30.7549C194.402 31.5378 194.73 31.9292 195.386 31.9292C195.851 31.9292 196.243 31.7705 196.56 31.4531C200.94 27.6868 204.865 22.4712 208.335 15.8062C210.303 11.9976 211.34 9.80762 211.445 9.23633C211.572 8.66504 211.636 8.17839 211.636 7.77637C211.636 7.37435 211.53 6.99349 211.318 6.63379C211.107 6.27409 210.811 6.09424 210.43 6.09424C210.049 6.09424 209.488 6.29525 208.748 6.69727C207.118 7.58594 205.108 9.47966 202.717 12.3784C200.347 15.2772 198.369 18.4298 196.782 21.8364C195.195 25.243 194.402 28.2158 194.402 30.7549Z" stroke="url(#paint13_linear_1_22249)" stroke-width="2.4" mask="url(#path-1-outside-1_1_22249)"/>
<defs>
<linearGradient id="paint0_linear_1_22249" x1="192.265" y1="-91.207" x2="242.027" y2="15.4315" gradientUnits="userSpaceOnUse">
<stop stop-color="white"/>
<stop offset="1" stop-color="white" stop-opacity="0.8"/>
</linearGradient>
<linearGradient id="paint1_linear_1_22249" x1="192.265" y1="-91.207" x2="242.027" y2="15.4315" gradientUnits="userSpaceOnUse">
<stop stop-color="white"/>
<stop offset="1" stop-color="white" stop-opacity="0.8"/>
</linearGradient>
<linearGradient id="paint2_linear_1_22249" x1="192.265" y1="-91.207" x2="242.027" y2="15.4315" gradientUnits="userSpaceOnUse">
<stop stop-color="white"/>
<stop offset="1" stop-color="white" stop-opacity="0.8"/>
</linearGradient>
<linearGradient id="paint3_linear_1_22249" x1="192.265" y1="-91.207" x2="242.027" y2="15.4315" gradientUnits="userSpaceOnUse">
<stop stop-color="white"/>
<stop offset="1" stop-color="white" stop-opacity="0.8"/>
</linearGradient>
<linearGradient id="paint4_linear_1_22249" x1="192.265" y1="-91.207" x2="242.027" y2="15.4315" gradientUnits="userSpaceOnUse">
<stop stop-color="white"/>
<stop offset="1" stop-color="white" stop-opacity="0.8"/>
</linearGradient>
<linearGradient id="paint5_linear_1_22249" x1="192.265" y1="-91.207" x2="242.027" y2="15.4315" gradientUnits="userSpaceOnUse">
<stop stop-color="white"/>
<stop offset="1" stop-color="white" stop-opacity="0.8"/>
</linearGradient>
<linearGradient id="paint6_linear_1_22249" x1="192.265" y1="-91.207" x2="242.027" y2="15.4315" gradientUnits="userSpaceOnUse">
<stop stop-color="white"/>
<stop offset="1" stop-color="white" stop-opacity="0.8"/>
</linearGradient>
<linearGradient id="paint7_linear_1_22249" x1="192.265" y1="-91.207" x2="242.027" y2="15.4315" gradientUnits="userSpaceOnUse">
<stop stop-color="white"/>
<stop offset="1" stop-color="white" stop-opacity="0.8"/>
</linearGradient>
<linearGradient id="paint8_linear_1_22249" x1="192.265" y1="-91.207" x2="242.027" y2="15.4315" gradientUnits="userSpaceOnUse">
<stop stop-color="white"/>
<stop offset="1" stop-color="white" stop-opacity="0.8"/>
</linearGradient>
<linearGradient id="paint9_linear_1_22249" x1="192.265" y1="-91.207" x2="242.027" y2="15.4315" gradientUnits="userSpaceOnUse">
<stop stop-color="white"/>
<stop offset="1" stop-color="white" stop-opacity="0.8"/>
</linearGradient>
<linearGradient id="paint10_linear_1_22249" x1="192.265" y1="-91.207" x2="242.027" y2="15.4315" gradientUnits="userSpaceOnUse">
<stop stop-color="white"/>
<stop offset="1" stop-color="white" stop-opacity="0.8"/>
</linearGradient>
<linearGradient id="paint11_linear_1_22249" x1="192.265" y1="-91.207" x2="242.027" y2="15.4315" gradientUnits="userSpaceOnUse">
<stop stop-color="white"/>
<stop offset="1" stop-color="white" stop-opacity="0.8"/>
</linearGradient>
<linearGradient id="paint12_linear_1_22249" x1="192.265" y1="-91.207" x2="242.027" y2="15.4315" gradientUnits="userSpaceOnUse">
<stop stop-color="white"/>
<stop offset="1" stop-color="white" stop-opacity="0.8"/>
</linearGradient>
<linearGradient id="paint13_linear_1_22249" x1="192.265" y1="-91.207" x2="242.027" y2="15.4315" gradientUnits="userSpaceOnUse">
<stop stop-color="white"/>
<stop offset="1" stop-color="white" stop-opacity="0.8"/>
</linearGradient>
</defs>
</svg>
