<svg width="760" height="171" viewBox="0 0 760 171" fill="none" xmlns="http://www.w3.org/2000/svg">
<g clip-path="url(#clip0_79_56286)">
<path d="M0 25.0996C0 11.2925 11.1929 0.0996094 25 0.0996094H735C748.807 0.0996094 760 11.2925 760 25.0996V145.1C760 158.907 748.807 170.1 735 170.1H25C11.1929 170.1 0 158.907 0 145.1V25.0996Z" fill="white"/>
<circle opacity="0.1" cx="612.5" cy="232.943" r="197.5" fill="#007AFF"/>
</g>
<path d="M25 0.599609H735C748.531 0.599609 759.5 11.5686 759.5 25.0996V145.1C759.5 158.631 748.531 169.6 735 169.6H25C11.469 169.6 0.500001 158.631 0.5 145.1V25.0996C0.500002 11.5686 11.469 0.59961 25 0.599609Z" stroke="#007AFF"/>
<defs>
<clipPath id="clip0_79_56286">
<path d="M0 25.0996C0 11.2925 11.1929 0.0996094 25 0.0996094H735C748.807 0.0996094 760 11.2925 760 25.0996V145.1C760 158.907 748.807 170.1 735 170.1H25C11.1929 170.1 0 158.907 0 145.1V25.0996Z" fill="white"/>
</clipPath>
</defs>
</svg>
