<svg width="340" height="481" viewBox="0 0 340 481" fill="none" xmlns="http://www.w3.org/2000/svg">
<g clip-path="url(#clip0_1_20507)">
<path d="M0 25.0996C0 11.2925 11.1929 0.0996094 25 0.0996094H315C328.807 0.0996094 340 11.2925 340 25.0996V455.1C340 468.907 328.807 480.1 315 480.1H25C11.1929 480.1 0 468.907 0 455.1V25.0996Z" fill="url(#paint0_linear_1_20507)"/>
<path opacity="0.4" fill-rule="evenodd" clip-rule="evenodd" d="M438.248 473.1H602.199C602.199 338.84 493.36 230 359.1 230C224.839 230 116 338.84 116 473.1H279.951C279.951 429.387 315.387 393.951 359.1 393.951C402.813 393.951 438.248 429.387 438.248 473.1Z" fill="url(#paint1_linear_1_20507)"/>
</g>
<defs>
<linearGradient id="paint0_linear_1_20507" x1="170" y1="0.0996094" x2="170" y2="595.3" gradientUnits="userSpaceOnUse">
<stop stop-color="#03B0FF"/>
<stop offset="0.504808" stop-color="#0686FF"/>
<stop offset="1" stop-color="#0C88FA"/>
</linearGradient>
<linearGradient id="paint1_linear_1_20507" x1="641.44" y1="84.5231" x2="469.663" y2="592.657" gradientUnits="userSpaceOnUse">
<stop stop-color="white"/>
<stop offset="1" stop-color="white" stop-opacity="0.15"/>
</linearGradient>
<clipPath id="clip0_1_20507">
<path d="M0 25.0996C0 11.2925 11.1929 0.0996094 25 0.0996094H315C328.807 0.0996094 340 11.2925 340 25.0996V455.1C340 468.907 328.807 480.1 315 480.1H25C11.1929 480.1 0 468.907 0 455.1V25.0996Z" fill="white"/>
</clipPath>
</defs>
</svg>
