<svg width="340" height="521" viewBox="0 0 340 521" fill="none" xmlns="http://www.w3.org/2000/svg">
<g clip-path="url(#clip0_1_20475)">
<path d="M0 25.0996C0 11.2925 11.1929 0.0996094 25 0.0996094H315C328.807 0.0996094 340 11.2925 340 25.0996V495.1C340 508.907 328.807 520.1 315 520.1H25C11.1929 520.1 0 508.907 0 495.1V25.0996Z" fill="white"/>
<circle opacity="0.1" cx="288.5" cy="415.6" r="197.5" fill="#007AFF"/>
</g>
<path d="M25 0.599609H315C328.531 0.599609 339.5 11.5686 339.5 25.0996V495.1C339.5 508.631 328.531 519.6 315 519.6H25C11.469 519.6 0.5 508.631 0.5 495.1V25.0996C0.500001 11.5686 11.469 0.59961 25 0.599609Z" stroke="#007AFF"/>
<defs>
<clipPath id="clip0_1_20475">
<path d="M0 25.0996C0 11.2925 11.1929 0.0996094 25 0.0996094H315C328.807 0.0996094 340 11.2925 340 25.0996V495.1C340 508.907 328.807 520.1 315 520.1H25C11.1929 520.1 0 508.907 0 495.1V25.0996Z" fill="white"/>
</clipPath>
</defs>
</svg>
