<svg width="340" height="266" viewBox="0 0 340 266" fill="none" xmlns="http://www.w3.org/2000/svg">
<g clip-path="url(#clip0_79_58804)">
<path d="M0 25.0996C0 11.2925 11.1929 0.0996094 25 0.0996094H315C328.807 0.0996094 340 11.2925 340 25.0996V240.1C340 253.907 328.807 265.1 315 265.1H25C11.1929 265.1 0 253.907 0 240.1V25.0996Z" fill="white"/>
<circle opacity="0.1" cx="497.5" cy="232.943" r="197.5" fill="#007AFF"/>
</g>
<path d="M25 0.599609H315C328.531 0.599611 339.5 11.5686 339.5 25.0996V240.1C339.5 253.631 328.531 264.6 315 264.6H25C11.469 264.6 0.5 253.631 0.5 240.1V25.0996L0.507812 24.4668C0.843451 11.2283 11.6806 0.59961 25 0.599609Z" stroke="#007AFF"/>
<defs>
<clipPath id="clip0_79_58804">
<path d="M0 25.0996C0 11.2925 11.1929 0.0996094 25 0.0996094H315C328.807 0.0996094 340 11.2925 340 25.0996V240.1C340 253.907 328.807 265.1 315 265.1H25C11.1929 265.1 0 253.907 0 240.1V25.0996Z" fill="white"/>
</clipPath>
</defs>
</svg>
