<svg width="370" height="361" viewBox="0 0 370 361" fill="none" xmlns="http://www.w3.org/2000/svg">
<g clip-path="url(#clip0_79_56162)">
<path d="M0 40.0996C0 18.0082 17.9086 0.0996094 40 0.0996094H330C352.091 0.0996094 370 18.0082 370 40.0996V320.1C370 342.191 352.091 360.1 330 360.1H40C17.9086 360.1 0 342.191 0 320.1V40.0996Z" fill="#007AFF"/>
<path opacity="0.4" d="M161.145 -152.552C175.977 -167.104 199.796 -166.877 214.348 -152.045L516.826 156.251C531.377 171.082 531.15 194.902 516.319 209.454L208.023 511.931C193.191 526.483 169.371 526.256 154.819 511.425L-147.658 203.128C-162.21 188.297 -161.983 164.477 -147.151 149.925L161.145 -152.552Z" fill="url(#paint0_linear_79_56162)"/>
<path opacity="0.4" d="M165.821 -82.1215C177.518 -93.5974 196.303 -93.4184 207.779 -81.7218L446.32 161.408C457.796 173.105 457.617 191.89 445.921 203.366L202.79 441.907C191.094 453.383 172.309 453.204 160.833 441.508L-77.7086 198.377C-89.1845 186.681 -89.0055 167.896 -77.3089 156.42L165.821 -82.1215Z" fill="url(#paint1_linear_79_56162)"/>
<path opacity="0.4" d="M171.457 -12.6503C180.041 -21.0727 193.828 -20.9413 202.25 -12.3569L377.321 166.082C385.744 174.666 385.612 188.453 377.028 196.876L198.589 371.947C190.004 380.369 176.218 380.238 167.795 371.653L-7.27582 193.214C-15.6982 184.63 -15.5669 170.843 -6.98245 162.421L171.457 -12.6503Z" fill="url(#paint2_linear_79_56162)"/>
<path opacity="0.4" d="M176.348 48.5501C182.231 42.7784 191.679 42.8684 197.45 48.7511L317.422 171.03C323.193 176.913 323.103 186.361 317.221 192.132L194.942 312.103C189.059 317.875 179.611 317.785 173.84 311.902L53.8684 189.623C48.0967 183.741 48.1867 174.293 54.0694 168.521L176.348 48.5501Z" fill="url(#paint3_linear_79_56162)"/>
</g>
<defs>
<linearGradient id="paint0_linear_79_56162" x1="788.473" y1="-0.222006" x2="-174.006" y2="176.273" gradientUnits="userSpaceOnUse">
<stop stop-color="white"/>
<stop offset="1" stop-color="white" stop-opacity="0.15"/>
</linearGradient>
<linearGradient id="paint1_linear_79_56162" x1="660.548" y1="38.01" x2="-98.4875" y2="177.199" gradientUnits="userSpaceOnUse">
<stop stop-color="white"/>
<stop offset="1" stop-color="white" stop-opacity="0.15"/>
</linearGradient>
<linearGradient id="paint2_linear_79_56162" x1="534.548" y1="75.517" x2="-22.5259" y2="177.671" gradientUnits="userSpaceOnUse">
<stop stop-color="white"/>
<stop offset="1" stop-color="white" stop-opacity="0.15"/>
</linearGradient>
<linearGradient id="paint3_linear_79_56162" x1="425.165" y1="108.969" x2="43.4179" y2="178.972" gradientUnits="userSpaceOnUse">
<stop stop-color="white"/>
<stop offset="1" stop-color="white" stop-opacity="0.15"/>
</linearGradient>
<clipPath id="clip0_79_56162">
<path d="M0 40.0996C0 18.0082 17.9086 0.0996094 40 0.0996094H330C352.091 0.0996094 370 18.0082 370 40.0996V320.1C370 342.191 352.091 360.1 330 360.1H40C17.9086 360.1 0 342.191 0 320.1V40.0996Z" fill="white"/>
</clipPath>
</defs>
</svg>
