<svg width="40" height="41" viewBox="0 0 40 41" fill="none" xmlns="http://www.w3.org/2000/svg">
<path d="M0 10.0996C0 4.57676 4.47715 0.0996094 10 0.0996094H30C35.5228 0.0996094 40 4.57676 40 10.0996V30.0996C40 35.6225 35.5228 40.0996 30 40.0996H10C4.47715 40.0996 0 35.6225 0 30.0996V10.0996Z" fill="#818C99" fill-opacity="0.1"/>
<path d="M12.5624 15.2755C13.9764 15.2755 15.1228 14.1174 15.1228 12.6888C15.1228 11.2602 13.9764 10.1021 12.5624 10.1021C11.1483 10.1021 10.002 11.2602 10.002 12.6888C10.002 14.1174 11.1483 15.2755 12.5624 15.2755Z" fill="#171717"/>
<path d="M27.438 15.276C28.8521 15.276 29.9984 14.1179 29.9984 12.6893C29.9984 11.2607 28.8521 10.1025 27.438 10.1025C26.0239 10.1025 24.8776 11.2607 24.8776 12.6893C24.8776 14.1179 26.0239 15.276 27.438 15.276Z" fill="#171717"/>
<path d="M20.0022 22.6879C21.4163 22.6879 22.5627 21.5298 22.5627 20.1012C22.5627 18.6726 21.4163 17.5145 20.0022 17.5145C18.5882 17.5145 17.4418 18.6726 17.4418 20.1012C17.4418 21.5298 18.5882 22.6879 20.0022 22.6879Z" fill="#171717"/>
<path d="M12.5626 30.098C13.9767 30.098 15.123 28.9399 15.123 27.5113C15.123 26.0827 13.9767 24.9246 12.5626 24.9246C11.1485 24.9246 10.0022 26.0827 10.0022 27.5113C10.0022 28.9399 11.1485 30.098 12.5626 30.098Z" fill="#171717"/>
<path d="M27.4382 30.098C28.8523 30.098 29.9986 28.9399 29.9986 27.5113C29.9986 26.0827 28.8523 24.9246 27.4382 24.9246C26.0241 24.9246 24.8778 26.0827 24.8778 27.5113C24.8778 28.9399 26.0241 30.098 27.4382 30.098Z" fill="#171717"/>
<path d="M20.2463 24.9367C20.2257 24.935 20.2043 24.9332 20.1837 24.9315C19.2151 24.8631 18.303 24.4466 17.6121 23.7581L16.3109 22.4617C15.6149 21.768 15.2009 20.8432 15.1117 19.8594C15.1109 19.8499 15.11 19.8395 15.1091 19.8299C14.9849 18.5994 13.9871 17.6173 12.7656 17.5221C11.1901 17.3991 9.8863 18.718 10.0106 20.3106C10.1075 21.5507 11.0907 22.5604 12.3164 22.6756C12.337 22.6773 12.3584 22.6791 12.379 22.6808C13.3476 22.7492 14.2597 23.1658 14.9514 23.8542L16.2526 25.1506C16.9487 25.8443 17.3627 26.7692 17.4518 27.7529C17.4527 27.7624 17.4535 27.7728 17.4544 27.7824C17.5787 29.0129 18.5773 29.995 19.798 30.0902C21.3735 30.2132 22.6773 28.8943 22.553 27.3017C22.4561 26.0616 21.472 25.0519 20.2471 24.9367H20.2463Z" fill="#171717"/>
<path d="M27.6524 17.523C27.6422 17.523 27.6327 17.5212 27.6224 17.5204C26.6178 17.4485 25.6689 17.0328 24.9566 16.3132L23.7411 15.0852C23.0459 14.3829 22.6353 13.4502 22.5505 12.4595C22.5505 12.45 22.5488 12.4396 22.5479 12.4301C22.4296 11.1969 21.4327 10.2088 20.2103 10.1101C18.6314 9.98275 17.3225 11.3043 17.4485 12.9003C17.5462 14.1361 18.5234 15.1423 19.7449 15.2627C19.7543 15.2636 19.7646 15.2645 19.774 15.2653C20.7538 15.3502 21.677 15.7659 22.373 16.4682L23.6922 17.8009C24.3771 18.4929 24.7903 19.4065 24.8932 20.3799C24.894 20.3894 24.8949 20.3989 24.8966 20.4085C25.038 21.6252 26.0315 22.5864 27.2401 22.6791C28.8114 22.7986 30.1109 21.484 29.9909 19.8967C29.8957 18.6427 28.8937 17.6252 27.6524 17.5221V17.523Z" fill="#171717"/>
</svg>
