<svg width="40" height="41" viewBox="0 0 40 41" fill="none" xmlns="http://www.w3.org/2000/svg">
<path d="M0 10.5996C0 5.07676 4.47715 0.599609 10 0.599609H30C35.5228 0.599609 40 5.07676 40 10.5996V30.5996C40 36.1225 35.5228 40.5996 30 40.5996H10C4.47715 40.5996 0 36.1225 0 30.5996V10.5996Z" fill="#818C99" fill-opacity="0.04"/>
<path d="M10 1.09961H30C35.2467 1.09961 39.5 5.3529 39.5 10.5996V30.5996C39.5 35.8463 35.2467 40.0996 30 40.0996H10C4.7533 40.0996 0.5 35.8463 0.5 30.5996V10.5996C0.5 5.3529 4.7533 1.09961 10 1.09961Z" stroke="#171717" stroke-opacity="0.04"/>
<path d="M5 20.0234V13.2281H6.80652V16.2158H6.83431L9.32175 13.2281H11.4896L8.97435 16.1464L11.6424 20.0234H9.54409L7.6403 17.1886L6.80652 18.1474V20.0234H5Z" fill="#0047FF"/>
<path d="M15.1667 20.1485C13.3046 20.1485 11.9288 18.745 11.9288 16.6466C11.9288 14.59 13.3046 13.1309 15.125 13.1309C15.9171 13.1309 16.6397 13.4366 17.1261 14.0202L17.1539 14.0063V13.2281H18.9743V20.0234H17.2372V19.2174L17.2094 19.2035C16.737 19.815 16.056 20.1485 15.1667 20.1485ZM15.5141 18.5087C16.4451 18.5087 17.2372 17.7722 17.2372 16.6605C17.2372 15.5627 16.4868 14.7567 15.5141 14.7567C14.5275 14.7567 13.7771 15.4932 13.7771 16.6605C13.7771 17.7444 14.4858 18.5087 15.5141 18.5087Z" fill="#0047FF"/>
<path d="M20.7215 20.0234V13.2281H26.7803V20.0234H24.9599V14.7706H22.5419V20.0234H20.7215Z" fill="#0047FF"/>
<path d="M28.5959 20.0234V13.2281H30.4024V17.5499H30.4302L33.2511 13.2281H34.9743V20.0234H33.1678V15.8962H33.14L30.3468 20.0234H28.5959Z" fill="#0047FF"/>
<path d="M5.04437 28.4509V21.9866H10.8081V28.4509H9.07634V23.454H6.77613V28.4509H5.04437Z" fill="#6A4CFF"/>
<path d="M15.2461 28.5699C13.4746 28.5699 12.1659 27.2347 12.1659 25.2386C12.1659 23.2821 13.4746 21.894 15.2064 21.894C15.9599 21.894 16.6473 22.1849 17.11 22.7401L17.1365 22.7269V21.9866H18.8682V28.4509H17.2158V27.6842L17.1893 27.671C16.7399 28.2527 16.0921 28.5699 15.2461 28.5699ZM15.5766 27.01C16.4623 27.01 17.2158 26.3094 17.2158 25.2518C17.2158 24.2075 16.5019 23.4407 15.5766 23.4407C14.638 23.4407 13.9241 24.1414 13.9241 25.2518C13.9241 26.2829 14.5983 27.01 15.5766 27.01Z" fill="#6A4CFF"/>
<path d="M20.5312 31.0684V21.9866H22.263V22.7269H22.2894C22.7521 22.1849 23.4395 21.894 24.2327 21.894C25.9777 21.894 27.2864 23.2821 27.2864 25.2386C27.2864 27.2347 25.9777 28.5699 24.1798 28.5699C23.3734 28.5699 22.7389 28.2659 22.2894 27.7239L22.263 27.7371V31.0684H20.5312ZM23.8758 27.01C24.8408 27.01 25.5282 26.2829 25.5282 25.2518C25.5282 24.1414 24.7879 23.4407 23.8625 23.4407C22.8711 23.4407 22.1837 24.2075 22.1837 25.2518C22.1837 26.3094 22.924 27.01 23.8758 27.01Z" fill="#6A4CFF"/>
<path d="M31.3784 28.5699C29.607 28.5699 28.2982 27.2347 28.2982 25.2386C28.2982 23.2821 29.607 21.894 31.3387 21.894C32.0923 21.894 32.7797 22.1849 33.2424 22.7401L33.2688 22.7269V21.9866H35.0006V28.4509H33.3481V27.6842L33.3217 27.671C32.8722 28.2527 32.2245 28.5699 31.3784 28.5699ZM31.7089 27.01C32.5946 27.01 33.3481 26.3094 33.3481 25.2518C33.3481 24.2075 32.6343 23.4407 31.7089 23.4407C30.7703 23.4407 30.0564 24.1414 30.0564 25.2518C30.0564 26.2829 30.7306 27.01 31.7089 27.01Z" fill="#6A4CFF"/>
</svg>
