<svg width="300" height="51" viewBox="0 0 300 51" fill="none" xmlns="http://www.w3.org/2000/svg">
<rect y="0.0996094" width="50" height="50" rx="13.5417" fill="url(#paint0_linear_20_5998)"/>
<path d="M15.707 26.0576H24.0039V34.3555C24.0038 38.9377 20.2892 42.6522 15.707 42.6523C11.1247 42.6523 7.40933 38.9378 7.40918 34.3555C7.40918 29.773 11.1246 26.0576 15.707 26.0576Z" fill="white" stroke="white" stroke-width="0.237063"/>
<path d="M15.707 7.32715C20.2893 7.3273 24.0039 11.0427 24.0039 15.625C24.0038 20.2072 20.2892 23.9217 15.707 23.9219C11.1247 23.9219 7.40933 20.2073 7.40918 15.625C7.40918 11.0426 11.1246 7.32715 15.707 7.32715Z" fill="white" stroke="white" stroke-width="0.237063"/>
<path d="M26.6084 7.32812C34.8678 7.39162 41.5439 14.1065 41.5439 22.3809V42.6475C33.2847 42.5839 26.6085 35.8709 26.6084 27.5967V7.32812Z" fill="white" stroke="white" stroke-width="0.237063"/>
<path d="M64.0624 20.3709C63.2931 20.3709 62.6002 20.2339 61.9838 19.9599C61.3726 19.6806 60.8878 19.2697 60.5295 18.727C60.1765 18.1843 60 17.5151 60 16.7195C60 16.0345 60.1265 15.4681 60.3794 15.0202C60.6323 14.5724 60.9774 14.2141 61.4147 13.9454C61.852 13.6767 62.3447 13.4738 62.8927 13.3368C63.4459 13.1946 64.0176 13.0918 64.6077 13.0286C65.319 12.9548 65.896 12.889 66.3386 12.831C66.7811 12.7678 67.1026 12.6729 67.3028 12.5465C67.5083 12.4148 67.611 12.2119 67.611 11.9379V11.8905C67.611 11.2951 67.4345 10.8341 67.0815 10.5074C66.7285 10.1807 66.22 10.0174 65.5561 10.0174C64.8553 10.0174 64.2995 10.1702 63.8885 10.4758C63.4828 10.7814 63.2088 11.1423 63.0665 11.5585L60.3952 11.1792C60.6059 10.4415 60.9537 9.82506 61.4384 9.32978C61.9232 8.82923 62.5159 8.45513 63.2167 8.20749C63.9175 7.95458 64.692 7.82812 65.5403 7.82812C66.1252 7.82812 66.7074 7.89662 67.287 8.03361C67.8666 8.17061 68.3961 8.39717 68.8756 8.71331C69.355 9.02418 69.7397 9.44833 70.0295 9.98576C70.3245 10.5232 70.4721 11.195 70.4721 12.0011V20.1259H67.7217V18.4582H67.6268C67.4529 18.7955 67.2079 19.1116 66.8918 19.4067C66.5809 19.6964 66.1884 19.9309 65.7142 20.1101C65.2452 20.2839 64.6946 20.3709 64.0624 20.3709ZM64.8053 18.2686C65.3796 18.2686 65.8775 18.1553 66.299 17.9287C66.7206 17.6969 67.0446 17.3913 67.2712 17.0119C67.503 16.6326 67.6189 16.2189 67.6189 15.7711V14.3406C67.5293 14.4143 67.3765 14.4828 67.1605 14.546C66.9498 14.6093 66.7127 14.6646 66.4492 14.712C66.1858 14.7594 65.9249 14.8016 65.6668 14.8385C65.4086 14.8754 65.1847 14.907 64.995 14.9333C64.5682 14.9913 64.1862 15.0861 63.849 15.2178C63.5118 15.3496 63.2457 15.534 63.0507 15.7711C62.8558 16.0029 62.7583 16.3032 62.7583 16.6721C62.7583 17.199 62.9506 17.5968 63.3352 17.8655C63.7199 18.1342 64.2099 18.2686 64.8053 18.2686Z" fill="#171717"/>
<path d="M71.1802 10.3335V7.98619H81.8024V10.3335H77.8744V20.1259H75.1082V10.3335H71.1802Z" fill="#171717"/>
<path d="M81.4337 20.1259L81.4179 17.7706H81.8368C82.1529 17.7706 82.419 17.6995 82.635 17.5573C82.8511 17.415 83.0302 17.1779 83.1725 16.8459C83.3147 16.5087 83.4254 16.0556 83.5044 15.4866C83.5835 14.9175 83.6388 14.2088 83.6704 13.3605L83.8838 7.98619H92.7356V20.1259H89.9694V10.3335H86.484L86.2943 14.2457C86.2469 15.2574 86.1336 16.1346 85.9545 16.8776C85.7806 17.6152 85.533 18.2238 85.2116 18.7033C84.8954 19.1827 84.4976 19.541 84.0182 19.7781C83.5387 20.01 82.9723 20.1259 82.3189 20.1259H81.4337Z" fill="#171717"/>
<path d="M98.3005 20.3709C97.5312 20.3709 96.8383 20.2339 96.2218 19.9599C95.6106 19.6806 95.1259 19.2697 94.7676 18.727C94.4146 18.1843 94.2381 17.5151 94.2381 16.7195C94.2381 16.0345 94.3645 15.4681 94.6175 15.0202C94.8704 14.5724 95.2155 14.2141 95.6528 13.9454C96.0901 13.6767 96.5828 13.4738 97.1307 13.3368C97.684 13.1946 98.2557 13.0918 98.8458 13.0286C99.5571 12.9548 100.134 12.889 100.577 12.831C101.019 12.7678 101.341 12.6729 101.541 12.5465C101.746 12.4148 101.849 12.2119 101.849 11.9379V11.8905C101.849 11.2951 101.673 10.8341 101.32 10.5074C100.967 10.1807 100.458 10.0174 99.7942 10.0174C99.0934 10.0174 98.5376 10.1702 98.1266 10.4758C97.7209 10.7814 97.4469 11.1423 97.3046 11.5585L94.6333 11.1792C94.844 10.4415 95.1918 9.82506 95.6765 9.32978C96.1613 8.82923 96.754 8.45513 97.4548 8.20749C98.1556 7.95458 98.9301 7.82812 99.7784 7.82812C100.363 7.82812 100.945 7.89662 101.525 8.03361C102.105 8.17061 102.634 8.39717 103.114 8.71331C103.593 9.02418 103.978 9.44833 104.268 9.98576C104.563 10.5232 104.71 11.195 104.71 12.0011V20.1259H101.96V18.4582H101.865C101.691 18.7955 101.446 19.1116 101.13 19.4067C100.819 19.6964 100.426 19.9309 99.9523 20.1101C99.4833 20.2839 98.9327 20.3709 98.3005 20.3709ZM99.0434 18.2686C99.6177 18.2686 100.116 18.1553 100.537 17.9287C100.959 17.6969 101.283 17.3913 101.509 17.0119C101.741 16.6326 101.857 16.2189 101.857 15.7711V14.3406C101.767 14.4143 101.615 14.4828 101.399 14.546C101.188 14.6093 100.951 14.6646 100.687 14.712C100.424 14.7594 100.163 14.8016 99.9049 14.8385C99.6467 14.8754 99.4227 14.907 99.2331 14.9333C98.8063 14.9913 98.4243 15.0861 98.0871 15.2178C97.7498 15.3496 97.4838 15.534 97.2888 15.7711C97.0939 16.0029 96.9964 16.3032 96.9964 16.6721C96.9964 17.199 97.1887 17.5968 97.5733 17.8655C97.958 18.1342 98.448 18.2686 99.0434 18.2686Z" fill="#171717"/>
<path d="M112.073 20.363C110.861 20.363 109.821 20.0969 108.951 19.5647C108.087 19.0326 107.42 18.2975 106.952 17.3597C106.488 16.4165 106.256 15.3311 106.256 14.1035C106.256 12.8705 106.493 11.7825 106.967 10.8393C107.442 9.89092 108.111 9.15327 108.975 8.62637C109.844 8.09421 110.872 7.82812 112.057 7.82812C113.042 7.82812 113.914 8.0099 114.673 8.37346C115.437 8.73175 116.046 9.24021 116.499 9.89882C116.952 10.5522 117.21 11.3162 117.273 12.1908H114.539C114.428 11.606 114.165 11.1186 113.749 10.7287C113.338 10.3335 112.787 10.1359 112.097 10.1359C111.512 10.1359 110.998 10.294 110.556 10.6101C110.113 10.921 109.768 11.3689 109.52 11.9537C109.278 12.5386 109.157 13.2393 109.157 14.056C109.157 14.8833 109.278 15.5946 109.52 16.19C109.763 16.7801 110.102 17.2358 110.54 17.5573C110.982 17.8734 111.501 18.0315 112.097 18.0315C112.518 18.0315 112.895 17.9524 113.227 17.7944C113.564 17.631 113.846 17.3965 114.073 17.091C114.299 16.7853 114.455 16.4139 114.539 15.9766H117.273C117.205 16.8354 116.952 17.5968 116.515 18.2607C116.077 18.9193 115.482 19.4356 114.729 19.8097C113.975 20.1786 113.09 20.363 112.073 20.363Z" fill="#171717"/>
<path d="M68.8494 29.1893V39.3711H67.6165V30.283H62.4858V39.3711H61.2528V29.1893H68.8494ZM71.1274 42.2347V31.7347H72.2609V32.9478H72.4001C72.4863 32.8152 72.6056 32.6462 72.7581 32.4407C72.9138 32.2319 73.1359 32.0463 73.4243 31.8839C73.7159 31.7182 74.1103 31.6353 74.6075 31.6353C75.2505 31.6353 75.8172 31.796 76.3078 32.1175C76.7983 32.439 77.1811 32.8948 77.4562 33.4847C77.7313 34.0747 77.8689 34.7707 77.8689 35.5728C77.8689 36.3815 77.7313 37.0825 77.4562 37.6758C77.1811 38.2657 76.8 38.7231 76.3127 39.0479C75.8255 39.3694 75.2637 39.5302 74.6274 39.5302C74.1368 39.5302 73.7441 39.449 73.4491 39.2866C73.1541 39.1209 72.9271 38.9336 72.768 38.7248C72.6089 38.5127 72.4863 38.337 72.4001 38.1978H72.3007V42.2347H71.1274ZM72.2808 35.5529C72.2808 36.1296 72.3653 36.6384 72.5343 37.0792C72.7034 37.5167 72.9503 37.8597 73.2751 38.1083C73.5999 38.3536 73.9976 38.4762 74.4683 38.4762C74.9588 38.4762 75.3681 38.3469 75.6963 38.0884C76.0277 37.8266 76.2763 37.4753 76.442 37.0344C76.611 36.5903 76.6956 36.0965 76.6956 35.5529C76.6956 35.016 76.6127 34.5321 76.447 34.1012C76.2846 33.667 76.0377 33.324 75.7062 33.0721C75.3781 32.8169 74.9654 32.6893 74.4683 32.6893C73.991 32.6893 73.59 32.8103 73.2652 33.0522C72.9404 33.2908 72.6951 33.6256 72.5294 34.0565C72.3636 34.484 72.2808 34.9828 72.2808 35.5529ZM82.7109 39.5302C82.0215 39.5302 81.4166 39.3661 80.8963 39.038C80.3792 38.7099 79.9749 38.2508 79.6832 37.6609C79.3949 37.0709 79.2507 36.3815 79.2507 35.5927C79.2507 34.7972 79.3949 34.1029 79.6832 33.5096C79.9749 32.9163 80.3792 32.4556 80.8963 32.1275C81.4166 31.7994 82.0215 31.6353 82.7109 31.6353C83.4003 31.6353 84.0035 31.7994 84.5206 32.1275C85.0409 32.4556 85.4453 32.9163 85.7336 33.5096C86.0253 34.1029 86.1711 34.7972 86.1711 35.5927C86.1711 36.3815 86.0253 37.0709 85.7336 37.6609C85.4453 38.2508 85.0409 38.7099 84.5206 39.038C84.0035 39.3661 83.4003 39.5302 82.7109 39.5302ZM82.7109 38.4762C83.2346 38.4762 83.6654 38.342 84.0035 38.0735C84.3416 37.805 84.5918 37.4521 84.7542 37.0146C84.9166 36.5771 84.9978 36.1031 84.9978 35.5927C84.9978 35.0823 84.9166 34.6067 84.7542 34.1658C84.5918 33.725 84.3416 33.3687 84.0035 33.0969C83.6654 32.8252 83.2346 32.6893 82.7109 32.6893C82.1872 32.6893 81.7564 32.8252 81.4183 33.0969C81.0802 33.3687 80.83 33.725 80.6676 34.1658C80.5052 34.6067 80.424 35.0823 80.424 35.5927C80.424 36.1031 80.5052 36.5771 80.6676 37.0146C80.83 37.4521 81.0802 37.805 81.4183 38.0735C81.7564 38.342 82.1872 38.4762 82.7109 38.4762ZM91.1139 39.5302C90.3781 39.5302 89.7433 39.3678 89.2097 39.043C88.6794 38.7148 88.2701 38.2575 87.9817 37.6708C87.6967 37.0808 87.5542 36.3948 87.5542 35.6126C87.5542 34.8304 87.6967 34.141 87.9817 33.5444C88.2701 32.9445 88.6711 32.4772 89.1849 32.1424C89.7019 31.8043 90.3051 31.6353 90.9945 31.6353C91.3923 31.6353 91.785 31.7016 92.1728 31.8342C92.5606 31.9667 92.9136 32.1822 93.2317 32.4805C93.5499 32.7754 93.8035 33.1665 93.9924 33.6538C94.1813 34.141 94.2758 34.7409 94.2758 35.4535V35.9506H88.3894V34.9364H93.0826C93.0826 34.5056 92.9964 34.1211 92.8241 33.783C92.655 33.445 92.4131 33.1781 92.0982 32.9826C91.7867 32.787 91.4188 32.6893 90.9945 32.6893C90.5272 32.6893 90.1228 32.8053 89.7815 33.0373C89.4434 33.266 89.1832 33.5643 89.0009 33.9322C88.8186 34.3001 88.7275 34.6945 88.7275 35.1154V35.7915C88.7275 36.3683 88.8269 36.8571 89.0258 37.2582C89.228 37.6559 89.508 37.9592 89.866 38.168C90.2239 38.3735 90.6399 38.4762 91.1139 38.4762C91.4221 38.4762 91.7005 38.4331 91.9491 38.3469C92.201 38.2575 92.4181 38.1249 92.6004 37.9492C92.7826 37.7702 92.9235 37.5482 93.0229 37.283L94.1565 37.6012C94.0371 37.9857 93.8366 38.3237 93.5549 38.6154C93.2732 38.9038 92.9252 39.1291 92.5109 39.2915C92.0966 39.4506 91.6309 39.5302 91.1139 39.5302ZM96.0106 39.3711V31.7347H97.1839V35.0558H97.9594L100.704 31.7347H102.215L99.1327 35.4137L102.255 39.3711H100.744L98.2379 36.1495H97.1839V39.3711H96.0106ZM103.043 32.8285V31.7347H109.247V32.8285H106.741V39.3711H105.568V32.8285H103.043ZM114.796 39.3711V31.7347H115.969V35.0558H116.745L119.489 31.7347H121.001L117.918 35.4137L121.04 39.3711H119.529L117.023 36.1495H115.969V39.3711H114.796ZM125.053 39.5302C124.364 39.5302 123.759 39.3661 123.239 39.038C122.722 38.7099 122.317 38.2508 122.026 37.6609C121.737 37.0709 121.593 36.3815 121.593 35.5927C121.593 34.7972 121.737 34.1029 122.026 33.5096C122.317 32.9163 122.722 32.4556 123.239 32.1275C123.759 31.7994 124.364 31.6353 125.053 31.6353C125.743 31.6353 126.346 31.7994 126.863 32.1275C127.383 32.4556 127.788 32.9163 128.076 33.5096C128.368 34.1029 128.514 34.7972 128.514 35.5927C128.514 36.3815 128.368 37.0709 128.076 37.6609C127.788 38.2508 127.383 38.7099 126.863 39.038C126.346 39.3661 125.743 39.5302 125.053 39.5302ZM125.053 38.4762C125.577 38.4762 126.008 38.342 126.346 38.0735C126.684 37.805 126.934 37.4521 127.097 37.0146C127.259 36.5771 127.34 36.1031 127.34 35.5927C127.34 35.0823 127.259 34.6067 127.097 34.1658C126.934 33.725 126.684 33.3687 126.346 33.0969C126.008 32.8252 125.577 32.6893 125.053 32.6893C124.53 32.6893 124.099 32.8252 123.761 33.0969C123.423 33.3687 123.173 33.725 123.01 34.1658C122.848 34.6067 122.767 35.0823 122.767 35.5927C122.767 36.1031 122.848 36.5771 123.01 37.0146C123.173 37.4521 123.423 37.805 123.761 38.0735C124.099 38.342 124.53 38.4762 125.053 38.4762ZM134.431 37.7802L137.096 31.7347H138.209L134.908 39.3711H133.954L130.712 31.7347H131.806L134.431 37.7802ZM131.428 31.7347V39.3711H130.255V31.7347H131.428ZM137.434 39.3711V31.7347H138.607V39.3711H137.434ZM142.952 39.5501C142.468 39.5501 142.029 39.4589 141.634 39.2766C141.24 39.091 140.927 38.8242 140.695 38.4762C140.463 38.1249 140.347 37.7006 140.347 37.2035C140.347 36.766 140.433 36.4113 140.605 36.1396C140.778 35.8645 141.008 35.649 141.296 35.4933C141.585 35.3375 141.903 35.2215 142.251 35.1452C142.602 35.0657 142.955 35.0027 143.31 34.9563C143.774 34.8967 144.15 34.8519 144.438 34.8221C144.73 34.7889 144.942 34.7343 145.075 34.658C145.211 34.5818 145.279 34.4492 145.279 34.2603V34.2205C145.279 33.73 145.144 33.3488 144.876 33.0771C144.611 32.8053 144.208 32.6694 143.668 32.6694C143.108 32.6694 142.669 32.792 142.35 33.0373C142.032 33.2826 141.808 33.5444 141.679 33.8228L140.566 33.4251C140.764 32.9611 141.03 32.5998 141.361 32.3413C141.696 32.0794 142.06 31.8971 142.455 31.7944C142.852 31.6883 143.244 31.6353 143.628 31.6353C143.873 31.6353 144.155 31.6651 144.473 31.7248C144.795 31.7811 145.105 31.8988 145.403 32.0778C145.704 32.2567 145.955 32.5269 146.154 32.8881C146.352 33.2494 146.452 33.7333 146.452 34.3398V39.3711H145.279V38.337H145.219C145.139 38.5027 145.007 38.68 144.821 38.869C144.636 39.0579 144.389 39.2186 144.08 39.3512C143.772 39.4838 143.396 39.5501 142.952 39.5501ZM143.131 38.4961C143.595 38.4961 143.986 38.4049 144.304 38.2227C144.626 38.0404 144.868 37.805 145.03 37.5167C145.196 37.2283 145.279 36.9251 145.279 36.6069V35.533C145.229 35.5927 145.119 35.6474 144.95 35.6971C144.785 35.7435 144.593 35.7849 144.374 35.8214C144.158 35.8545 143.948 35.8844 143.742 35.9109C143.54 35.9341 143.376 35.954 143.25 35.9705C142.945 36.0103 142.66 36.0749 142.395 36.1644C142.133 36.2506 141.921 36.3815 141.759 36.5572C141.6 36.7295 141.52 36.9648 141.52 37.2631C141.52 37.6708 141.671 37.979 141.972 38.1879C142.277 38.3933 142.664 38.4961 143.131 38.4961ZM153.654 35.016V36.1097H149.438V35.016H153.654ZM149.717 31.7347V39.3711H148.543V31.7347H149.717ZM154.549 31.7347V39.3711H153.376V31.7347H154.549ZM155.826 41.5586V38.2773H156.463C156.619 38.1149 156.753 37.9393 156.866 37.7504C156.978 37.5614 157.076 37.3377 157.159 37.0792C157.245 36.8174 157.318 36.4992 157.378 36.1246C157.437 35.7468 157.49 35.2911 157.537 34.7575L157.795 31.7347H162.648V38.2773H163.821V41.5586H162.648V39.3711H157V41.5586H155.826ZM157.795 38.2773H161.474V32.8285H158.889L158.69 34.7575C158.607 35.5562 158.505 36.2539 158.382 36.8505C158.259 37.4471 158.064 37.9227 157.795 38.2773ZM166.342 34.4989H168.53C169.425 34.4989 170.109 34.726 170.583 35.18C171.057 35.6341 171.294 36.2092 171.294 36.9052C171.294 37.3626 171.188 37.7785 170.976 38.1531C170.764 38.5243 170.452 38.8209 170.041 39.043C169.63 39.2617 169.126 39.3711 168.53 39.3711H165.328V31.7347H166.501V38.2773H168.53C168.994 38.2773 169.375 38.1547 169.673 37.9094C169.972 37.6642 170.121 37.3493 170.121 36.9648C170.121 36.5605 169.972 36.2307 169.673 35.9755C169.375 35.7203 168.994 35.5927 168.53 35.5927H166.342V34.4989ZM172.507 39.3711V31.7347H173.68V39.3711H172.507ZM185.811 39.3711L182.311 34.6978H181.058V39.3711H179.825V29.1893H181.058V33.604H181.595L185.671 29.1893H187.143L183.026 33.6637L187.282 39.3711H185.811ZM190.914 39.5501C190.43 39.5501 189.991 39.4589 189.596 39.2766C189.202 39.091 188.889 38.8242 188.656 38.4762C188.424 38.1249 188.308 37.7006 188.308 37.2035C188.308 36.766 188.395 36.4113 188.567 36.1396C188.739 35.8645 188.97 35.649 189.258 35.4933C189.546 35.3375 189.865 35.2215 190.213 35.1452C190.564 35.0657 190.917 35.0027 191.272 34.9563C191.736 34.8967 192.112 34.8519 192.4 34.8221C192.692 34.7889 192.904 34.7343 193.036 34.658C193.172 34.5818 193.24 34.4492 193.24 34.2603V34.2205C193.24 33.73 193.106 33.3488 192.838 33.0771C192.572 32.8053 192.17 32.6694 191.63 32.6694C191.069 32.6694 190.63 32.792 190.312 33.0373C189.994 33.2826 189.77 33.5444 189.641 33.8228L188.527 33.4251C188.726 32.9611 188.991 32.5998 189.323 32.3413C189.657 32.0794 190.022 31.8971 190.416 31.7944C190.814 31.6883 191.205 31.6353 191.59 31.6353C191.835 31.6353 192.117 31.6651 192.435 31.7248C192.756 31.7811 193.066 31.8988 193.365 32.0778C193.666 32.2567 193.916 32.5269 194.115 32.8881C194.314 33.2494 194.414 33.7333 194.414 34.3398V39.3711H193.24V38.337H193.181C193.101 38.5027 192.969 38.68 192.783 38.869C192.597 39.0579 192.35 39.2186 192.042 39.3512C191.734 39.4838 191.358 39.5501 190.914 39.5501ZM191.093 38.4961C191.557 38.4961 191.948 38.4049 192.266 38.2227C192.587 38.0404 192.829 37.805 192.992 37.5167C193.157 37.2283 193.24 36.9251 193.24 36.6069V35.533C193.191 35.5927 193.081 35.6474 192.912 35.6971C192.746 35.7435 192.554 35.7849 192.335 35.8214C192.12 35.8545 191.91 35.8844 191.704 35.9109C191.502 35.9341 191.338 35.954 191.212 35.9705C190.907 36.0103 190.622 36.0749 190.357 36.1644C190.095 36.2506 189.883 36.3815 189.72 36.5572C189.561 36.7295 189.482 36.9648 189.482 37.2631C189.482 37.6708 189.633 37.979 189.934 38.1879C190.239 38.3933 190.625 38.4961 191.093 38.4961ZM196.505 39.3711V31.7347H202.511V39.3711H201.337V32.8285H197.678V39.3711H196.505ZM205.777 37.641L209.456 31.7347H210.808V39.3711H209.635V33.4648L205.976 39.3711H204.604V31.7347H205.777V37.641ZM220.683 29.1893V39.3711H219.45V30.283H214.319V39.3711H213.086V29.1893H220.683ZM225.208 39.5501C224.724 39.5501 224.285 39.4589 223.89 39.2766C223.496 39.091 223.183 38.8242 222.951 38.4762C222.719 38.1249 222.603 37.7006 222.603 37.2035C222.603 36.766 222.689 36.4113 222.861 36.1396C223.033 35.8645 223.264 35.649 223.552 35.4933C223.841 35.3375 224.159 35.2215 224.507 35.1452C224.858 35.0657 225.211 35.0027 225.566 34.9563C226.03 34.8967 226.406 34.8519 226.694 34.8221C226.986 34.7889 227.198 34.7343 227.331 34.658C227.467 34.5818 227.534 34.4492 227.534 34.2603V34.2205C227.534 33.73 227.4 33.3488 227.132 33.0771C226.867 32.8053 226.464 32.6694 225.924 32.6694C225.364 32.6694 224.924 32.792 224.606 33.0373C224.288 33.2826 224.064 33.5444 223.935 33.8228L222.821 33.4251C223.02 32.9611 223.285 32.5998 223.617 32.3413C223.952 32.0794 224.316 31.8971 224.711 31.7944C225.108 31.6883 225.499 31.6353 225.884 31.6353C226.129 31.6353 226.411 31.6651 226.729 31.7248C227.051 31.7811 227.36 31.8988 227.659 32.0778C227.96 32.2567 228.211 32.5269 228.409 32.8881C228.608 33.2494 228.708 33.7333 228.708 34.3398V39.3711H227.534V38.337H227.475C227.395 38.5027 227.263 38.68 227.077 38.869C226.891 39.0579 226.645 39.2186 226.336 39.3512C226.028 39.4838 225.652 39.5501 225.208 39.5501ZM225.387 38.4961C225.851 38.4961 226.242 38.4049 226.56 38.2227C226.882 38.0404 227.123 37.805 227.286 37.5167C227.452 37.2283 227.534 36.9251 227.534 36.6069V35.533C227.485 35.5927 227.375 35.6474 227.206 35.6971C227.041 35.7435 226.848 35.7849 226.63 35.8214C226.414 35.8545 226.204 35.8844 225.998 35.9109C225.796 35.9341 225.632 35.954 225.506 35.9705C225.201 36.0103 224.916 36.0749 224.651 36.1644C224.389 36.2506 224.177 36.3815 224.015 36.5572C223.855 36.7295 223.776 36.9648 223.776 37.2631C223.776 37.6708 223.927 37.979 224.228 38.1879C224.533 38.3933 224.919 38.4961 225.387 38.4961ZM230.799 42.2347V31.7347H231.933V32.9478H232.072C232.158 32.8152 232.277 32.6462 232.43 32.4407C232.586 32.2319 232.808 32.0463 233.096 31.8839C233.388 31.7182 233.782 31.6353 234.279 31.6353C234.922 31.6353 235.489 31.796 235.98 32.1175C236.47 32.439 236.853 32.8948 237.128 33.4847C237.403 34.0747 237.541 34.7707 237.541 35.5728C237.541 36.3815 237.403 37.0825 237.128 37.6758C236.853 38.2657 236.472 38.7231 235.985 39.0479C235.497 39.3694 234.936 39.5302 234.299 39.5302C233.809 39.5302 233.416 39.449 233.121 39.2866C232.826 39.1209 232.599 38.9336 232.44 38.7248C232.281 38.5127 232.158 38.337 232.072 38.1978H231.973V42.2347H230.799ZM231.953 35.5529C231.953 36.1296 232.037 36.6384 232.206 37.0792C232.375 37.5167 232.622 37.8597 232.947 38.1083C233.272 38.3536 233.67 38.4762 234.14 38.4762C234.631 38.4762 235.04 38.3469 235.368 38.0884C235.7 37.8266 235.948 37.4753 236.114 37.0344C236.283 36.5903 236.367 36.0965 236.367 35.5529C236.367 35.016 236.285 34.5321 236.119 34.1012C235.956 33.667 235.71 33.324 235.378 33.0721C235.05 32.8169 234.637 32.6893 234.14 32.6893C233.663 32.6893 233.262 32.8103 232.937 33.0522C232.612 33.2908 232.367 33.6256 232.201 34.0565C232.036 34.484 231.953 34.9828 231.953 35.5529ZM240.295 34.4989H242.482C243.377 34.4989 244.062 34.726 244.535 35.18C245.009 35.6341 245.246 36.2092 245.246 36.9052C245.246 37.3626 245.14 37.7785 244.928 38.1531C244.716 38.5243 244.405 38.8209 243.994 39.043C243.583 39.2617 243.079 39.3711 242.482 39.3711H239.28V31.7347H240.454V38.2773H242.482C242.946 38.2773 243.327 38.1547 243.626 37.9094C243.924 37.6642 244.073 37.3493 244.073 36.9648C244.073 36.5605 243.924 36.2307 243.626 35.9755C243.327 35.7203 242.946 35.5927 242.482 35.5927H240.295V34.4989ZM246.459 39.3711V31.7347H247.633V39.3711H246.459Z" fill="#171717" fill-opacity="0.6"/>
<defs>
<linearGradient id="paint0_linear_20_5998" x1="25" y1="0.0996094" x2="25" y2="62.0996" gradientUnits="userSpaceOnUse">
<stop stop-color="#03B0FF"/>
<stop offset="0.504808" stop-color="#0686FF"/>
<stop offset="1" stop-color="#0C88FA"/>
</linearGradient>
</defs>
</svg>
