<svg width="40" height="41" viewBox="0 0 40 41" fill="none" xmlns="http://www.w3.org/2000/svg">
<path d="M0 10.0996C0 4.57676 4.47715 0.0996094 10 0.0996094H30C35.5228 0.0996094 40 4.57676 40 10.0996V30.0996C40 35.6225 35.5228 40.0996 30 40.0996H10C4.47715 40.0996 0 35.6225 0 30.0996V10.0996Z" fill="#818C99" fill-opacity="0.1"/>
<path d="M5 18.0234V11.2281H6.80652V14.2158H6.83431L9.32175 11.2281H11.4896L8.97435 14.1464L11.6424 18.0234H9.54409L7.6403 15.1886L6.80652 16.1474V18.0234H5Z" fill="#171717"/>
<path d="M15.1667 18.1485C13.3046 18.1485 11.9288 16.745 11.9288 14.6466C11.9288 12.59 13.3046 11.1309 15.125 11.1309C15.9171 11.1309 16.6397 11.4366 17.1261 12.0202L17.1539 12.0063V11.2281H18.9743V18.0234H17.2372V17.2174L17.2094 17.2035C16.737 17.815 16.056 18.1485 15.1667 18.1485ZM15.5141 16.5087C16.4451 16.5087 17.2372 15.7722 17.2372 14.6605C17.2372 13.5627 16.4868 12.7567 15.5141 12.7567C14.5275 12.7567 13.7771 13.4932 13.7771 14.6605C13.7771 15.7444 14.4858 16.5087 15.5141 16.5087Z" fill="#171717"/>
<path d="M20.7215 18.0234V11.2281H26.7803V18.0234H24.9599V12.7706H22.5419V18.0234H20.7215Z" fill="#171717"/>
<path d="M28.5959 18.0234V11.2281H30.4024V15.5499H30.4302L33.2511 11.2281H34.9743V18.0234H33.1678V13.8962H33.14L30.3468 18.0234H28.5959Z" fill="#171717"/>
<path d="M5.04437 26.4509V19.9866H10.8081V26.4509H9.07634V21.454H6.77613V26.4509H5.04437Z" fill="#171717"/>
<path d="M15.2461 26.5699C13.4746 26.5699 12.1659 25.2347 12.1659 23.2386C12.1659 21.2821 13.4746 19.894 15.2064 19.894C15.9599 19.894 16.6473 20.1849 17.11 20.7401L17.1365 20.7269V19.9866H18.8682V26.4509H17.2158V25.6842L17.1893 25.671C16.7399 26.2527 16.0921 26.5699 15.2461 26.5699ZM15.5766 25.01C16.4623 25.01 17.2158 24.3094 17.2158 23.2518C17.2158 22.2075 16.5019 21.4407 15.5766 21.4407C14.638 21.4407 13.9241 22.1414 13.9241 23.2518C13.9241 24.2829 14.5983 25.01 15.5766 25.01Z" fill="#171717"/>
<path d="M20.5312 29.0684V19.9866H22.263V20.7269H22.2894C22.7521 20.1849 23.4395 19.894 24.2327 19.894C25.9777 19.894 27.2864 21.2821 27.2864 23.2386C27.2864 25.2347 25.9777 26.5699 24.1798 26.5699C23.3734 26.5699 22.7389 26.2659 22.2894 25.7239L22.263 25.7371V29.0684H20.5312ZM23.8758 25.01C24.8408 25.01 25.5282 24.2829 25.5282 23.2518C25.5282 22.1414 24.7879 21.4407 23.8625 21.4407C22.8711 21.4407 22.1837 22.2075 22.1837 23.2518C22.1837 24.3094 22.924 25.01 23.8758 25.01Z" fill="#171717"/>
<path d="M31.3784 26.5699C29.607 26.5699 28.2982 25.2347 28.2982 23.2386C28.2982 21.2821 29.607 19.894 31.3387 19.894C32.0923 19.894 32.7797 20.1849 33.2424 20.7401L33.2688 20.7269V19.9866H35.0006V26.4509H33.3481V25.6842L33.3217 25.671C32.8722 26.2527 32.2245 26.5699 31.3784 26.5699ZM31.7089 25.01C32.5946 25.01 33.3481 24.3094 33.3481 23.2518C33.3481 22.2075 32.6343 21.4407 31.7089 21.4407C30.7703 21.4407 30.0564 22.1414 30.0564 23.2518C30.0564 24.2829 30.7306 25.01 31.7089 25.01Z" fill="#171717"/>
</svg>
