<svg width="40" height="41" viewBox="0 0 40 41" fill="none" xmlns="http://www.w3.org/2000/svg">
<path d="M0 10.0996C0 4.57676 4.47715 0.0996094 10 0.0996094H30C35.5228 0.0996094 40 4.57676 40 10.0996V30.0996C40 35.6225 35.5228 40.0996 30 40.0996H10C4.47715 40.0996 0 35.6225 0 30.0996V10.0996Z" fill="#818C99" fill-opacity="0.1"/>
<path d="M12.5569 24.6975L9.60213 20.7773H8.93754V24.6975H6.99316V15.501H8.93754V19.1742H9.32821L12.3817 15.501H14.8021L11.2142 19.7669L14.9682 24.6975H12.5569Z" fill="#171717"/>
<path d="M17.486 24.6975H15.4024L18.5772 15.501H21.0829L24.2532 24.6975H22.1696L19.866 17.6025H19.7941L17.486 24.6975ZM17.3558 21.0826H22.2773V22.6004H17.3558V21.0826Z" fill="#171717"/>
<path d="M25.3149 15.501H27.2548V21.2847H27.3311L31.3052 15.501H33.0071V24.6975H31.0627V18.9092H30.9953L26.9988 24.6975H25.3149V15.501Z" fill="#171717"/>
</svg>
