<svg width="40" height="41" viewBox="0 0 40 41" fill="none" xmlns="http://www.w3.org/2000/svg">
<path d="M0 10.0996C0 4.57676 4.47715 0.0996094 10 0.0996094H30C35.5228 0.0996094 40 4.57676 40 10.0996V30.0996C40 35.6225 35.5228 40.0996 30 40.0996H10C4.47715 40.0996 0 35.6225 0 30.0996V10.0996Z" fill="#818C99" fill-opacity="0.1"/>
<path fill-rule="evenodd" clip-rule="evenodd" d="M12.468 13.7656H10.134C9.46698 13.7656 9.33398 14.0796 9.33398 14.4256C9.33398 15.0436 10.125 18.1086 13.018 22.1626C14.947 24.9316 17.664 26.4326 20.137 26.4326C21.62 26.4326 21.804 26.0986 21.804 25.5246V23.4326C21.804 22.7656 21.944 22.6326 22.414 22.6326C22.76 22.6326 23.354 22.8056 24.738 24.1406C26.321 25.7226 26.581 26.4326 27.471 26.4326H29.805C30.472 26.4326 30.805 26.0986 30.613 25.4406C30.403 24.7856 29.647 23.8346 28.645 22.7066C28.101 22.0636 27.285 21.3716 27.038 21.0266C26.692 20.5806 26.79 20.3826 27.038 19.9866C27.038 19.9866 29.881 15.9826 30.178 14.6236C30.326 14.1286 30.178 13.7656 29.472 13.7656H27.138C26.545 13.7656 26.271 14.0796 26.123 14.4256C26.123 14.4256 24.936 17.3176 23.255 19.1956C22.711 19.7406 22.463 19.9136 22.167 19.9136C22.018 19.9136 21.804 19.7406 21.804 19.2456V14.6236C21.804 14.0296 21.631 13.7656 21.137 13.7656H17.469C17.099 13.7656 16.875 14.0406 16.875 14.3016C16.875 14.8646 17.716 14.9946 17.803 16.5756V20.0126C17.803 20.7656 17.667 20.9026 17.37 20.9026C16.579 20.9026 14.654 17.9966 13.513 14.6726C13.289 14.0266 13.064 13.7656 12.468 13.7656Z" fill="#171717"/>
</svg>
