<svg width="40" height="41" viewBox="0 0 40 41" fill="none" xmlns="http://www.w3.org/2000/svg">
<path d="M0 10.5996C0 5.07676 4.47715 0.599609 10 0.599609H30C35.5228 0.599609 40 5.07676 40 10.5996V30.5996C40 36.1225 35.5228 40.5996 30 40.5996H10C4.47715 40.5996 0 36.1225 0 30.5996V10.5996Z" fill="#818C99" fill-opacity="0.04"/>
<path d="M10 1.09961H30C35.2467 1.09961 39.5 5.3529 39.5 10.5996V30.5996C39.5 35.8463 35.2467 40.0996 30 40.0996H10C4.7533 40.0996 0.5 35.8463 0.5 30.5996V10.5996C0.5 5.3529 4.7533 1.09961 10 1.09961Z" stroke="#171717" stroke-opacity="0.04"/>
<path d="M10.6995 14.567C12.4677 14.567 13.901 13.1189 13.901 11.3326C13.901 9.54634 12.4677 8.09827 10.6995 8.09827C8.9314 8.09827 7.49805 9.54634 7.49805 11.3326C7.49805 13.1189 8.9314 14.567 10.6995 14.567Z" fill="#007AFF"/>
<path d="M29.2996 14.5676C31.0677 14.5676 32.5011 13.1195 32.5011 11.3333C32.5011 9.54696 31.0677 8.09888 29.2996 8.09888C27.5315 8.09888 26.0981 9.54696 26.0981 11.3333C26.0981 13.1195 27.5315 14.5676 29.2996 14.5676Z" fill="#007AFF"/>
<path d="M20.0021 23.8353C21.7703 23.8353 23.2036 22.3872 23.2036 20.6009C23.2036 18.8146 21.7703 17.3665 20.0021 17.3665C18.234 17.3665 16.8007 18.8146 16.8007 20.6009C16.8007 22.3872 18.234 23.8353 20.0021 23.8353Z" fill="#007AFF"/>
<path d="M10.6998 33.1007C12.4679 33.1007 13.9013 31.6526 13.9013 29.8663C13.9013 28.08 12.4679 26.632 10.6998 26.632C8.93167 26.632 7.49832 28.08 7.49832 29.8663C7.49832 31.6526 8.93167 33.1007 10.6998 33.1007Z" fill="#007AFF"/>
<path d="M29.2999 33.1007C31.068 33.1007 32.5014 31.6526 32.5014 29.8663C32.5014 28.08 31.068 26.632 29.2999 26.632C27.5318 26.632 26.0984 28.08 26.0984 29.8663C26.0984 31.6526 27.5318 33.1007 29.2999 33.1007Z" fill="#007AFF"/>
<path d="M20.3073 26.6471C20.2815 26.645 20.2547 26.6428 20.229 26.6406C19.0179 26.5551 17.8775 26.0343 17.0136 25.1734L15.3866 23.5524C14.5163 22.6851 13.9986 21.5287 13.8872 20.2986C13.8861 20.2867 13.885 20.2737 13.8839 20.2618C13.7285 18.7231 12.481 17.4952 10.9536 17.3761C8.98366 17.2223 7.35344 18.8714 7.50885 20.8627C7.62997 22.4133 8.85933 23.6759 10.392 23.8199C10.4177 23.8221 10.4445 23.8242 10.4702 23.8264C11.6814 23.9119 12.8218 24.4328 13.6867 25.2936L15.3137 26.9146C16.184 27.7819 16.7017 28.9384 16.8132 30.1684C16.8143 30.1804 16.8153 30.1934 16.8164 30.2053C16.9718 31.7439 18.2205 32.9719 19.7467 33.091C21.7167 33.2447 23.3469 31.5956 23.1915 29.6043C23.0704 28.0537 21.8399 26.7911 20.3083 26.6471H20.3073Z" fill="#007AFF"/>
<path d="M29.5678 17.3772C29.5549 17.3772 29.5431 17.375 29.5302 17.3739C28.2741 17.2841 27.0876 16.7643 26.1969 15.8645L24.6771 14.3291C23.8079 13.4509 23.2945 12.2847 23.1884 11.046C23.1884 11.034 23.1862 11.021 23.1852 11.0091C23.0373 9.46721 21.7907 8.23171 20.2624 8.10827C18.2881 7.9491 16.6514 9.60148 16.809 11.5971C16.9312 13.1423 18.153 14.4005 19.6804 14.551C19.6921 14.5521 19.705 14.5532 19.7168 14.5543C20.9419 14.6604 22.0962 15.1801 22.9665 16.0583L24.616 17.7248C25.4724 18.5899 25.989 19.7323 26.1176 20.9494C26.1187 20.9613 26.1198 20.9732 26.1219 20.9851C26.2988 22.5065 27.541 23.7084 29.0522 23.8243C31.0168 23.9737 32.6417 22.33 32.4916 20.3452C32.3727 18.7773 31.1197 17.505 29.5678 17.3761V17.3772Z" fill="#007AFF"/>
</svg>
