<svg width="48" height="49" viewBox="0 0 48 49" fill="none" xmlns="http://www.w3.org/2000/svg">
<rect y="0.296875" width="48" height="48" rx="14" fill="#007AFF"/>
<path d="M30.6667 34.9688C30.6667 32.7596 27.6819 30.9688 24 30.9688C20.3181 30.9688 17.3333 32.7596 17.3333 34.9688M36 30.9692C36 29.329 34.3545 27.9193 32 27.3021M12 30.9692C12 29.329 13.6455 27.9193 16 27.3021M32 21.9502C32.8183 21.2178 33.3333 20.1534 33.3333 18.9688C33.3333 16.7596 31.5425 14.9688 29.3333 14.9688C28.3089 14.9688 27.3743 15.3539 26.6667 15.9873M16 21.9502C15.1817 21.2178 14.6667 20.1534 14.6667 18.9688C14.6667 16.7596 16.4575 14.9688 18.6667 14.9688C19.6911 14.9688 20.6257 15.3539 21.3333 15.9873M24 26.9688C21.7909 26.9688 20 25.1779 20 22.9688C20 20.7596 21.7909 18.9688 24 18.9688C26.2091 18.9688 28 20.7596 28 22.9688C28 25.1779 26.2091 26.9688 24 26.9688Z" stroke="white" stroke-width="2.66667" stroke-linecap="round" stroke-linejoin="round"/>
</svg>
