<svg width="70" height="71" viewBox="0 0 70 71" fill="none" xmlns="http://www.w3.org/2000/svg">
<g clip-path="url(#clip0_485_23914)">
<path d="M0 15.1016C0 6.81729 6.71573 0.101562 15 0.101562H55C63.2843 0.101562 70 6.81729 70 15.1016V55.1016C70 63.3858 63.2843 70.1016 55 70.1016H15C6.71573 70.1016 0 63.3858 0 55.1016V15.1016Z" fill="white"/>
<path d="M47.318 75.8999C43.06 75.8999 39.2677 75.1681 35.9411 73.7044C32.6335 72.2217 30.0198 70.1877 28.0999 67.6025C26.199 64.9983 25.22 61.9948 25.163 58.5922H37.5949C37.6709 60.0179 38.1366 61.2725 38.992 62.356C39.8665 63.4205 41.026 64.2474 42.4707 64.8367C43.9154 65.426 45.5407 65.7206 47.3465 65.7206C49.2284 65.7206 50.8917 65.388 52.3364 64.7226C53.7811 64.0573 54.9121 63.1354 55.7295 61.9568C56.5469 60.7783 56.9556 59.4191 56.9556 57.8794C56.9556 56.3206 56.5184 54.9425 55.6439 53.7449C54.7885 52.5283 53.553 51.5779 51.9372 50.8936C50.3404 50.2092 48.4395 49.8671 46.2345 49.8671H40.7884V40.7998H46.2345C48.0974 40.7998 49.7416 40.4766 51.1673 39.8303C52.612 39.184 53.7335 38.2906 54.5319 37.15C55.3303 35.9905 55.7295 34.6409 55.7295 33.1011C55.7295 31.6374 55.3778 30.3543 54.6745 29.2518C53.9902 28.1303 53.0207 27.2558 51.7661 26.6285C50.5305 26.0013 49.0858 25.6876 47.432 25.6876C45.7593 25.6876 44.229 25.9917 42.8414 26.6C41.4537 27.1893 40.3417 28.0352 39.5053 29.1377C38.6689 30.2403 38.2222 31.5329 38.1652 33.0156H26.332C26.3891 29.651 27.349 26.6856 29.2119 24.1194C31.0748 21.5531 33.584 19.5477 36.7395 18.103C39.914 16.6393 43.4972 15.9075 47.4891 15.9075C51.519 15.9075 55.0452 16.6393 58.0676 18.103C61.09 19.5667 63.4376 21.5436 65.1104 24.0338C66.8022 26.505 67.6386 29.2803 67.6196 32.3598C67.6386 35.6293 66.6217 38.3571 64.5687 40.5432C62.5347 42.7292 59.883 44.1169 56.6134 44.7061V45.1623C60.9094 45.7136 64.179 47.2058 66.4221 49.639C68.6841 52.0531 69.8057 55.0756 69.7867 58.7063C69.8057 62.0329 68.8457 64.9888 66.9068 67.574C64.9869 70.1592 62.3351 72.1932 58.9515 73.6759C55.5679 75.1586 51.6901 75.8999 47.318 75.8999Z" fill="#007AFF"/>
</g>
<path d="M15 0.601562H55C63.0081 0.601562 69.5 7.09343 69.5 15.1016V55.1016C69.5 63.1097 63.0081 69.6016 55 69.6016H15C6.99187 69.6016 0.5 63.1097 0.5 55.1016V15.1016C0.500001 7.09343 6.99187 0.601562 15 0.601562Z" stroke="#007AFF"/>
<defs>
<clipPath id="clip0_485_23914">
<path d="M0 15.1016C0 6.81729 6.71573 0.101562 15 0.101562H55C63.2843 0.101562 70 6.81729 70 15.1016V55.1016C70 63.3858 63.2843 70.1016 55 70.1016H15C6.71573 70.1016 0 63.3858 0 55.1016V15.1016Z" fill="white"/>
</clipPath>
</defs>
</svg>
