<svg width="48" height="48" viewBox="0 0 48 48" fill="none" xmlns="http://www.w3.org/2000/svg">
<rect width="48" height="48" rx="14" fill="#007AFF"/>
<path d="M23.9974 36L23.864 35.7999C22.9378 34.4106 22.4747 33.716 21.8629 33.2131C21.3212 32.7679 20.6971 32.4339 20.0262 32.2301C19.2684 32 18.4335 32 16.7638 32H14.9307C13.4373 32 12.6905 32 12.1201 31.7094C11.6183 31.4537 11.2104 31.0457 10.9547 30.544C10.6641 29.9735 10.6641 29.2268 10.6641 27.7333V16.2667C10.6641 14.7732 10.6641 14.0265 10.9547 13.456C11.2104 12.9543 11.6183 12.5463 12.1201 12.2906C12.6905 12 13.4373 12 14.9307 12H15.4641C18.451 12 19.9445 12 21.0853 12.5813C22.0889 13.0926 22.9048 13.9085 23.4161 14.9121C23.9974 16.0529 23.9974 17.5464 23.9974 20.5333M23.9974 36V20.5333M23.9974 36L24.1308 35.7999C25.057 34.4106 25.5201 33.716 26.1319 33.2131C26.6736 32.7679 27.2977 32.4339 27.9686 32.2301C28.7264 32 29.5613 32 31.231 32H33.0641C34.5575 32 35.3043 32 35.8747 31.7094C36.3765 31.4537 36.7844 31.0457 37.0401 30.544C37.3307 29.9735 37.3307 29.2268 37.3307 27.7333V16.2667C37.3307 14.7732 37.3307 14.0265 37.0401 13.456C36.7844 12.9543 36.3765 12.5463 35.8747 12.2906C35.3043 12 34.5575 12 33.0641 12H32.5307C29.5438 12 28.0503 12 26.9094 12.5813C25.9059 13.0926 25.09 13.9085 24.5787 14.9121C23.9974 16.0529 23.9974 17.5464 23.9974 20.5333" stroke="white" stroke-width="2.66667" stroke-linecap="round" stroke-linejoin="round"/>
</svg>
