<svg width="48" height="49" viewBox="0 0 48 49" fill="none" xmlns="http://www.w3.org/2000/svg">
<rect y="0.101562" width="48" height="48" rx="14" fill="#007AFF"/>
<path d="M28.104 11.5312C30.5988 11.5312 31.7988 11.7633 33.0457 12.4295C34.1652 13.023 35.0808 13.9386 35.6743 15.0581C36.3405 16.305 36.5725 17.5038 36.5725 19.9998V28.2055C36.5725 30.7004 36.3405 31.9004 35.6743 33.1473C35.0808 34.2667 34.1652 35.1824 33.0457 35.7758C31.7988 36.4421 30.6 36.6741 28.104 36.6741H19.8983C17.4034 36.6741 16.2034 36.4421 14.9565 35.7758C13.8371 35.1824 12.9214 34.2667 12.328 33.1473C11.6617 31.9004 11.4297 30.7015 11.4297 28.2055V19.9998C11.4297 17.505 11.6617 16.305 12.328 15.0581C12.9214 13.9386 13.8371 13.023 14.9565 12.4295C16.2034 11.7633 17.4023 11.5312 19.8983 11.5312H28.104ZM28.104 13.817H19.8983C17.7485 13.817 16.904 13.9793 16.0354 14.4455C15.3028 14.8364 14.7348 15.4044 14.344 16.137C13.8777 17.0055 13.7154 17.8501 13.7154 19.9998V28.2055C13.7154 30.3553 13.8777 31.1998 14.344 32.0684C14.7348 32.801 15.3028 33.369 16.0354 33.7598C16.904 34.2261 17.7485 34.3884 19.8983 34.3884H28.104C30.2537 34.3884 31.0983 34.2261 31.9668 33.7598C32.6882 33.3794 33.2778 32.7898 33.6583 32.0684C34.1245 31.1998 34.2868 30.3553 34.2868 28.2055V19.9998C34.2868 17.8501 34.1245 17.0055 33.6583 16.137C33.2778 15.4156 32.6882 14.826 31.9668 14.4455C31.0983 13.9793 30.2537 13.817 28.104 13.817ZM22.8583 28.1027C23.1614 28.1027 23.4521 28.2231 23.6664 28.4374C23.8807 28.6517 24.0011 28.9424 24.0011 29.2455C24.0011 29.5486 23.8807 29.8393 23.6664 30.0537C23.4521 30.268 23.1614 30.3884 22.8583 30.3884H18.2868C17.9837 30.3884 17.693 30.268 17.4787 30.0537C17.2644 29.8393 17.144 29.5486 17.144 29.2455C17.144 28.9424 17.2644 28.6517 17.4787 28.4374C17.693 28.2231 17.9837 28.1027 18.2868 28.1027H22.8583ZM29.7154 22.9598C30.0185 22.9598 30.3092 23.0802 30.5235 23.2946C30.7379 23.5089 30.8583 23.7996 30.8583 24.1027C30.8583 24.4058 30.7379 24.6965 30.5235 24.9108C30.3092 25.1251 30.0185 25.2455 29.7154 25.2455H18.2868C17.9837 25.2455 17.693 25.1251 17.4787 24.9108C17.2644 24.6965 17.144 24.4058 17.144 24.1027C17.144 23.7996 17.2644 23.5089 17.4787 23.2946C17.693 23.0802 17.9837 22.9598 18.2868 22.9598H29.7154ZM29.7154 17.817C30.0185 17.817 30.3092 17.9374 30.5235 18.1517C30.7379 18.366 30.8583 18.6567 30.8583 18.9598C30.8583 19.2629 30.7379 19.5536 30.5235 19.7679C30.3092 19.9823 30.0185 20.1027 29.7154 20.1027H18.2868C17.9837 20.1027 17.693 19.9823 17.4787 19.7679C17.2644 19.5536 17.144 19.2629 17.144 18.9598C17.144 18.6567 17.2644 18.366 17.4787 18.1517C17.693 17.9374 17.9837 17.817 18.2868 17.817H29.7154Z" fill="white"/>
</svg>
