<svg width="70" height="71" viewBox="0 0 70 71" fill="none" xmlns="http://www.w3.org/2000/svg">
<g clip-path="url(#clip0_485_23884)">
<path d="M0 15.1016C0 6.81729 6.71573 0.101562 15 0.101562H55C63.2843 0.101562 70 6.81729 70 15.1016V55.1016C70 63.3858 63.2843 70.1016 55 70.1016H15C6.71573 70.1016 0 63.3858 0 55.1016V15.1016Z" fill="white"/>
<path d="M56.1388 16.7058V75.1016H43.7924V28.4249H43.4503L30.0774 36.8079V25.8587L44.5338 16.7058H56.1388Z" fill="#007AFF"/>
</g>
<path d="M15 0.601562H55C63.0081 0.601562 69.5 7.09343 69.5 15.1016V55.1016C69.5 63.1097 63.0081 69.6016 55 69.6016H15C6.99187 69.6016 0.5 63.1097 0.5 55.1016V15.1016C0.500001 7.09343 6.99187 0.601562 15 0.601562Z" stroke="#007AFF"/>
<defs>
<clipPath id="clip0_485_23884">
<path d="M0 15.1016C0 6.81729 6.71573 0.101562 15 0.101562H55C63.2843 0.101562 70 6.81729 70 15.1016V55.1016C70 63.3858 63.2843 70.1016 55 70.1016H15C6.71573 70.1016 0 63.3858 0 55.1016V15.1016Z" fill="white"/>
</clipPath>
</defs>
</svg>
