<svg width="70" height="71" viewBox="0 0 70 71" fill="none" xmlns="http://www.w3.org/2000/svg">
<g clip-path="url(#clip0_485_23891)">
<path d="M0 15.1016C0 6.81729 6.71573 0.101562 15 0.101562H55C63.2843 0.101562 70 6.81729 70 15.1016V55.1016C70 63.3858 63.2843 70.1016 55 70.1016H15C6.71573 70.1016 0 63.3858 0 55.1016V15.1016Z" fill="white"/>
<path d="M25.7332 75.1016V66.2053L46.5196 46.9587C48.2875 45.2479 49.7702 43.7082 50.9677 42.3395C52.1843 40.9709 53.1062 39.6307 53.7335 38.3191C54.3608 36.9885 54.6745 35.5533 54.6745 34.0136C54.6745 32.3027 54.2848 30.8295 53.5054 29.594C52.7261 28.3394 51.6616 27.3794 50.3119 26.7141C48.9623 26.0298 47.432 25.6876 45.7212 25.6876C43.9344 25.6876 42.3756 26.0488 41.045 26.7711C39.7144 27.4935 38.6879 28.5295 37.9656 29.8791C37.2432 31.2287 36.882 32.835 36.882 34.6979H25.163C25.163 30.8771 26.0279 27.56 27.7577 24.7467C29.4875 21.9333 31.9112 19.7568 35.0287 18.2171C38.1461 16.6773 41.7388 15.9075 45.8068 15.9075C49.9888 15.9075 53.629 16.6488 56.7275 18.1315C59.8449 19.5952 62.2686 21.6292 63.9984 24.2334C65.7282 26.8376 66.5931 29.8221 66.5931 33.1867C66.5931 35.3917 66.1559 37.5682 65.2815 39.7163C64.4261 41.8643 62.8959 44.2499 60.6908 46.8732C58.4858 49.4774 55.3778 52.6044 51.3669 56.2541L42.8414 64.6086V65.0078H67.363V75.1016H25.7332Z" fill="#007AFF"/>
</g>
<path d="M15 0.601562H55C63.0081 0.601562 69.5 7.09343 69.5 15.1016V55.1016C69.5 63.1097 63.0081 69.6016 55 69.6016H15C6.99187 69.6016 0.5 63.1097 0.5 55.1016V15.1016C0.500001 7.09343 6.99187 0.601562 15 0.601562Z" stroke="#007AFF"/>
<defs>
<clipPath id="clip0_485_23891">
<path d="M0 15.1016C0 6.81729 6.71573 0.101562 15 0.101562H55C63.2843 0.101562 70 6.81729 70 15.1016V55.1016C70 63.3858 63.2843 70.1016 55 70.1016H15C6.71573 70.1016 0 63.3858 0 55.1016V15.1016Z" fill="white"/>
</clipPath>
</defs>
</svg>
