<svg width="48" height="49" viewBox="0 0 48 49" fill="none" xmlns="http://www.w3.org/2000/svg">
<rect y="0.296875" width="48" height="48" rx="14" fill="#007AFF"/>
<path d="M17.1929 32.5074C19.0394 34.0382 21.4104 34.9583 23.9963 34.9583C29.8873 34.9583 34.6629 30.1827 34.6629 24.2917C34.6629 23.5329 34.5837 22.7927 34.4331 22.0788M17.1929 32.5074C14.8328 30.5508 13.3296 27.5968 13.3296 24.2917C13.3296 18.4006 18.1052 13.625 23.9963 13.625C29.1286 13.625 33.4143 17.2497 34.4331 22.0788M17.1929 32.5074C19.8003 31.9113 22.9022 30.6688 26.0308 28.8625C29.6713 26.7606 32.6325 24.3083 34.4331 22.0788M17.1929 32.5074C13.954 33.2478 11.4782 32.9907 10.6623 31.5775C9.82187 30.1218 10.9245 27.7542 13.3294 25.237M34.4331 22.0788C36.1022 20.0122 36.7742 18.1371 36.0657 16.91C35.3473 15.6657 33.3421 15.3175 30.6623 15.7574" stroke="white" stroke-width="2.66667" stroke-linecap="round" stroke-linejoin="round"/>
</svg>
